<?xml version="1.0" encoding="UTF-8"?>
<svg id="_레이어_1" data-name="레이어_1" xmlns="http://www.w3.org/2000/svg" viewBox="0 0 50 40.52">
  <defs>
    <style>
      .cls-1 {
        fill: #040000;
      }
    </style>
  </defs>
  <path class="cls-1" d="M49.95,17.48c-.08-.31-.02-.76-.39-.64l.16.27c-.24.3-.57.03-.91-.22-.33-.26-.68-.52-.83-.48.59,0,.56-.33.51-.66-.03-.32-.05-.67.75-.63-.15-.16-.45-.27-.65-.1-.08-.28,0-.45.4-.34-.78-.81-.88-.23-1.46-.94.14-.13.32-.04.55-.1-.6-.13-1.15-.19-1.61-.77.11-.06.13-.23.3-.08-.52-.4-1.12-.5-1.68-.6-.56-.1-1.09-.19-1.65-.58.65-.64-.35-.41-.21-1.09-.26,0-.52,0-.77.01l.2.4c-.62-.17-1.23.24-1.7-.05.16-.08.32-.15.49-.22-.39-.02-.77-.02-1.15,0,.2.11.4.22.6.33-.63.29-.04.89-.78.62.17-.06-.59-.05-.81-.47h0c-.21.22-.54.45-.83.27.01-.22.37-.78.38-.92-.19.29-.42.34-.67.39-.25.05-.51.11-.93.44.23-.15.55-.53.6-.6-.19.16-.39.33-.6.49-.04-.15.03-.22.36-.52-.37-.06-.82.9-1.04.55.1-.04.17-.12.36-.2-.04-.02-.08-.03-.13-.03h-.08s.01-.05.01-.07c.14-.4-.03-.72.33-1.29.83-.39.06.36.8-.08,0-.23-.14-.46-.24-.87l-.04-.15-.02-.26-.03-.52c0-.34-.02-.68.03-1.02l-.08.25c-.5-.1-.37-.32-.21-.64.17-.31.37-.76.05-1.05.11.15.6.11.48.09-.06-1.03-.91-2.06-2.18-2.79.1-.03.2-.04.31-.06-.26-.6-1.14-1.08-1.64-1.42-.28.16-.56,0-.52.41-.55-1.04-1.52-1.06-2.31-.97-.82.09-1.55.29-2.23-.37C29.46.21,29.71,0,29.58,0l-1.25.16c.08.44.15.27.39.63-.17.25-.52.43-.81.43.55-.27.02-.7-.22-.95.04.14-.05.28-.03.42-.64-.78-.12.87-.98.36l.04-.23c-.33.12-.61.44-.96.39-.18-.5.33-.25.34-.67-.52.05-.9,1.02-1.4.57.19-.17.5-.2.7-.36-.55-.55-.6-.39-.99-.43h.04c-.3-.05-.61-.08-.93-.11l.26.12c-.21.7-.5.83-.84.92-.33.1-.73.15-.98.7.51-1.05-.02-.49-.16-1.05-.27-.07-.68-.11-.64-.3-.23.6-.87-.03-1.12.87-.12-.16-.42.23-.58-.22-.44.44.29.2.36.43-.22.5-.73.6-1.3.88-.58.27-1.16.74-1.18,1.54-.16.58-.1.97,0,1.35.09.37.2.71.22,1.18-.19.1-.33,0-.42-.14-.09-.14-.13-.31-.13-.31-.43.41-.48.86-.34,1.38-.15-.12-.29-.04-.52.1-.01.44.64.33.35.86-.2-.09-.53-.22-.73-.45.07.26.19.51.32.75-.05-.01-.09-.03-.14-.04-.41-.11-.88-.22-.71-.73-.65.79-1.94.15-2.86.7.05-.07.15-.22.23-.17-.51-.07-.68-.33-1.03-.47-.02.73-.79.98-1.11,1.51-.73-.61.22-.91-.07-1.56.11.57-1,.8-.68,1.25-.57-.33-.45-.12-.85-.65.17.91-.41.27-.61.95-.81-.19-.47-.76-1.1-.21-.47-.11.08-.69.08-.69-.79.31-.09.78-.09,1.21-.76.57-.61-.28-1.07-.45-.48.46-.54,1.24-.91,1.46-.09-.08-.19-.06-.18-.24-.21.79-1.53,1.19-1.52,2.23-.08,0-.14-.02-.19-.05.34.15.61.39.78.57-.21.26-.06.73-.49.54.13-.15,0-.28-.04-.44-.03.13-.05.26-.07.4-.72-.16.13-.52-.23-.83-.34.7-.33,1.66-.74,2.02-.64-.22.49-1.2-.39-.88.23-.2.46-.4.7-.58-1.23-.07.39-.39-.86-.54-.88.93-.52,1.33-1.2,2.4.23.39.52.11.76.49.02.87-.41,1.05-.84,1.25-.43.19-.83.4-.47,1.1.4.39,1.18.51.78,1.36-.25-.08-.5-.18-.74-.28-.01.61.27.76.5.91.23.15.39.28.29.92-.33-.14-.41-.86-.46-.67-.42.91.5.49.65,1.06l-.58.31c.49,1.26,1.65,2.33,2.8,3.15-.18.1-.52.07-.38.45.55.33,1.11.67,1.69.99,0,.02-.02.04-.03.05-.48.94-.74,1.98-1.15,2.81.4.17.32.69.35,1.2.02.51.15.99.7.89-.1.62-.18.89-.23,1.2-.03.31-.04.69.25,1.53.21.42.95.18,1.36.51l-.45.38c.31.07.63.11.94.15-.09.25-.16.51-.23.76.16.08.31.17.48.25-.13-.16-.13-.49,0-.58.7.34,1.2,1.5,1.06,1.76.61.21,1.22.36,1.81.47-.1.15-.29.15-.5.15.71.03-.26.64.7.54-.05-.17.2-.29.26-.39.25.5,1.18.86,1.89.9l-.24.35c1.22.47,2.64.43,3.97.6-.46-.25-.25-.92.14-.94l.08.63c.29-.35-.38-.28.19-.68.48.12.27.73-.05.9l.64-.16c.02.19-.13.27-.19.5.27-.35,1.09.69,1.51.03l.04.18c1.49,0,2.2-.3,3.46-.64-.11-.52.41-.54.62-1.07.46-.07.97-.15,1.5-.3.55-.18,1.13-.47,1.56-.92.43-.8-.14-.5-.11-.98.2.15.48-.02.7-.15.13-.08.16-.06.21-.04.04.04.11.05.1.2.1-.17.12-.23.12-.29.04-.21.05-.34-.03-1.11-.1-.21-.16-.23-.24-.49,0-.25.13-.02.24.35l.02.1-.03-.16c0-.06-.02-.1-.02-.15l.02.09c.03.15.06.29.11.42.07.26.16.47.21.61.11.25.13.26.14-.01.04-.15.15-.27.33-.38.1.1.05.17,0,.28-.05.1-.09.25-.07.42.02-.03.04-.06.06-.09.05-.06.1-.1.16-.11.02,0,.02-.01.03-.01l.13.03.22.06c.27.08.5.2.74.31.46.23.92.45,1.55.37.26.82,1.13,1.02,2.07,1.09.95.07,1.94,0,2.66.45l-.08-.34c.36-.32.45.19.73.25-.05-.26-.42-.29-.19-.48,2.93-.42,6.87-1.09,9.19-4.39.41-.6.07-1.01-.15-1.35-.24-.37-.36-.64.21-1.37.17.2.33.42.49.64,0-.77.03-1.5-.04-2.24-.01-.35-.1-.8-.16-1.18-.07-.23-.13-.47-.2-.7,1.47-1.16,2.61-2.44,3.45-3.8.31.28.04.67-.26,1.01-.29.35-.6.66-.28.97.52-.69.74-1.37.96-1.99.22-.63.44-1.2.86-1.89.27-.34.25.37.3.57.22-.84.5-1.62.64-2.45.14-.82.12-1.69-.26-2.43.08-.01.2.14.29.3ZM16.96,10.35v-.1s.02.07,0,.1ZM16.4,9.35c-.07,0-.13,0-.18,0,.05-.04.09-.08.12-.12.02.04.04.08.07.12ZM3.5,24.94c-.14-.09-.25-.2-.32-.26.07.05.15.14.33.25,0,0,0,0,0,0ZM4.86,25.84c-.16-.12-.38-.23-.6-.38.05-.18.21-.31.33-.21-.14.06.12.34.26.59ZM5.12,21.62c.09-.04.18-.08.25-.1.13.06.07.15,0,.23-.04-.05-.1-.09-.18-.15-.02,0-.04.02-.06.02ZM41.55,23.87c-.13-.06-.25-.12-.39-.16.2-.03.31-.16.51-.05-.05.06-.09.13-.13.21ZM46.63,18.81c-.19.2-.42.36-.29.63-.27.15-.61-.14-.81-.03.26.59-.58.28-.49.86.46.1.4,0,.57.58.08-.33.13-.65.14-.96.14.26.24.53.33.83.16-.27.02-.68.15-.81.23.4.13.35.54.35-.39.08-.39.29-.38.55,0,.25,0,.55-.33.64l-.91-.64c-.39.12-.44.42-.54.78-.09.35-.24.76-.69.93.12,0,.24-.01.35-.03.18.43-.42.41-.59.73-.18-.33-.41-.34-.64-.48.15.24-.58.29-.35,1-.21-.09-.4-.18-.59-.28-.17.02-.29.1-.38.21-.13-.34-.59-.65-1.07-.77-.48-.14-.96-.06-1.01.11-.4-.18,0-.35-.22-.61-.29-.21-.73-.17-1.12-.06-.39.07-.72.19-.92-.02-.07-.07.19-.16.32-.2-.23.12-.76.11-1.19.25-.43.11-.7.28-.41.46-.32.05-.63.15-.9.3-.26.16-.5.35-.72.53l-3.88,3.19,4.54.73c.38.06.72.13,1.02.34.54-.45,1.44.53,1.67-.29-.15.87,1.51.78,2.01.29-.16.27.5.23.32.6.36-.05.69-.15.88-.31.31.26.53.66.61,1.05-.48-.2-.25-.27-.74-.15.06.26.79-.12.91.49-.27.18-.57.54-1.1.46.03-.15.05-.3.05-.45-.35.08-.35.19-.32.34.05.15.15.33.05.43l-.27-.12c-.14.61.52,1.01-.04,1.7l.23.06c.25.86-.56.06-.51.78-.21-.14-.41-.28-.62-.43-.08.33-.38,1.27-.89,1.69.06-.64.43-1.25.49-1.75-.21.19-.74.63-.7,1.02.08-.12.1-.36.26-.33.03.7-.35,1.24-.99,1.47-.21-.69-.6-.64-1.06-.58-.47.07-1.03.1-1.29-.43-.51.3-1.07.24-1.63.07-.56-.17-1.12-.43-1.78-.55.22,1.21-.39-.06-.6,1.08-.34-.01-.46-.07-.47-.15l.05.06s-.04-.05-.06-.07h0c-.26-.31-.52-.63-.76-.95-.12-.39.38-.15.43-.4-.64-.3-.13-.56-.47-1-.05.42-.43.48-.76.19l.36.7c-.43.09-.64-.07-.71-.27-.07-.11-.21-.28-.32-.44-.06-.08-.13-.16-.2-.24l-.06-.06s-.04-.05-.07,0c-.07.07-.13.14-.2.22-.25-.02-.57.04-.94.17l.54-.33c-.46.13-1.14.2-1.58.26-.37.05-.58.07-.69.08l-.03.09c-.04.07-.09.13-.14.18-.07.05-.15.09-.22.11v-.17c-.05.06-.12.16-.18.26-.06.1-.12.18-.35.16-.03-.08,0-.22-.13-.19-.07.05-.14.18-.36.33-.1.07-.2.15-.31.21-.12.06-.28.12-.43.14,0,.05-.02.09-.03.12l-.05-.21c.06-.1.13-.21.21-.31-.16.02-.31.04-.44.06-.02.17-.03.33-.05.49-.06.1-.11.2-.15.3-.04.1-.09.2-.13.3-.05.13-.04.1-.05.16-.03.16-.04.34-.05.53-.02.37-.08.82-.36,1.09-.44-.7-1.14-.64-1.51-.69l-.02-.12c-.94.18-1.72,1.03-3.03,1.3-.69-.92-2.7-.66-3.74-1.47.14.19-.19.62-.43.64-.23-.23-.95.31-.66-.4l.09.05c.03-.77-.53-.77-.9-.97l-.49.87c-.22-.9-.86-1.13-1.45-1.41-.58-.27-1.12-.65-.76-1.25-.34-.04-.51-.29-.84-.38l.47-.25c-.17-.62-.22-.89-.46-1.52.13.03.27.05.4.07-.01-.3-1.6-.32-1.61-.81.27-.03.54-.04.8-.05.03-.31.29-.56.5-.8.12-.14.22-.28.28-.46.08-.07.16-.13.24-.2,0,.02,0,.05,0,.06.1-.1.36-.18.52-.27.06.07.08.17-.01.24.8.06-.02-.35.29-.64.38-.11.62.17.39.41.52-.35,1.18-.82,1.77-1.37l3.6-3.32-4.32.02c-1.13,0-2.17.26-3.02.25l.2-.25c-.57.09-.73.51-.85.85-.06.21-.13.38-.26.52-.02,0-.04-.02-.06-.03,0-.18.13-.27.19-.31-.31-.26-.6-.2-.89-.19-.28.02-.56,0-.63-.36.09-.15.11-.24.11-.31.45.32.87.51.82.53.16-.46-.13-.69.39-1.18-.19.12-.49.29-.8.36-.3.06-.6.01-.67-.21.02-.05.04-.1.08-.16h.06c-.03-.11-.11-.13-.22-.12-.02-.14-.01-.24-.08-.32.29-.28-.06-.47-.13-.65-.46.27-.51-.05-.79.4.02-.05.08.01.17.13.03.02.06.05.09.06h-.05c.09.13.21.29.34.44-.31.05-.64-.02-.51-.4-.36.07-.74.1-.93.08.47-.67.71-1.36,1.14-1.54-.46-.59-.35-1.51-1.24-2.16-.09-.26.33-.21.5-.26.07.14.02.29.16.38-.2-.48.21-1.24-.37-1.6.52-.41.46.54.67-.21l.15.18c.81-.37.74-1.03.9-1.81.14-.74.55-1.58,1.71-1.46-.15-.01-.23,0-.31-.09,1.04-.3,1.94-.86,2.97-1.24,1.01-.38,2.17-.54,3.19,0,.57.23.65-.21,1.07-.5l.06.58c.23-.2.47-.37.72-.55.5-.16.82.29,1.13.68.32.4.61.76,1.29.55l.02-.41c.27.17.9.29,1.03.51-.16.11-.31.21-.48.31l.51.18c.12-.07.25-.27.18-.42.06-.01.11,0,.13.11l-.14.27c.36.03.75.04,1.12.11.5.64-.75.88.02,1.58.36.13,1.41.13,1.46-.12-.11-.13-.19-.43,0-.66l.4.17c.66-.59,1.61-.93,1.15-2.21-.33-.06-.66-.09-.98-.12l.06-.5.56.42c-.05-.56-.48-.46-.85-.42.08-.22.08-.42,0-.59-.38.06-.77.15-1.14.25.1-.35.68-.38.3-.84-.52.14-.1.85-.75.75-.13-.53.11-.77-.45-.68.05-.23.2-.32.41-.32-.49.03-1.04-.38-1.42-.04-.19-.62-1.31-.36-1.01-1.13-.07.05-.2.12-.35.18-.03-.08-.07-.15-.11-.24-.21-.35-.48-.81-.42-1.16.24.12.5.24.76.34-.22-.23-.38-.47-.57-.74.22-.12.66-.12.74.2.44-.36-.19-.45.31-.72.07-.02.11,0,.13.05-.05-.16-.06-.31-.1-.47.13.13.55.12.36.31.32-.27.29-.57.28-.84-.03-.27,0-.49.31-.46v.08c.14-.5.07-.59-.1-.7-.16-.11-.4-.2-.41-.77.51.14.98.32,1.43.53l-.35-.48c.1-.06.28-.16.41.03.03-.56-.22-.14-.29-.58.71.07,1.12-1.08,1.68-.32-.03-.48-.62-.06-.25-.6.58.8.53-.46,1.18-.21.03.52-.46.44.13.69-.03-.91.91-.12,1.23-.35-.14-.67.78-.49,1.43-.78-.01.22,1.33.24,1.96.5l-.02.12c.11-.7.79-.57,1.28-.69-.03.41-.13.58-.39.75h.45c.12-.21.26-.32.57-.38l-.14.51c.6,0,1.28-.53,1.99-.09.12-.47-.47-1.42.43-1.63,0,.26-.04.71-.27.79.08-.03.29-.18.41-.05l-.39.39c.32.24.24-.34.51-.25-.07.37.16.3.07.58-.07.02-.21-.2-.34-.07.3.11.62.4.67.71.02-.21.11-.49.34-.49.56.12.07.48.32.75.21-.21.42.16.63-.36.15.06.07.32.06.48.36-.14,1.05.51,1.14-.13l-.04-.07s.03,0,.05,0c.54.03.88.46,1.05.91.18.46.2.92.44,1.31l-.18.05c.35.44.31,1.13.68,1.56,0,.18-.37.39-.59.29.06.22.12.35.13.5,0,.08,0,.15-.04.26-.05.13-.13.29-.26.52-.2-.65-.33.18-.11-.66-.31.74-.73,1.12-.46,1.94-.42-.23-.95.92-.95,1.32l.66-.82c-.08.45-.28.87-.49,1.32-.25.08-.5.14-.75.2-.64.94-.83,1.65-.82,2.09.14,0,.36-.06.56-.12.2-.06.4-.11.59-.16.38-.11.73-.2,1.03-.26.6-.11.97-.07,1.18.33.86-.49-.85-.26.08-.83.36.02.6.26.86.48.25.23.5.44.66.43.63.15,1.04-.08,1.38-.32.17-.12.34-.25.51-.32.12-.07.27-.1.46-.03-.08-.23-.15-.84.48-1,.58.14.56,1.02.21,1.15-.13,0-.18-.07-.17-.15-.18.06-.41.14-.23.4l.09-.22c.25.24.94.33.72.67.4-.15.23-.33-.04-.5.59.43,1.01.19,1.56.6-.05-.15-.07-.43.03-.4.79.58.54-.26,1.21-.07.19.48-.48.66.22.72.21.41-.24.54-.45.64.7-.1.65.78.76,1-.1-.01-.2-.02-.3-.02.18,0,.26.09.35.17l.2-.42c.06.16.15.25.01.38.32-.09.44-.62.97-.64-.01.31.64.41.19.81-.22-.65-.44.39-.83.05.12.03.19.12.2.28-.04.05-.11.05-.16.05-.18.7.71-.18.97.38-.33.07-.55.35-.45.39-.07-.18.49-.31.8-.15-.15.43.29.37.29.6.04-.09.07-.17.09-.26.35.03.34.26.45.59-.26.03-.19-.28-.3-.17.3.16.15.38-.05.57Z"/>
</svg>