<?xml version="1.0" encoding="UTF-8"?>
<svg id="_레이어_1" data-name="레이어_1" xmlns="http://www.w3.org/2000/svg" viewBox="0 0 50 32.25">
  <defs>
    <style>
      .cls-1 {
        fill: #040000;
      }
    </style>
  </defs>
  <path class="cls-1" d="M50,15.7c-.12-.44-.28.1-.49.05-.26-.33-.11-.7,0-1.14.1-.43.13-.96-.37-1.33-.54-.71-1.12-.64-1.67-1.07.05-.16.2-.2.34-.19.14,0,.27.06.27.06,0-.46-.21-.72-.59-.89.16-.03.2-.17.26-.38-.25-.21-.57.24-.69-.21.18-.09.45-.23.69-.24-.39-.19-.88-.21-1.28-.3.07-.3.44-.22.68-.26-.44-.21-1.18-.47-1.49-.09.06.09.12.17.17.26-.14-.05.1-.38.25-.4.53-.12.4.43.32.56l-.28-.06c-.13.48.07.56.38.62.31.05.73.1.89.32-.22.1-.44.21-.65.32.25-.02.5-.02.77,0-.07.2-.34.48-.56.37-.07.46.38.09.22.54-.03.06-.07.06-.11.05.11.05.23.1.34.16-.16.02-.4.28-.41.07-.04.32.15.44.33.56.17.11.31.22.09.4l-.06-.03c.43.67.52-.1,1.24.38-.37.23-.77.44-1.16.62h.51c0,.09-.03.25-.23.24.38.26.22-.08.56.07-.42.42.24,1.14-.58,1.19.38.17.32-.37.56.08-.87.05.11.51-.34.84-.43-.18-.15-.47-.59-.18.72.33-.28.64-.21.94.59.16.09.69.1,1.24-.17-.09-.65.78-1.05,1.06l-.08-.06c.51.36.18.73.09,1.08-.3-.22-.38-.35-.43-.58l-.16.25c.12.17.15.31.09.51l-.32-.34c-.19.3-.11.96-.7,1.06.22.37,1.13.61.79,1.26-.16-.17-.41-.47-.35-.64-.02.06-.03.27-.18.25,0-.15-.02-.3-.04-.45-.3.01.09.34-.1.43-.18-.27-.25-.11-.37-.34.02-.05.21.02.2-.13-.21.08-.53.05-.72-.13.11.15.23.39.1.5-.35.21-.3-.28-.57-.34,0,.25-.3.12-.13.58-.11.04-.21-.17-.3-.28-.11.28-.9.32-.55.77l.06.02s-.02.02-.03.03c-.3.32-.72.32-1.11.24-.39-.07-.77-.21-1.13-.12v-.16c-.43.17-.95.02-1.33.31-.13-.02-.25-.35-.16-.54-.35.05-.44.22-.84-.17.4-.19-.05-.27.39-.12-.39-.24-.39-.52-.98-.23.28-.35-.14-.6-.38-.56l.19.38c-.24-.01-.43-.12-.61-.23l.3-.48c-.15-.41-1.15-.51-1.7-.5-.62-.02-.99,0-1.7-.94-.22.32.81.67.6,1.07-.28-.17-.63-.57-.99-.96-.35-.39-.7-.77-.8-.82-.24-.18-.4-.27-.49-.24-.03.73.43,1.67.14,2.17.18.08.6.64.62,1.34-.17.38-.85-.02-.88-.57.02-.17.09-.19.15-.12,0-.27,0-.64-.24-.59l.14.28c-.24.13-.46,1.12-.68.67.02.68.22.43.4.14-.23.33-.33.68-.41,1.03-.09.32-.19.72-.35.86.13-.04.37-.03.34.05-.5.62.23.45.1.97-.4.14-.6-.4-.6.16-.32.16-.49-.19-.58-.36.14.56-.59.51-.75.61l-.02-.24c.01.14-.04.22-.09.28.12.06.25.11.38.16-.12.05-.18.11-.31,0,.12.26.57.34.67.77-.25-.01-.23.53-.62.18.49-.2-.38-.36-.17-.68,0,.1-.07.15-.2.17-.05-.03-.06-.09-.06-.13-.6-.1.25.58-.16.85-.11-.28-.39-.42-.41-.33.15-.09.34.37.28.67-.4-.05-.25.32-.43.37l.24.02c.06.29-.13.34-.34.52-.1-.21.17-.23.04-.29-.1.6-.77-.29-1.06.13-.22-.15-.14-.54-.32-.64-.36.46-.51-.32-.92.05.17.38.2.29-.11.7.26-.12.52-.24.75-.38-.13.22-.28.43-.43.64.25-.02.48-.32.63-.28-.19.36-.19.26,0,.57-.42-.53-.65.44-1.11.08l-.06-.98c-.59-.4-1.02.56-1.84.29l.26.18c-.11.39-.5.05-.77.19.04-.33-.12-.45-.23-.66,0,.25-.58-.05-.69.6-.11-.15-.21-.31-.31-.46-.57-.24-.82.85-1.4.62.25-.31.06-.59.46-.77-.18-.04-.32-.13-.37.09-.04-.22-.61.29-.66-.07-.12.11-.27.42-.45.31,0-.07.07-.15.07-.15-.07.16-.39.05-.38.47-.05-.59-.35-.76-.66-.98-.31-.22-.63-.52-.49-1.02-.39-.28-.87-.69-1.28-1.03.09-.05.11-.12.17-.02-.2-.39-.48-.3-.71-.18-.24.12-.44.23-.73-.09-.22-.68.54-.07.36-.37.17-.52-.15-.64-.55-.65-.41,0-.82.11-1.18-.17l.17-.07c-.28-.18-.64-.02-.97.21-.34.23-.51.48-.8.53,0,0,0-.1-.05-.16-.17.64-.82,1.01-1.31,1.26.08-.45.19-.27,0-.67-.21.11.21.67-.24.87-.2-.2-.56-.35-.66-.8.14-.02.28-.05.41-.09-.31-.54-.53.1-.77.03v-.26c-.6.13-.59.8-1.29.74l.07.2c-.43.63-.3-.37-.72.07l-.03-.66c-.24.13-.94.49-1.43.44.4-.36.93-.5,1.27-.74-.22-.03-.73-.1-.94.16.1-.02.26-.16.32-.04-.4.44-.89.54-1.34.31.31-.55.1-.76-.15-.97-.24-.21-.52-.49-.27-.93-.4-.06-.58-.39-.67-.75-.1-.36-.11-.75-.26-1.13-.86.58-.1-.23-1.06.08-.12-.2-.11-.3-.06-.33l-.03.05s.02-.04.04-.06h0c.15-.26.32-.51.51-.74.28-.17.24.17.47.12.04-.42.41-.22.67-.48-.36.07-.53-.12-.38-.35-.17.1-.32.21-.47.33-.54-.64.85-.46.4-1.06l.29.22c-.16-.32.22-.92-.38-1.54.13,0,.41.05.42.2.2-.29.2-.74.3-1.17.09-.43.3-.82.69-.84l.13.22c.05-.14-.14-.52.17-.44.06.09.12.23.18.2,0-.11.02-.58.27-.57,0,.11.02.21.03.32.74-.12.58-1.17,1.21-1.58.25.69.87.74,1.18.81v.1c.23-.02.42-.08.62-.17.11-.04.2-.09.32-.15.21-.06.42-.12.61-.19.79-.24,1.45-.47,2.17-.6.83.39,1.91.51,3,.58l.41.02c.12,0,.33.02.32,0,.09-.01.1-.03.27-.03.23,0,.38,0,.71,0,.44.02.91.05,1.41.11-.14-.15-.26-.29-.38-.43.16.24-.29,0-.84-.36-.55-.36-1.18-.81-1.55-1.14-.56-.74-2.48-1.99-1.35-1.62.05.06.1.12.17.2.29-.11.08-.45-.35-.93l-.08-.09s0-.04-.02-.06l-.02-.11-.06-.23c-.04-.15-.1-.34-.08-.36l-.88-.06c.65-.34.59-.72.61-1.18,0-.44.12-.88.68-.69-.09-.24.02-.39-.02-.64l.33.34c.39-.19.59-.28,1.03-.65l.06.35c.26-.1-.22-1.41.14-1.58l.34.62c.64-.23,1.39.25,2.02-.45,0,.1,0,.31-.11.35.33-.03,1.33.38,1.18-.57.03.63.79.04,1.23-.22l-.08.46c.37-.59.39-.75.9-.88.1.06.09.29-.01.28.31.16.31-.44.74-.15l-.21.28c.39.08.38-.09.64-.4.28-.15.75.23.72.66.1-.24.39-.54.59-.36,0,.16-.11.24-.16.28.55.44,1.1-.27,1.38.31-.04.15-.04.23-.03.29-.46-.18-.85-.31-.8-.33-.11.41.23.59-.22,1.07.36-.24,1.11-.71,1.39-.37,0,.05,0,.09-.02.16l-.05.03c.06.08.14.07.23.04.07.12.12.19.21.25-.07.17,0,.26.09.32l.13.07c.06.04.12.07.18.12.11.09.22.17.3.25.17-.46.51-.08.32-.75.03.07-.07.01-.27-.13-.05-.03-.1-.05-.15-.05l.04-.02c-.17-.1-.17-.08-.26-.13-.07-.04-.15-.08-.23-.12.12-.07.24-.12.34-.12.05,0,.09.02.13.05.03.03,0,.02.08.09.03.04.05.09.08.14.28-.15.54-.35.66-.44.05.81.73,2.1.83,2.8.47.32.93.78,1.32,1.06.27-.83.48-1.74.43-2.66.08-.4.28.03.4.09-.05.27-.16.46-.15.73.1-.47.33-.92.49-1.37.17-.41.28-.78.11-1.07.61-.31.14.69.66-.06l.08.19c.73-.07.77-.61.98-1.19.19-.56.59-1.16,1.44-.8-.11-.04-.17-.06-.22-.15.8-.01,1.48-.29,2.26-.37.75-.08,1.59.07,2.07.76.29.33.5-.01.88-.13l-.17.48c.22-.09.45-.18.69-.25.4.01.44.45.49.83.05.4.09.74.65.77l.19-.3c.15.25.74.63.39.81.07-.01.35-.12.27.08l-.22.15c.25.12.51.25.75.41.06.59-.95.39-.72,1.08.2.19.97.52,1.12.38-.02-.12.07-.35.31-.44l.22.25c.76-.17,1.63-.04,1.87-1.11-.22-.16-.45-.3-.67-.44l.27-.34.22.5c.22-.42-.15-.5-.44-.6.16-.13.25-.27.26-.43-.31-.09-.64-.16-.95-.21.22-.22.67-.05.59-.51-.44-.08-.45.59-.88.3.14-.43.42-.53-.03-.65.13-.16.28-.17.44-.1-.37-.14-.6-.63-1.02-.5.12-.53-.8-.69-.28-1.19-.2.05-.81.03-1.05-.11.48-.17.28-.36.03-.58-.26-.21-.56-.46-.25-.81-.41.23-.75.09-1.15-.05-.38-.15-.82-.32-1.23-.24.06-.05.18-.14.22-.08-.37-.2-.42-.46-.65-.68-.23.62-.88.6-1.26.98-.41-.69.4-.72.35-1.34-.07.52-.99.41-.84.88-.36-.41-.32-.2-.52-.75-.06.81-.38.15-.67.67-.59-.34-.23-.75-.83-.42-.17-.1-.13-.24-.04-.36C34.51.09,34.65,0,34.65,0c-.69.09-.21.65-.28,1.01-.68.33-.44-.37-.77-.61-.44.3-.6.94-.91,1.05-.06-.08-.14-.09-.11-.24-.14.31-.45.48-.77.66-.31.2-.62.42-.66.83-.06-.02-.11-.05-.14-.09.25.2.43.46.54.65-.2.15-.13.57-.45.31.12-.08.03-.22.02-.36l-.1.3c-.54-.31.16-.38-.09-.72-.34.47-.46,1.22-.84,1.37-.47-.34.56-.78-.19-.78.21-.1.41-.18.63-.26-.96-.38.36-.21-.61-.65-.41.22-.54.47-.68.69-.07.11-.12.23-.22.35l-.07.09s.01,0,0,0c-.01,0-.03.01-.05,0,.17.28.32.34.47.64,0,.44-.25.23-.42-.1-.18-.3-.28-.68-.19-.15.09.45.23,1.33.11,1.32-.02-.04-.04-.11-.07-.19-.02-.26-.04-.52-.07-.8v-.09s-.01,0-.01,0c-.1-.16.02,1.14-.23.38.06-.26.15-.12.12-.24-.1-.73-.07.38-.22.25l.06-.65c-.07,0-.22.04-.36.1-.47-.14-.95-.24-1.4-.38.11-.14.34-.23.2-.48-1.22-.22-2.38-.87-3.46-1.36l-.49.43c-.09-.02-.15-.24-.04-.32-.41-.23-.06.31-.28.48-.24,0-.29-.31-.12-.44-.81.33-2.11.76-2.88.26l.15-.15c-.62-.18-.64,1.02-1.21.6l.1-.09c-.66-.06-1.36.08-2.02.22-.67.14-1.3.25-1.97.13.03.37-.33.43-.66.56-.34.12-.64.31-.41.75-.48.02-.7,0-.95,0-.25.03-.51.04-1.14.48-.29.27.11.82-.03,1.21l-.43-.27c.05.27.08.52.16.77-.22-.01-.45-.01-.69,0-.03.14-.04.28-.05.43.09-.14.35-.21.47-.13-.05.61-.84,1.25-1.1,1.24.02.53.08,1.05.22,1.55-.14-.03-.22-.17-.29-.32.18.51-.6.03-.19.69.11-.04.31.02.41.03-.3.26-.29.3-.12.47l-.39-.16s0,.03,0,.05c.03.07.45.33.21.29.25.16,1.05.75.96.8l-.66-.52c.3.32.35.2.64.59-.25-.06-.71-.59-.87-.76.04.06.06.12.08.18-.14-.15-.23-.25-.4-.43.15.16-.02.03-.12-.07-.11-.1-.14-.17.02.11l-.1-.16s-.05.04-.07.1c.05.02-.22.08-.36.12-.17.04-.38.09-.6.14.07.47-.3.42-.47.86-.65,0-1.48-.13-2.25.28-.42.48.03.43-.07.8-.24-.37-.93.1-.72-.39-.8.6-1.05.78-1.68,1.89.22.03.37-.02.42.14-.09.2-.46.22-.59.07v-.07c-.22.71-.91,1.11-1.54,1.67-.62.54-1.16,1.23-.89,1.92l-.02-.07c.03.43.1.85.2,1.25-.15.52-.27-.37-.59,0,.27.7.23,1.17.19,1.65-.04.47-.08.94.26,1.41-.55.52-.33,1.29.06,2,.39.72.95,1.34,1.03,2.07l.19-.24c.42.06.11.4.22.62.14-.18-.04-.43.22-.4,1,.83,2.01,1.64,3.2,2.24,1.17.62,2.45,1.02,3.68,1.12.91.03.39-1.53,1.49-.95l-.23.58c.81-.43,1.62-.6,2.43-.81.4-.11.83-.24,1.07-.33.15-.07.15-.14.29-.28-.04.13-.04.3-.07.29.03.2.04.21.1.13.05-.08.16-.22.23-.37.04.06-.11.28-.16.44-.1.21.38-.36.23.05-.03.06-.13.06-.17.06.2-.09.41.5.65.08.14.49.78.61.95,1.17.3-.05.46.19.66.41.2.21.4.38.66.11-.24.29-.06.61.28.82.34.21.81.28,1.07.19-.22.16.28.35,0,.59.5.17.98.13.99-.26.32.54.81.45,1.18.35.39-.1.69-.19.87.41,1.28-.32,2.34-.56,3.45-.79-.01.77-1.21.1-1.16.89,1.07-.32,1.63-.98,2.71-.95.3.06-.11.35-.19.48,1.04-.44,2.23-.38,3.05-1.22.03.07-.04.18-.12.28.19-.1.5-.13.32-.41l-.14.18c-.48-.3.23-1.29.08-1.53.13.5.36.43.6.38.23-.05.48-.09.62.58.08-.14.12-.38-.05-.54.2-.07.35-.02.34.32.48-.67.03-.73.5-1.21.12.11.08.26.17.44.02-.49-.03-.93.4-1.3.06.08.21.1.11.24.52-.85.05-1.76.68-2.5.57.52.33-.22.94-.06-.02-.14-.07-.19-.09-.3-.1-.02-.2-.03-.31-.03.05-.12-.03-.26-.07-.42-.04-.16-.06-.32.05-.35.05.13.11.25.16.36v-.5c-.07,0-.15.02-.24.05-.18-.55-.63-.62-.38-.92.02.16.1-.37.39-.08h0c-.07-.24-.13-.52-.12-.7.02-.07.13.03.24.13.16.29.35.9.46,1.09-.1-.33.03-.31.16-.29.13.02.27.03.32-.25-.04.12.03.5.05.59,0-.15.02-.3.04-.44.15.21.16.29.16.57.32.22-.13-.91.31-.35-.04.02-.03.09-.11.13.22.19.38.18.69.23.34.06.66.12.94.32-.01.66-.6-.04-.56.53.97.22,2.13-.12,3.02.16l-.16-.1c.25-.85.63.54,1.17.16-.12.06-.19.48-.15.38.67.19,1.41-.17,2.34-.59l-.09.24c.42.14,1.05-.09,1.5-.13.05-.26.29-.31.04-.57.84.39,1.42-.1,1.81-.62.41-.53.65-1.05,1.45-1.15-.09.11-.09.39,0,.31.19-.31.35-.63.48-.94-.36-.16-.27-.02-.63-.04-.11-.24-.1-.54.02-.73-.01.48.52.35.81.28-.12-.03-.19-.16-.31-.21.84-.09-.62-.45.09-.8l.16.12c.02-.27-.13-.58.03-.8.45.07.09.32.41.49.14-.37-.5-1,.03-1.15.07.19-.01.4.04.6.62-.16.52-.26.69-.5l-.02.02c.14-.18.29-.37.42-.56l-.18.12c-.98-.77.06-1.02-.59-1.78.6.72.39.17.88.3.17-.14.36-.39.49-.29-.36-.37.39-.52-.18-1.03.17-.01.03-.35.43-.27ZM26.62,3.85c.11.03.2.06.26.09-.05-.02-.13-.05-.26-.08,0,0,0,0,0,0ZM26.19,7.08s.03-.03.04-.04c-.06.07-.11.14-.16.18-.13,0-.12-.1-.09-.19.05.02.12.04.21.06ZM26.03,3.65c-.02.16-.12.31-.21.26.09-.08-.11-.25-.23-.43.12.06.27.12.44.17Z"/>
</svg>