<?xml version="1.0" encoding="UTF-8"?>
<svg id="_레이어_1" data-name="레이어_1" xmlns="http://www.w3.org/2000/svg" viewBox="0 0 50 50">
  <defs>
    <style>
      .cls-1 {
        fill: #040000;
      }
    </style>
  </defs>
  <path class="cls-1" d="M49.84,20.4c-.2-.1-.33,0-.42.1.19-.18.11-.28.1-.4-.02-.05-.02-.11.02-.18-.1.06-.32.14-.32.11.13-.35-.4-.05-.58-.2.24-.18.72-.16.39-.28.15-.18.51-.19.68-.18-.44-.08.07-.41.08-.55l.21.04c-.13-.02-.15-.07-.18-.12l-.36.2c.04-.08,0-.12.17-.19-.3.05-.62.29-1.06.35.15-.14-.38-.06.13-.31-.01.25.51-.26.73-.13-.09,0-.12-.05-.09-.12.05-.03.11-.04.15-.04.31-.41-.65.17-.83.01.32-.13.52-.32.42-.32.07.07-.46.28-.75.35.11-.22-.3,0-.34-.07l-.04.11c-.32.14-.34.08-.52.09.06-.04.11-.06.14-.07-.23.03.4-.49-.02-.38.13-.17.53-.37.6-.5-.55.17.18-.39-.32-.27-.31.32-.21.24-.7.47.19-.02.38-.04.57-.05-.25.1-.5.21-.74.32.08.04.43-.09.42-.02-.4.18-.29.12-.57.36.44-.46-.56.16-.32-.18l.9-.73c.15-.46-.89.23-.98-.07l-.04.18c-.36.32-.23-.02-.46.1.26-.28.28-.4.38-.59-.17.22-.26-.08-.74.5.05-.14.1-.28.14-.43-.18-.24-.9.82-1.06.69.27-.33.26-.57.6-.79-.1-.02-.15-.08-.27.13.04-.21-.47.4-.41.09-.1.14-.26.47-.34.44.02-.07.07-.16.07-.16-.07.16-.23.21-.29.57.08-.51-.13-.5-.32-.47-.19.03-.36.08-.42-.37-.22.11-.47.23-.63.26,0-.1,0-.17.02-.13-.2-.3-.08.96-.3.62-.13-.53.1-.3.02-.5-.08-1.1-.25.17-.43-.47l.03-.07c-.14-.37-.24.43-.43.37,0,0,0-.1-.01-.17-.08.57-.28.78-.43.95,0-.43.05-.23-.03-.67-.07.07.1.7-.04.83-.07-.23-.21-.42-.28-.88l.14-.04c-.14-.59-.19.04-.27-.05l-.02-.26c-.21.12-.13.78-.36.76l.05.19c-.03.67-.16-.35-.21.15l-.14-.66c-.06.17-.19.69-.32.84,0-.5.13-.79.2-1.09-.09,0-.28.1-.27.43.02-.07.04-.24.09-.14-.02.54-.1.81-.26.83-.21-1.28-.49-.25-.81-1.2-.2.54-.64-.08-.97.09.37.95-.09.05.18,1.05-.06.08-.09.07-.11.02,0,0,0,0,0,0h0s-.4-.53-.4-.53c-.14-.28.02-.24-.05-.46-.2-.03-.19-.4-.38-.64.12.35.08.53-.06.42l.27.42c-.1.6-.45-.77-.55-.17v-.34c-.09.22-.5.13-.37.97-.06-.11-.18-.37-.14-.46-.35,0-.39,1.06-.79.67l-.07-.25c-.04.09.09.48-.12.28-.03-.1-.06-.25-.11-.25-.02.1-.06.5-.23.41l-.03-.3c-.65-.1-.34.91-.51,1.18-.12-.15-.25-.27-.37-.36.12-.14.13-.47.1-.76-.02-.47-.13-.84.53-.6-.09-.02-.13-.03-.21-.1.83-.05.34-1.16,1.37-1.01.24,0-.06-.27-.25-.53l.42.29-.37-.48c-.22-.43,1.23.45.74-.26l-.3-.18c.11-.04.02-.37.33-.13-.05-.05-.27-.24-.1-.16l.22.15-.24-.46c.27-.04.85.63,1.06.43-.02-.15-.48-.68-.65-.75-.03.03-.2,0-.42-.15l-.06-.15c-.26-.18-.52-.37-.78-.54.06.03.1.04.09.01l-.45-.34.08.15s.02.01.03.02c-.29-.18-.57-.32-.83-.39l.32.39-.34-.18.05-.11c-.34-.15-.1.07.05.23-.17-.11-.3-.17-.38-.19l.54.55c-.26-.16-.46-.4-.66-.43.25.26.6.35.73.57-.33-.15-.56-.34-.35-.09-.17-.11-.27-.2-.32-.28.16.2-.03.21.29.49-.4-.21-.05.26-.65-.19.13.12.39.45.38.53-.64-.64-.19.17-.93-.45.58.56.09.46.33.86-.04-.05-.13-.14-.09-.13-.11.03-.31-.11-.46-.16.5.43.53.64.79.96-.56-.33-.55-.56-1.04-.93.41.34.29.49.65.75-.35-.2-.19-.07-.63-.4.61.56.06.15.39.54-.38-.18-.6-.5-.5-.23-.23-.13-.37-.41-.37-.41-.09.09.41.46.66.72.02.23-.39-.26-.66-.44.03.09.14.25.23.38.11.12.2.22.18.23-.07-.07-.1-.1-.19-.19.32.39-.03.07.29.63-.03-.05-.07-.09-.09-.13.18.26.37.53.5.72-.03.04.15.41-.08.06.03-.01-.06-.16-.12-.27l.06.19c-.34-.49-.07-.22-.31-.59.07.2.23.72.1.62-.27-.55,0-.27-.29-.7.05.05.1.1.16.15-.5-.78.05.04-.48-.81-.1-.14.11.3,0,.17.12.33.2.47.31.81.08.71-.56-1.48-.35-.62.1.43.26,1.29.11.89l-.12-.77s.14,1.14,0,.67c-.02-.33.02-.3,0-.39-.11-.6.03.47-.01.5l-.07-.72c-.02.14-.09.74-.2.96.02-.25.05-.5.05-.74-.12.46-.18.01-.07-.52l-.23.8s.09-.35.14-.51c.06-.29-.14.5-.25.82-.04.06.11-.45.19-.69-.21.69-.75,1.56-.45.67l.12-.25c.12-.34-.87,1.71-.58.94l.09-.15c.01-.19-.13-.1-.19-.16-.07-.04-.05-.23.36-.83-.86,1.05.33-.55-.89.86.58-.78.81-1,1.22-1.48.06-.07-.8.75-.95.82l.67-.62c-.24.2-.47.4-.71.59l.81-.72-.17.12s-.3.28-.5.44c-.31.18.47-.51.82-.76-.19.12-.38.23-.57.32.24-.15.36-.22.54-.34-.69.43.71-.48.08-.09-.16.1-.4.25-.54.34.41-.29.42-.31.25-.25l.46-.24c.12-.08-.2.04-.18-.02-.21.09-.97.37-1.03.35l.67-.23c-.4.11-.26.12-.75.24.09-.08.76-.26.97-.32l-.22.04c.19-.06.3-.08.55-.16-.35.08.4-.12.15-.07,0-.02-.2,0-.22-.04-.52.02-.4,0-.8-.04.19-.07.6-.08.57-.12-.22-.09-.4-.1-.67-.18.43.09.42.03.71.14-.02-.04-.03-.06-.08-.1-.03-.02-.06-.05-.09-.08-.03-.06-.07-.14-.12-.24-.17-.05-.26-.05-.38-.13-.04-.08.21-.03.4.07l.04.03c-.45-.57,1.43-.06.74-.68l.03.03-.29-.44c.12-.07.25.22.53.27-.51-.59.3-.32,0-.75,1.18.51.24-.57,1.06-.33l-.26-.15c-.22-.21.18.03.27.03-.2-.12-.26-.09-.38-.21-.02-.63.96-.63,1.47-.86.17-.1-1.18-1.04-.46-.79l.4.4c-.29-.71.5-.58.31-1.23.08.1.21.21.18.24.36.21.2-.2-.04-.43.07-.02.23.19.38.28.22.12-.23-.51.06-.23.04.04.09.09.11.12-.14-.14.05.02-.27-.32.17.15-.07-.23.12-.02-.27-.48.18.18-.19-.5.38.7.33.55.22.15.09.24.11.23.22.57,0-.02-.03-.18-.16-.61.17.48.12.27.1.08-.02-.19,0-.36.11.34-.03-.53.08-.98.21-1.31-.07,1.07-.12.19-.13,1.26.03-.44.19-1.43.28-1.23,0,.14-.09.5-.12.69.16-.52.1.03.36-.65.2-.77.6-1.65.76-2.07-.59,1.64.02.35-.78,2.44.05-.11.16-.38.3-.77-.02.11-.1.33-.28.77.17-.32.4-.93.47-.94-.12.28-.18.4-.32.72.25-.55.55-1.11.52-.87-.09.17-.18.39-.2.39.07-.05.3-.42.52-.69.22-.28.42-.47.34-.17-.78,1.18-.2.42-.86,1.44.08-.1.16-.19.25-.27l.31-.51c.03.06.61-.62.41-.25l-.33.36c.08-.04.14-.06.21-.08l.24-.42c.43-.42.93-1.22.8-.84-.1.07.06.1-.39.68h0c.26-.24.55-.48.38-.2-.25.29-.88.93-1.05,1.12.69-.67.22-.04.95-.68-.17.14-.6.55-.69.64l.56-.49c-.17.21-.25.29-.6.6-.09.19,1.04-.98.6-.43-.05.03-.13.11-.21.16-.23.32.37-.01.08.34-.83.63-.2.05-.89.6.15-.02.96-.35.74-.05l.09-.08c1.13-.58-.58.43-.07.24-.08.02-.62.27-.49.21-.2.17.24.06.52.15l-.27.06c-.26.14-.19.21-.33.3.26-.04.21.01.6-.09-.8.26-.61.27-.43.37.2.08.38.24-.23.28,0-.02-.19-.07-.2-.05.06.05.11.11.16.17.4.05.25.02.57.03.23.06.38.16.36.22-.22-.15-.63-.12-.86-.14.12.02.25.06.37.09-.73-.07.77.21.24.25l-.19-.07c.08.08.31.23.23.28-.43-.14-.17-.14-.52-.26,0,.07.72.48.27.39-.1-.09-.07-.15-.17-.23-.52-.15-.4-.07-.51-.04h.01s-.29.05-.29.05l.15.02c1.01.62.08.32.7.82-.58-.48-.37-.21-.82-.45-.15-.02-.32-.04-.44-.12.33.26-.35-.03.14.34-.15-.07-.05.07-.41-.14.07.15.27.11.45.21.42.41-.78,0-.21.58.18.33.64.64.79.95-.26-.08-.49-.35-.49-.35-.26-.03-.26.05-.15.24-.11-.09-.23-.14-.4-.21,0,.09.49.35.23.32-.15-.11-.39-.28-.53-.41.08.15.3.39.38.55-.26-.13-.34-.28-.48-.4.06.16.08.36.44.64l.17.03s-.34-.19-.4-.26c-.25-.27.2-.03.35.06l.05.11c.86.45.01-.32.13-.4l.57.41-.43-.42c.17.07.52.25.58.36.35.09-.17-.2.21-.08.06.02.08.04.1.06l-.13-.19c.12.09.44.24.32.24.44.05-.31-.51.19-.31l.03.03c-.09-.34-.44-.28-.88-.73l1.18.5-.44-.27s.09-.04.26.07c-.27-.25-.21-.09-.47-.3.47.11-.03-.4.71-.05-.33-.22-.32-.03-.51-.28.81.37-.07-.2.34-.12.39.23.13.23.55.3-.66-.4.25-.13.16-.28-.55-.27-.14-.3-.26-.54.17.12.46-.18.75-.31l.1.03c-.58-.21-.4-.35-.48-.5.37.07.51.12.64.24l.05-.14c-.19-.07-.28-.13-.32-.22l.46.1c.05-.21-.42-.41-.03-.62-.46,0-1.31.13-1.57-.03.26-.01.69-.03.77.02-.03-.02-.19-.05-.07-.09l.39.07c.21-.1-.33-.04-.27-.11.35-.01.27-.07.55-.07.03.02-.17.07-.04.1.09-.09.33-.21.61-.28-.21.03-.48.04-.51-.02.02-.17.45-.11.66-.24-.24,0,.06-.17-.48-.08.02-.05.27-.11.42-.16-.22-.05.02-.42-.58-.17l-.04.03s0,0-.02,0c-.24-.06-.13-.2.02-.38.14-.17.3-.38.21-.47l.18-.08c-.17-.07-.08-.31-.44-.21,0-.04.31-.28.51-.38-.12-.05-.3.06-.03-.29.28-.06.25-.21.21,0,.15-.25.38-.46-.07-.34.41-.22.48-.48.35-.47l-.26.32c-.07-.04-.04-.14-.02-.24l.51-.35c.26-.41-.06-.35-.28-.32-.23.03-.41.06-.02-.49-.33.22-.14.37-.53.64.02-.19.55-.95.51-.99.08-.42-.67.46-.66.12-.11.18-.45.61-.66.65-.03-.17.41-.8.57-.86.04.01,0,.08-.04.13.08-.02.18-.04.27-.26l-.14.14c.08-.22-.1-.36.13-.59-.21.07-.23.23-.23.37,0-.37-.22-.26-.33-.5-.03.11-.13.32-.16.3-.15-.34-.32.25-.55.27.04-.3.4-.63.08-.47-.02-.23.23-.49.36-.61-.37.26-.24-.33-.33-.45l.18-.12c-.11.07-.16.06-.21.04l-.11.4c-.03-.08-.08-.09,0-.26-.17.25-.24.64-.5.99,0-.2-.31.22-.13-.31.17.19.18-.54.43-.61-.07.06-.12.05-.15-.03.01-.06.05-.11.08-.14-.07-.51-.34.58-.58.59.14-.32.14-.59.07-.52.1,0-.13.52-.29.78-.08-.23-.22.21-.29.19l.05.11c-.12.33-.18.3-.3.44.02-.07.03-.11.05-.15-.14.19-.06-.63-.28-.25-.03-.21.12-.63.08-.78-.27.51-.15-.4-.42.04,0,.44.02.32-.17.83.12-.15.24-.3.37-.44-.11.25-.21.5-.3.75.09-.03.23-.37.28-.31-.16.41-.12.29-.14.66-.02-.64-.28.51-.35.1l.11-1.15c-.22-.43-.46.79-.74.65l.1.15c-.03.48-.18.15-.26.4-.02-.38-.08-.48-.15-.69.03.27-.24.12-.16.88-.06-.13-.13-.27-.2-.4-.3-.04-.05,1.22-.26,1.24-.05-.43-.22-.59-.14-.98-.08.06-.17.05-.1.29-.12-.18-.05.62-.23.35.02.17.15.52.07.55-.04-.06-.07-.16-.07-.16.06.16-.02.31.2.61-.3-.42-.45-.26-.56-.11-.11.16-.2.31-.56.04-.08.23-.17.49-.27.63-.07-.08-.12-.11-.08-.11-.36-.07.62.74.23.65-.47-.28-.14-.28-.34-.37-.84-.72-.06.29-.63-.03l-.03-.07c-.36-.16.14.48-.04.56,0,0-.07-.07-.13-.11.35.46.35.75.37.98-.3-.31-.13-.2-.49-.45,0,.1.56.42.56.62-.21-.11-.44-.15-.82-.43l.07-.13c-.52-.32-.1.16-.23.15l-.2-.17c-.07.23.46.64.28.8l.17.1c.45.49-.36-.14-.04.26l-.56-.36c.08.16.35.62.37.81-.36-.35-.46-.65-.63-.91-.06.06-.13.27.12.49-.03-.07-.14-.2-.04-.16.37.39.51.65.4.78-1.05-.76-.52.17-1.42-.28.24.52-.51.4-.62.75.93.41-.03.1.87.62.02.1-.01.12-.07.09,0,0,0,0,0,0h0s-.66-.1-.66-.1c-.29-.1-.16-.18-.36-.29-.16.12-.42-.15-.72-.18.33.16.43.32.25.34l.49.1c.36.49-.87-.23-.51.27l-.25-.23c.11.21-.25.44.43.94-.12-.03-.38-.13-.42-.22-.26.24.47,1.02-.08,1.03l-.22-.13c.04.09.4.27.11.29-.09-.05-.22-.13-.25-.1.06.09.31.39.13.45l-.23-.19c-.53.39.41.89.47,1.2-.19-.02-.36-.02-.51,0,0-.18-.24-.43-.47-.61-.35-.32-.69-.5-.05-.8-.08.04-.11.07-.22.07.55-.62-.58-1.07.25-1.68.16-.17-.23-.14-.55-.2l.5-.09-.6-.08c-.46-.15,1.19-.55.34-.71l-.34.09c.05-.11-.25-.28.15-.32-.06,0-.36.03-.19-.04l.26-.05-.5-.16c.16-.22,1.05-.16,1.05-.45-.12-.09-.82-.14-.99-.07,0,.04-.15.14-.41.19l-.15-.06c-.32.06-.63.11-.93.17.06-.02.1-.04.07-.06l-.56.08.16.05s.02,0,.04,0c-.33.08-.63.17-.86.31l.5.05-.37.12-.04-.11c-.34.13-.02.12.2.12-.2.05-.33.09-.4.13h.77c-.3.08-.61.05-.77.17.36,0,.67-.18.92-.11-.34.13-.63.16-.32.19-.2.04-.33.05-.42.03.25.03.13.17.55.14-.43.14.15.22-.59.32.18,0,.6.04.64.1-.9,0-.02.25-.97.34.81-.01.39.27.85.38-.06,0-.19,0-.16-.02-.06.09-.3.14-.44.21.66-.05.83.07,1.24.12-.63.16-.78,0-1.39.08.54-.05.55.14.99.07-.39.11-.19.08-.73.16.83-.04.15.06.66.1-.4.14-.77.07-.51.19-.25.07-.55-.02-.55-.02,0,.13.62.03.98.04.18.15-.46.09-.78.16.08.04.27.08.43.11.16,0,.3.02.29.03-.1,0-.14,0-.27,0,.5.05.03.08.65.24-.06,0-.11-.02-.16-.02.32.06.63.11.86.16,0,.05.39.18-.02.1.01-.03-.15-.07-.28-.11l.18.09c-.59-.11-.2-.11-.64-.2.19.09.68.35.51.36-.58-.2-.19-.19-.7-.29.07,0,.15,0,.22,0-.91-.2.06-.01-.91-.23-.17-.03.29.13.12.12.32.15.47.2.79.35.56.45-1.44-.66-.68-.19.38.24,1.09.72.71.55l-.64-.46c-.07,0,.91.7.47.47-.25-.22-.2-.22-.28-.27-.5-.35.35.31.35.37l-.56-.46c.08.12.46.59.54.83-.16-.19-.32-.39-.49-.56.24.41-.12.14-.41-.32l.4.72s-.19-.31-.26-.46c-.16-.25.26.46.41.75.02.08-.24-.4-.35-.62.34.64.57,1.63.16.8l-.09-.26c-.15-.32.59,1.83.25,1.07l-.04-.17c-.13-.14-.16.02-.25.03-.08.02-.2-.13-.33-.84.14,1.35-.16-.62-.02,1.24-.14-.96-.14-1.28-.19-1.91,0-.09-.04,1.1-.09,1.25l.04-.91c-.02.31-.05.62-.09.92l.06-1.08-.04.21c0,.06-.02.41-.04.66-.09.35-.03-.69.04-1.11-.05.22-.1.43-.17.63.06-.27.09-.41.14-.62-.18.79.16-.84,0-.12-.04.19-.1.46-.14.62.09-.49.08-.51,0-.36l.15-.49c.03-.14-.12.17-.15.11-.09.21-.43.94-.48.97l.31-.64c-.2.37-.1.27-.36.7.01-.12.35-.72.46-.91l-.13.18c.1-.18.15-.27.28-.5-.19.3.19-.35.06-.16,0-.02-.14.14-.18.13-.36.38-.29.28-.59.54.09-.19.37-.48.32-.49-.22.1-.35.21-.6.34.37-.24.31-.28.6-.4-.04-.01-.07-.02-.13-.01-.04,0-.07,0-.12,0-.07-.02-.15-.05-.25-.08-.16.09-.22.15-.36.18-.08-.02.13-.17.33-.23h.05c-.72-.09.97-1.06.05-1.01h.05s-.52-.11-.52-.11c.04-.13.33-.03.57-.18-.78-.06-.02-.43-.54-.53,1.19-.48-.24-.57.51-.98l-.29.08c-.3,0,.15-.11.21-.16-.23.05-.25.12-.42.12-.46-.43.23-1.12.43-1.65.06-.19-1.57.1-.88-.23h.56c-.71-.3-.06-.76-.65-1.09.13.01.3,0,.3.04.4-.1,0-.28-.33-.27.04-.06.3-.03.47-.07.24-.07-.52-.2-.12-.2.06,0,.12,0,.16,0-.2,0,.05-.02-.42-.04.22-.01-.21-.11.07-.1-.53-.15.25,0-.49-.22.77.23.62.16.26-.04.23.11.24.09.56.24,0-.02-.15-.11-.54-.32.46.22.27.11.13-.02-.15-.12-.26-.25.31.16-.4-.36-.64-.75-.78-1.08.71.81.05.22.8.99-.29-.33-.87-1.15-.67-1.07.1.1.29.42.41.58-.25-.48.1-.05-.21-.72-.4-.68-.74-1.59-.93-2.01.74,1.57.26.23,1.17,2.28-.05-.11-.16-.39-.33-.75.06.09.16.3.35.74-.11-.35-.38-.94-.33-1,.11.28.15.4.28.74-.21-.57-.39-1.17-.25-.98.06.18.15.41.13.42.02-.08-.08-.51-.12-.85-.04-.35-.04-.63.12-.36.28,1.39.15.43.41,1.63v-.16s-.02-.2-.02-.2l-.14-.58c.06.02-.01-.87.11-.46l.02.49c.03-.08.06-.14.09-.21l-.13-.47c0-.6-.2-1.52-.03-1.16-.02.12.12.03.2.76h0c.01-.36.05-.72.13-.4.03.38.03,1.28.05,1.53,0-.92.12-.25.19-1.05-.02.26-.03.73-.03.84l.05-.74c.03.27.02.38,0,.84.07.2.04-1.42.12-.73-.01.05-.02.17-.04.26.07.39.25-.27.3.18-.14,1.03-.1.17-.21,1.06.09-.12.43-.93.49-.56v-.12c.4-1.21-.1.72.13.21-.04.07-.25.63-.2.5-.02.27.21-.13.48-.26l-.15.24c-.09.29.01.28-.02.44.16-.21.16-.14.36-.49-.38.75-.24.63-.04.57.2-.08.44-.1.04.36-.01-.02-.18.09-.18.1.08,0,.15,0,.23,0,.32-.24.19-.16.43-.39.2-.12.38-.16.41-.1-.26.05-.53.37-.71.51.1-.07.22-.13.32-.2-.56.46.69-.4.35,0l-.19.09c.11,0,.38-.06.35.04-.41.21-.22.02-.56.18.05.05.85-.17.47.09-.13,0-.16-.06-.29-.04-.47.26-.33.24-.39.33h0s-.17.23-.17.23l.12-.09c1.15-.28.29.17,1.07.08-.75.07-.41.11-.9.26-.12.09-.25.2-.39.23.42-.06-.27.22.34.14-.15.05.01.09-.39.19.15.06.27-.11.47-.16.59,0-.55.56.26.56.37.1.91,0,1.23.11-.24.13-.59.1-.59.1-.21.16-.15.22.06.27-.14.02-.26.07-.43.14.06.06.6-.09.39.06-.18.03-.48.07-.66.08.17.05.49.06.66.12-.28.09-.44.04-.63.06.15.07.31.2.76.14l.11-.08c-.1.04-.36.08-.43.07-.37,0,.13-.16.29-.21l.12.04c.93-.29-.21-.23-.19-.38l.7-.11h-.6c.17-.07.55-.19.67-.15.31-.18-.26-.02.09-.21.06-.02.09-.03.12-.03l-.23-.04c.15-.02.48-.14.39-.06.35-.28-.58-.14-.09-.35h.05c-.3-.17-.51.12-1.14.11l1.19-.48-.5.12s.03-.09.23-.14c-.37.01-.21.08-.55.12.42-.26-.3-.26.47-.53-.39.08-.25.2-.55.16.83-.31-.19-.1.16-.33.44-.11.25.07.6-.17-.75.18.09-.27-.08-.31-.58.2-.31-.11-.56-.19.2-.04.19-.45.31-.75l.09-.04c-.56.26-.53.04-.7-.01.31-.21.45-.27.62-.28l-.06-.13c-.18.08-.29.11-.38.07l.39-.25c-.11-.18-.59.01-.46-.42-.32.33-.83,1.01-1.13,1.09.18-.19.47-.51.56-.53-.03,0-.17.09-.11-.01l.33-.23c.08-.22-.26.21-.27.12.24-.26.14-.24.34-.44.03,0-.07.17.04.1,0-.13.08-.39.24-.63-.13.16-.31.37-.37.35-.1-.13.24-.39.3-.64-.17.16-.08-.16-.4.29-.02-.05.11-.27.19-.41-.19.12-.29-.31-.53.29v.05s-.02,0-.03,0c-.21.13-.23-.05-.26-.28-.03-.22-.06-.48-.18-.48l.07-.18c-.17.07-.27-.16-.46.16-.03-.03.02-.42.1-.63-.12.05-.17.25-.23-.18.16-.24.03-.32.14-.15-.07-.28-.06-.59-.28-.19.13-.44,0-.68-.08-.58l.04.41c-.08.02-.13-.07-.18-.16l.11-.6c-.1-.47-.29-.21-.43-.02-.14.18-.25.33-.36-.33-.08.39.16.36.08.83-.12-.15-.28-1.06-.34-1.06-.24-.35-.15.8-.38.55.05.2.11.75,0,.92-.14-.1-.28-.86-.2-1.01.04-.01.06.05.07.12.04-.07.1-.15.01-.37v.2c-.1-.21-.32-.19-.32-.51-.1.2,0,.33.1.42-.18-.19-.28-.11-.4-.1-.05.02-.11.02-.18-.02.06.1.14.32.11.32-.35-.13-.05.4-.2.58-.18-.24-.16-.72-.28-.39-.18-.15-.19-.51-.18-.68-.08.44-.41-.07-.55-.08L18.86,0c-.02.13-.07.15-.12.18l.2.36c-.08-.04-.12,0-.19-.17.05.3.29.62.35,1.06-.14-.15-.06.38-.31-.13.25.01-.26-.51-.13-.73,0,.09-.05.12-.12.09-.03-.05-.04-.11-.04-.15-.41-.31.17.65.01.83-.13-.32-.32-.52-.32-.42.07-.07.28.46.35.75-.22-.11,0,.3-.07.34l.11.04c.14.32.08.34.09.52-.04-.06-.06-.11-.07-.14.03.23-.49-.4-.38.02-.17-.13-.37-.53-.5-.6.17.55-.39-.18-.27.32.32.31.24.21.47.7-.02-.19-.04-.38-.05-.57.1.25.21.5.32.74.04-.08-.09-.43-.02-.42.18.4.12.29.36.57-.46-.44.16.56-.18.32l-.73-.9c-.46-.15.23.89-.07.98l.18.04c.32.36-.02.23.1.46-.28-.26-.4-.28-.59-.38.22.17-.08.26.5.74-.14-.05-.28-.1-.43-.14-.24.18.82.9.69,1.06-.33-.27-.57-.26-.79-.6-.02.1-.08.15.13.27-.21-.04.4.47.09.41.14.1.47.26.44.34-.07-.02-.16-.07-.16-.07.16.07.21.23.57.29-.51-.08-.5.13-.47.32.03.19.08.36-.37.42.11.22.23.47.26.63-.1,0-.17,0-.13-.02-.31.2.96.08.62.3-.53.13-.3-.1-.5-.02-1.1.08.17.25-.47.43l-.07-.03c-.37.14.43.24.37.43,0,0-.1,0-.17.01.57.08.78.28.95.43-.43,0-.23-.05-.67.03.07.07.7-.1.83.04-.23.07-.42.21-.88.28l-.04-.14c-.59.14.04.19-.05.27l-.26.02c.12.21.78.13.76.36l.19-.05c.67.03-.35.16.15.21l-.66.14c.17.06.69.19.84.32-.5,0-.79-.13-1.09-.2,0,.09.1.28.43.27-.07-.02-.24-.04-.14-.09.54.02.81.1.83.26-1.28.21-.25.49-1.2.81.54.2-.08.64.09.97.95-.37.05.09,1.05-.18.08.06.07.09.02.11,0,0,0,0,0,0h0s-.54.4-.54.4c-.28.14-.24-.02-.46.05-.03.2-.4.19-.64.38.35-.12.53-.08.42.06l.42-.27c.6.1-.77.45-.17.55h-.34c.22.09.13.5.97.37-.11.06-.37.18-.46.14,0,.35,1.06.39.67.79l-.25.07c.09.04.48-.09.28.12-.1.03-.25.06-.25.11.1.02.5.06.41.23l-.3.03c-.1.65.91.34,1.18.51-.15.12-.27.25-.36.37-.14-.12-.47-.13-.76-.1-.47.02-.84.13-.6-.53-.02.09-.03.13-.1.21-.05-.83-1.16-.34-1.01-1.37,0-.24-.27.06-.53.25l.29-.42-.48.37c-.43.22.45-1.23-.26-.74l-.18.3c-.04-.11-.37-.02-.13-.33-.05.05-.24.27-.16.1l.15-.22-.46.24c-.04-.27.63-.85.43-1.06-.15.02-.68.48-.75.65.03.03,0,.2-.15.42l-.15.06c-.18.26-.37.52-.54.78.03-.06.04-.1.01-.09l-.34.45.15-.08s.01-.02.02-.03c-.18.29-.32.57-.39.83l.39-.32-.18.34-.11-.05c-.15.34.07.1.23-.05-.11.17-.17.3-.19.38l.55-.54c-.16.26-.4.46-.43.66.26-.25.35-.6.57-.73-.15.33-.34.56-.09.35-.11.17-.2.27-.28.32.2-.16.21.03.49-.29-.21.4.26.05-.19.65.12-.13.45-.39.53-.38-.64.64.17.19-.45.93.56-.58.46-.09.86-.33-.05.04-.14.13-.13.09.03.11-.11.31-.16.46.43-.5.64-.53.96-.79-.33.56-.56.55-.93,1.04.34-.41.49-.29.75-.65-.2.35-.07.19-.4.63.56-.61.15-.06.54-.39-.18.38-.5.6-.23.5-.13.23-.41.37-.41.37.09.09.46-.41.72-.66.23-.02-.26.39-.44.66.09-.03.25-.14.38-.23.12-.11.22-.2.23-.18-.07.07-.1.1-.19.19.39-.32.07.03.63-.29-.05.03-.09.07-.13.09.26-.18.53-.37.72-.5.04.03.41-.15.06.08-.01-.03-.16.06-.27.12l.19-.06c-.49.34-.22.07-.59.31.2-.07.72-.23.62-.1-.55.27-.27,0-.7.29.05-.05.1-.1.15-.16-.78.5.04-.05-.81.48-.14.1.3-.11.17,0,.33-.12.47-.2.81-.31.71-.08-1.48.56-.62.35.43-.1,1.29-.26.89-.11l-.77.12s1.14-.14.67,0c-.33.02-.3-.02-.39,0-.6.11.47-.03.5.01l-.72.07c.14.02.74.09.96.2-.25-.02-.5-.05-.74-.05.46.12.01.18-.52.07l.8.23s-.35-.09-.51-.14c-.29-.06.5.14.82.25.06.04-.45-.11-.69-.19.69.21,1.56.75.67.45l-.25-.12c-.34-.12,1.71.87.94.58l-.15-.09c-.23-.01-.06.2-.21.22-.1,0-.31-.08-.77-.39,1.05.86-.55-.33.86.89-.78-.58-1-.81-1.48-1.22-.07-.06.75.8.82.95l-.62-.67c.2.24.4.47.59.71l-.72-.81.12.17s.28.3.44.5c.18.31-.51-.47-.76-.82.12.19.23.38.32.57-.15-.24-.22-.36-.34-.54.43.69-.48-.71-.09-.08.1.16.25.4.34.54-.29-.41-.31-.42-.25-.25l-.24-.46c-.08-.12.04.2-.02.18.09.21.37.97.35,1.03l-.23-.67c.11.4.12.26.24.75-.08-.09-.26-.76-.32-.97l.04.22c-.06-.19-.08-.3-.16-.55.08.35-.12-.4-.07-.15-.02,0,0,.2-.04.22.02.52,0,.4-.04.8-.07-.19-.08-.6-.12-.57-.09.22-.1.4-.18.67.09-.43.03-.42.14-.71-.04.02-.06.04-.1.08-.02.03-.05.06-.08.09-.06.03-.14.07-.24.12-.05.17-.05.26-.13.38-.08.04-.03-.21.07-.4l.03-.04c-.57.45-.06-1.43-.68-.74l.03-.03-.44.29c-.07-.12.22-.25.27-.53-.59.51-.32-.3-.75,0,.51-1.18-.57-.24-.33-1.06l-.15.26c-.21.22.03-.18.03-.27-.12.2-.09.26-.21.38-.63.02-.63-.96-.86-1.47-.1-.17-1.04,1.18-.79.46l.4-.4c-.71.29-.58-.5-1.23-.31.1-.08.21-.21.24-.18.21-.36-.2-.2-.43.04-.02-.07.19-.23.28-.38.12-.22-.51.23-.23-.06.04-.04.09-.09.12-.11-.14.14.02-.05-.32.27.15-.17-.23.07-.02-.12-.48.27.18-.18-.5.19.7-.38.55-.33.15-.22.24-.08.23-.11.57-.22-.02,0-.18.03-.61.16.48-.17.27-.12.08-.1-.19.02-.36,0,.34-.11-.53.03-.98-.08-1.32-.21,1.07.07.19.12,1.26.13-.44-.03-1.43-.19-1.23-.28.14,0,.5.09.69.12-.52-.16.03-.1-.65-.36-.77-.2-1.65-.6-2.07-.76,1.64.59.35-.02,2.44.78-.11-.05-.38-.16-.77-.3.11.02.33.1.77.28-.32-.17-.93-.4-.94-.48.28.12.4.18.72.32-.55-.25-1.11-.55-.87-.52.17.09.39.18.39.2-.05-.07-.42-.3-.69-.52-.28-.22-.47-.42-.17-.34,1.18.78.42.2,1.44.86l-.12-.11-.15-.14-.51-.31c.06-.03-.62-.61-.25-.41l.36.33c-.04-.08-.06-.14-.08-.21l-.42-.24c-.42-.43-1.22-.93-.84-.8.07.1.1-.06.68.39h0c-.25-.26-.48-.54-.2-.37.29.25.93.88,1.12,1.05-.67-.69-.04-.22-.68-.95.14.17.55.6.64.69l-.49-.56c.21.17.29.25.6.6.19.09-.98-1.04-.43-.6.03.05.11.13.16.21.32.23-.01-.37.34-.08.63.83.05.2.6.89-.02-.15-.35-.96-.05-.74l-.08-.09c-.58-1.13.43.58.24.07.02.08.27.62.21.49.17.2.06-.24.15-.52l.06.27c.14.26.21.19.3.33-.04-.26.01-.21-.09-.6.26.8.27.61.37.43.08-.2.24-.38.28.23-.02,0-.07.19-.05.2.05-.06.11-.11.17-.16.05-.4.02-.25.03-.57.06-.23.16-.38.22-.36-.15.22-.12.63-.14.86.02-.12.06-.25.09-.37-.07.73.21-.77.25-.24l-.07.19c.08-.08.23-.31.28-.23-.14.43-.14.17-.26.52.07,0,.48-.72.39-.27-.09.1-.15.07-.23.17-.15.52-.07.4-.04.51h0s.05.27.05.27l.02-.15c.62-1.01.32-.08.82-.7-.48.58-.21.37-.45.82-.02.15-.04.32-.12.44.26-.33-.03.35.34-.14-.07.15.07.05-.14.41.15-.07.11-.27.21-.45.41-.42,0,.78.58.21.33-.18.64-.64.95-.79-.08.26-.35.49-.35.49-.03.26.05.26.24.15-.09.11-.14.23-.21.4.09,0,.35-.49.32-.23-.11.15-.28.39-.41.53.15-.08.39-.3.55-.38-.13.26-.28.34-.4.48.16-.06.36-.08.64-.44l.03-.17s-.19.34-.26.4c-.27.25-.03-.2.06-.35l.11-.05c.45-.86-.32-.01-.4-.13l.41-.57-.42.43c.07-.17.25-.52.36-.58.09-.35-.2.17-.08-.21.02-.06.04-.08.06-.1l-.19.13c.09-.12.24-.44.24-.32.05-.44-.51.31-.31-.19l.03-.03c-.34.09-.28.44-.73.88l.5-1.18-.27.44s-.04-.09.07-.26c-.25.27-.09.21-.3.47.11-.47-.4.03-.05-.71-.22.33-.03.32-.28.51.37-.81-.2.07-.12-.34.23-.39.23-.13.3-.55-.4.66-.13-.25-.28-.16-.27.55-.3.14-.54.26.12-.17-.18-.46-.31-.75l.03-.1c-.21.58-.35.4-.5.48.07-.37.12-.51.24-.64l-.14-.05c-.07.19-.13.28-.22.32l.1-.46c-.21-.05-.41.42-.62.03,0,.46.13,1.31-.03,1.57-.01-.26-.03-.69.02-.77-.02.03-.05.19-.09.07l.07-.39c-.1-.21-.04.33-.11.27-.01-.35-.07-.27-.07-.55.02-.03.07.17.1.04-.09-.09-.21-.33-.28-.61.03.21.04.48-.02.51-.17-.02-.11-.45-.24-.66,0,.24-.17-.06-.08.48-.05-.02-.11-.27-.16-.42-.05.22-.42-.02-.17.58l.03.04s0,0,0,.02c-.06.24-.2.13-.38-.02-.17-.14-.38-.3-.47-.21l-.08-.18c-.07.17-.31.08-.21.44-.04,0-.28-.31-.38-.51-.05.12.06.3-.29.03-.06-.28-.21-.25,0-.21-.25-.15-.46-.38-.34.07-.22-.41-.48-.48-.47-.35l.32.26c-.04.07-.14.04-.24.02l-.35-.51c-.41-.26-.35.06-.32.28.03.23.06.41-.49.02.22.33.37.14.64.53-.19-.02-.95-.55-.99-.51-.42-.08.46.67.12.66.18.11.61.45.65.66-.17.03-.8-.41-.86-.57.01-.04.08,0,.13.04-.02-.08-.04-.18-.26-.27l.14.14c-.22-.08-.36.1-.59-.13.07.21.23.23.37.23-.26,0-.27.12-.36.21-.02.05-.06.09-.14.12.11.03.32.13.3.16-.34.15.25.32.27.55-.3-.04-.63-.4-.47-.08-.23.02-.49-.23-.61-.36.26.37-.33.24-.45.33l-.12-.18c.07.11.06.16.04.21l.4.11c-.08.03-.09.08-.26,0,.25.17.64.24.99.5-.2,0,.22.31-.31.13.19-.17-.54-.18-.61-.43.06.07.05.12-.03.15-.06-.01-.11-.05-.14-.08-.51.07.58.34.59.58-.32-.14-.59-.14-.52-.07,0-.1.52.13.78.29-.23.08.21.22.19.29l.11-.05c.33.12.3.18.44.3-.07-.02-.12-.03-.15-.05.19.14-.63.06-.25.28-.21.03-.63-.12-.78-.08.51.27-.4.15.04.42.44,0,.32-.02.83.17-.15-.12-.3-.24-.44-.37.25.11.5.21.75.3-.03-.09-.37-.23-.31-.28.41.16.29.12.66.14-.64.02.51.28.1.35l-1.15-.11c-.43.22.79.46.65.74l.15-.1c.48.03.15.18.4.26-.38.02-.48.08-.69.15.27-.03.12.24.88.16-.13.06-.27.13-.4.2-.04.3,1.22.05,1.24.26-.43.05-.59.22-.98.14.06.08.05.17.29.1-.18.12.62.05.35.23.17-.02.52-.15.55-.07-.06.04-.16.07-.16.07.16-.06.31.02.61-.2-.42.3-.26.45-.11.56.16.11.31.2.04.56.23.08.49.17.63.27-.08.07-.11.12-.11.08-.07.36.74-.62.65-.23-.28.47-.28.14-.37.34-.72.84.29.06-.03.63l-.07.03c-.16.36.48-.14.56.04,0,0-.07.07-.11.13.46-.35.75-.35.98-.37-.31.3-.2.13-.45.49.1,0,.42-.56.62-.56-.11.21-.15.44-.43.82l-.13-.07c-.32.52.16.1.15.23l-.17.2c.23.07.64-.46.8-.28l.1-.17c.49-.45-.14.36.26.04l-.36.56c.16-.08.62-.35.81-.37-.35.36-.65.46-.91.63.06.06.27.13.49-.12-.07.03-.2.14-.16.04.39-.37.65-.51.78-.4-.76,1.05.17.52-.28,1.42.52-.24.4.51.75.62.41-.93.1.03.62-.87.1-.02.12.01.09.07,0,0,0,0,0,0h0s-.1.66-.1.66c-.1.29-.18.16-.29.36.12.16-.15.42-.18.72.16-.33.32-.43.34-.25l.1-.49c.49-.36-.23.87.27.51l-.23.25c.21-.11.44.25.94-.43-.03.12-.13.38-.22.42.24.26,1.02-.47,1.03.08l-.13.22c.09-.04.27-.4.29-.11-.05.09-.13.22-.1.25.09-.06.39-.31.45-.13l-.19.23c.39.53.89-.41,1.2-.47-.02.19-.02.36,0,.51-.18,0-.43.24-.61.47-.32.35-.5.69-.8.05.04.08.07.11.07.22-.62-.55-1.07.58-1.68-.25-.17-.16-.14.23-.2.55l-.09-.5-.08.6c-.15.46-.55-1.19-.71-.34l.09.34c-.11-.05-.28.25-.32-.15,0,.06.03.36-.04.19l-.05-.26-.16.5c-.22-.16-.16-1.05-.45-1.05-.09.12-.14.82-.07.99.04,0,.14.15.19.41l-.06.15c.06.32.11.63.17.94-.02-.06-.04-.11-.06-.07l.08.56.05-.16s0-.02,0-.04c.08.33.17.63.31.86l.05-.5.12.37-.11.04c.13.34.12.02.12-.2.05.2.09.33.13.4v-.77c.08.3.05.61.17.77,0-.36-.18-.67-.11-.92.13.34.16.63.19.32.04.2.05.33.03.42.03-.25.17-.13.14-.55.14.43.22-.15.32.59,0-.18.04-.6.1-.64,0,.9.25.02.34.97-.01-.81.27-.39.38-.85,0,.06,0,.19-.02.16.09.06.14.3.21.44-.05-.66.07-.83.12-1.24.16.63,0,.78.08,1.39-.05-.54.14-.55.07-.99.11.39.08.19.16.73-.04-.83.06-.15.1-.66.14.4.07.77.19.51.07.25-.02.55-.02.55.13,0,.03-.62.04-.98.15-.18.09.46.16.78.04-.08.08-.27.11-.43,0-.16.02-.3.03-.29,0,.1,0,.14,0,.27.05-.5.08-.03.24-.65,0,.06-.02.11-.02.16.06-.32.11-.63.16-.86.05,0,.18-.39.1.02-.03-.01-.07.15-.11.28l.09-.18c-.11.59-.11.2-.2.64.09-.19.35-.68.36-.51-.2.58-.19.19-.29.7,0-.07,0-.15,0-.22-.2.91-.01-.06-.23.91-.03.17.13-.29.12-.12.15-.32.2-.47.35-.79.45-.56-.66,1.44-.19.68.24-.38.72-1.09.55-.71l-.46.64c0,.07.7-.91.47-.47-.22.25-.22.2-.27.28-.35.5.31-.35.37-.35l-.46.56c.12-.08.59-.46.83-.54-.19.16-.39.32-.56.49.41-.24.14.12-.32.41l.72-.4s-.31.19-.46.26c-.25.16.46-.26.75-.41.08-.02-.4.24-.62.35.64-.34,1.63-.57.8-.16l-.26.09c-.32.15,1.83-.59,1.07-.25l-.17.04c-.14.13.02.16.03.25.02.08-.13.2-.84.33,1.35-.14-.62.16,1.24.02-.96.14-1.28.14-1.91.19-.09,0,1.1.04,1.25.09l-.91-.04c.31.02.62.05.92.09l-1.08-.06.21.04c.06,0,.41.02.66.04.35.09-.69.03-1.11-.04.22.05.43.1.63.17-.27-.06-.41-.09-.62-.14.79.18-.84-.16-.12,0,.19.04.46.1.62.14-.49-.09-.51-.08-.36,0l-.49-.15c-.14-.03.17.12.11.15.21.09.94.43.97.48l-.64-.31c.37.2.27.1.7.36-.12-.01-.72-.35-.91-.46l.18.13c-.18-.1-.27-.15-.5-.28.3.19-.35-.19-.16-.06-.02,0,.14.14.13.18.38.36.28.29.54.59-.19-.09-.48-.37-.49-.32.1.22.21.35.34.6-.24-.37-.28-.31-.4-.6-.01.04-.02.07-.01.13,0,.04,0,.07,0,.12-.02.07-.05.15-.08.25.09.16.15.22.18.36-.02.08-.17-.13-.23-.33v-.05c-.09.72-1.06-.97-1.01-.05v-.05s-.11.52-.11.52c-.13-.04-.03-.33-.18-.57-.06.78-.43.02-.53.54-.48-1.19-.57.24-.98-.51l.08.29c0,.3-.11-.15-.16-.21.05.23.12.25.12.42-.43.46-1.12-.23-1.65-.43-.19-.06.1,1.57-.23.88v-.56c-.3.71-.76.06-1.09.65.01-.13,0-.3.04-.3-.1-.4-.28,0-.27.33-.06-.04-.03-.3-.07-.47-.07-.24-.2.52-.2.12,0-.06,0-.12,0-.16,0,.2-.02-.05-.04.42-.01-.22-.11.21-.1-.07-.15.53,0-.25-.22.49.23-.77.16-.62-.04-.26.11-.23.09-.24.24-.56-.02,0-.11.15-.32.54.22-.46.11-.27-.02-.13-.12.15-.25.26.16-.31-.36.4-.75.64-1.08.78.81-.71.22-.05.99-.8-.33.29-1.15.87-1.07.67.1-.1.42-.29.58-.41-.48.25-.05-.1-.72.21-.68.4-1.59.74-2.01.93,1.57-.74.23-.26,2.28-1.17-.11.05-.39.16-.75.33.09-.06.3-.16.74-.35-.35.11-.94.38-1,.33.28-.11.4-.15.74-.28-.57.21-1.17.39-.98.25.18-.06.41-.15.42-.13-.08-.02-.51.08-.85.12-.35.04-.63.04-.36-.12,1.39-.28.43-.15,1.63-.41-.13.01-.25.02-.37.02l-.58.14c.02-.06-.87.01-.46-.11l.49-.02c-.08-.03-.14-.06-.21-.09l-.47.13c-.6,0-1.52.2-1.16.03.12.02.03-.12.76-.2h0c-.36-.01-.73-.05-.41-.13.38-.03,1.28-.03,1.53-.05-.92,0-.25-.12-1.05-.19.26.02.73.03.83.03l-.74-.05c.27-.03.38-.02.84,0,.2-.07-1.42-.04-.73-.12.05.01.17.02.26.04.39-.07-.27-.25.18-.3,1.03.14.17.1,1.06.21-.12-.09-.93-.43-.56-.49h-.12c-1.21-.4.72.1.21-.13.07.04.63.25.5.2.27.02-.13-.21-.26-.48l.24.15c.29.09.28-.01.44.02-.21-.16-.14-.16-.49-.36.75.38.63.24.57.04-.08-.2-.1-.44.36-.04-.02.01.09.18.1.18,0-.08,0-.15,0-.23-.24-.32-.16-.19-.39-.43-.12-.2-.16-.38-.1-.41.05.26.37.53.51.71-.07-.1-.13-.22-.2-.32.46.56-.4-.69,0-.35l.09.19c0-.11-.06-.38.04-.35.21.41.02.22.18.56.05-.05-.17-.85.09-.47,0,.13-.06.16-.04.29.26.47.24.33.33.39h-.01s.24.16.24.16l-.09-.12c-.28-1.15.17-.29.08-1.07.07.75.11.41.26.9.09.12.2.25.23.39-.06-.42.22.27.14-.34.05.15.09-.01.19.39.06-.15-.11-.27-.16-.47,0-.59.56.55.56-.26.1-.37,0-.91.11-1.23.13.24.1.59.1.59.16.21.22.15.27-.06.02.14.07.26.14.43.06-.06-.09-.6.06-.39.03.18.07.48.08.66.05-.17.06-.49.12-.66.09.28.04.44.06.63.07-.15.2-.31.14-.76l-.08-.11c.04.1.08.36.07.43,0,.37-.16-.13-.21-.29l.04-.12c-.29-.93-.23.21-.38.19l-.11-.7v.6c-.07-.17-.19-.55-.15-.67-.18-.31-.02.26-.21-.09-.02-.06-.03-.09-.03-.12l-.04.23c-.02-.15-.14-.48-.06-.39-.28-.35-.14.58-.35.09v-.05c-.17.3.12.51.11,1.14l-.48-1.19.12.5s-.09-.03-.14-.23c.01.37.08.21.12.55-.26-.42-.26.3-.53-.47.08.39.2.25.16.55-.31-.83-.1.19-.33-.16-.11-.44.07-.25-.17-.6.18.75-.27-.09-.31.08.2.58-.11.31-.19.56-.04-.2-.45-.19-.75-.31l-.04-.09c.26.56.04.53-.01.7-.21-.31-.27-.45-.28-.62l-.13.06c.08.18.11.29.07.38l-.25-.39c-.18.11.01.59-.42.46.33.32,1.01.83,1.09,1.13-.19-.18-.51-.47-.53-.56,0,.03.09.17-.01.11l-.23-.33c-.22-.08.21.26.12.27-.26-.24-.24-.14-.44-.34,0-.03.17.07.1-.04-.13,0-.39-.08-.63-.24.16.13.37.31.35.37-.13.1-.39-.24-.64-.3.16.17-.16.08.29.4-.05.02-.27-.11-.41-.19.12.19-.31.29.29.53h.05s0,.02,0,.03c.13.21-.05.23-.28.26-.22.03-.48.06-.48.18l-.18-.07c.07.17-.16.27.16.46-.03.03-.42-.02-.63-.1.05.12.25.17-.18.23-.24-.16-.32-.03-.15-.14-.28.07-.59.06-.19.28-.44-.13-.68,0-.58.08l.41-.04c.02.08-.07.13-.16.18l-.6-.11c-.47.1-.21.29-.02.43.18.14.33.25-.33.36.39.08.36-.16.83-.08-.15.12-1.06.28-1.06.34-.35.24.8.15.55.38.2-.05.75-.11.92,0-.1.14-.86.28-1.01.2-.01-.04.05-.06.12-.07-.07-.04-.15-.1-.37-.01h.2c-.21.1-.19.32-.51.32.2.1.33,0,.42-.1-.26.26-.02.34-.12.58.1-.06.32-.14.32-.11-.13.35.4.05.58.2-.24.18-.72.16-.39.28-.15.18-.51.19-.68.18.44.08-.07.41-.08.55l-.21-.04c.13.02.15.07.18.12l.36-.2c-.04.08,0,.12-.17.19.3-.05.62-.29,1.06-.35-.15.14.38.06-.13.31.01-.25-.51.26-.73.13.09,0,.12.05.09.12-.05.03-.11.04-.15.04-.31.41.65-.17.83-.01-.32.13-.52.32-.42.32-.07-.07.46-.28.75-.35-.11.22.3,0,.34.07l.04-.11c.32-.14.34-.08.52-.09-.06.04-.11.06-.14.07.23-.03-.4.49.02.38-.13.17-.53.37-.6.5.55-.17-.18.39.32.27.31-.32.21-.24.7-.47-.19.02-.38.04-.57.05.25-.1.5-.21.74-.32-.08-.04-.43.09-.42.02.4-.18.29-.12.57-.36-.44.46.56-.16.32.18l-.9.73c-.15.46.89-.23.98.07l.04-.18c.36-.32.23.02.46-.1-.26.28-.28.4-.38.59.17-.22.26.08.74-.5-.05.14-.1.28-.14.43.18.24.9-.82,1.06-.69-.27.33-.26.57-.6.79.1.02.15.08.27-.13-.04.21.47-.4.41-.09.1-.14.26-.47.34-.44-.02.07-.07.16-.07.16.07-.16.23-.21.29-.57-.08.51.13.5.32.47.19-.03.36-.08.42.37.22-.11.47-.23.63-.26,0,.1,0,.17-.02.13.2.3.08-.96.3-.62.13.53-.1.3-.02.5.08,1.1.25-.17.43.47l-.03.07c.14.37.24-.43.43-.37,0,0,0,.1.01.17.08-.57.28-.78.43-.95,0,.43-.05.23.03.67.07-.07-.1-.7.04-.83.07.23.21.42.28.88l-.14.04c.14.59.19-.04.27.05l.02.26c.21-.12.13-.78.36-.76l-.05-.19c.03-.67.16.35.21-.15l.14.66c.06-.17.19-.69.32-.84,0,.5-.13.79-.2,1.09.09,0,.28-.1.27-.43-.02.07-.04.24-.09.14.02-.54.1-.81.26-.83.21,1.28.49.25.81,1.2.2-.54.64.08.97-.09-.37-.95.09-.05-.18-1.05.06-.08.09-.07.11-.02,0,0,0,0,0,0h0s.4.53.4.53c.14.28-.02.24.05.46.2.03.19.4.38.64-.12-.35-.08-.53.06-.42l-.27-.42c.1-.6.45.77.55.17v.34c.09-.22.5-.13.37-.97.06.11.18.37.14.46.35,0,.39-1.06.79-.67l.07.25c.04-.09-.09-.48.12-.28.03.1.06.25.11.25.02-.1.06-.5.23-.41l.03.3c.65.1.34-.91.51-1.18.12.15.25.27.37.36-.12.14-.13.47-.1.76.02.47.13.84-.53.6.09.02.13.03.21.1-.83.05-.34,1.16-1.37,1.01-.24,0,.06.27.25.53l-.42-.29.37.48c.22.43-1.23-.45-.74.26l.3.18c-.11.04-.02.37-.33.13.05.05.27.24.1.16l-.22-.15.24.46c-.27.04-.85-.63-1.06-.43.02.15.48.68.65.75.03-.03.2,0,.42.15l.06.15c.26.18.52.37.78.54-.06-.03-.1-.04-.09-.01l.45.34-.08-.15s-.02-.01-.03-.02c.29.18.57.32.83.39l-.32-.39.34.18-.05.11c.34.15.1-.07-.05-.23.17.11.3.17.38.19l-.54-.55c.26.16.46.4.66.43-.25-.26-.6-.35-.73-.57.33.15.56.34.35.09.17.11.27.2.32.28-.16-.2.03-.21-.29-.49.4.21.05-.26.65.19-.13-.12-.39-.45-.38-.53.64.64.19-.17.93.45-.58-.56-.09-.46-.33-.86.04.05.13.14.09.13.11-.03.31.11.46.16-.5-.43-.53-.64-.79-.96.56.33.55.56,1.04.93-.41-.34-.29-.49-.65-.75.35.2.19.07.63.4-.61-.56-.06-.15-.39-.54.38.18.6.5.5.23.23.13.37.41.37.41.09-.09-.41-.46-.66-.72-.02-.23.39.26.66.44-.03-.09-.14-.25-.23-.38-.11-.12-.2-.22-.18-.23.07.07.1.1.19.19-.32-.39.03-.07-.29-.63.03.05.07.09.09.13-.18-.26-.37-.53-.5-.72.03-.04-.15-.41.08-.06-.03.01.06.16.12.27l-.06-.19c.34.49.07.22.31.59-.07-.2-.23-.72-.1-.62.27.55,0,.27.29.7-.05-.05-.1-.1-.16-.15.5.78-.05-.04.48.81.1.14-.11-.3,0-.17-.12-.33-.2-.47-.31-.81-.08-.71.56,1.48.35.62-.1-.43-.26-1.29-.11-.89l.12.77s-.14-1.14,0-.67c.02.33-.02.3,0,.39.11.6-.03-.47.01-.5l.07.72c.02-.14.09-.74.2-.96-.02.25-.05.5-.05.74.12-.46.18-.01.07.52l.23-.8s-.09.35-.14.51c-.06.29.14-.5.25-.82.04-.06-.11.45-.19.69.21-.69.75-1.56.45-.67l-.12.25c-.12.34.87-1.71.58-.94l-.09.15c-.01.19.13.1.19.16.07.04.05.23-.36.83.86-1.05-.33.55.89-.86-.58.78-.81,1-1.22,1.48-.06.07.8-.75.95-.82l-.67.62c.24-.2.47-.4.71-.59l-.81.72.17-.12s.3-.28.5-.44c.31-.18-.47.51-.82.76.19-.12.38-.23.57-.32-.24.15-.36.22-.54.34.69-.43-.71.48-.08.09.16-.1.4-.25.54-.34-.41.29-.42.31-.25.25l-.46.24c-.12.08.2-.04.18.02.21-.09.97-.37,1.03-.35l-.67.23c.4-.11.26-.12.75-.24-.09.08-.76.26-.97.32l.22-.04c-.19.06-.3.08-.55.16.35-.08-.4.12-.15.07,0,.02.2,0,.22.04.52-.02.4,0,.8.04-.19.07-.6.08-.57.12.22.09.4.1.67.18-.43-.09-.42-.03-.71-.14.02.04.03.06.08.1.03.02.06.05.09.08.03.06.07.14.12.24.17.05.26.05.38.13.04.08-.21.03-.4-.07l-.04-.03c.45.57-1.43.06-.74.68l-.03-.03.29.44c-.12.07-.25-.22-.53-.27.51.59-.3.32,0,.75-1.18-.51-.24.57-1.06.33l.26.15c.22.21-.18-.03-.27-.03.2.12.26.09.38.21.02.63-.96.63-1.47.86-.17.1,1.18,1.04.46.79l-.4-.4c.29.71-.5.58-.31,1.23-.08-.1-.21-.21-.18-.24-.36-.21-.2.2.04.43-.07.02-.23-.19-.38-.28-.22-.12.23.51-.06.23-.04-.04-.09-.09-.11-.12.14.14-.05-.02.27.32-.17-.15.07.23-.12.02.27.48-.18-.18.19.5-.38-.7-.33-.55-.22-.15-.08-.24-.11-.23-.22-.57,0,.02.03.18.16.61-.17-.48-.12-.27-.1-.08.02.19,0,.36-.11-.34.03.53-.08.98-.21,1.31.07-1.07.12-.19.13-1.26-.03.44-.19,1.43-.28,1.23,0-.14.09-.5.12-.69-.16.52-.1-.03-.36.65-.2.77-.6,1.65-.76,2.07.59-1.64-.02-.35.78-2.44-.05.11-.16.38-.3.77.02-.11.1-.33.28-.77-.17.32-.4.93-.48.94.12-.28.18-.4.32-.72-.25.55-.55,1.11-.52.87.09-.17.18-.39.2-.39-.07.05-.3.42-.52.69-.22.28-.42.47-.34.17.78-1.18.2-.42.86-1.44-.08.1-.16.19-.25.27l-.31.51c-.03-.06-.61.62-.41.25l.33-.36c-.08.04-.14.06-.21.08l-.24.42c-.43.42-.93,1.22-.8.84.1-.07-.06-.1.39-.68h0c-.26.24-.55.48-.38.2.25-.29.88-.93,1.05-1.12-.69.67-.22.04-.95.68.17-.14.6-.55.69-.64l-.56.49c.17-.21.25-.29.6-.6.09-.19-1.04.98-.6.43.05-.03.13-.11.21-.16.23-.32-.37.01-.08-.34.83-.63.2-.05.89-.6-.15.02-.96.35-.74.05l-.09.08c-1.13.58.58-.43.07-.24.08-.02.62-.27.49-.21.2-.17-.24-.06-.52-.15l.27-.06c.26-.14.19-.21.33-.3-.26.04-.21-.01-.6.09.8-.26.61-.27.43-.37-.2-.08-.38-.24.23-.28,0,.02.19.07.2.05-.06-.05-.11-.11-.16-.17-.4-.05-.25-.02-.57-.03-.23-.06-.38-.16-.36-.22.22.15.63.12.86.14-.12-.02-.25-.06-.37-.09.73.07-.77-.21-.24-.25l.19.07c-.08-.08-.31-.23-.23-.28.43.14.17.14.52.26,0-.07-.72-.48-.27-.39.1.09.07.15.17.23.52.15.4.07.51.04h-.01s.29-.05.29-.05l-.15-.02c-1.01-.62-.08-.32-.7-.82.58.48.37.21.82.45.15.02.32.04.44.12-.33-.26.35.03-.14-.34.15.07.05-.07.41.14-.07-.15-.27-.11-.45-.21-.42-.41.78,0,.21-.58-.18-.33-.64-.64-.79-.95.26.08.49.35.49.35.26.03.26-.05.15-.24.11.09.23.14.4.21,0-.09-.49-.35-.23-.32.15.11.39.28.53.41-.08-.15-.3-.39-.38-.55.26.13.34.28.48.4-.06-.16-.08-.36-.44-.64l-.17-.03s.34.19.4.26c.25.27-.2.03-.35-.06l-.05-.11c-.86-.45-.01.32-.13.4l-.57-.41.43.42c-.17-.07-.52-.25-.58-.36-.35-.09.17.2-.21.08-.06-.02-.08-.04-.1-.06l.13.19c-.12-.09-.44-.24-.32-.24-.44-.05.31.51-.19.31l-.03-.03c.09.34.44.28.88.73l-1.18-.5.44.27s-.09.04-.26-.07c.27.25.21.09.47.3-.47-.11.03.4-.71.05.33.22.32.03.51.28-.81-.37.07.2-.34.12-.39-.23-.13-.23-.55-.3.66.4-.25.13-.16.28.55.27.14.3.26.54-.17-.12-.46.18-.75.31l-.1-.03c.58.21.4.35.48.5-.37-.07-.51-.12-.64-.24l-.05.14c.19.07.28.13.32.22l-.46-.1c-.05.21.42.41.03.62.46,0,1.31-.13,1.57.03-.26.01-.69.03-.77-.02.03.02.19.05.07.09l-.39-.07c-.21.1.33.04.27.11-.35.01-.27.07-.55.07-.03-.02.17-.07.04-.1-.09.09-.33.21-.61.28.21-.03.48-.04.51.02-.02.17-.45.11-.66.24.24,0-.06.17.48.08-.02.05-.27.11-.42.16.22.05-.02.42.58.17l.04-.03s0,0,.02,0c.24.06.13.2-.02.38-.14.17-.3.38-.21.47l-.18.08c.17.07.08.31.44.21,0,.04-.31.28-.51.38.12.05.3-.06.03.29-.28.06-.25.21-.21,0-.15.25-.38.46.07.34-.41.22-.48.48-.35.47l.26-.32c.07.04.04.14.02.24l-.51.35c-.26.41.06.35.28.32.23-.03.41-.06.02.49.33-.22.14-.37.53-.64-.02.19-.55.95-.51.99-.08.42.67-.46.66-.12.11-.18.45-.61.66-.65.03.17-.41.8-.57.86-.04-.01,0-.08.04-.13-.08.02-.18.04-.27.26l.14-.14c-.08.22.1.36-.13.59.21-.07.23-.23.23-.37,0,.37.22.26.33.5.03-.11.13-.32.16-.3.15.34.32-.25.55-.27-.04.3-.4.63-.08.47.02.23-.23.49-.36.61.37-.26.24.33.33.45l-.18.12c.11-.07.16-.06.21-.04l.11-.4c.03.08.08.09,0,.26.17-.25.24-.64.5-.99,0,.2.31-.22.13.31-.17-.19-.18.54-.43.61.07-.06.12-.05.15.03-.01.06-.05.11-.08.14.07.51.34-.58.58-.59-.14.32-.14.59-.07.52-.1,0,.13-.52.29-.78.08.23.22-.21.29-.19l-.05-.11c.12-.33.18-.3.3-.44-.02.07-.03.11-.05.15.14-.19.06.63.28.25.03.21-.12.63-.08.78.27-.51.15.4.42-.04,0-.44-.02-.32.17-.83-.12.15-.24.3-.37.44.11-.25.21-.5.3-.75-.09.03-.23.37-.28.31.16-.41.12-.29.14-.66.02.64.28-.51.35-.1l-.11,1.15c.22.43.46-.79.74-.65l-.1-.15c.03-.48.18-.15.26-.4.02.38.08.48.15.69-.03-.27.24-.12.16-.88.06.13.13.27.2.4.3.04.05-1.22.26-1.24.05.43.22.59.14.98.08-.06.17-.05.1-.29.12.18.05-.62.23-.35-.02-.17-.15-.52-.07-.55.04.06.07.16.07.16-.06-.16.02-.31-.2-.61.3.42.45.26.56.11.11-.16.2-.31.56-.04.08-.23.17-.49.27-.63.07.08.12.11.08.11.36.07-.62-.74-.23-.65.47.28.14.28.34.37.84.72.06-.29.63.03l.03.07c.36.16-.14-.48.04-.56,0,0,.07.07.13.11-.35-.46-.35-.75-.37-.98.3.31.13.2.49.45,0-.1-.56-.42-.56-.62.21.11.44.15.82.43l-.07.13c.52.32.1-.16.23-.15l.2.17c.07-.23-.46-.64-.28-.8l-.17-.1c-.45-.49.36.14.04-.26l.56.36c-.08-.16-.35-.62-.37-.81.36.35.46.65.63.91.06-.06.13-.27-.12-.49.03.07.14.2.04.16-.37-.39-.51-.65-.4-.78,1.05.76.52-.17,1.42.28-.24-.52.51-.4.62-.75-.93-.41.03-.1-.87-.62-.02-.1.01-.12.07-.09,0,0,0,0,.01,0h0s.66.1.66.1c.29.1.16.18.36.29.16-.12.42.15.72.18-.33-.16-.43-.32-.25-.34l-.49-.1c-.36-.49.87.23.51-.27l.25.23c-.11-.21.25-.44-.43-.94.12.03.38.13.42.22.26-.24-.47-1.02.08-1.03l.22.13c-.04-.09-.4-.27-.11-.29.09.05.22.13.25.1-.06-.09-.31-.39-.13-.45l.23.19c.53-.39-.41-.89-.47-1.2.19.02.36.02.51,0,0,.18.24.43.47.61.35.32.69.5.05.8.08-.04.11-.07.22-.07-.55.62.58,1.07-.25,1.68-.16.17.23.14.55.2l-.5.09.6.08c.46.15-1.19.55-.34.71l.34-.09c-.05.11.25.28-.15.32.06,0,.36-.03.19.04l-.26.05.5.16c-.16.22-1.05.16-1.05.45.12.09.82.14.99.07,0-.04.15-.14.41-.19l.15.06c.32-.06.63-.11.94-.17-.06.02-.11.04-.07.06l.56-.07-.16-.05s-.02,0-.04,0c.33-.08.63-.17.86-.31l-.5-.05.37-.12.04.11c.34-.13.02-.12-.2-.13.2-.05.33-.09.4-.13h-.77c.3-.08.61-.05.77-.17-.36,0-.67.18-.92.11.34-.13.63-.16.32-.19.2-.04.33-.05.42-.03-.25-.03-.13-.17-.55-.14.43-.14-.15-.22.59-.32-.18,0-.6-.04-.64-.1.9,0,.02-.25.97-.34-.81.01-.39-.27-.85-.38.06,0,.19,0,.16.02.06-.09.3-.14.44-.21-.66.05-.83-.07-1.24-.12.63-.16.78,0,1.39-.08-.54.05-.55-.14-.99-.07.39-.11.19-.08.73-.16-.83.04-.15-.06-.66-.1.4-.14.77-.07.51-.19.25-.07.55.02.55.02,0-.13-.62-.03-.98-.04-.18-.15.46-.09.78-.16-.08-.04-.27-.08-.43-.11-.16,0-.3-.02-.29-.03.1,0,.14,0,.27,0-.5-.05-.03-.08-.65-.24.06,0,.11.02.16.02-.32-.06-.63-.11-.86-.16,0-.05-.39-.18.02-.1-.01.03.15.07.28.11l-.18-.09c.59.11.2.11.64.2-.19-.09-.68-.35-.51-.36.58.2.19.19.7.29-.07,0-.15,0-.22,0,.91.2-.06.01.91.23.17.03-.29-.13-.12-.12-.32-.15-.47-.2-.79-.35-.56-.45,1.44.66.68.19-.38-.24-1.09-.72-.71-.55l.64.46c.07,0-.91-.7-.47-.47.25.22.2.22.28.27.5.35-.35-.31-.35-.37l.56.46c-.08-.12-.46-.59-.54-.83.16.19.32.39.49.56-.24-.41.12-.14.41.32l-.4-.72s.19.31.26.46c.16.25-.26-.46-.41-.75-.02-.08.24.4.35.62-.34-.64-.57-1.63-.16-.8l.09.26c.15.32-.59-1.83-.25-1.07l.04.17c.13.14.16-.02.25-.03.08-.02.2.13.33.84-.14-1.35.16.62.02-1.24.14.96.14,1.28.19,1.91,0,.09.04-1.1.09-1.25l-.04.91c.02-.31.05-.62.09-.92l-.06,1.08.04-.21c0-.06.02-.41.04-.66.09-.35.03.69-.04,1.11.05-.22.1-.43.17-.63-.06.27-.09.41-.14.62.18-.79-.16.84,0,.12.04-.19.1-.46.14-.62-.09.49-.08.51,0,.36l-.15.49c-.03.14.12-.17.15-.11.09-.21.43-.94.48-.97l-.31.64c.2-.37.1-.27.36-.7-.01.12-.35.72-.46.91l.13-.18c-.1.18-.15.27-.28.5.19-.3-.19.35-.06.16,0,.02.14-.14.18-.13.36-.38.29-.28.59-.54-.09.19-.37.48-.32.49.22-.1.35-.21.6-.34-.37.24-.31.28-.6.4.04.01.07.02.13.01.04,0,.07,0,.12,0,.07.02.15.05.25.08.16-.09.22-.15.36-.18.08.02-.13.17-.33.23h-.05c.72.09-.97,1.06-.05,1.01h-.05s.52.11.52.11c-.04.13-.33.03-.57.18.78.06.02.43.54.52-1.19.48.24.57-.51.98l.29-.08c.3,0-.15.11-.21.16.23-.05.25-.12.42-.12.46.43-.23,1.12-.43,1.65-.06.19,1.57-.1.88.23h-.56c.71.3.06.76.65,1.09-.13-.01-.3,0-.3-.04-.4.1,0,.28.33.27-.04.06-.3.03-.47.07-.24.07.52.2.12.2-.06,0-.12,0-.16,0,.2,0-.05.02.42.04-.22.01.21.11-.07.1.53.15-.25,0,.49.22-.77-.23-.62-.16-.26.04-.23-.11-.24-.09-.56-.24,0,.02.15.11.54.32-.46-.22-.27-.11-.13.02.15.12.26.25-.31-.16.4.36.64.75.78,1.08-.71-.81-.05-.22-.8-.99.29.33.87,1.15.67,1.07-.1-.1-.29-.42-.41-.58.25.48-.1.05.21.72.4.68.74,1.59.93,2.01-.74-1.57-.26-.23-1.17-2.28.05.11.16.39.33.75-.06-.09-.16-.3-.35-.74.11.35.38.94.33,1-.11-.28-.15-.4-.28-.74.21.57.39,1.17.25.98-.06-.18-.15-.41-.13-.42-.02.08.08.51.12.85.04.35.04.63-.12.36-.28-1.39-.15-.43-.41-1.63v.16s.02.2.02.2l.14.58c-.06-.02.01.87-.11.46l-.02-.49c-.03.08-.06.14-.09.21l.13.47c0,.6.2,1.52.03,1.16.02-.12-.12-.03-.2-.76h0c-.01.36-.05.72-.13.4-.03-.38-.03-1.28-.05-1.53,0,.92-.12.25-.19,1.05.02-.26.03-.73.03-.84l-.05.74c-.03-.27-.02-.38,0-.84-.07-.2-.04,1.42-.12.73.01-.05.02-.17.04-.26-.07-.39-.25.27-.3-.18.14-1.03.1-.17.21-1.06-.09.12-.43.93-.49.56v.12c-.4,1.21.1-.72-.13-.21.04-.07.25-.63.2-.5.02-.27-.21.13-.48.26l.15-.24c.09-.29-.01-.28.02-.44-.16.21-.16.14-.36.49.38-.75.24-.63.04-.57-.2.08-.44.1-.04-.36.01.02.18-.09.18-.1-.08,0-.15,0-.23,0-.32.24-.19.16-.43.39-.2.12-.38.16-.41.1.26-.05.53-.37.71-.51-.1.07-.22.13-.32.2.56-.46-.69.4-.35,0l.19-.09c-.11,0-.38.06-.35-.04.41-.21.22-.02.56-.18-.05-.05-.85.17-.47-.09.13,0,.16.06.29.04.47-.26.33-.24.39-.33h0s.17-.23.17-.23l-.12.09c-1.15.28-.29-.17-1.07-.08.75-.07.41-.11.9-.26.12-.09.25-.2.39-.23-.42.06.27-.22-.34-.14.15-.05-.01-.09.39-.19-.15-.06-.27.11-.47.16-.59,0,.55-.56-.26-.56-.37-.1-.91,0-1.23-.11.24-.13.59-.1.59-.1.21-.16.15-.22-.06-.27.14-.02.26-.07.43-.14-.06-.06-.6.09-.39-.06.18-.03.48-.07.66-.08-.17-.05-.49-.06-.66-.12.28-.09.44-.04.63-.06-.15-.07-.31-.2-.76-.14l-.11.08c.1-.04.36-.08.43-.07.37,0-.13.16-.29.21l-.12-.04c-.93.29.21.23.19.38l-.7.11h.6c-.17.07-.55.19-.67.15-.31.18.26.02-.09.21-.06.02-.09.03-.12.03l.23.04c-.15.02-.48.14-.39.06-.35.28.58.14.09.35h-.05c.3.17.51-.12,1.14-.11l-1.19.48.5-.12s-.03.09-.23.14c.37-.01.21-.08.55-.12-.42.26.3.26-.47.53.39-.08.25-.2.55-.16-.83.31.19.1-.16.33-.44.11-.25-.07-.6.17.75-.18-.09.27.08.31.58-.2.31.11.56.19-.2.04-.19.45-.31.75l-.09.04c.56-.26.53-.04.7.01-.31.21-.45.27-.62.28l.06.13c.18-.08.29-.11.38-.07l-.39.25c.11.18.59-.01.46.42.32-.33.83-1.01,1.13-1.09-.18.19-.47.51-.56.53.03,0,.17-.09.11.01l-.33.23c-.08.22.26-.21.27-.12-.24.26-.14.24-.34.44-.03,0,.07-.17-.04-.1,0,.13-.08.39-.24.63.13-.16.31-.37.37-.35.1.13-.24.39-.3.64.17-.16.08.16.4-.29.02.05-.11.27-.19.41.19-.12.29.31.53-.29v-.05s.02,0,.03,0c.21-.13.23.05.26.28.03.22.06.48.18.48l-.07.18c.17-.07.27.16.46-.16.03.03-.02.42-.1.63.12-.05.17-.25.23.18-.16.24-.03.32-.14.15.07.28.06.59.28.19-.13.44,0,.68.08.58l-.04-.41c.08-.02.13.07.18.16l-.11.6c.1.47.29.21.43.02.14-.18.25-.33.36.33.08-.39-.16-.36-.08-.83.12.15.28,1.06.34,1.06.24.35.15-.8.38-.55-.05-.2-.11-.75,0-.92.14.1.28.86.2,1.01-.04.01-.06-.05-.07-.12-.04.07-.1.15-.01.37v-.2c.1.21.32.19.32.51.1-.2,0-.33-.1-.42.18.19.28.11.4.1.05-.02.11-.02.18.02-.06-.1-.14-.32-.11-.32.35.13.05-.4.2-.58.18.24.16.72.28.39.18.15.19.51.18.68.08-.44.41.07.55.08l-.04.21c.02-.13.07-.15.12-.18l-.2-.36c.08.04.12,0,.19.17-.05-.3-.29-.62-.35-1.06.14.15.06-.38.31.13-.25-.01.26.51.13.73,0-.09.05-.12.12-.09.03.05.04.11.04.15.41.31-.17-.65-.01-.83.13.32.32.52.32.42-.07.07-.28-.46-.35-.75.22.11,0-.3.07-.34l-.11-.04c-.14-.32-.08-.34-.09-.52.04.06.06.11.07.14-.03-.23.49.4.38-.02.17.13.37.53.5.6-.17-.55.39.18.27-.32-.32-.31-.24-.21-.47-.7.02.19.04.38.05.57-.1-.25-.21-.5-.32-.74-.04.08.09.43.02.42-.18-.4-.12-.29-.36-.57.46.44-.16-.56.18-.32l.73.9c.46.15-.23-.89.07-.98l-.18-.04c-.32-.36.02-.23-.1-.46.28.26.4.28.59.38-.22-.17.08-.26-.5-.74.14.05.28.1.43.14.24-.18-.82-.9-.69-1.06.33.27.57.26.79.6.02-.1.08-.15-.13-.27.21.04-.4-.47-.09-.41-.14-.1-.47-.26-.44-.34.07.02.16.07.16.07-.16-.07-.21-.23-.57-.29.51.08.5-.13.47-.32-.03-.19-.08-.36.37-.42-.11-.22-.23-.47-.26-.63.1,0,.17,0,.13.02.3-.2-.96-.08-.62-.3.53-.13.3.1.5.02,1.1-.08-.17-.25.47-.43l.07.03c.37-.14-.43-.24-.37-.43,0,0,.1,0,.17-.01-.57-.08-.78-.28-.95-.43.43,0,.23.05.67-.03-.07-.07-.7.1-.83-.04.23-.07.42-.21.88-.28l.04.14c.59-.14-.04-.19.05-.27l.26-.02c-.12-.21-.78-.13-.76-.36l-.19.05c-.67-.03.35-.16-.15-.21l.66-.14c-.17-.06-.69-.19-.84-.32.5,0,.79.13,1.09.2,0-.09-.1-.28-.43-.27.07.02.24.04.14.09-.54-.02-.81-.1-.83-.26,1.28-.21.25-.49,1.2-.81-.54-.2.08-.64-.09-.97-.95.37-.05-.09-1.05.18-.08-.06-.07-.09-.02-.11,0,0,0,0,0,0h0s.54-.4.54-.4c.28-.14.24.02.46-.05.03-.2.4-.19.64-.38-.35.12-.53.08-.42-.06l-.42.27c-.6-.1.77-.45.17-.55h.34c-.22-.09-.13-.5-.97-.37.11-.06.37-.18.46-.14,0-.35-1.06-.39-.67-.79l.25-.07c-.09-.04-.48.09-.28-.12.1-.03.25-.06.25-.11-.1-.02-.5-.06-.41-.23l.3-.03c.1-.65-.91-.34-1.18-.51.15-.12.27-.25.36-.37.14.12.47.13.76.1.47-.02.84-.13.6.53.02-.09.03-.13.1-.21.05.83,1.16.34,1.01,1.37,0,.24.27-.06.53-.25l-.29.42.48-.37c.43-.22-.45,1.23.26.74l.18-.3c.04.11.37.02.13.33.05-.05.24-.27.16-.1l-.15.22.46-.24c.04.27-.63.85-.43,1.06.15-.02.68-.48.75-.65-.03-.03,0-.2.15-.42l.15-.06c.18-.26.37-.52.54-.78-.03.06-.04.1-.01.09l.34-.45-.15.08s-.01.02-.02.03c.18-.29.32-.57.39-.83l-.39.32.18-.34.11.05c.15-.34-.07-.1-.23.05.11-.17.17-.3.19-.38l-.55.54c.16-.26.4-.46.43-.66-.26.25-.35.6-.57.73.15-.33.34-.56.09-.35.11-.17.2-.27.28-.32-.2.16-.21-.03-.49.29.21-.4-.26-.05.19-.65-.12.13-.45.39-.53.38.64-.64-.17-.19.45-.93-.56.58-.46.09-.86.33.05-.04.14-.13.13-.09-.03-.11.11-.31.16-.46-.43.5-.64.53-.96.79.33-.56.56-.55.93-1.04-.34.41-.49.29-.75.65.2-.35.07-.19.4-.63-.56.61-.15.06-.54.39.18-.38.5-.6.23-.5.13-.23.41-.37.41-.37-.09-.09-.46.41-.72.66-.23.02.26-.39.44-.66-.09.03-.25.14-.38.23-.12.11-.22.2-.23.18.07-.07.1-.1.19-.19-.39.32-.07-.03-.63.29.05-.03.09-.07.13-.09-.26.18-.53.37-.72.5-.04-.03-.41.15-.06-.08.01.03.16-.06.27-.12l-.19.06c.49-.34.22-.07.59-.31-.2.07-.72.23-.62.1.55-.27.27,0,.7-.29-.05.05-.1.1-.15.16.78-.5-.04.05.81-.48.14-.1-.3.11-.17,0-.33.12-.47.2-.81.31-.71.08,1.48-.56.62-.35-.43.1-1.29.26-.89.11l.77-.12s-1.14.14-.67,0c.33-.02.3.02.39,0,.6-.11-.47.03-.5-.01l.72-.07c-.14-.02-.74-.09-.96-.2.25.02.5.05.74.05-.46-.12-.01-.18.52-.07l-.8-.23s.35.09.51.14c.29.06-.5-.14-.82-.25-.06-.04.45.11.69.19-.69-.21-1.56-.75-.67-.45l.25.12c.34.12-1.71-.87-.94-.58l.15.09c.19.01.1-.13.16-.19.04-.07.23-.05.83.36-1.05-.86.55.33-.86-.89.78.58,1,.81,1.48,1.22.07.06-.75-.8-.82-.95l.62.67c-.2-.24-.4-.47-.59-.71l.72.81-.12-.17s-.28-.3-.44-.5c-.18-.31.51.47.76.82-.12-.19-.23-.38-.32-.57.15.24.22.36.34.54-.43-.69.48.71.09.08-.1-.16-.25-.4-.34-.54.29.41.31.42.25.25l.24.46c.08.12-.04-.2.02-.18-.09-.21-.37-.97-.35-1.03l.23.67c-.11-.4-.12-.26-.24-.75.08.09.26.76.32.97l-.04-.22c.06.19.08.3.16.55-.08-.35.12.4.07.15.02,0,0-.2.04-.22-.02-.52,0-.4.04-.8.07.19.08.6.12.57.09-.22.1-.4.18-.67-.09.43-.03.42-.14.71.04-.02.06-.04.1-.08.02-.03.05-.06.08-.09.06-.03.14-.07.24-.12.05-.17.05-.26.13-.38.08-.04.03.21-.07.4l-.03.04c.57-.45.06,1.43.68.74l-.03.03.44-.29c.07.12-.22.25-.27.53.59-.51.32.3.75,0-.51,1.18.57.24.33,1.06l.15-.26c.21-.22-.03.18-.03.27.12-.2.09-.26.21-.38.63-.02.63.96.86,1.47.1.17,1.04-1.18.79-.46l-.4.4c.71-.29.58.5,1.23.31-.1.08-.21.21-.24.18-.21.36.2.2.43-.04.02.07-.19.23-.28.38-.12.22.51-.23.23.06-.04.04-.09.09-.12.11.14-.14-.02.05.32-.27-.15.17.23-.07.02.12.48-.27-.18.18.5-.19-.7.38-.55.33-.15.22-.24.08-.23.11-.57.22.02,0,.18-.03.61-.16-.48.17-.27.12-.08.1.19-.02.36,0-.34.11.53-.03.98.08,1.32.21-1.07-.07-.19-.12-1.26-.13.44.03,1.43.19,1.23.28-.14,0-.5-.09-.69-.12.52.16-.03.1.65.36.77.2,1.65.6,2.07.76-1.64-.59-.35.02-2.44-.78.11.05.38.16.77.3-.11-.02-.33-.1-.77-.28.32.17.93.4.94.47-.28-.12-.4-.18-.72-.32.55.25,1.11.55.87.52-.17-.09-.39-.18-.39-.2.05.07.42.3.69.52.28.22.47.42.17.34-1.18-.78-.42-.2-1.44-.86l.12.11.15.14.51.31c-.06.03.62.61.25.41l-.36-.33c.04.08.06.14.08.21l.42.24c.42.43,1.22.93.84.8-.07-.1-.1.06-.68-.39h0c.25.26.48.54.2.37-.29-.25-.93-.88-1.12-1.05.67.69.04.22.68.95-.14-.17-.55-.6-.64-.69l.49.56c-.21-.17-.29-.25-.6-.6-.19-.09.98,1.04.43.6-.03-.05-.11-.13-.16-.21-.32-.23.01.37-.34.08-.63-.83-.05-.2-.6-.89.02.15.35.96.05.74l.08.09c.58,1.13-.43-.58-.24-.07-.02-.08-.27-.62-.21-.49-.17-.2-.06.24-.15.52l-.06-.27c-.14-.26-.21-.19-.3-.33.04.26-.01.21.09.6-.26-.8-.27-.61-.37-.43-.08.2-.24.38-.28-.23.02,0,.07-.19.05-.2-.05.06-.11.11-.17.16-.05.4-.02.25-.03.57-.06.23-.16.38-.22.36.15-.22.12-.63.14-.86-.02.12-.06.25-.09.37.07-.73-.21.77-.25.24l.07-.19c-.08.08-.23.31-.28.23.14-.43.14-.17.26-.52-.07,0-.48.72-.39.27.09-.1.15-.07.23-.17.15-.52.07-.4.04-.51h0s-.05-.27-.05-.27l-.02.15c-.62,1.01-.32.08-.82.7.48-.58.21-.37.45-.82.02-.15.04-.32.12-.44-.26.33.03-.35-.34.14.07-.15-.07-.05.14-.41-.15.07-.11.27-.21.45-.41.42,0-.78-.58-.21-.33.18-.64.64-.95.79.08-.26.35-.49.35-.49.03-.26-.05-.26-.24-.15.09-.11.14-.23.21-.4-.09,0-.35.49-.32.23.11-.15.28-.39.41-.53-.15.08-.39.3-.55.38.13-.26.28-.34.4-.48-.16.06-.36.08-.64.44l-.03.17s.19-.34.26-.4c.27-.25.03.2-.06.35l-.11.05c-.45.86.32.01.4.13l-.41.57.42-.43c-.07.17-.25.52-.36.58-.09.35.2-.17.08.21-.02.06-.04.08-.06.1l.19-.13c-.09.12-.24.44-.24.32-.05.44.51-.31.31.19l-.03.03c.34-.09.28-.44.73-.88l-.5,1.18.27-.44s.04.09-.07.26c.25-.27.09-.21.3-.47-.11.47.4-.03.05.71.22-.33.03-.32.28-.51-.37.81.2-.07.12.34-.23.39-.23.13-.3.55.4-.66.13.25.28.16.27-.55.3-.14.54-.26-.12.17.18.46.31.75l-.03.1c.21-.58.35-.4.5-.48-.07.37-.12.51-.24.64l.14.05c.07-.19.13-.28.22-.32l-.1.46c.21.05.41-.42.62-.03,0-.46-.13-1.31.03-1.57.01.26.03.69-.02.77.02-.03.05-.19.09-.07l-.07.39c.1.21.04-.33.11-.27.01.35.07.27.07.55-.02.03-.07-.17-.1-.04.09.09.21.33.28.61-.03-.21-.04-.48.02-.51.17.02.11.45.24.66,0-.24.17.06.08-.48.05.02.11.27.16.42.05-.22.42.02.17-.58l-.03-.04s0,0,0-.02c.06-.24.2-.13.38.02.17.14.38.3.47.21l.08.18c.07-.17.31-.08.21-.44.04,0,.28.31.38.51.05-.12-.06-.3.29-.03.06.28.21.25,0,.21.25.15.46.38.34-.07.22.41.48.48.47.35l-.32-.26c.04-.07.14-.04.24-.02l.35.51c.41.26.35-.06.32-.28-.03-.23-.06-.41.49-.02-.22-.33-.37-.14-.64-.53.19.02.95.55.99.51.42.08-.46-.67-.12-.66-.18-.11-.61-.45-.65-.66.17-.03.8.41.86.57-.01.04-.08,0-.13-.04.02.08.04.18.26.27l-.14-.14c.22.08.36-.1.59.13-.07-.21-.23-.23-.37-.23.26,0,.27-.12.36-.21.02-.05.06-.09.14-.12-.11-.03-.32-.13-.3-.16.34-.15-.25-.32-.27-.55.3.04.63.4.47.08.23-.02.49.23.61.36-.26-.37.33-.24.45-.33l.12.18c-.07-.11-.06-.16-.04-.21l-.4-.11c.08-.03.09-.08.26,0-.25-.17-.64-.24-.99-.5.2,0-.22-.31.31-.13-.19.17.54.18.61.43-.06-.07-.05-.12.03-.15.06.01.11.05.14.08.51-.07-.58-.34-.59-.58.32.14.59.14.52.07,0,.1-.52-.13-.78-.29.23-.08-.21-.22-.19-.29l-.11.05c-.33-.12-.3-.18-.44-.3.07.02.12.03.15.05-.19-.14.63-.06.25-.28.21-.03.63.12.78.08-.51-.27.4-.15-.04-.42-.44,0-.32.02-.83-.17.15.12.3.24.44.37-.25-.11-.5-.21-.75-.3.03.09.37.23.31.28-.41-.16-.29-.12-.66-.14.64-.02-.51-.28-.1-.35l1.15.11c.43-.22-.79-.46-.65-.74l-.15.1c-.48-.03-.15-.18-.4-.26.38-.02.48-.08.69-.15-.27.03-.12-.24-.88-.16.13-.06.27-.13.4-.2.04-.3-1.22-.05-1.24-.26.43-.05.59-.22.98-.14-.06-.08-.05-.17-.29-.1.18-.12-.62-.05-.35-.23-.17.02-.52.15-.55.07.06-.04.16-.07.16-.07-.16.06-.31-.02-.61.2.42-.3.26-.45.11-.56-.16-.11-.31-.2-.04-.56-.23-.08-.49-.17-.63-.27.08-.07.11-.12.11-.08.07-.36-.74.62-.65.23.28-.47.28-.14.37-.34.72-.84-.29-.06.03-.63l.07-.03c.16-.36-.48.14-.56-.04,0,0,.07-.07.11-.13-.46.35-.75.35-.98.37.31-.3.2-.13.45-.49-.1,0-.42.56-.62.56.11-.21.15-.44.43-.82l.13.07c.32-.52-.16-.1-.15-.23l.17-.2c-.23-.07-.64.46-.8.28l-.1.17c-.49.45.14-.36-.26-.04l.36-.56c-.16.08-.62.35-.81.37.35-.36.65-.46.91-.63-.06-.06-.27-.13-.49.12.07-.03.2-.14.16-.04-.39.37-.65.51-.78.4.76-1.05-.17-.52.28-1.42-.52.24-.4-.51-.75-.62-.41.93-.1-.03-.62.87-.1.02-.12-.01-.09-.07,0,0,0,0,0,0h0s.1-.66.1-.66c.1-.29.18-.16.29-.36-.12-.16.15-.42.18-.72-.16.33-.32.43-.34.25l-.1.49c-.49.36.23-.87-.27-.51l.23-.25c-.21.11-.44-.25-.94.43.03-.12.13-.38.22-.42-.24-.26-1.02.47-1.03-.08l.13-.22c-.09.04-.27.4-.29.11.05-.09.13-.22.1-.25-.09.06-.39.31-.45.13l.19-.23c-.39-.53-.89.41-1.2.47.02-.19.02-.36,0-.51.18,0,.43-.24.61-.47.32-.35.5-.69.8-.05-.04-.08-.07-.11-.07-.22.62.55,1.07-.58,1.68.25.17.16.14-.23.2-.55l.09.5.08-.6c.15-.46.55,1.19.71.34l-.09-.34c.11.05.28-.25.32.15,0-.06-.03-.36.04-.19l.05.26.16-.5c.22.16.16,1.05.45,1.05.09-.12.14-.82.07-.99-.04,0-.14-.15-.19-.41l.06-.15c-.06-.32-.11-.63-.17-.93.02.06.04.11.06.07l-.08-.56-.05.16s0,.02,0,.04c-.08-.33-.17-.63-.31-.86l-.05.5-.12-.37.11-.04c-.13-.34-.12-.02-.12.2-.05-.2-.09-.33-.13-.4v.77c-.08-.3-.05-.61-.17-.77,0,.36.18.67.11.92-.13-.34-.16-.63-.19-.32-.04-.2-.05-.33-.03-.42-.03.25-.17.13-.14.55-.14-.43-.22.15-.32-.59,0,.18-.04.6-.1.64,0-.9-.25-.02-.34-.97.01.81-.27.39-.38.85,0-.06,0-.19.02-.16-.09-.06-.14-.3-.21-.44.05.66-.07.83-.12,1.24-.16-.63,0-.78-.08-1.39.05.54-.14.55-.07.99-.11-.39-.08-.19-.16-.73.04.83-.06.15-.1.66-.14-.4-.07-.77-.19-.51-.07-.25.02-.55.02-.55-.13,0-.03.62-.04.98-.15.18-.09-.46-.16-.78-.04.08-.08.27-.11.43,0,.16-.02.3-.03.29,0-.1,0-.14,0-.27-.05.5-.08.03-.24.65,0-.06.02-.11.02-.16-.06.32-.11.63-.16.86-.05.01-.18.39-.1-.02.03.01.07-.15.11-.28l-.09.18c.11-.59.11-.2.2-.64-.09.19-.35.68-.36.51.2-.58.19-.19.29-.7,0,.07,0,.15,0,.22.2-.91.01.06.23-.91.03-.17-.13.29-.12.12-.15.32-.2.47-.35.79-.45.56.66-1.44.19-.68-.24.38-.72,1.09-.55.71l.46-.64c0-.07-.7.91-.47.47.22-.25.22-.2.27-.28.35-.5-.31.35-.37.35l.46-.56c-.12.08-.59.46-.83.54.19-.16.39-.32.56-.49-.41.24-.14-.12.32-.41l-.72.4s.31-.19.46-.26c.25-.16-.46.26-.75.41-.08.02.4-.24.62-.35-.64.34-1.63.57-.8.16l.26-.09c.32-.15-1.83.59-1.07.25l.17-.04c.14-.13-.02-.16-.03-.25-.02-.08.13-.2.84-.33-1.35.14.62-.16-1.24-.02.96-.14,1.28-.14,1.91-.19.09,0-1.1-.04-1.25-.09l.91.04c-.31-.02-.62-.05-.92-.09l1.08.06-.21-.04c-.06,0-.41-.02-.66-.04-.35-.09.69-.03,1.11.04-.22-.05-.43-.1-.63-.17.27.06.41.09.62.14-.79-.18.84.16.12,0-.19-.04-.46-.1-.62-.14.49.09.51.08.36,0l.49.15c.14.03-.17-.12-.11-.15-.21-.09-.94-.43-.97-.48l.64.31c-.37-.2-.27-.1-.7-.36.12.01.72.35.91.46l-.18-.13c.18.1.27.15.5.28-.3-.19.35.19.16.06.02,0-.14-.14-.13-.18-.38-.36-.28-.29-.54-.59.19.09.48.37.49.32-.1-.22-.21-.35-.34-.6.24.37.28.31.4.6.01-.04.02-.07.01-.13,0-.04,0-.07,0-.12.02-.07.05-.15.08-.25-.09-.16-.15-.22-.18-.36.02-.08.17.13.23.33v.05c.09-.72,1.06.97,1.01.05v.05s.11-.52.11-.52c.13.04.03.33.18.57.06-.78.43-.02.53-.54.48,1.19.57-.24.98.51l-.08-.29c0-.3.11.15.16.21-.05-.23-.12-.25-.12-.42.43-.46,1.12.23,1.65.43.19.06-.1-1.57.23-.88v.56c.3-.71.76-.06,1.09-.65-.01.13,0,.3-.04.3.1.4.28,0,.27-.33.06.04.03.3.07.47.07.24.2-.52.2-.12,0,.06,0,.12,0,.16,0-.2.02.05.04-.42.01.22.11-.21.1.07.15-.53,0,.25.22-.49-.23.77-.16.62.04.26-.11.23-.09.24-.24.56.02,0,.11-.15.32-.54-.22.46-.11.27.02.13.12-.15.25-.26-.16.31.36-.4.75-.64,1.08-.78-.81.71-.22.05-.99.8.33-.29,1.15-.87,1.07-.67-.1.1-.42.29-.58.41.48-.25.05.1.72-.21.68-.4,1.59-.74,2.01-.93-1.57.74-.23.26-2.28,1.17.11-.05.39-.16.75-.33-.09.06-.3.16-.74.35.35-.11.94-.38,1-.33-.28.11-.4.15-.74.28.57-.21,1.17-.39.98-.25-.18.06-.41.15-.42.13.08.02.51-.08.85-.12.35-.04.63-.04.36.12-1.39.28-.43.15-1.63.41h.16s.2-.02.2-.02l.58-.14c-.02.06.87-.01.46.11l-.49.02c.08.03.14.06.21.09l.47-.13c.6,0,1.52-.2,1.16-.03-.12-.02-.03.12-.76.2h0c.36.01.73.05.41.13-.38.03-1.28.03-1.53.05.92,0,.25.12,1.05.19-.26-.02-.73-.03-.84-.03l.74.05c-.27.03-.38.02-.84,0-.2.07,1.42.04.73.12-.05-.01-.17-.02-.26-.04-.39.07.27.25-.18.3-1.03-.14-.17-.1-1.06-.21.12.09.93.43.56.49h.12c1.21.4-.72-.1-.21.13-.07-.04-.63-.25-.5-.2-.27-.02.13.21.26.48l-.24-.15c-.29-.09-.28.01-.44-.02.21.16.14.16.49.36-.75-.38-.63-.24-.57-.04.08.2.1.44-.36.04.02-.01-.09-.18-.1-.18,0,.08,0,.15,0,.23.24.32.16.19.39.43.12.2.16.38.1.41-.05-.26-.37-.53-.51-.71.07.1.13.22.2.32-.46-.56.4.69,0,.35l-.09-.19c0,.11.06.38-.04.35-.21-.41-.02-.22-.18-.56-.05.05.17.85-.09.47,0-.13.06-.16.04-.29-.26-.47-.24-.33-.33-.39h.01s-.24-.16-.24-.16l.09.12c.28,1.15-.17.29-.08,1.07-.07-.75-.11-.41-.26-.9-.09-.12-.2-.25-.23-.39.06.42-.22-.27-.14.34-.05-.15-.09.01-.19-.39-.06.15.11.27.16.47,0,.59-.56-.55-.56.26-.1.37,0,.91-.11,1.23-.13-.24-.1-.59-.1-.59-.16-.21-.22-.15-.27.06-.02-.14-.07-.26-.14-.43-.06.06.09.6-.06.39-.03-.18-.07-.48-.08-.66-.05.17-.06.49-.12.66-.09-.28-.04-.44-.06-.63-.07.15-.2.31-.14.76l.08.11c-.04-.1-.08-.36-.07-.43,0-.37.16.13.21.29l-.04.12c.29.93.23-.21.38-.19l.11.7v-.6c.07.17.19.55.15.67.18.31.02-.26.21.09.02.06.03.09.03.12l.04-.23c.02.15.14.48.06.39.28.35.14-.58.35-.09v.05c.17-.3-.12-.51-.11-1.14l.48,1.19-.12-.5s.09.03.14.23c-.01-.37-.08-.21-.12-.55.26.42.26-.3.53.47-.08-.39-.2-.25-.16-.55.31.83.1-.19.33.16.11.44-.07.25.17.6-.18-.75.27.09.31-.08-.2-.58.11-.31.19-.56.04.2.45.19.75.31l.04.09c-.26-.56-.04-.53.01-.7.21.31.27.45.28.62l.13-.06c-.08-.18-.11-.29-.07-.38l.25.39c.18-.11-.01-.59.42-.46-.33-.32-1.01-.83-1.09-1.13.19.18.51.47.53.56,0-.03-.09-.17.01-.11l.23.33c.22.08-.21-.26-.12-.27.26.24.24.14.44.34,0,.03-.17-.07-.1.04.13,0,.39.08.63.24-.16-.13-.37-.31-.35-.37.13-.1.39.24.64.3-.16-.17.16-.08-.29-.4.05-.02.27.11.41.19-.12-.19.31-.29-.29-.53h-.05s0-.02,0-.03c-.13-.21.05-.23.28-.26.22-.03.48-.06.48-.18l.18.07c-.07-.17.16-.27-.16-.46.03-.03.42.02.63.1-.05-.12-.25-.17.18-.23.24.16.32.03.15.14.28-.07.59-.06.19-.28.44.13.68,0,.58-.08l-.41.04c-.02-.08.07-.13.16-.18l.6.11c.47-.1.21-.29.02-.43-.18-.14-.33-.25.33-.36-.39-.08-.36.16-.83.08.15-.12,1.06-.28,1.06-.34.35-.24-.8-.15-.55-.38-.2.05-.75.11-.92,0,.1-.14.86-.28,1.01-.2.01.04-.05.06-.12.07.07.04.15.1.37.01h-.2c.21-.1.19-.32.51-.32ZM33.47,26.46c-.08-.09-.16-.16-.24-.21.26-.22.52-.44.65-.55-.22.3-.33.55-.42.76ZM24.72,30.84l-.05-.14s.03-.02.05-.03c0,.06,0,.11,0,.16ZM28.18,30.14s-.08,0-.11.01c-.06.01-.11.03-.16.03-.05-.12-.09-.23-.08-.28.14.09-.11-.54.24.05h-.03c.06.08.1.14.15.18ZM27.69,25.43s.03-.03.03-.05c.16.02.33.05.32.06-.11-.02-.21,0-.35,0ZM27.7,25.3s-.02-.03-.02-.03c0,0,.02.02.03.03,0,0,0,0,0,0ZM28.42,30.3c.07,0,.11-.07.15-.1l-.49-.75c.48.45.59.23.63.01.01-.06.02-.12.04-.17.36.21.5.29.67.48-.05.02-.29-.06-.29-.1-.13.07.5.25.28.33l-.33-.16c-.02.13.15.18.56.35.24.14-.04.22-.52.14.29.08.71.24.6.29-.16-.02-.27-.06-.33-.09,0-.03-.02-.06-.03-.1,0,.03-.01.08-.02.13-.01.02-.02.04-.01.06-.01.03-.03.07-.04.1-.13-.02-.23-.02-.31-.02.11-.69-.1-.65-.21-.76l-.18.76s-.04,0-.06,0c-.02-.19-.05-.32-.09-.41ZM27.83,21.4s.02,0,.03,0c-.01,0-.03.01-.04.02,0,0,0-.02,0-.03ZM28.28,21.27c-.03.06-.09.15-.14.21,0-.03.02-.09.11-.19-.05.04-.25.25-.16.1l.02-.02c.05-.02.11-.05.17-.1ZM30.37,23.6h-.02c-.11-.03-.26-.05-.41-.06-.1-.01-.2-.02-.28-.03.35.01.7.02.71.09ZM31.13,20.94c-.21.02.26.28-.15.18.04-.08.08-.15.12-.21,0,0,.03.02.03.03ZM31.02,25.35c.07.05-.03.06-.13.06,0-.02-.02-.04-.04-.06.02,0,.04,0,.05-.01.04,0,.08,0,.11.01ZM29.45,30.78c.2.13.49.25.2.3-.02,0-.02,0-.04,0-.06-.09-.12-.19-.17-.3ZM28.82,29.22s.08.07.12.11l-.15-.07s.02-.03.04-.04ZM29.9,31.58c.06.03.08.05.02.09,0-.03-.01-.06-.02-.09ZM29.66,25.11c.08.07.26.08.67-.1-.25.1-.28.16-.2.2-.26-.04-.51-.07-.63-.09.06,0,.11-.01.17-.02ZM30.21,25.25c.05.01.13.02.2.03,0,.04.02.08.02.14-.22-.06-.4-.11-.22-.16ZM30.96,21.47c-.05,0-.1,0-.14,0,0-.01.01-.02.02-.04l.13.03ZM29.09,31.1s-.02.03-.03.03c-.02-.21-.28.26-.18-.15.08.04.15.08.21.12ZM29.94,31.7c.34.03.69.06.85.07-.37.06-.62.15-.83.24,0-.12,0-.22-.02-.32ZM30.8,26.48c-.12.2-.19.35-.71-.06.08.22-.02.27.07.47l-.16-.16s-.02-.02-.04-.04l-.16-.16s-.03,0-.04,0c0-.02.01-.03.06-.04l.27.14c.07-.1-.08-.14-.41-.29-.17-.11.16-.16.58-.08-.25-.08-.57-.21-.44-.24.16.02.25.07.3.09.36-.13-.49-.36-.02-.41.16.02.23.02.28.02-.03.15-.08.27-.11.25.32.06.45,0,.74.06l-.02.07h.08s-.01-.05-.01-.05c.07.02.16.04.25.08l.24.39s-.03.03-.05.04c-.45-.38-.62-.24-.72-.08ZM31.85,26.24c-.41-.57-.53-.39-.69-.39l.16.25c-.08-.04-.17-.09-.26-.14v-.04s-.02.03-.02.03c-.29-.15-.58-.3-.43-.37.04,0,.08,0,.15,0l.05.02s.01-.06-.06-.09c.07-.03.13-.06.14-.1.26,0,.25-.07.23-.14.14-.03.25-.04.39-.03-.03.05-.34.21-.27.12-.13.21.53-.16.42.06l-.35.12c.08.11.23.02.64-.14.26-.07.12.19-.26.47.27-.15.67-.33.63-.22-.13.1-.23.15-.3.17-.03-.02-.06-.03-.09-.05.02.02.05.07.07.11,0,.02.01.04.03.05.02.03.03.07.04.1-.11.08-.18.14-.24.21ZM33.19,26.22s-.05-.03-.07-.04c.05-.02.07,0,.07.04ZM32.24,25.94c.23-.05.52-.18.36.07-.01.01-.02.02-.03.03-.11-.02-.21-.05-.33-.1ZM33.37,18.92s-.01,0-.02,0c0,0,0,0,.01-.02v.02ZM33.24,18.88s-.08-.02-.12-.02c0-.09-.03-.19-.07-.32.13.07.17.23.19.34ZM31.77,19.21c.06.37.15.62.24.83-.12,0-.22,0-.32.02.03-.34.06-.69.07-.85ZM31.66,20.07s-.06.01-.09.02c.03-.06.05-.08.09-.02ZM31.48,17.11s.03-.05.03-.06c0,.01-.02.04-.03.07,0,0,0-.01,0-.01ZM31.35,17.22s.03,0,.05,0c-.02.23-.05.48-.07.48.03-.16,0-.28.01-.47ZM31.08,20.34s0,.02,0,.04c-.09.06-.19.12-.3.17.13-.2.25-.49.3-.2ZM29.33,21.07l-.21.47c.37-.6.43-.77.66-.97.02.05-.06.29-.1.29.07.13.25-.5.33-.28l-.16.33c.13.02.18-.15.35-.56.14-.24.22.04.14.52.08-.29.24-.71.29-.6-.02.16-.06.27-.09.33-.03,0-.06.02-.1.03.03,0,.08.01.13.02.02.01.04.02.06.01.03.01.07.03.1.04-.02.13-.02.23-.02.31-.69-.11-.65.1-.76.21l.76.18s0,.04,0,.06c-.59.05-.61.27-.57.46.06.22.11.38-.55.46.22.1.18.2.39.28h-.51s-.02.02-.03.04c-.04-.04-.09-.07-.13-.1-.19-.15-.32-.28-.09-.72.07-.21-.26.02-.54.15l.38-.34c-.18.09-.36.19-.53.28-.25.11.04-.28.18-.54-.02.24.4-.14.62-.39ZM28.77,21.28s0,0,0,0c0-.01,0-.02.01-.03,0,.01,0,.02-.01.03ZM25.94,17.76c-.05-.23-.18-.52.07-.36.01.01.02.02.03.03-.02.11-.05.21-.1.33ZM26.22,16.81s-.03.05-.04.07c-.02-.05,0-.07.04-.07ZM26.42,17.8s.03,0,.04,0c-.13.16.38,0,.02.23-.03-.09-.05-.17-.07-.23ZM26.72,18.29s-.06.07-.1.1c0-.01,0-.02-.01-.04l.11-.07ZM26.62,14.78s-.01,0-.02,0c0,0,0-.01,0-.02h.02ZM26.5,14.85s-.07.05-.1.07c-.07-.06-.15-.12-.27-.17.15-.04.28.05.37.1ZM26.46,16.53c-.09.08-.16.16-.21.24-.22-.26-.44-.52-.55-.65.3.22.55.33.76.42ZM25.28,19.16l.19.48c-.17-.69-.24-.85-.22-1.16.05.03.21.34.12.27.21.13-.16-.53.06-.42l.12.35c.11-.08.02-.23-.14-.64-.07-.26.19-.12.47.26-.15-.27-.33-.67-.22-.63.1.13.15.23.17.3-.02.03-.03.06-.05.09.02-.02.07-.05.11-.07.02,0,.04-.01.05-.03.03-.02.07-.03.1-.04.08.11.14.18.21.24-.57.41-.39.53-.39.69l.66-.41s.03.03.04.05c-.38.45-.24.62-.08.72.2.12.35.19-.06.71.22-.08.27.02.47-.07l-.36.36c.04.31.08.47.39.63l-.27.22c.14.16,1.04-.92,1.16-.83l-.38.61c.07.08.13.21.19.33-.02.07-.07.19-.17.33l-.13.08c-.18.26-.37.52-.54.78.03-.06.05-.1.02-.08l-.32.46.12-.11s.01-.02.02-.02c-.18.28-.34.55-.46.78l.33-.36-.21.32h-.05c-.19.3,0,.05.16-.11-.12.16-.2.28-.24.35.17-.19.34-.37.52-.55-.19.24-.41.46-.49.61.24-.25.42-.55.61-.69-.21.3-.41.51-.18.3-.13.15-.22.25-.29.31.18-.16.12-.03.42-.32-.28.34.16,0-.38.51.13-.12.46-.37.5-.36-.7.56.03.11-.71.72.64-.49.33-.14.73-.36-.05.03-.16.1-.13.07-.03.07-.23.21-.35.3.55-.36.71-.4,1.08-.57-.53.37-.68.38-1.2.71.46-.28.49-.22.87-.46-.33.23-.15.12-.63.4.73-.39.14-.05.6-.26-.35.23-.69.36-.45.29-.22.12-.5.22-.5.22,0,.03.56-.25.89-.39.19-.01-.41.22-.69.36.16-.05.71-.24.69-.2-.1.04-.13.06-.25.1.48-.13.06.09.67-.04-.05.02-.1.04-.15.05.3-.09.6-.19.82-.25.02.03.4-.04,0,.08,0-.02-.15.02-.28.04h.18c-.56.17-.21,0-.62.12.2,0,.69-.04.54.05-.56.13-.22-.06-.7.11l.2-.12c-.87.27.05-.05-.88.24-.15.09.31,0,.15.09.32-.04.46-.09.78-.13.59.05-1.42.29-.65.26.38-.02,1.11-.07.73.03l-.65.03c-.06.07.94,0,.5.1-.26-.01-.22-.05-.3-.04-.51.06.37.02.37.07h-.58c.08.08.5.18.59.3-.17-.03-.35-.06-.52-.06.28.14-.11.22-.46.2l.47.17s-.22-.05-.31-.08c-.19-.02.3.09.48.17.02.03-.28-.06-.42-.11.39.17.78.53.25.38l-.13-.08c-.2-.04.89.51.44.37l-.07-.05c-.26.01.03.43-.64.06.55.46-.32-.1.44.54-.43-.26-.55-.4-.85-.56-.04-.02.41.47.46.57l-.36-.38.34.43-.43-.45.07.12s.17.16.27.27c.11.22-.33-.19-.49-.41.06.13.12.27.18.42-.12-.17-.15-.24-.21-.36.27.47-.32-.45-.08-.02.07.09.17.26.23.35-.2-.24-.24-.23-.21-.09l-.18-.31c-.09-.04-.04.21-.12.25.09.14.34.71.33.78l-.22-.5c.11.32.11.18.23.58-.07-.04-.26-.57-.31-.74l.03.19c-.06-.15-.09-.24-.16-.43.1.33-.24-.5-.06.06l-.05-.15c-.06.02-.04.2-.1.25.1.46.05.37.11.75-.1-.14-.22-.5-.27-.45-.02.24.03.4.03.69-.05-.43-.11-.39-.1-.7-.08.07-.08.1-.2.44,0,.18.02.26.01.4-.03.07-.05-.18-.04-.39v-.04c-.07.32-.15,0-.17-.29-.03-.3-.02-.54-.15-.11v-.04c-.05.15-.11.29-.19.43-.03-.08.11-.31.14-.58-.3.68-.1-.15-.34.29.2-.6.17-.6.09-.55-.08.06-.2.15-.02-.23l-.15.26c-.17.24.07-.16.09-.23-.12.2-.12.24-.22.38-.18.11-.21-.06-.16-.25.06-.21.18-.45.24-.59.04-.08-1.19,1.01-.71.47l.45-.34c-.29.17-.33.1-.36.04-.02-.07-.02-.13-.31-.06.12-.05.27-.13.27-.12.35-.21-.02-.09-.32.04.02-.04.27-.13.42-.21.21-.11-.51.15-.14-.02.06-.03.12-.04.15-.05-.19.06.03-.09-.41.09.2-.12-.23-.03.02-.15-.51.11.23-.15-.5.02.75-.18.58-.21.22-.19.23-.03.23-.07.55-.11-.01-.03-.16-.04-.55.02.89-.16-.75-.09.42-.21-.42-.08-.69-.22-.86-.36.75.08.07.14.87.19-.32-.09-.94-.25-.75-.34.11,0,.32.08.45.1-.29-.16.1-.16-.27-.36.07.02.14.05.19.08-.02-.02.12,0-.21-.11l.08.05c-.5-.11-.97-.41-1.22-.51.93.37.28-.04,1.44.46-.06-.03-.21-.11-.42-.19.07,0,.2.05.44.16-.16-.13-.5-.25-.46-.31.15.07.21.1.39.19-.29-.16-.57-.33-.41-.33.09.05.21.1.2.11-.02-.1-.68-.58-.34-.54.6.42.23.09.76.43l-.13-.15-.27-.15s-.3-.35-.1-.27l.18.19-.03-.16-.23-.1c-.22-.25-.64-.48-.44-.45.04.06.05-.06.36.16h0c-.13-.15-.26-.32-.11-.26.16.13.51.48.62.56-.37-.38-.02-.2-.39-.63.08.1.31.34.37.39l-.28-.32c.12.08.17.13.35.32.12,0-.57-.57-.25-.38.02.03.06.08.09.14.19.07-.02-.35.19-.24.4.49.03.17.38.58,0-.15-.23-.78-.03-.72l-.06-.05c-.43-.79.31.33.16-.07.01.07.21.45.17.36.14.1.04-.27.08-.59l.07.22c.13.17.17.07.26.15-.06-.22-.01-.2-.14-.51.29.59.29.42.33.2.03-.22.09-.46.25.07-.02,0,0,.21,0,.2l.09-.23c-.06-.39-.04-.23-.12-.53-.01-.23.01-.42.06-.42-.05.27.07.62.11.84-.01-.12-.02-.25-.03-.37.14.69-.05-.79.1-.32v.21c.04-.11.07-.38.12-.32.03.45-.04.21-.03.59.05-.03.11-.87.17-.41-.03.12-.07.12-.09.25.06.53.06.4.1.48h0s.08.23.08.23l-.02-.14c.13-1.17.15-.22.32-.97-.18.71-.06.42-.13.93,0,.14.02.31,0,.45.09-.4,0,.33.15-.26-.02.16.04.02-.04.43.07-.12.04-.28.08-.49.2-.54.02.71.32-.02.19-.27.38-.79.6-1.01-.05.26-.24.55-.24.55-.03.25.03.22.15.07-.07.13-.1.25-.16.42.05-.02.26-.54.22-.29-.08.16-.22.42-.31.59.1-.12.27-.38.39-.49-.12.26-.22.38-.32.54.1-.1.24-.18.47-.57l.04-.16s-.17.35-.23.42c-.21.3,0-.17.08-.32l.08-.08c.39-.89-.23.07-.26-.01l.31-.63-.31.5c.05-.18.19-.55.27-.63.06-.35-.15.21-.07-.17.01-.06.03-.09.05-.11l-.14.17c.06-.13.16-.47.17-.36,0-.43-.37.43-.26-.09l.02-.04c-.24.18-.17.49-.45,1.04.09-.42.16-.83.23-1.26l-.14.5s-.04-.07.01-.27c-.15.33-.04.22-.15.54.01-.49-.26.17-.14-.64-.09.38.03.31-.1.57.11-.88-.13.14-.15-.28.08-.45.13-.2.09-.62-.14.76-.15-.19-.25-.05-.04.61-.18.25-.3.45,0-.03-.01-.06-.02-.08.15-.03.24-.18,0-.73.24.63.29-.12.26-.51ZM24.06,31.05l-.12-.03c.06-.09.12-.22.18-.4,0,.11-.01.34-.06.43ZM24.06,32.24c.05.23.18.52-.07.36-.01-.01-.02-.02-.03-.03.02-.11.05-.21.1-.33ZM23.78,33.19s.03-.05.04-.07c.02.05,0,.07-.04.07ZM21.26,28.65c.04-.13.04-.19-.01-.19.05-.02.1-.04.14-.04-.04.06-.08.14-.12.23,0,0,0,0,0,0ZM21.77,28.26s-.04-.02-.06-.03c.13-.09.11-.04.06.03ZM21.72,28.73s.02-.04.04-.06c.16-.08.32-.15.4-.17-.04.04-.07.06-.1.09-.09,0-.19.04-.33.14ZM22.17,28.61s.09-.01.11.01c-.01.02-.02.03-.03.05-.02-.02-.05-.04-.08-.06ZM23.18,30.14s-.04,0-.07.02l.07-.07s0,.03,0,.05ZM23.34,30.5s.03.1.03.19c-.04-.05-.05-.1-.03-.19ZM23.58,32.2s-.03,0-.04,0c.13-.16-.38,0-.02-.23.03.09.05.17.07.23ZM23.28,31.71s.06-.07.1-.11c0,.01,0,.02.01.04l-.11.07ZM20.27,27.51s-.07-.07-.1-.1c.07.01.14.03.1.1ZM20.06,27.34s-.02-.02-.04-.02h.07s-.02.02-.03.02ZM16.81,23.78s.05.03.07.04c-.05.02-.07,0-.07-.04ZM17.76,24.06c-.23.05-.52.18-.36-.07.01-.01.02-.02.03-.03.11.02.21.05.33.1ZM17.67,24.34c.13-.1.23-.15.3-.17.03.02.06.03.09.05-.02-.02-.05-.07-.07-.11,0-.02-.01-.04-.03-.05-.02-.03-.03-.07-.04-.1.11-.08.18-.14.24-.21.41.57.53.39.69.39l-.41-.66s.03-.03.05-.04c.45.38.62.24.72.08.11-.18.19-.32.6-.02h0s0,0,0,0c.04.03.07.05.11.08-.02-.04-.02-.07-.03-.1l.11-.03c.28.11.22.15.3.25-.07-.02-.1-.03-.13-.05.13.12-.65.01-.38.2-.21.01-.55-.12-.7-.09.2.13.02.14-.11.17v-.03s-.08-.01-.08-.01v.06s-.05.06.04.12c.41.01.31,0,.68.16l-.24-.29c.18.09.37.17.56.25.02-.07-.23-.19-.15-.22.31.13.21.1.55.14-.61-.01.32.23-.09.26l-.99-.13c-.3.09-.03.22.14.35-.48.12-.64.17-.91.16.03-.05.34-.21.27-.12.13-.21-.53.16-.42-.06l.35-.12c-.08-.11-.23-.02-.64.14-.26.07-.12-.19.26-.47-.27.15-.67.33-.63.22ZM20.91,18.9s.02-.03.03-.03c.02.21.28-.26.18.15-.08-.04-.15-.08-.21-.12ZM20.8,22.58c-.26-.07-.52-.3-.51-.21-.06-.08-.1-.14-.08-.17l.59.37s0,0,0,0ZM20.1,18.42c-.06-.03-.08-.05-.02-.09,0,.03.01.06.02.09ZM20.41,25.94c.06,0,.14-.03.24-.06-.11.04-.19.08-.26.12,0-.02.01-.04.02-.06ZM19.72,24.97s0,0,0,0c.04-.02.07-.03.1-.05,0,0,0,0,0,.01-.03.01-.06.02-.09.03ZM19.49,24.71c-.12,0-.24,0-.34,0l.26-.1s.06.06.08.1ZM20.27,26.26c.04.07.09.13,0,.23-.32-.01-.62-.02-.63-.09l.63-.14ZM21.25,20.84c-.06-.06-.12-.12-.18-.17l.15.07s.02.07.03.11ZM20.34,18.92s.02,0,.04,0c.06.09.12.19.17.3-.2-.13-.49-.25-.2-.3ZM20.06,18.3c-.34-.03-.69-.06-.85-.07.37-.06.62-.15.83-.24,0,.12,0,.22.02.32ZM18.87,29.06c.21-.02-.26-.28.15-.18-.04.08-.08.15-.12.21,0,0-.03-.02-.03-.03ZM19.04,28.53c.05,0,.1,0,.14,0,0,.01-.01.02-.02.04l-.13-.03ZM20.73,26.89c.16-.05.27-.07.18.04-.1.07-.17.11-.22.13.02-.05.04-.11.04-.17ZM21.42,22.1c.08.08.16.17.19.23-.04,0-.14-.04-.25-.1.03-.04.05-.08.06-.13ZM23.52,20.3s-.01-.01-.02-.02c0-.01,0-.02,0-.03,0,.02,0,.03.01.05ZM24.23,21.5c-.05-.23-.15-.62-.13-.72,0,.03,0,.2-.04.11l-.03-.4c-.1-.15.04.33-.01.3-.07-.3-.09-.24-.13-.44.05.01.11.03.16.05.1.4.23.86.19,1.09ZM24.65,20.17c-.03.24-.11.2-.17.31,0-.02,0-.03,0-.05.07-.04.13-.12.17-.26ZM24.02,14.85s0-.01,0-.01c0-.03-.01-.05-.02-.06,0,.02.01.04.03.07ZM24.02,14.96c.15.18.3.37.29.38-.1-.13-.19-.2-.32-.34.02,0,.03-.02.03-.04ZM23.6,19.63l.15.66s0,.03,0,.03c-.09.04-.13-.26-.21-.44.01-.14.03-.25.07-.25ZM22.4,20.4c.1-.22.2-.18.28-.39v.51c.24.19.39.27.69.17-.02.41-.45-.15-.53.11l-.08-.15c-.01.22-.16.22-.04.57-.02.01-.22-.22-.32-.4,0,.15.09.31-.16.15-.09-.29-.17-.2-.05-.23-.17-.05-.36-.25-.19.19-.22-.37-.4-.38-.37-.24l.25.19c-.01.09-.08.09-.15.09l-.33-.46c-.22-.12-.25-.01-.22.14-.34-.2-.48-.28-.64-.46.05-.02.29.06.29.1.13-.07-.5-.25-.28-.33l.33.16c.02-.13-.15-.18-.56-.35-.24-.14.04-.22.52-.14-.29-.08-.71-.24-.6-.29.16.02.27.06.33.09,0,.03.02.06.03.1,0-.03.01-.08.02-.13.01-.02.02-.04.01-.06.01-.03.03-.07.04-.1.13.02.23.02.31.02-.11.69.1.65.21.76l.18-.76s.04,0,.06,0c.05.59.27.61.46.57.22-.06.38-.11.46.55ZM21.47,19.04c0,.05,0,.1,0,.14-.01,0-.02-.01-.04-.02l.03-.13ZM18.92,16.63s0,.01,0,.02c0,0,0,0-.02-.01h.02ZM18.88,16.76s-.02.08-.02.12c-.09,0-.19.03-.32.07.07-.13.23-.17.34-.19ZM18.4,23.38s-.02,0-.04.01l-.07-.11s.07.06.11.1ZM18.03,23.51c-.09.03-.17.05-.23.07,0-.01,0-.03,0-.04.16.13,0-.38.23-.02ZM17.11,18.52s-.05-.03-.06-.03c.01,0,.04.02.07.03,0,0-.01,0-.01,0ZM17.22,18.65s0-.03,0-.05c.23.02.48.05.48.07-.16-.03-.28,0-.47-.01ZM14.79,23.4s-.01,0-.02,0v-.02s.02.01.02.02ZM14.85,23.5s.05.07.07.1c-.06.07-.12.15-.17.27-.04-.15.05-.28.1-.37ZM14.84,25.99s-.05.01-.06.02c.02,0,.04-.01.07-.03,0,0-.01,0-.01,0ZM15.01,26.01s-.02-.03-.04-.03c.18-.15.37-.3.38-.29-.13.1-.2.19-.34.32ZM16.53,23.54c.08.09.16.16.24.21-.26.22-.53.44-.65.55.22-.3.33-.55.42-.76ZM16.63,31.08s.01,0,.02,0c0,0,0,0-.01.02v-.02ZM16.76,31.12s.08.02.12.02c0,.09.03.19.07.32-.13-.07-.17-.23-.19-.34ZM18.23,30.79c-.06-.37-.15-.62-.24-.83.12,0,.22,0,.32-.02-.03.34-.06.69-.07.85ZM18.34,29.93s.06-.01.09-.02c-.03.06-.05.08-.09.02ZM18.52,32.89s-.03.05-.03.06c0-.01.02-.04.03-.07,0,0,0,.01,0,.01ZM18.65,32.78s-.03,0-.05,0c.02-.23.05-.48.07-.48-.03.16,0,.28-.01.47ZM18.92,29.66s0-.02,0-.04c.09-.06.19-.12.3-.17-.13.2-.25.49-.3.2ZM20.21,29.43s.06-.29.1-.29c-.07-.13-.25.5-.33.28l.16-.33c-.13-.02-.18.15-.35.56-.14.24-.22-.04-.14-.52-.08.29-.24.71-.29.6.02-.16.06-.27.09-.33.03,0,.06-.02.1-.03-.03,0-.08-.01-.13-.02-.02-.01-.04-.02-.06-.01-.03-.01-.07-.03-.1-.04.02-.13.02-.23.02-.31.69.11.65-.1.76-.21l-.76-.18s0-.04,0-.06c.59-.05.61-.27.57-.46-.04-.17-.08-.3.19-.39-.15.2.51-.03.51.12,0,0-.09.05-.14.09.52-.21.78-.18.98-.17-.37.23-.22.09-.55.37.09.01.56-.43.72-.42-.17.17-.28.37-.63.67-.03-.02-.06-.05-.09-.08-.44.43.12.11.08.22l-.06.05.03-.06s-.03.05-.05.08l-.13.1s.04,0,.06,0c-.27.45-.34.6-.55.78ZM20.67,28.93l.12-.28c.08,0,.19-.06.29-.11-.13.1-.3.26-.41.39ZM23.38,35.22s.01,0,.02,0c0,0,0,.01,0,.02h-.02ZM23.5,35.15s.07-.05.1-.07c.07.06.15.12.27.17-.15.04-.28-.05-.37-.1ZM23.54,33.47c.09-.08.16-.16.21-.24.22.26.44.52.55.65-.3-.22-.55-.33-.76-.42ZM24.75,31.52c-.05-.03-.21-.34-.12-.27-.21-.13.16.53-.06.42l-.12-.35c-.11.08-.02.23.14.64.07.26-.19.12-.47-.26.15.27.33.67.22.63-.1-.13-.15-.23-.17-.3.02-.03.03-.06.05-.09-.02.02-.07.05-.11.07-.02,0-.04.01-.05.03-.03.02-.07.03-.1.04-.08-.11-.14-.18-.21-.24.57-.41.39-.53.39-.69l-.66.41s-.03-.03-.04-.05c.1-.12.16-.21.2-.29.08-.02.16-.05.25-.15h0s.17-.03.17-.03c0,0,0,.03-.01.03.18.1.39-.19.58-.35.1.38.14.54.13.78ZM25.98,35.15s0,.01,0,.01c0,.03.01.05.02.06,0-.02-.01-.04-.03-.07ZM25.98,35.04c-.15-.18-.3-.37-.29-.38.1.13.19.2.32.34-.02,0-.03.02-.03.04ZM28.53,30.96c0-.05,0-.1,0-.14.01,0,.02.01.04.02l-.03.13ZM31.08,33.37s0-.01,0-.02c0,0,0,0,.02.01h-.02ZM31.12,33.24s.02-.08.02-.12c.09,0,.19-.03.32-.07-.07.13-.23.17-.34.19ZM31.6,26.62s.02,0,.04-.01l.07.11s-.07-.06-.11-.1ZM31.97,26.49c.09-.03.17-.05.23-.07,0,.01,0,.03,0,.04-.16-.13,0,.38-.23.02ZM32.89,31.48s.05.03.06.03c-.01,0-.04-.02-.07-.03,0,0,.01,0,.01,0ZM32.78,31.35s0,.03,0,.05c-.23-.02-.48-.05-.48-.07.16.03.28,0,.47.01ZM35.21,26.6s.01,0,.02,0v.02s-.02-.01-.02-.02ZM35.15,26.5s-.05-.07-.07-.1c.06-.07.12-.15.17-.28.04.15-.05.28-.1.37ZM35.16,24.01s.05-.01.06-.02c-.02,0-.04.01-.07.03,0,0,.01,0,.01,0ZM34.99,23.99s.02.03.04.03c-.18.15-.37.3-.38.29.13-.1.2-.19.34-.32Z"/>
</svg>