<?xml version="1.0" encoding="UTF-8"?>
<svg id="_레이어_1" data-name="레이어_1" xmlns="http://www.w3.org/2000/svg" viewBox="0 0 50 49.13">
  <defs>
    <style>
      .cls-1 {
        fill: #040000;
      }
    </style>
  </defs>
  <path class="cls-1" d="M49.75,18.76c-.42-.15-.33.26-.82.1.1-.18,1.01-.43,1.01-.52.35-.39-.92-.24-.71-.57-.21.08-.8.19-1.02.05.06-.18.84-.45,1.06-.36.03.05-.04.09-.11.1.09.05.19.13.42,0h-.22c.22-.15.08-.46.46-.49-.26-.12-.37.03-.44.19.16-.27.03-.39-.02-.56-.03-.07-.05-.14-.04-.26-.09.1-.3.24-.32.2.04-.51-.47.01-.67-.17.21-.3.73-.37.31-.46.08-.28.46-.37.66-.39-.54,0-.12-.64-.21-.84.09,0,.18,0,.26.02-.15-.02-.22-.08-.28-.14l-.26.37c-.01-.12-.07-.18.06-.31-.28.13-.49.55-.9.71.07-.24-.41-.04-.05-.51.15.4.36-.48.68-.31-.1,0-.16-.05-.18-.18.03-.06.09-.08.14-.09,0-.66-.58.39-.89.16.24-.24.28-.57.18-.55.14.1-.25.5-.5.64-.07-.35-.32.03-.41-.04l.06.17c-.2.27-.28.19-.45.22.1-.24.2-.1.2-.23-.4.46-.08-.71-.44-.42-.01-.24.21-.59.17-.76-.38.33-.13-.52-.5-.27-.05.45-.01.35-.3.72.16-.06.32-.12.49-.17-.15.18-.3.36-.44.54.11.04.32-.19.37-.09-.23.31-.18.21-.25.58.05-.68-.4.27-.44-.2l.28-1.07c-.18-.54-.64.43-.93.11l.08.21c-.12.43-.22.03-.36.19.06-.36,0-.51-.02-.74-.03.27-.27-.06-.37.67l-.11-.5c-.28-.21-.38,1.03-.62.9.09-.4-.02-.67.17-.94-.09,0-.17-.08-.18.18-.05-.24-.25.5-.33.15-.04.16-.05.55-.14.52-.01-.07,0-.18,0-.18,0,.18-.14.25-.05.66-.29-1.16-.69.11-.98-.85-.18.14-.38.28-.54.33,0-.11-.02-.18.01-.15-.27-.31,0,1.07-.29.73-.22-.57.09-.34-.03-.55-.22-1.19-.29.2-.58-.46l.03-.08c-.21-.38-.24.52-.47.48,0,0-.01-.11-.04-.18-.02.63-.24.89-.39,1.11-.05-.48.03-.27-.13-.73-.07.09.21.75.07.92-.12-.24-.31-.43-.46-.92l.16-.07c-.26-.62-.22.08-.34,0l-.07-.28c-.25.16-.04.88-.32.91l.09.2c.07.74-.25-.35-.23.21l-.27-.69c-.05.2-.12.79-.23.98-.09-.55.02-.89.05-1.24-.1.02-.32.17-.25.53.01-.08,0-.27.08-.18.07.59.02.92-.17.97-.48-1.35-.62-.16-1.18-1.11-.13.64-.78.08-1.15.37.63.93-.1.09.43,1.1-.05.11-.09.11-.14.05l.04.03s-.03-.03-.04-.04h0s-.58-.47-.58-.47c-.22-.26-.03-.27-.16-.49-.24.02-.31-.39-.59-.58.22.35.21.56.02.48l.41.37c.02.69-.71-.7-.7-.02l-.09-.36c-.04.26-.55.31-.2,1.18-.09-.1-.3-.34-.28-.45-.43.1-.19,1.29-.76,1.02l-.14-.24c-.01.11.21.5-.04.33-.07-.1-.14-.24-.18-.23.02.1.14.51-.04.44l-.13-.3c-.54-.03,0,.98-.1,1.33-.29-.34-.55-.48-.75-.54.08-.15-.14-.4-.36-.62-.32-.34-.59-.63.16-.72-.09.02-.14.02-.25,0,.78-.5-.27-1.4.79-1.86.22-.15-.21-.24-.53-.39l.57.03-.62-.26c-.44-.3,1.42-.33.55-.75l-.38.02c.08-.12-.19-.39.24-.35-.07-.02-.39-.06-.19-.1h.3s-.5-.3-.5-.3c.22-.22,1.17.07,1.24-.27-.11-.14-.85-.37-1.05-.32-.02.05-.19.13-.48.13l-.15-.11c-.35,0-.69-.02-1.03-.02.07-.01.1-.03.07-.05l-.62-.04.17.09s.02,0,.03,0c-.37.01-.72.05-1,.16l.53.17-.42.04-.02-.14c-.4.07-.05.12.19.19-.23,0-.38.03-.47.05l.83.19c-.34,0-.67-.1-.86,0,.38.09.77-.04,1.02.1-.4.06-.72.02-.39.13-.23,0-.37-.03-.46-.07.26.1.1.22.56.29-.49.05.1.29-.72.21.19.04.63.2.66.28-.97-.24-.09.27-1.14.12.87.2.35.4.81.64-.07-.02-.21-.06-.16-.07-.08.09-.35.07-.53.11.72.13.86.31,1.29.48-.72,0-.83-.23-1.51-.31.59.1.55.31,1.04.37-.45,0-.22.04-.83-.04.89.2.14.11.67.31-.47.03-.85-.15-.61.05-.29,0-.58-.19-.58-.19-.05.13.64.22,1.02.34.15.22-.51-.04-.87-.07.15.14.75.39.7.46-.11-.02-.16-.02-.29-.08.5.26-.07.32.55.66-.06,0-.12-.02-.17-.04.34.09.67.19.91.27-.01.07.37.27-.06.15.03-.04-.15-.1-.27-.16l.16.13c-.63-.14-.18-.17-.64-.32.16.2.61.54.4.58-.6-.2-.11-.31-.69-.37l.28-.07c-.98-.21.09-.07-.95-.31-.24.12.23.31-.01.43.31.17.49.18.8.35.48.54-1.56-.41-.86.1.36.22,1.08.59.63.55l-.62-.36c-.14.13.88.57.35.52-.23-.16-.14-.24-.23-.25-.56-.16.32.26.27.35l-.57-.29c0,.21.28.63.25.88-.15-.12-.29-.26-.48-.34.06.2-.04.29-.19.3-.15.03-.37-.02-.54-.13.12.14.24.28.35.43-.01,0-.17-.18-.23-.27-.14-.14.22.27.35.45,0,.05-.22-.23-.31-.37.27.39.29,1.03-.03.51l-.04-.16c-.11-.19.28,1.13.03.66v-.1c-.13-.08-.21,0-.31,0-.09,0-.2-.1-.19-.53-.06.41-.1.3-.12.24-.03-.06-.05-.08-.21.46.05-.57.15-.76.23-1.13.01-.05-.34.61-.44.68l.29-.5c-.11.17-.23.33-.36.49.12-.2.24-.4.36-.59l-.11.11s-.13.23-.22.36c-.23.17.14-.42.35-.62-.13.09-.32.17-.48.21.18-.15.26-.17.38-.26-.51.32.43-.43-.03-.14-.09.1-.26.22-.35.3.22-.28.15-.35-.03-.36l.33-.22c0-.21-.37-.19-.48-.41-.12.16-.72.5-.82.46l.52-.32c-.35.14-.16.18-.61.32.01-.12.58-.39.78-.44h-.24c.16-.08.25-.11.46-.21-.36.14.46-.43-.15-.19l.16-.09c-.09-.21-.34-.21-.43-.4-.49.19-.41.07-.83.16.1-.22.42-.51.33-.68-.29-.05-.44.1-.75.13.45-.15.35-.33.71-.33-.15-.2-.18-.25-.63-.45-.18.08-.26.14-.42.16-.09-.04.16-.18.39-.22h.05c-.79-.19,1.13-1.01.23-1.11l-.55-.21c.06-.14.37.03.65-.11-.83-.2.05-.49-.5-.69,1.39-.3-.15-.69.75-1l-.33.02c-.33-.06.19-.09.26-.14-.26.01-.3.08-.48.04-.42-.59.5-1.2.85-1.72.1-.19-1.7-.3-.88-.49l.6.15c-.69-.53.15-.84-.39-1.37.13.05.32.09.31.13.45,0,.1-.3-.26-.39.06-.05.33.06.52.07.28-.02-.5-.35-.06-.28.07.01.14.06.17.08-.2-.11.12-.23-.4-.32.28-.07-.13-.35.2-.37-.53-.26.34-.16-.42-.45.8.29.73,0,.4-.24.23.12.28.02.59.19.02-.1-.08-.25-.49-.4,1,.25-.57-.71.64-.24-.27-.45-.39-.87-.39-1.2.69.49-.1.29.65.76-.17-.34-.68-.94-.35-.98.13.03.26.26.36.36-.13-.4.33-.25.08-.64.05.06.09.14.13.2,0-.04.11.07-.13-.24l.05.1c-.4-.4-.59-1.01-.72-1.28.55.96.31.12.95,1.38-.03-.07-.1-.24-.23-.47.06.05.13.18.26.45-.04-.22-.24-.58-.15-.62.06.17.09.25.17.46-.12-.35-.19-.73-.06-.61.03.11.08.25.06.25.07-.08.05-1.06.31-.71,0,.84.08.27.1.99.02-.08.04-.15.06-.21l-.02-.35c.06.02.19-.5.24-.25l-.1.29c.05-.04.11-.08.16-.11-.01-.1-.02-.2-.05-.29.16-.35.12-.91.25-.67-.05.06.13.05.07.47h0c.11-.2.25-.42.27-.2-.06.22-.28.74-.32.88.25-.54.23-.07.57-.6-.09.12-.26.45-.29.52l.26-.4c-.03.16-.07.23-.22.48.06.15.42-.8.36-.37-.03.02-.07.09-.13.13.02.25.43-.04.41.26-.46.53-.22.03-.59.5.22,0,.94-.22.98.09l.03-.09c.82-.56-.28.46.17.29-.08.01-.48.27-.38.22-.03.22.39.15.81.26l-.24.09c-.14.2.02.31-.04.47.24-.08.24,0,.55-.2-.58.49-.33.53-.06.62.27.07.58.16.06.52-.02-.04-.24-.01-.23.02.11.06.21.12.31.19.4-.16.24-.12.54-.29.25-.05.47-.03.49.05-.31-.04-.66.22-.87.34.12-.05.27-.07.4-.12-.69.38.84-.23.41.13l-.22.05c.13.04.45.03.41.14-.47.17-.25-.02-.65.09.06.1.97-.01.52.22-.15-.02-.17-.09-.31-.1-.54.27-.39.24-.46.34h.01s-.21.24-.21.24l.14-.08c1.31-.15.31.23,1.18.26-.83-.04-.46.06-1.02.16-.14.08-.3.19-.46.2.47,0-.33.21.35.22-.18.04,0,.1-.45.16.16.09.31-.08.54-.11.66.09-.68.54.2.68.38.19,1,.17,1.32.37-.28.1-.67,0-.67,0-.26.15-.2.23.02.33-.16-.01-.29.02-.49.07.05.09.67.01.41.15-.21,0-.53-.01-.74-.04.18.09.53.17.7.28-.32.05-.48-.04-.7-.07.16.11.3.3.8.32l.13-.07c-.11.02-.41.01-.48-.01-.4-.09.17-.16.35-.18l.12.07c1.07-.14-.19-.32-.14-.48h.78s-.66-.11-.66-.11c.2-.05.63-.11.75-.04.37-.15-.28-.08.14-.23.07-.02.1-.02.13,0l-.24-.1c.16,0,.55-.07.44.01.43-.27-.62-.29-.04-.43h.05c-.3-.25-.57.05-1.27-.08l1.38-.34-.57.05s.05-.1.28-.12c-.4-.06-.24.06-.62.05.5-.23-.31-.35.58-.55-.44.03-.3.2-.63.1.95-.22-.2-.15.22-.36.5-.06.27.12.68-.1-.85.09.14-.31-.06-.39-.66.14-.34-.19-.61-.32.22-.04.28-.45.45-.71l.11-.03c-.67.16-.6-.06-.78-.14.39-.12.55-.15.75-.13l-.04-.13c-.22.04-.34.04-.44-.02l.5-.13c-.08-.17-.7-.14-.46-.47-.45.17-1.18.64-1.56.55.24-.1.65-.28.77-.26-.04,0-.22.01-.14-.06l.44-.08c.14-.17-.36.09-.35,0,.34-.14.22-.16.5-.26.04,0-.12.12.03.1.03-.11.19-.3.43-.45-.19.09-.46.19-.53.15-.1-.15.38-.23.51-.41-.25.06-.06-.16-.56.08-.02-.05.21-.17.33-.25-.26.02-.26-.37-.73,0l-.02.04s-.02,0-.03,0c-.63,0-.02-.7-.41-.84l.15-.1c-.28-.03-.34-.28-.73-.13-.03-.04.18-.31.37-.43-.21-.03-.37.1-.28-.26.34-.1.18-.23.28-.04,0-.25.18-.5-.34-.31.39-.28.31-.53.12-.51-.03.13-.07.24-.12.36-.12-.02-.18-.14-.24-.24l.45-.43c.04-.49-.39-.38-.7-.29-.33.09-.54.17-.45-.48-.3.34.12.4-.22.8-.13-.16-.02-1.09-.11-1.13-.23-.47-.57.76-.8.45,0,.23-.12.81-.33.96-.14-.12-.11-.95.06-1.12.06-.01.07.07.06.14.08-.06.2-.13.15-.39l-.07.21c-.07-.26-.41-.25-.29-.61-.21.19-.11.35,0,.48-.28-.34-.47-.09-.78-.25.06.12.11.37.06.37-.46-.23-.16.44-.41.56-.2-.3-.07-.81-.31-.46-.23-.18-.17-.56-.11-.76-.2.5-.64-.13-.86-.12C23.8.16,23.83.07,23.87,0c-.07.14-.15.17-.24.21l.24.38c-.12-.03-.19,0-.26-.17.02.31.33.66.32,1.1-.2-.16-.19.36-.49-.14.43,0-.31-.51-.04-.75-.03.09-.11.13-.23.1-.04-.05-.04-.12-.03-.16-.61-.25.14.69-.18.88-.14-.31-.42-.47-.44-.37.15-.09.37.42.41.7-.35-.07-.09.31-.19.36h.18c.17.29.07.33.03.51-.18-.18-.02-.22-.14-.27.28.54-.69-.19-.56.25-.23-.08-.47-.41-.64-.45.16.47-.53-.08-.43.36.4.21.32.14.55.54,0-.17.01-.34.02-.52.11.21.22.41.33.61.08-.08-.05-.37.05-.38.2.33.12.24.44.45-.61-.31.1.47-.35.33l-.89-.66c-.57-.03.16.75-.25.9h.22c.35.27-.05.22.04.41-.32-.19-.47-.2-.69-.26.24.13-.16.23.49.59l-.5-.08c-.3.18.82.74.6.91-.34-.23-.63-.23-.81-.51-.04.08-.14.13.1.23-.24-.04.37.42.01.36.14.09.49.25.43.32-.07-.02-.17-.07-.17-.07.17.07.18.23.59.3-1.18-.16-.15.68-1.16.59.06.21.11.46.1.62-.1-.04-.18-.05-.13-.07-.39.14.99.4.56.55-.61-.01-.28-.21-.52-.18-1.19-.24.08.34-.64.36l-.06-.06c-.43.05.39.42.26.61,0,0-.1-.03-.18-.03.58.26.74.56.89.78-.46-.13-.24-.13-.72-.16.06.1.77.08.88.28-.27.02-.51.12-1.02.08v-.18c-.68,0-.01.23-.14.31l-.29-.04c.06.29.8.36.72.64h.22c.71.2-.42.09.11.28h-.74c.17.12.69.4.82.58-.55-.12-.82-.35-1.13-.51-.02.11.03.36.4.43-.07-.04-.25-.11-.13-.14.58.16.86.32.84.52-1.43-.06-.38.52-1.48.68.54.36-.22.75-.09,1.2,1.1-.24.04.13,1.18.01.08.09.06.12,0,.14,0,0,0,0-.01,0h0s-.66.36-.66.36c-.33.11-.26-.07-.51-.04-.07.24-.48.14-.76.33.4-.08.59.01.45.16l.5-.24c.65.24-.92.39-.28.64l-.37-.05c.23.14.08.63,1.02.62-.12.05-.43.15-.52.09-.07.44,1.13.66.66,1.08l-.28.04c.1.05.54,0,.29.16-.11.03-.28.04-.28.08.1.02.52.06.4.2h-.33c-.23.5.91.37,1.19.59-.78.27-.92.66-.98.87l-.11.04c.07.5.97.51,1.43.74-.34.34-.29.6-.19.87-.07.05-.13.11-.23.27.02-.04.06-.03.12,0,.02,0,.04,0,.07,0l-.04.03c.05.04.12.1.18.17-.26.11-.47.19-.32-.07-.29.19-.58.38-.72.47.46-.58.57-1.04.86-1.39-.42-.02-.66-.35-1.43.28-.14.05.12-.27.2-.41.1-.04.13,0,.24-.09-.28.08-.43-.23-.89.29.04-.36.48-.43.2-.51l.16-.14c.12-.61-.33-.4-.74-.19-.42.21-.78.38-.65-.36-.01.09-.02.14-.07.24-.25-.89-1.42-.15-1.55-1.3-.08-.26-.29.13-.52.39l.2-.53-.43.52c-.41.33.1-1.46-.55-.75l-.1.37c-.09-.11-.43.07-.26-.33-.04.06-.17.36-.15.16l.1-.28-.45.39c-.15-.28.41-1.1.1-1.26-.16.07-.6.71-.61.91.04.03.07.22-.02.5l-.15.11c-.11.34-.23.67-.33,1,.01-.07.01-.12-.02-.1l-.22.58.14-.13s0-.03.01-.04c-.1.36-.16.71-.14,1.01l.32-.45-.08.42-.14-.02c-.05.4.1.08.23-.13-.06.22-.09.37-.08.46l.42-.74c-.09.33-.29.62-.25.83.2-.34.18-.74.39-.94-.06.4-.19.69.01.41-.07.22-.13.34-.2.42.17-.22.24-.03.44-.45-.1.49.31-.02,0,.75.1-.17.38-.55.46-.55-.51.86.24.16-.22,1.12.45-.77.48-.21.85-.59-.04.06-.12.18-.11.13.06.11-.03.36-.05.54.34-.65.55-.73.84-1.09-.22.69-.46.73-.74,1.35.27-.53.46-.43.65-.89-.12.43-.03.23-.28.78.45-.8.15-.1.49-.55-.11.46-.4.76-.13.6-.08.28-.35.49-.35.49.11.08.4-.55.62-.88.25-.08-.19.48-.32.81.18-.1.59-.6.65-.53-.06.1-.06.14-.16.25.4-.4.29.16.8-.33-.03.06-.06.11-.08.15.18-.3.38-.59.52-.79.07.03.37-.28.13.1-.03-.04-.14.11-.24.21l.18-.12c-.32.57-.21.13-.49.52.24-.1.69-.43.67-.21-.37.52-.32.02-.55.56v-.29c-.47.88-.02-.11-.56.82.04.26.36-.13.41.14.26-.25.31-.42.57-.67.65-.3-.85,1.37-.15.85.32-.28.88-.86.71-.44l-.53.49c.08.17.8-.68.6-.18-.23.17-.27.06-.31.14-.32.49.35-.23.42-.15l-.44.46c.21.06.69-.09.91.02-.16.11-.34.2-.46.36.21,0,.26.12.23.28-.02.15-.13.35-.29.48.17-.08.34-.15.51-.21,0,.01-.22.11-.32.14-.18.1.32-.13.53-.2.05.02-.28.14-.44.19.45-.15,1.07.03.48.18h-.17c-.22.04,1.16.06.64.15l-.1-.02c-.12.09-.06.19-.09.29-.02.09-.16.16-.56.03.37.18.26.18.2.19-.07,0-.09.03.38.34-.53-.22-.69-.36-1.02-.55-.04-.03.49.5.52.62l-.4-.42c.13.16.25.32.36.49-.16-.17-.31-.34-.46-.52l.07.13s.18.19.28.32c.09.27-.36-.26-.49-.52.05.15.07.35.06.52-.1-.21-.09-.3-.14-.44.16.58-.28-.54-.14-.01.07.11.13.32.18.42-.2-.3-.3-.25-.35-.08l-.12-.38c-.2-.05-.29.3-.53.34.12.16.26.84.2.92l-.16-.59c.03.38.13.21.13.68-.11-.05-.2-.67-.2-.87l-.06.23c-.04-.18-.03-.28-.07-.51.03.39-.27-.57-.23.09l-.03-.18c-.23.02-.3.26-.51.3.04.52-.05.41-.09.84-.18-.16-.37-.55-.56-.51-.13.26-.03.45-.09.76-.02-.48-.21-.43-.11-.78-.23.08-.29.1-.62.47.02.2.06.29.03.45-.06.08-.12-.21-.1-.44l.02-.05c-.42.69-.64-1.37-1-.54l-.36.47c-.12-.1.14-.34.09-.65-.44.74-.45-.19-.8.27.12-1.42-.71-.06-.73-1.01l-.07.32c-.15.3-.03-.21-.05-.29-.06.25-.01.31-.1.47-.69.23-1.01-.83-1.4-1.31-.15-.16-.79,1.54-.72.7l.32-.53c-.71.5-.76-.39-1.43-.03.09-.11.18-.27.22-.25.14-.43-.26-.18-.45.14-.03-.07.15-.29.22-.47.07-.27-.48.38-.29-.03.03-.07.1-.11.13-.13-.16.16-.19-.18-.42.28.01-.29-.37.02-.3-.3-.4.43-.05-.37-.55.27.51-.68.21-.7-.12-.45.18-.18.1-.26.35-.51-.09-.05-.26,0-.53.35.53-.88-.84.34-.04-.68-.51.12-.95.12-1.26.03.67-.51.25.18.92-.4-.38.06-1.09.38-1.04.05.06-.11.33-.17.45-.24-.42,0-.14-.39-.59-.26.07-.03.16-.05.22-.06-.04,0,.1-.08-.26.05h.11c-.5.25-1.14.26-1.44.3,1.08-.25.2-.26,1.59-.51-.07,0-.26.03-.51.08.06-.04.21-.07.51-.11-.23-.03-.63.06-.64-.04.18-.01.27-.01.49-.03-.37.01-.75-.03-.6-.12.11,0,.26,0,.26.02-.05-.09-1-.35-.59-.51.8.24.28,0,.98.19l-.09-.05-.1-.07-.35-.08c.04-.06-.42-.33-.17-.31l.25.18c-.02-.06-.05-.13-.06-.19-.1-.02-.2-.03-.29-.04-.29-.25-.84-.39-.57-.43.04.06.08-.11.47.07h0c-.16-.16-.33-.36-.12-.32.2.12.62.48.75.56-.44-.39,0-.24-.41-.72.09.12.36.38.41.43l-.31-.36c.15.08.2.13.4.35.16-.01-.64-.63-.25-.45.01.04.07.09.09.16.24.05.09-.42.36-.31.37.6-.03.22.31.71.07-.21.07-.97.37-.91l-.07-.06c-.29-.95.35.4.33-.08-.01.08.12.54.1.43.2.1.26-.33.49-.7l.02.26c.15.2.3.07.44.17,0-.26.07-.23-.03-.59.29.7.42.47.58.24.15-.24.32-.5.51.09-.04,0-.08.23-.05.23.09-.09.18-.16.27-.24-.03-.43-.04-.26-.12-.6.03-.26.11-.46.19-.46-.13.29.01.69.07.94-.01-.13,0-.28,0-.41.16.77.02-.87.24-.35v.23c.07-.12.15-.42.24-.35.02.5-.09.23-.11.64.11-.03.27-.94.36-.43-.06.14-.13.13-.19.27.1.59.11.45.19.54h0s.18.26.18.26l-.04-.16c.23-1.29.31-.23.59-1.05-.28.78-.08.46-.15,1.02.04.16.09.35.05.5.14-.44.11.37.31-.28-.02.18.1.03.02.48.13-.13.01-.32.05-.54.28-.6.32.81.71,0,.29-.31.45-.91.74-1.16.02.3-.19.64-.19.64.07.29.16.26.32.08-.06.15-.06.29-.07.49.1-.03.21-.63.26-.35-.07.19-.17.5-.25.69.14-.14.32-.45.47-.58-.05.32-.18.45-.27.65.15-.12.37-.2.54-.68l-.02-.15c-.01.11-.11.39-.15.46-.2.35-.1-.21-.07-.39l.11-.09c.18-1.07-.36.09-.5,0l.24-.74-.31.59c0-.21.08-.64.18-.73-.04-.4-.16.25-.18-.19,0-.07.02-.1.03-.13l-.16.2c.06-.16.09-.54.14-.42-.13-.49-.45.51-.43-.09l.03-.04c-.34.21-.13.56-.46,1.18l.08-1.42-.12.56s-.08-.08-.04-.3c-.17.37-.02.25-.14.6-.07-.55-.43.19-.35-.72-.1.43.1.35-.09.63.07-.98-.2.15-.28-.31.09-.5.2-.22.1-.68-.17.84-.25-.22-.39-.06-.06.68-.28.27-.48.48.02-.23-.35-.4-.54-.64v-.11c-.04.69-.22.56-.36.7,0-.41.02-.57.1-.76h-.14c-.03.22-.07.34-.15.42l.02-.51c-.19.03-.33.63-.59.3.03.48.27,1.32.07,1.65-.03-.26-.07-.7-.02-.81-.02.04-.05.22-.1.11l.06-.44c-.12-.18-.02.37-.1.33-.03-.37-.08-.26-.1-.55.02-.04.09.15.1,0-.1-.06-.23-.27-.3-.54.03.21.05.49-.01.55-.17.05-.11-.43-.25-.61-.01.26-.17.01-.09.56-.05,0-.1-.25-.14-.39-.06.25-.43.14-.22.7l.03.03s0,.02-.01.03c-.18.61-.68-.19-.92.15l-.05-.18c-.12.26-.36.24-.34.66-.05.02-.24-.27-.3-.48-.09.19-.01.38-.33.19,0-.35-.17-.24.05-.28-.24-.06-.43-.32-.39.24-.15-.46-.42-.45-.46-.26.11.07.21.14.31.22-.06.11-.18.13-.3.16l-.28-.56c-.46-.18-.48.26-.48.59,0,.34,0,.56-.59.29.23.39.42,0,.7.44-.19.08-1.05-.3-1.11-.23-.52.08.56.77.19.89.22.07.74.35.83.6-.16.1-.94-.18-1.05-.39,0-.06.09-.05.15-.01-.04-.09-.07-.23-.33-.26l.18.13c-.27-.01-.36.32-.67.1.12.26.31.21.46.13-.29.11-.27.29-.34.45-.02.07-.05.15-.13.22.13-.02.39,0,.38.05-.35.37.37.28.41.56-.35.11-.8-.17-.53.16-.23.16-.59,0-.76-.11.42.34-.31.57-.36.79-.06-.06-.14-.12-.19-.18.11.11.12.19.13.29l.43-.12c-.07.1-.06.19-.24.2.3.07.73-.12,1.15.02-.21.14.29.29-.28.43.13-.4-.58.15-.73-.18.08.06.09.14.03.25-.06.03-.12,0-.16-.02-.42.51.7.06.79.43-.34.04-.58.27-.49.31-.05-.17.51-.23.79-.18-.17.31.27.17.29.29l.06-.17c.33-.08.33.03.49.12-.23.12-.22-.05-.3.05.6-.11-.38.6.08.61-.14.2-.53.32-.61.48.5-.02-.23.48.22.52.32-.32.23-.26.68-.37-.16-.05-.32-.11-.49-.17.23-.04.46-.09.68-.14-.06-.1-.37-.06-.35-.16.37-.09.27-.05.55-.29-.47.5.48.04.21.43l-.89.65c-.2.54.76.07.79.5l.07-.21c.36-.26.19.12.4.08-.28.25-.32.39-.45.59.19-.2.17.21.71-.29l-.22.46c.08.34.95-.56,1.05-.31-.32.25-.4.53-.72.63.07.06.08.17.25-.02-.11.22.51-.23.35.09.13-.1.38-.4.44-.32-.04.07-.11.14-.11.14.11-.14.27-.11.46-.48-.5,1.08.61.35.23,1.28.22,0,.47.03.63.08-.07.09-.1.16-.1.11.02.41.67-.84.69-.38-.19.58-.28.21-.32.45-.58,1.07.35.02.16.72l-.07.04c-.07.43.51-.25.66-.07,0,0-.06.09-.08.16.41-.48.75-.54,1-.62-.26.41-.19.19-.36.64.11-.02.31-.71.52-.76-.06.26-.03.52-.22,1l-.17-.05c-.19.65.22.08.26.22l-.13.26c.29.03.58-.66.82-.5l.05-.22c.41-.62-.03.43.31-.02l-.22.71c.16-.13.59-.54.8-.62-.28.49-.58.68-.82.93.1.05.36.07.53-.26-.06.05-.17.21-.17.09.32-.51.56-.73.74-.65-.48,1.35.38.51.22,1.61.5-.41.66.43,1.12.44.1-1.12.13,0,.35-1.13.11-.05.14-.02.13.04,0,0,0,0,0,.01h0s.16.73.16.73c0,.34-.14.23-.19.48.21.13,0,.5.1.82.05-.41.19-.56.29-.39l-.09-.55c.41-.55.11.99.53.45l-.16.34c.2-.18.63.1.9-.8.01.13.02.45-.07.52.4.19.96-.89,1.23-.31l-.04.28c.08-.08.15-.52.23-.23,0,.12-.04.28,0,.3.04-.09.21-.48.31-.32l-.09.31c.4.36.61-.77.91-.97.03.82.37,1.07.54,1.19v.12c.5.08.77-.78,1.13-1.15.23.43.49.46.78.43.03.08.07.16.19.3-.03-.03-.01-.07.04-.11,0-.02.02-.04.01-.07v.05c.06-.04.14-.08.23-.13.03.28.05.51-.17.29.1.33.2.67.24.83-.42-.61-.83-.85-1.07-1.23-.14.39-.53.53-.15,1.45,0,.15-.23-.19-.34-.31-.01-.11.04-.12-.01-.26,0,.29-.34.35.02.94-.34-.15-.27-.59-.43-.34l-.09-.19c-.55-.29-.48.2-.4.66.08.46.14.85-.53.51.09.04.13.06.21.14-.92-.02-.56,1.31-1.7,1.1-.27,0,.04.31.22.62l-.45-.34.37.57c.2.49-1.36-.52-.88.31l.33.2c-.13.05-.06.43-.39.15.05.05.29.27.11.19l-.24-.17.24.54c-.31.06-.93-.72-1.18-.47.02.17.5.78.69.85.04-.03.23,0,.47.17l.06.18c.29.21.57.41.86.61-.07-.03-.12-.05-.11,0l.49.38-.09-.17s-.02-.02-.03-.02c.32.2.63.36.92.43l-.34-.44.38.2-.06.13c.37.16.11-.08-.05-.26.19.12.33.19.42.22l-.58-.62c.29.19.5.46.72.48-.27-.29-.66-.39-.79-.65.37.17.61.38.39.11.19.13.29.23.34.31-.16-.23.04-.24-.3-.55.44.24.08-.3.71.22-.14-.14-.41-.52-.39-.6.67.74.23-.18,1.01.54-.61-.65-.06-.52-.31-.99.04.06.14.17.09.15.12-.03.34.14.5.21-.52-.51-.54-.74-.8-1.12.59.41.56.66,1.08,1.1-.43-.41-.28-.56-.66-.89.37.24.21.09.67.49-.63-.67-.05-.17-.39-.63.41.24.62.6.53.3.24.16.37.48.37.48.11-.08-.41-.54-.66-.85,0-.27.4.32.68.54-.05-.2-.4-.74-.32-.78.08.08.12.1.2.22-.27-.5.24-.23-.08-.86.05.04.09.08.12.12-.23-.26-.45-.53-.6-.73.05-.05-.16-.43.14-.09-.04.02.07.16.14.29l-.06-.2c.45.47.06.24.35.62-.03-.26-.21-.79,0-.7.39.5-.08.32.37.69l-.28-.1c.7.72-.12,0,.62.79.26.03-.01-.39.25-.35-.16-.32-.31-.42-.47-.74-.09-.71,1.06,1.21.77.4-.18-.39-.57-1.09-.22-.81l.32.65c.19-.03-.41-.97,0-.63.1.27-.02.27.05.34.38.45-.12-.4-.02-.44l.31.56c.12-.18.12-.68.28-.87.05.18.1.38.21.54.06-.2.19-.22.33-.14.14.06.3.23.38.41-.02-.18-.04-.36-.05-.55.01,0,.04.24.04.35.04.2-.03-.35-.03-.57.03-.04.05.31.05.48-.01-.47.34-1.01.31-.4l-.05.16c-.02.22.4-1.09.34-.56l-.05.09c.06.17.23.11.3.23.03.08,0,.23-.18.49.28-.3.25-.2.24-.13-.01.06,0,.09.44-.26-.36.44-.55.55-.82.81-.04.03.62-.32.75-.32l-.52.26c.19-.08.38-.15.57-.2-.21.1-.42.2-.63.29l.15-.03s.23-.12.39-.18c.28,0-.35.27-.64.32.16,0,.36.04.52.09-.23.03-.31,0-.46,0,.6.02-.6.11-.05.13.13-.03.34-.04.46-.05-.34.11-.32.21-.18.31h-.4c-.11.18.2.36.17.6.19-.07.88,0,.94.08l-.61-.02c.37.08.23-.06.69.08-.08.09-.7,0-.89-.07l.2.13c-.18-.01-.28-.05-.51-.08.38.09-.62.1.02.24l-.18-.02c-.05.23.16.36.14.57.51.11.38.17.78.33-.2.12-.64.19-.65.38.21.2.42.16.7.31-.46-.13-.48.07-.78-.12.01.25,0,.31.27.73.2.04.29.03.44.1.05.08-.23.05-.45-.03l-.04-.03c.54.6-1.5.21-.81.8l.34.48c-.13.08-.29-.23-.6-.27.58.63-.31.38.03.85-1.32-.53-.26.66-1.18.41l.29.17c.24.23-.2-.03-.29-.03.22.14.29.1.42.23.02.72-1.09.72-1.67.95-.19.1,1.24,1.2.46.89l-.42-.46c.28.82-.6.62-.45,1.36-.08-.12-.21-.25-.18-.28-.37-.26-.25.2,0,.47-.08.01-.24-.23-.39-.35-.24-.14.22.57-.11.27-.05-.05-.08-.13-.09-.16.1.2-.23.13.15.49-.28-.1-.09.36-.37.2.29.51-.37-.06.1.61-.5-.69-.61-.41-.47-.02-.12-.23-.22-.17-.38-.49-.08.07-.07.25.18.61-.69-.77.07.91-.66-.16-.03.52-.16.94-.35,1.22-.29-.79.24-.19-.12-.99-.05.38.04,1.16-.26,1.01-.09-.1-.07-.36-.1-.5-.12.41-.41.02-.42.49,0-.08,0-.17,0-.23-.02.03-.05-.12-.03.27l.02-.11c.11.55-.08,1.17-.12,1.47.08-1.11-.19-.27-.02-1.67-.02.07-.05.26-.07.51-.02-.07,0-.22.04-.52-.09.21-.13.62-.22.6.04-.18.06-.26.12-.47-.1.36-.25.71-.3.54.04-.11.07-.25.09-.24-.1.03-.63.85-.66.42.47-.69.08-.27.47-.88l-.07.07-.1.08-.18.31c-.04-.05-.43.31-.34.07l.24-.19c-.07,0-.14.01-.2,0-.05.09-.09.18-.12.27-.33.2-.61.69-.58.42.07-.02-.08-.11.2-.43h0c-.2.11-.44.21-.34.02.17-.15.64-.45.76-.55-.5.31-.23-.07-.81.18.14-.05.47-.23.53-.27l-.44.19c.12-.12.18-.15.45-.28.04-.15-.79.43-.5.1.04,0,.1-.04.18-.04.12-.22-.38-.21-.19-.44.68-.18.2.1.77-.09-.18-.12-.91-.35-.76-.62l-.08.05c-.99,0,.49-.22.02-.33.07.03.55.04.44.03.15-.16-.24-.35-.52-.67l.25.06c.23-.09.15-.27.29-.37-.25-.07-.19-.13-.57-.15.75-.08.57-.26.4-.48-.18-.21-.39-.45.24-.46,0,.04.2.15.2.12-.06-.11-.1-.22-.15-.33-.42-.1-.26-.04-.61-.06-.24-.1-.4-.24-.38-.31.24.21.67.19.92.21-.13-.03-.26-.09-.4-.12.78.07-.83-.28-.27-.33l.21.08c-.09-.11-.35-.28-.26-.34.49.13.19.16.58.29,0-.12-.82-.53-.31-.47.11.1.09.17.2.26.6.08.46.02.58-.03h-.02s.32-.09.32-.09h-.17c-1.17-.61-.12-.38-.83-.88.67.49.42.21.94.44.17.01.36.01.5.09-.38-.26.39,0-.17-.38.17.07.05-.08.46.12-.09-.17-.3-.11-.51-.21-.5-.44.87-.06.22-.68-.21-.37-.74-.7-.89-1.05.29.07.55.37.55.37.3.02.3-.08.17-.28.13.1.26.14.45.22,0-.1-.55-.38-.25-.35.17.12.43.31.59.45-.09-.17-.34-.44-.42-.62.29.14.38.31.54.45-.07-.18-.08-.41-.49-.72l-.2-.03c0-.05.38.21.44.28.28.29-.23.04-.39-.05l-.06-.13c-.97-.49-.02.37-.15.47l-.64-.45.48.47c-.19-.07-.59-.26-.65-.39-.4-.08.19.23-.24.11-.06-.02-.09-.04-.12-.07l.14.22c-.13-.1-.49-.24-.36-.26-.51-.02.35.58-.21.38l-.03-.04c.1.39.49.29,1,.78l-1.33-.49.5.28s-.1.05-.3-.05c.3.27.23.09.54.31-.54-.09.06.47-.79.13.38.22.36,0,.58.27-.92-.35.08.23-.38.18-.45-.23-.15-.25-.62-.3.76.4-.28.18-.17.36.63.25.18.34.32.61-.21-.09-.48.22-.77.33l-.11-.04c.65.24.47.38.56.55-.39-.12-.54-.19-.7-.31l-.04.13c.2.09.3.16.35.26l-.49-.17c-.03.19.5.5.11.65.47.11,1.34.13,1.6.41-.25-.05-.69-.13-.78-.21.03.03.19.11.08.13l-.41-.18c-.21.06.34.13.29.2-.36-.08-.27,0-.56-.07-.03-.03.17-.04.03-.1-.08.08-.33.14-.61.13.21.03.49.09.52.17,0,.18-.45-.02-.65.06.25.09-.04.16.51.25-.01.05-.27.02-.42.02.22.13,0,.46.6.42l.04-.02s.01.01.02.02c.53.35-.38.59-.13.93h-.19c.21.18.12.41.53.52,0,.05-.32.15-.55.15.15.14.36.12.08.37-.34-.11-.28.09-.25-.12-.13.21-.43.32.11.45-.48.01-.55.27-.39.36.1-.09.2-.16.3-.23.09.09.08.21.06.33l-.62.1c-.31.39.11.53.42.63.32.1.54.16.11.65.44-.11.13-.4.63-.54.02.21-.59.92-.54,1-.08.52.9-.32.91.08.13-.19.55-.6.82-.61.05.18-.44.85-.68.89-.06-.02-.02-.1.03-.15-.1,0-.24,0-.34.24l.17-.14c-.09.26.2.44-.1.67.28-.04.29-.23.26-.4.02.31.2.34.33.46.06.04.13.09.18.19.02-.13.12-.37.16-.35.25.45.38-.27.65-.23,0,.37-.4.71,0,.56.09.27-.18.56-.33.7.45-.3.46.47.65.58-.07.04-.15.1-.23.13.14-.07.22-.06.31-.04v-.45c.09.09.17.11.13.29.16-.27.1-.73.35-1.09.07.24.36-.19.33.39-.35-.25-.03.6-.39.64.08-.06.16-.04.25.05,0,.07-.03.12-.06.15.37.55.27-.65.64-.63-.06.33.08.63.16.56-.18,0-.07-.55.06-.81.25.25.24-.21.36-.19l-.15-.1c.02-.34.13-.31.25-.44.05.25-.11.2-.04.3.07-.61.47.54.61.1.15.19.15.6.28.73.13-.48.4.36.56-.06-.22-.4-.18-.3-.15-.76-.1.14-.2.28-.31.42.03-.23.05-.46.07-.69-.11.03-.16.34-.25.29.02-.38.03-.27-.12-.62.34.6.18-.45.47-.08l.36,1.04c.45.35.29-.71.71-.61l-.18-.12c-.14-.42.17-.15.19-.36.15.34.28.42.43.61-.13-.24.26-.1-.07-.76l.37.35c.35.02-.26-1.07.01-1.09.15.38.39.54.39.88.08-.04.19-.03.05-.25.18.17-.07-.55.19-.3-.06-.16-.27-.48-.18-.51.05.06.1.15.1.15-.1-.15-.02-.29-.32-.58.89.8.51-.48,1.29.16.07-.21.16-.44.26-.57.07.09.12.14.07.13.4.1-.6-.89-.16-.77.5.35.12.33.33.44.85.87.13-.33.73.06l.02.08c.39.2-.09-.57.12-.66,0,0,.07.08.13.13-.34-.54-.3-.87-.3-1.14.31.36.13.24.51.53.01-.11-.59-.5-.58-.72.23.13.49.18.89.51l-.1.15c.56.37.14-.19.28-.18l.21.2c.11-.27-.46-.75-.24-.93l-.19-.12c-.47-.57.4.15.07-.3l.61.42c-.07-.19-.34-.72-.36-.95.38.41.48.75.65,1.06.07-.08.17-.32-.09-.58.03.08.15.23.03.19-.39-.45-.53-.75-.41-.9,1.15.85.6-.22,1.6.26-.25-.6.6-.5.74-.94-1.04-.42.04-.13-.97-.67-.01-.11.02-.14.08-.11,0,0,0,0,.01,0h0s.75.06.75.06c.33.09.17.2.41.32.19-.16.47.15.82.15-.38-.16-.48-.34-.28-.39l-.55-.08c-.4-.56.98.19.59-.38l.28.25c-.11-.24.28-.57-.5-1.09.13.03.44.12.48.22.3-.32-.57-1.18.06-1.27l.25.12c-.05-.1-.45-.3-.15-.29.11.04.25.12.28.09-.08-.07-.4-.34-.22-.39l.27.18c.47-.28-.55-.81-.66-1.15.8.21,1.13-.04,1.3-.17l.11.03c.22-.46-.52-.96-.77-1.41.48-.1.58-.34.64-.62.08,0,.17-.02.35-.1-.03.02-.07,0-.1-.07-.02-.01-.03-.03-.06-.03h.05c-.03-.06-.04-.15-.06-.24.27.05.5.1.23.24.34,0,.69,0,.86,0-.71.22-1.06.54-1.49.67.34.25.35.66,1.35.57.14.04-.25.16-.39.23-.11-.02-.11-.08-.25-.06.28.09.23.43.9.26-.24.28-.64.09-.45.31l-.21.03c-.44.44.05.52.51.57.46.06.86.12.33.66.06-.07.09-.11.19-.16-.29.88,1.09.92.56,1.95-.08.26.31.05.66-.03l-.46.33.65-.19c.53-.05-.9,1.15.04.93l.29-.25c0,.14.4.18.03.42.06-.03.34-.2.21-.05l-.24.18.59-.07c-.03.31-.96.68-.79.99.17.04.9-.25,1.02-.41-.02-.05.07-.22.3-.4h.19c.28-.23.56-.44.83-.65-.05.05-.08.1-.04.1l.51-.36-.19.03s-.02.02-.03.02c.28-.25.53-.49.68-.76l-.52.2.3-.3.1.09c.27-.31-.04-.13-.27-.03.17-.15.28-.26.33-.34l-.76.37c.26-.22.59-.35.67-.54-.36.17-.57.51-.85.56.27-.3.54-.47.22-.35.17-.14.3-.21.4-.24-.26.09-.21-.11-.62.12.35-.35-.26-.16.42-.62-.18.09-.62.24-.69.2.9-.43-.1-.27.81-.81-.8.39-.52-.09-1.04,0,.07-.03.2-.08.17-.05.01-.12.23-.28.35-.42-.64.35-.86.3-1.3.43.56-.45.79-.34,1.37-.71-.52.29-.62.1-1.04.37.34-.29.15-.17.67-.49-.82.41-.18,0-.72.18.35-.32.76-.41.44-.42.22-.18.57-.21.57-.21-.04-.13-.64.24-1.01.38-.25-.08.43-.29.72-.49-.21-.02-.82.17-.84.08.1-.05.13-.08.27-.12-.55.11-.15-.3-.84-.17.05-.03.11-.06.15-.08-.32.15-.64.28-.88.36-.04-.06-.46.03-.05-.16,0,.05.18-.01.32-.05h-.21c.58-.29.25.02.7-.16-.25-.05-.81-.03-.67-.2.6-.22.28.17.77-.15l-.18.23c.9-.46-.03.11.94-.36.11-.24-.37-.1-.26-.34-.35.06-.49.17-.85.23-.71-.12,1.47-.66.6-.62-.42.06-1.21.22-.83-.03l.71-.11c.03-.19-1.04.11-.6-.18.28-.02.26.1.34.05.54-.23-.41,0-.43-.11l.62-.13c-.14-.16-.62-.31-.75-.53.19,0,.39.02.58-.04-.18-.12-.15-.25-.04-.36.1-.12.31-.22.51-.24-.18-.03-.36-.07-.54-.11,0,0,.24.04.35.06.2.02-.34-.07-.55-.13-.03-.04.31.04.47.09-.46-.13-.87-.62-.3-.41l.14.1c.21.08-.93-.71-.44-.49l.07.07c.15-.01.16-.13.24-.19.07-.07.22-.04.48.29-.21-.36-.12-.3-.06-.27.06.03.09.03-.13-.49.32.48.37.69.54,1.03.02.05-.12-.69-.09-.81l.09.57c-.02-.2-.03-.4-.03-.61.04.23.07.46.09.69l.02-.15s-.04-.26-.05-.42c.07-.27.16.42.12.7.04-.16.14-.33.24-.47-.04.23-.09.29-.13.44.19-.57-.07.6.11.09,0-.13.06-.34.09-.45,0,.36.11.37.25.26l-.12.38c.14.15.41-.09.63.02,0-.2.25-.84.35-.87l-.2.58c.18-.33.01-.24.28-.63.07.1-.21.66-.32.83l.18-.16c-.07.17-.13.25-.22.46.19-.34-.09.62.24.06l-.07.17c.2.11.4-.05.59.04.26-.46.27-.31.54-.65.06.23,0,.66.17.74.26-.14.28-.35.5-.58-.25.41-.07.48-.35.71.24.06.3.08.77-.04.09-.18.11-.27.23-.39.09-.03-.02.24-.16.42l-.04.03c.73-.34-.24,1.5.53,1.01l.56-.18c.04.15-.3.21-.44.49.78-.37.27.41.82.22-.89,1.11.56.44.05,1.25l.24-.23c.29-.16-.09.19-.12.27.19-.17.18-.25.35-.33.7.2.37,1.25.42,1.87.04.21,1.51-.84.99-.18l-.56.26c.87-.02.42.75,1.17.82-.14.04-.31.13-.32.09-.35.28.12.29.45.14,0,.08-.29.16-.44.27-.21.19.61-.04.23.18-.06.04-.14.04-.18.04.22-.04.06.26.51,0-.17.24.32.19.08.41.57-.13-.16.34.61.09-.8.28-.57.46-.16.44-.25.05-.23.16-.58.22.05.09.22.14.63,0-.94.43.89.19-.35.59.49.18.85.43,1.06.69-.84.05-.11-.29-.99-.18.35.16,1.12.3.89.54-.12.06-.37-.04-.51-.06.36.23-.1.4.34.55-.08-.02-.16-.05-.22-.07.03.02-.13.01.25.11l-.1-.05c.56.06,1.1.42,1.37.54-1.03-.4-.32.11-1.6-.47.07.04.23.12.47.22-.08,0-.22-.06-.49-.19.17.15.55.3.5.39-.16-.09-.23-.14-.42-.25.31.2.61.45.43.44-.09-.07-.22-.14-.21-.16,0,.11.63.85.21.75-.53-.65-.23-.16-.7-.71l.04.09.04.12.24.26c-.06.03.17.51-.03.35l-.11-.28c-.01.06-.03.13-.06.19.07.07.14.14.22.2.1.37.48.79.23.68,0-.08-.13.04-.35-.32h0c.05.23.07.48-.08.33-.09-.21-.24-.75-.31-.89.15.57-.13.2-.06.83,0-.15-.08-.51-.1-.58l.05.47c-.08-.15-.09-.22-.13-.51-.14-.08.18.88-.05.51,0-.04,0-.11.01-.18-.17-.18-.31.3-.48.06.03-.7.15-.16.14-.76-.17.13-.6.76-.82.55l.03.09c-.29.95-.07-.53-.31-.12.05-.06.2-.52.16-.41-.11-.19-.4.13-.79.31l.13-.22c-.01-.25-.21-.22-.27-.39-.14.22-.18.15-.31.5.15-.74-.08-.62-.34-.52-.26.11-.55.24-.38-.36.04.02.2-.14.17-.16-.12.02-.24.04-.36.05-.21.38-.11.24-.24.56-.17.2-.35.31-.41.27.27-.16.38-.58.46-.81-.07.12-.16.23-.23.34.3-.73-.51.71-.4.16l.14-.18c-.13.05-.37.26-.4.15.26-.43.21-.14.45-.47-.11-.04-.75.62-.54.16.12-.08.19-.04.31-.12.25-.55.16-.43.14-.56v.02s0-.33,0-.33l-.06.16c-.92.94-.39.01-1.08.54.67-.49.32-.34.69-.77.06-.15.12-.34.24-.45-.36.29.12-.37-.41.05.12-.14-.06-.08.25-.41-.18.03-.19.26-.35.42-.57.35.19-.85-.59-.4-.41.09-.88.5-1.26.55.16-.26.52-.42.52-.42.11-.28.01-.31-.22-.25.13-.09.21-.2.34-.37-.1-.03-.53.41-.41.14.16-.12.42-.33.6-.43-.19.04-.52.2-.72.22.22-.23.4-.27.58-.39-.19.01-.42-.04-.83.26l-.08.18s.31-.3.4-.34c.36-.18-.03.23-.16.36l-.14.02c-.75.78.35.13.41.28l-.62.48.59-.32c-.12.17-.42.48-.56.5-.19.35.27-.11.04.26-.04.06-.07.08-.1.09l.25-.08c-.13.1-.38.4-.35.27-.17.48.66-.17.31.31l-.05.02c.4.02.42-.39,1.04-.72l-.86,1.13.41-.4s.02.11-.14.27c.35-.21.15-.2.45-.42-.24.49.46.08-.11.79.32-.29.11-.34.43-.47-.6.77.25-.01.06.42-.35.36-.28.07-.47.51.61-.61.09.32.29.27.43-.53.38-.07.67-.13-.15.18.07.53.1.83l-.07.09c.42-.55.5-.33.7-.38-.23.34-.34.47-.5.58l.11.07c.15-.17.24-.24.36-.26l-.3.42c.17.08.63-.33.65.08.24-.41.52-1.24.86-1.41-.12.23-.33.62-.43.68.03-.02.17-.15.15-.04l-.29.33c0,.22.22-.29.27-.22-.18.32-.08.26-.23.51-.04.02.01-.17-.09-.06.05.1.04.36-.05.62.09-.19.23-.44.32-.45.17.06-.15.42-.14.64.16-.21.15.08.39-.41.05.03-.06.26-.1.41.19-.17.44.13.57-.46v-.04s0,0,.02-.02c.49-.41.46.54.85.4l-.06.18c.24-.15.43,0,.65-.36.05.01.05.35-.02.56.18-.11.22-.31.38.03-.2.29,0,.29-.19.2.17.19.17.51.46.02-.13.46.09.61.23.47-.06-.12-.09-.23-.13-.35.11-.06.23,0,.34.04l-.08.62c.28.41.54.05.72-.22.19-.28.31-.47.66.09.02-.45-.34-.24-.34-.76.2.04.7.84.79.81.47.22-.04-.95.34-.85-.14-.18-.42-.7-.35-.96.19,0,.68.67.65.91-.04.05-.1,0-.13-.07-.02.1-.07.22.13.4l-.08-.21c.22.16.48-.06.61.29.04-.28-.14-.34-.31-.37.3.07.38-.09.53-.18.05-.05.12-.09.23-.11-.12-.05-.32-.22-.28-.25.5-.11-.15-.44-.03-.69.35.11.57.59.53.17.29,0,.49.33.57.52-.16-.51.58-.3.74-.45.02.08.05.17.06.25-.03-.15,0-.23.05-.31l-.43-.14c.11-.05.15-.12.31-.03-.21-.23-.67-.31-.94-.66.25,0-.08-.4.47-.2-.34.26.56.2.5.56-.03-.09,0-.17.12-.23.07.01.11.06.12.1.64-.19-.54-.44-.42-.8.3.16.63.1.58.01-.06.17-.55-.09-.76-.29.32-.17-.13-.29-.08-.4l-.14.11c-.32-.12-.26-.21-.34-.37.26.02.16.16.28.13-.56-.25.66-.29.28-.55.23-.08.62.03.78-.06-.42-.27.46-.27.11-.55-.45.09-.34.09-.77-.08.1.13.21.27.31.42-.21-.1-.43-.19-.64-.27,0,.12.28.25.2.33-.36-.13-.25-.11-.62-.07.67-.15-.38-.3.06-.47l1.1-.04c.46-.33-.59-.48-.37-.86l-.17.14c-.44.01-.1-.2-.29-.29.37-.05.49-.14.71-.23-.27.06-.02-.27-.75-.15l.44-.25c.12-.33-1.1-.06-1.04-.33.41-.03.63-.22.95-.12-.02-.09.03-.19-.22-.12.21-.12-.55-.09-.23-.27-.17.01-.54.12-.54.02.07-.03.17-.06.17-.06-.17.05-.28-.06-.65.14,1.02-.62-.31-.63.53-1.19-.18-.13-.38-.28-.47-.42.11-.04.17-.08.15-.03.21-.35-1.02.32-.78-.07.48-.38.35-.02.52-.19,1.08-.56-.28-.22.27-.68h.08c.3-.31-.57-.08-.59-.31,0,0,.1-.04.16-.09-.61.16-.92.03-1.18-.05.44-.19.26-.05.66-.33-.11-.04-.65.42-.86.34.19-.18.32-.42.74-.71l.12.14c.52-.43-.14-.19-.09-.33l.25-.15c-.22-.19-.85.22-.96-.04l-.17.15c-.69.29.26-.34-.27-.16l.58-.46c-.2.01-.79.12-1.01.06.5-.25.86-.24,1.2-.31-.05-.09-.25-.26-.58-.08.08,0,.26-.08.19.03-.55.24-.87.29-.98.12,1.15-.85-.03-.64.72-1.46-.65.06-.31-.72-.69-.99-.71.88-.11-.07-.92.74-.12-.02-.13-.06-.09-.12l-.02.05s.02-.03.02-.05h0s.28-.69.28-.69c.19-.29.25-.11.42-.29-.1-.23.28-.41.38-.74-.27.31-.47.36-.46.16l-.24.5c-.65.22.47-.88-.19-.67l.32-.19c-.26.04-.46-.44-1.19.16.06-.12.24-.38.35-.4-.22-.38-1.29.2-1.19-.43l.19-.21c-.11.02-.42.35-.32.06.07-.09.19-.21.17-.24-.09.05-.44.28-.43.09l.25-.21c-.13-.53-.94.29-1.3.29.44-.7.3-1.09.22-1.29l.06-.1c-.37-.34-1.07.21-1.57.33.05-.48-.15-.65-.4-.79.02-.08.03-.17,0-.36,0,.04-.03.06-.09.07-.02.01-.04.02-.05.05v-.04c-.05,0-.14,0-.23-.01.13-.25.24-.45.3-.15.1-.33.21-.66.26-.82,0,.74.21,1.17.2,1.62.34-.25.73-.15.94-1.12.08-.12.08.29.11.44-.05.1-.1.08-.13.22.17-.24.48-.1.51-.79.2.31-.1.64.17.52l-.03.21c.29.55.51.1.7-.32.19-.42.36-.79.73-.13-.05-.08-.07-.12-.1-.23.75.53,1.19-.78,2.03.04.23.15.14-.29.16-.64l.18.54v-.68c.12-.52.85,1.19.91.23l-.16-.35c.14.03.29-.33.41.09-.01-.07-.09-.39.02-.22l.1.28.1-.58c.29.12.37,1.11.72,1.05.08-.15.02-.93-.1-1.1-.05,0-.19-.13-.3-.4l.05-.18c-.12-.33-.24-.67-.37-.98.04.06.07.1.08.07l-.19-.59-.02.19s0,.03.01.04c-.15-.34-.32-.65-.52-.87l.04.55-.2-.38.12-.07c-.22-.34-.13,0-.1.25-.09-.21-.17-.35-.23-.41l.13.84c-.13-.31-.16-.66-.32-.8.06.39.32.69.29.98-.21-.35-.29-.66-.27-.31-.08-.21-.11-.35-.11-.45,0,.28-.17.17-.06.62-.23-.44-.23.21-.47-.58.04.2.05.66-.01.72-.14-.98-.29.02-.53-1.01.14.88-.24.47-.29.99,0-.07-.02-.22,0-.18-.11-.05-.2-.3-.3-.45.15.72.03.91.03,1.37-.26-.67-.1-.86-.27-1.52.13.58-.08.62.05,1.1-.17-.41-.12-.19-.28-.78.15.9-.05.17-.03.74-.21-.43-.17-.84-.27-.55-.11-.27-.04-.61-.04-.61-.14,0,.04.68.07,1.07-.15.22-.16-.49-.26-.83-.08.2-.08.84-.17.82-.02-.11-.04-.15-.04-.3-.06.56-.33.05-.41.76-.01-.06-.02-.12-.03-.17.05.34.08.69.09.94-.07.02-.11.45-.16,0,.05,0,.04-.17.05-.32l-.06.2c-.1-.64.09-.23.06-.71-.12.23-.27.77-.39.58-.04-.64.24-.22.08-.78l.17.24c-.18-.99.1.06-.07-1-.2-.18-.2.33-.4.15-.04.35.02.52-.02.88-.32.64-.2-1.6-.42-.76-.07.42-.14,1.22-.27.79l.1-.71c-.17-.08-.2,1.03-.35.52.07-.28.17-.22.15-.31-.06-.58-.13.39-.23.38l.06-.63c-.2.08-.48.5-.72.56.06-.18.13-.37.13-.57-.16.14-.28.07-.36-.07-.08-.13-.12-.36-.08-.56-.08.16-.17.33-.27.48,0,0,.1-.22.16-.32.08-.19-.17.31-.29.49-.05.02.13-.29.23-.42-.26.4-.85.65-.48.16l.13-.1c.14-.17-.95.68-.6.28l.09-.05c.04-.17-.13-.22-.12-.35.02-.08.12-.19.43-.31-.4.09-.32.02-.27-.02.05-.05.05-.08-.51-.02.55-.16.76-.15,1.14-.21.05,0-.69-.08-.8-.15l.58.08c-.2-.04-.39-.09-.59-.15.23.03.46.07.68.11l-.14-.06s-.26-.03-.42-.07c-.24-.15.44-.03.71.09-.14-.09-.27-.23-.38-.37.21.1.25.18.38.26-.48-.35.56.24.12-.08-.12-.05-.3-.16-.41-.22.34.1.39,0,.32-.16l.33.22c.19-.09.04-.42.2-.6-.2-.05-.73-.48-.73-.59l.49.36c-.26-.27-.23-.08-.53-.45.12-.03.57.39.7.55l-.1-.22c.14.11.2.19.38.35-.27-.28.57.27.12-.21l.14.12c.17-.16.07-.39.21-.55-.36-.38-.22-.35-.46-.71.24,0,.63.2.76.05-.06-.29-.25-.37-.4-.65.31.36.44.2.57.54.13-.21.17-.26.19-.75-.14-.14-.22-.19-.3-.33,0-.1.22.09.35.28l.02.05c-.11-.8,1.36.67,1.12-.21v-.59c.14,0,.1.35.33.56-.12-.85.47-.14.45-.72.8,1.18.59-.4,1.21.32l-.15-.3c-.07-.33.15.14.23.19-.11-.24-.18-.25-.22-.43.39-.61,1.3.01,1.91.14.22.02-.36-1.69.12-1l.09.62c.23-.84.84-.18,1.13-.87,0,.15.03.33,0,.33.16.42.32-.02.27-.39.07.03.06.33.13.5.12.25.14-.6.24-.16.02.07,0,.15-.02.18.03-.23.26.02.15-.49.18.23.27-.25.42.04.04-.59.27.26.26-.56.03.85.28.68.37.28-.03.26.08.26.04.62.1-.02.2-.17.19-.6.14,1.02.45-.79.46.51.32-.42.66-.69.97-.81-.2.82-.31.02-.46.89.26-.29.61-.98.78-.7.02.13-.15.34-.2.47.32-.27.35.22.62-.17-.04.07-.09.14-.13.19.03-.02-.02.12.17-.21l-.07.08c.22-.52.72-.93.92-1.15-.68.87,0,.33-.92,1.4.05-.05.18-.18.34-.39-.02.07-.12.19-.32.41.19-.12.45-.44.52-.37-.14.12-.2.18-.36.33.28-.24.61-.45.55-.28-.09.07-.2.17-.21.15.1.04,1-.36.78.02-.78.31-.22.17-.88.47h.1s.12-.02.12-.02l.32-.16c0,.07.53-.01.33.13l-.3.02c.06.03.12.07.16.11.09-.05.18-.1.25-.15.39.01.89-.23.71-.02-.07-.02,0,.14-.41.24h0c.23.02.48.07.29.17-.23.03-.79.02-.94.03.59.03.15.19.77.3-.14-.04-.51-.07-.59-.07l.47.09c-.16.03-.24.02-.53-.02-.12.11.89.09.47.19-.03-.02-.11-.03-.17-.07-.22.11.2.38-.09.47-.66-.23-.11-.19-.68-.36.08.2.56.79.29.94h.09c.82.55-.53-.09-.2.26-.04-.07-.43-.34-.35-.27-.22.05,0,.42.06.85l-.18-.19c-.24-.06-.28.14-.45.14.17.2.09.22.39.44-.67-.36-.62-.1-.6.18.03.28.07.59-.45.25.03-.03-.08-.23-.1-.21-.01.12-.04.24-.06.36.3.32.2.18.47.39.14.22.2.42.14.47-.08-.31-.45-.53-.64-.68.09.1.17.22.26.32-.61-.5.53.69.03.43l-.13-.19c0,.14.14.43.03.43-.33-.38-.07-.24-.32-.57-.07.09.38.9-.01.57-.04-.14.02-.19-.02-.33-.45-.4-.37-.28-.49-.3h.01s-.31-.1-.31-.1l.13.1c.63,1.15-.1.37.2,1.19-.28-.78-.23-.41-.53-.89-.13-.1-.29-.21-.36-.36.17.43-.32-.22-.07.41-.1-.15-.09.04-.32-.36-.02.18.19.26.3.45.17.64-.76-.43-.56.44-.03.42.22.99.15,1.37-.2-.22-.25-.62-.25-.62-.23-.18-.29-.1-.3.14-.05-.15-.13-.26-.25-.43-.06.08.24.62.01.44-.07-.19-.19-.5-.24-.7-.02.2.04.55,0,.75-.16-.28-.14-.47-.2-.67-.04.19-.17.39,0,.87l.11.1c-.06-.1-.16-.37-.17-.45-.07-.4.21.1.3.26l-.02.14c.53.94.22-.3.39-.31l.28.73-.13-.65c.12.17.34.54.32.68.28.29-.03-.29.26.04.04.05.05.09.06.12v-.26c.06.16.27.48.15.41.41.3.03-.68.39-.2v.05c.14-.38-.24-.52-.38-1.21l.83,1.15-.26-.51s.11,0,.22.21c-.1-.39-.14-.2-.27-.56.4.38.21-.42.72.34-.19-.4-.3-.21-.33-.55.56.8.06-.24.42.07.24.44-.02.29.35.59-.4-.76.34.01.34-.2-.38-.56.05-.38.07-.68.12.19.52.09.82.15l.07.09c-.4-.56-.17-.58-.16-.78.26.32.35.46.4.65l.1-.09c-.12-.19-.16-.3-.15-.42l.31.41c.13-.14-.13-.7.27-.6-.32-.35-1.04-.86-1.1-1.24.18.18.5.5.53.61,0-.04-.1-.2,0-.15l.23.38c.21.07-.21-.3-.13-.32.26.27.23.15.42.37,0,.04-.16-.06-.08.07.11-.02.35.06.58.23-.15-.14-.35-.35-.34-.44.1-.15.36.27.57.32-.15-.21.12-.12-.28-.49.04-.04.23.13.36.22-.11-.23.25-.38-.27-.68h-.04s0-.02,0-.03c-.25-.58.65-.28.63-.69l.15.11c-.07-.27.13-.41-.15-.73.02-.04.35.06.53.18-.05-.2-.23-.3.14-.35.22.28.28.08.14.24.23-.1.54-.02.16-.43.41.26.61.09.52-.08-.13.02-.25.02-.37.02-.03-.12.06-.22.13-.31l.57.26c.47-.15.21-.5,0-.76-.21-.27-.36-.43.28-.6ZM18.52,22.4s-.05-.03-.06-.03c.02,0,.04.01.07.03,0,0,0,0,0,0ZM18.69,22.6s-.01-.07-.05-.11c.14-.11.3-.22.31-.19-.11.06-.16.17-.26.29ZM33.61,24.8s.06-.01.07-.01c-.02,0-.04.01-.07.03,0,0,0-.01,0-.01ZM33.35,24.75s.06.05.1.05c-.04.18-.1.36-.12.34.05-.11.01-.23.02-.39ZM29.13,20.24c-.02-.13-.01-.23.21-.16.08.06.14.09.19.12,0,.02,0,.06.02.11-.04.05-.08.08-.11.12-.04-.02-.1-.05-.17-.09l.03-.03c-.07-.03-.12-.04-.17-.06ZM29.63,19.29c-.17-.14-.33-.27-.42-.35.22.09.42.14.6.18-.06.05-.12.1-.18.16ZM30.56,17.68s-.03.09-.04.14c-.07-.07-.17-.15-.35-.23.17-.03.3.04.39.09ZM30.51,18.13c0,.11.02.21.03.32-.09-.12-.23-.24-.44-.38-.08-.11.23,0,.41.05ZM27.27,18.26s0,.04,0,.08c0,0,0,0,0,0,0-.03.01-.06.01-.07ZM27.21,18.48c.15.1.29.22.27.24-.09-.08-.21-.1-.36-.17.04-.01.07-.04.09-.07ZM26.7,23.21s-.02.04-.03.06l.03-.06c.31.02.93.13.54-.76.23.67.51-.15.55-.53l.2.48c-.12-.7-.22-.86-.1-1.16.09.02.27.32.13.25.33.1-.14-.5.21-.42l.13.32c.2-.11.08-.25-.09-.62-.04-.25.35-.15.72.15-.08-.1-.17-.22-.23-.33l.67.35c-.76-.12-.77.31-.76.71.05.39.16.69-.51.78.21.18.21.36.44.5l-.53-.02c-.15.38-.21.63-.06,1.05l-.07.04h.01s.04-.02.06-.03c.01.04.02.07.04.11h-.08s.02-.02.03-.02l-.04-.04s-.04.03-.07.05h-.07s.18-.15.18-.15c-.08-.05-.54.3-.37,0-.33.35-.9.98-1.17,1.17.18-.19.48-.51.57-.57-.03.02-.17.14-.1.05l.33-.29c.11-.16-.27.25-.26.2.25-.27.16-.21.37-.42.03-.02-.08.13.02.03.02-.07.13-.26.31-.49-.14.16-.33.37-.38.39-.07-.03.27-.35.36-.53-.18.18-.05-.05-.4.38-.01-.01.14-.22.23-.34-.18.17-.19-.06-.5.44l-.02.04s0,0-.02.02c-.39.39-.02-.38-.24-.25l.09-.16c-.16.15-.2.04-.41.38-.01,0,.1-.32.2-.52-.11.1-.19.29-.14-.02.14-.22.12-.26.13-.23,0,0,0,0,0,0,0,0,0,0,0,0,0,0,0,.02.02.03,0,0,0-.02,0-.03.02,0,.05,0,.08,0ZM28.59,24.94c-.1.03-.53.26-.51.16l-.11.14c.18-.09.43-.21.49-.19.06-.04.1-.07.13-.09,0,.04,0,.08-.01.12.02.35.02.8.64.8-.1.06-.3.17-.38.12.03.06.07.21.12.34-.27-.05-.62-.09-.74-.07-.02.02-.19.05-.48.04l-.15-.04c-.41,0-.83,0-1.22,0,.15,0,.31,0,.26-.01h-.62s.17,0,.17,0c.03,0,.08,0,.12,0-.34,0-.65,0-.93,0,0,0,0,0,0,0,0,0,0,0,0,0,0,0,0,0,0,0,0,0-.01,0-.02,0,0,0,0,0,0,0,0,0,0,0,0,0h0s0,0,0,0c0,0,0,0,0,0h0s0,0,0,0c0,0,0,0,0,0h0s0,0,0,0c0,0,0,0,0,0h0s0,0,0,0c0,0,0,0,0,0h0s0,0,0,0h0s0,0,0,0c0,0,0,0,0,0,0,0,0,0,0,0,0,0,0-.01,0-.02,0,0,0,0,0,0,0,0,0,.01,0,.02,0,0,0,0,0,0,0,0,0,0,0,0-.04-.19-.12-.59-.1-.58.02.13.03.2.05.3-.05-.29-.07-.53-.04-.4.01.11.03.23.03.25,0-.06-.04-.96.03-.62.02.8,0,.27.03.96v-.21s0-.34,0-.34c0,.01.04-.49.05-.26l-.03.29.03-.13v-.26c.05-.36.05-.88.08-.69-.02.07.04,0,0,.42h0c.04-.22.09-.45.09-.27-.03.22-.12.76-.14.91.1-.57.06-.16.2-.76-.03.14-.11.5-.12.57l.11-.46c-.02.15-.04.22-.1.51,0,.09.19-.87.14-.48-.01.04-.03.1-.05.17-.02.2.16-.27.12-.03-.23.67-.08.15-.26.72.04-.12.37-.76.35-.59l.03-.07c.45-.89-.18.45.05.05-.03.06-.16.29-.22.38-.06.15.15-.19.38-.42l-.15.21c-.12.2-.04.13-.1.24.16-.2.15-.16.37-.45-.42.59-.3.44-.12.3.17-.15.39-.29-.03.14,0,0-.17.15-.17.15.06-.05.13-.09.2-.13.33-.28.2-.17.44-.41.2-.16.37-.27.38-.26-.24.16-.53.45-.71.61.1-.08.22-.18.32-.26-.58.51.68-.54.31-.17l-.18.14c.1-.06.36-.22.32-.16-.4.3-.2.12-.54.36.03,0,.81-.5.41-.19-.12.07-.13.05-.26.12-.47.35-.35.27-.42.33h-.01s-.14.11-.14.11c.08-.06.11-.08.14-.1l-.19.15.13-.09c1.05-.6.35-.16.87-.39-.55.25-.32.17-.79.41-.14.08-.29.17-.43.23.41-.19-.32.16.29-.11-.17.08-.01.02-.43.2.14-.05.29-.13.5-.22.59-.2-.69.31.12.05.34-.07.94-.23,1.26-.23-.28.09-.65.14-.65.14-.26.09-.2.09,0,.07-.16.03-.29.06-.49.1.05,0,.66-.11.39-.04-.2.03-.52.08-.72.11.17-.02.51-.06.67-.06-.32.04-.48.05-.69.08.14,0,.29,0,.79-.04l.13-.03c-.12.01-.4.04-.47.04-.4.03.17-.04.35-.07h.12c1.06-.15-.18-.06-.12-.08l.77-.12-.64.08c.2-.05.62-.15.74-.14.37-.12-.28.03.13-.1.06-.02.1-.03.13-.03h-.24c.16-.02.53-.12.43-.07.41-.2-.6.03-.04-.16h.05c-.28-.03-.55.14-1.21.3.44-.16.88-.33,1.31-.51l-.54.18s.05-.05.26-.13c-.38.1-.23.09-.58.21.47-.24-.27-.01.56-.4-.4.17-.28.18-.58.26.88-.43-.18.02.21-.21.46-.22.24-.05.62-.3-.77.36.12-.18-.06-.15-.59.34-.3.06-.53.12.2-.12.23-.32.38-.54l.07-.05c.46.05,1.23-.05,1.3.08l-.73.29c.03.1.03.22.02.34ZM26.36,29.68c0-.07-.03-.22-.09-.49-.02-.17.1,0,.24.31-.06.06-.12.12-.15.19ZM26.21,27.03c-.5-.42-.16-.16-.53-.47.16.14.53.53.39.41-.46-.44-.14-.17-.56-.54l.19.16c-.36-.32,0,0-.36-.32,0,0,0,0,0,0,.03.02.06.05.1.09-.03-.03-.07-.06-.1-.09,0,0,0,0,0,0,.03.02.08.06.07.06.04.04.08.07.32.27-.05-.04-.09-.08-.13-.11.27.22.54.45.73.61,0,.02.31.31-.03.01.02,0-.12-.12-.23-.21l.14.14ZM25.36,26.31c.1.14.23.35.23.35l-.25-.37s0,0,0,0c.06.1.21.36.22.43-.07-.14-.15-.28-.22-.43,0,0,0,0,0,0,0,0,0,0,0,0,0,0,0,0,0,0,0,0,0,0,0,0,0,0,0,0,0,0,0,0,0,0,0,0,0,0,0,0,0,0,0,0,0,0,0,0h0s0,0,0,0c0,0,0,0,0,0,0,0,0,0,0,0,0,0,0,0,0,0,0,0,0,0,0,0,.02.06.04.15.06.19,0,.02-.02-.06-.05-.16,0-.02,0-.03-.01-.04,0,0,0,0,0,0,0,0,0,.03.02.06.03.1.04.19.05.25.02.12,0,.11-.05-.18v-.08c.02.26.1.91.04.53v-.1c-.04-.22-.09.22-.07-.5h0s0,0,0,0h0s0,0,0,0h0s0,0,0,0h0s0,0,0,0c0,0,0,0,0,0,0,0,0,0,0,0h0s0,0,0,0h0s0,0,0,0h0s0,0,0,0h0s0,0,0,0c0,0,0,0,0,0,0,0,0,0,0,0t0,0s0,0,0,0c0,0,0,0,0,0h0s0,0,0,0h0s0,0,0,0h0s0,0,0,0h0s0,0,0,0h0s0,0,0,0h0s0,0,0,0h0s0,0,0,0h0s0,0,0,0c0,0,0,0,0,0h0s0,0,0,0h0s0,0,0,0h0s0,0,0,0h0s0,0,0,0h0s0,0,0,0h0s0,0,0,0c0,0,0,0,0,0,0,0,0,0,0,0,0,0,0,0,0,0h0s0,0,0,0h0s0,0,0,0c0,0,0,0,0,0h0s.03.04.03.04c.09.09.18.19.3.32.21.24-.07-.05-.32-.33-.01-.01-.01-.02-.02-.02,0,0,0,0,0,0,.09.11.21.25.29.35.12.16.18.24.04.07l-.32-.42c.12.16.43.58.21.3-.15-.22-.14-.2-.18-.27-.01-.02-.02-.03-.02-.03,0,0,0,0,0,0,0,0,0,.01.02.03ZM25.16,29.68s.01-.05.02-.06v.08s-.01-.02-.02-.02ZM21.27,27.58s0-.09,0-.14l.08-.04c.28-.01.13.08-.07.18ZM23.9,23.1s.02.09.04.14c.02,0,.02-.06.01-.12.02,0,.04.01.06.02.05.19.05.17.19.45-.32-.59.06.4-.18.02l-.3-.62c.06.05.12.09.19.12ZM24.33,23.21s0,0,0,.01c0,0,0,0,0-.01.02,0,.04,0,.06,0,0,.06-.01.09-.02.15-.02-.07-.03-.11-.04-.14,0,.04-.02.02-.05-.02.01,0,.03,0,.04,0ZM25.64,23.09c-.02.26-.06.6-.11.75-.03-.06-.03-.49,0-.8.04.02.08.03.12.05ZM26.44,23.09h0s-.01,0-.02.01c0,0,.01,0,.02-.01ZM25.33,26.26s0,0,0,0c0,0,0,0,0,0,0,0,0,0,0,0h0s0,0,0,0c0,0,0,0,0,0,0,0,0,0,0,0,0,0,0,0,0,0,0,0,0,0,0,0h0s0,0,0,0h0s0,0,0,0h0,0s0,0,0,0c0,0,0,0,0,0,0,0,0,0,0,0,0,0,0,0,0,0,0,0,0,0,0,0ZM25.34,26.28s0,0,0,0h0s0,0,0,0h0s0,0,0,0c0,0,0,0,0,0,0,0,0,0,0,0,0,0,0,0,0,0,0,0,0,0,0,0h0s0,0,0,0c0,0,0,0,0,0h0s0,0,0,0h0s0,0,0,0c0,0,0,0,0,0h0ZM25.34,26.28s0,0,0,0h0ZM25.25,26.96c.02-.27.05-.46.07-.62,0-.03,0-.05,0-.06,0,0,0,0,0,0-.05.65.04-.38-.08.68ZM25.32,26.28s0,0,0,0c-.03.02-.09.06-.24.15-.17.11-.24.15-.37.24-.07.04.16-.12.36-.24l.04-.03c-.33.19,0-.03.21-.13ZM25.33,26.26s0,0,0,0c-.02-.04-.04-.07-.06-.1-.08-.13-.14-.26-.17-.35.19.37.04.08.23.45ZM25.17,25.89c.04.09.11.26.16.37h0s-.05-.11-.08-.15c-.09-.18-.13-.3-.08-.21ZM25.35,26.28s0,0,0,0h0s0,0,0,0h0s0,0,0,0ZM25.34,26.28s0,0,0,0c0,0,0,0,0,0,0,0,0,0,0,0,0,0,0,0,0,0ZM25.32,26.28h0s0,0,0,0c0,0,0,0,0,0h0s0,0,0,0ZM25.32,26.27s0,0,0,0t0,0s0,0,0,0ZM25.33,26.27s0,0,0,0c0,0,0,0,0,0t0,0s0,0,0,0c0,0,0,0,0,0h0s0,0,0,0h0s0,0,0,0c0,0,0,0,0,0h0s0,0,0,0h0s0,0,0,0c0,0,0,0,0,0,0,0,0,0,0,0,0,0,0,0,0,0,0,0,0,0,0,0,0,0,0,0,0,0,0,0,0,0,0,0h0s0,0,0,0c0,0,0,0,0,0h0s0,0,0,0c0,0,0,0,0,0,0,0,0,0,0,0h0s0,0,0,0h0s0,0,0,0c0,0,0,0,0,0,0,0,0,0,0,0,0,0,0,0,0,0h0s0,0,0,0h0s0,0,0,0c0,0,0,0,0,0,0,0,0,0,0,0h0ZM25.33,26.27s0,0,0,0c0,0,0,0,0,0,0,0,0,0,0,0s0,0,0,0c0,0,0,0,0,0h0s0,0,0,0c0,0,0,0,0,0,0,0,0,0,0,0,0,0,0,0,0,0,0,0,0,0,0,0,0,0,0,0,0,0h0s0,0,0,0c0,0,0,0,0,0,0,0,0,0,0,0,0,0,0,0,0,0,0,0,0,0,0,0ZM25.34,26.28h0s0,0,0,0ZM25.32,26.28h0,0s0,0,0,0ZM25.33,26.27s0,0,0,0h0s0,0,0,0ZM25.33,26.27s0,0,0,0c0,0,0,0,0,0h0s0,0,0,0c0,0,0,0,0,0,0,0,0,0,0,0h0s0,0,0,0ZM25.32,26.26s0,0,0,0c0,0,0,0,0,0,0,0,0,0,0,0,0,0,0,0,0,0ZM25.33,26.27s0,0,0,0c0,0,0,0,0,0,0,0,0,0,0,0,0,0,0,0,0,0t0,0ZM25.34,26.28s0,0,0,0h0s0,0,0,0c0,0,0,0,0,0ZM25.34,26.28s0,0,0,0h0s0,0,0,0h0ZM25.33,26.27h0ZM25.33,26.27h0s0,0,0,0c0,0,0,0,0,0ZM25.34,26.27h0s0,0,0,0h0ZM25.34,26.27s0,0,0,0c0,0,0,0,0,0h0s0,0,0,0ZM25.34,26.28s0,0,0,0c0,0,0,0,0,0,0,0,0,0,0,0h0ZM25.34,26.27h0s0,0,0,0c0,0,0,0,0,0h0ZM25.33,26.27s0,0,0,0c0,0,0,0,0,0h0s0,0,0,0ZM25.33,26.27s0,0,0,0c0,0,0,0,0,0,0,0,0,0,0,0h0ZM25.33,26.27h0s0,0,0,0h0ZM25.33,26.27h0s0,0,0,0h0s0,0,0,0ZM25.33,26.27h0s0,0,0,0ZM25.33,26.27s0,0,0,0h0s0,0,0,0h0ZM25.33,26.27h0s0,0,0,0h0ZM25.33,26.27h0s0,0,0,0c0,0,0,0,0,0,0,0,0,0,0,0ZM25.34,26.28h0s0,0,0,0ZM25.34,26.28s0,0,0,0h0s0,0,0,0ZM25.34,26.27s0,0,0,0c0,0,0,0,0,0,0,0,0,0,0,0ZM25.34,26.28s0,0,0,0c0,0,0,0,0,0,0,0,0,0,0,0h0ZM25.34,26.28s0,0,0,0c0,0,0,0,0,0,0,0,0,0,0,0,0,0,0,0,0,0ZM25.34,26.28s0,0,0,0h0s0,0,0,0h0ZM25.34,26.28s0,0,0,0,0,0,0,0c0,0,0,0,0,0,0,0,0,0,0,0ZM25.33,26.27s0,0,0,0h0s0,0,0,0h0ZM25.32,26.26s0,0,0,0c0,0,0,0,0,0,0,0,0,0,0,0,0,0,0,0,0,0ZM25.32,26.25s-.02-.03,0,0c0,0,0,0,0,0ZM25.32,26.26s0,0,0,0c0,0,0,0,0,0,0,0,0,0,0,0,0,0,0,0,0,0ZM25.32,26.26h0s0,0,0,0c0,0,0,0,0,0h0ZM25.33,26.27s0,0,0,0c0,0,0,0,0,0,0,0,0,0,0,0,0,0,0,0,0,0h0s0,0,0,0c0,0,0,0,0,0ZM25.33,26.27h0s0,0,0,0c0,0,0,0,0,0ZM25.18,26.23c-.07-.02.01,0,.13.04h0c-.06-.02-.11-.03-.13-.04ZM25.33,26.28c-.15.15-.13.13-.26.26.06-.06.16-.17.25-.25.01,0,0,0,.01,0,0,0,0,0,0,0ZM25.33,26.27h0,0s0,0,0,0ZM25.33,26.27h0s0,0,0,0h0ZM25.34,26.28h0s0,0,0,0c0,0,0,0,0,0,0,0,0,0,0,0ZM25.34,26.28h0s0,0,0,0c0,0,0,0,0,0,0,0,0,0,0,0ZM25.34,26.28h0s0,0,0,0c0,0,0,0,0,0,0,0,0,0,0,0h0ZM25.35,26.28h0s0,0,0,0c0,0,0,0,0,0,0,0,0,0,0,0ZM25.36,26.28l.08.02c.13.04.24.06.27.07-.23-.06-.32-.08-.35-.09ZM25.51,26.31s-.03,0-.16-.03c0,0,0,0,0,0,.15.03.09.02.38.07-.24-.04-.21-.03-.22-.03ZM25.34,26.28h0s0,0,0,0h0ZM25.34,26.28s0,0,0,0h0s0,0,0,0h0ZM25.33,26.27s0,0,0,0h0s0,0,0,0c0,0,0,0,0,0ZM25.33,26.27s0,0-.01-.01c0,0,0,0,0,.01,0,0,0,0,0,0,0,0,0,0,0,0,0,0-.01-.02,0,0,0,0,0,0,0,0,0,0,0,0,0,0,0,0,.01.01.01.02h0ZM25.33,26.27s0,0,0,0c-.04-.03-.1-.1-.24-.22.15.14.21.2.24.22ZM25.25,26.3s.04-.01.06-.02c0,0,0,0,0,0l-.05.02-.25.09c.06-.02.13-.04.23-.08ZM25.2,26.46c.04-.06.08-.12.12-.18,0,0,0,0,0,0-.18.27-.11.16-.34.51.01-.03.11-.18.22-.33ZM25.33,26.29s0,0,0,0c0,0,0,0,0,0,0,0,0,0,0,0,0,0,0,0,0,0h0s0,0,0,0h0s0,0,0,0c0,0,0,0,0,0h0s0,0,0,0h0s0,0,0,0ZM25.33,26.29s0,0,0,0c0,0,0,0,0,0h0ZM25.33,26.29s0,0,0,0c0,0,0,.02-.03.07.01-.03.02-.05.03-.07ZM25.33,26.29h0s0,0,0,.02c-.02.08-.05.17-.07.25-.04.13-.02.03.03-.13.01-.04.03-.1.04-.14ZM25.31,26.34s0-.03,0-.03l-.09.37.08-.33ZM25.33,26.28s0,0,0,0c0,0,0,0,0,0h0s0,0,0,0ZM25.34,26.28h0s0,0,0,0c0,0,0,0,0,0h0ZM25.34,26.28s0,0,0,0h0ZM25.34,26.28h0s0,0,0,0ZM25.34,26.28s0,0,0,0h0ZM25.34,26.28h0s0,0,0,0c0,0,0,0,0,0t0,0s0,0,0,0ZM25.34,26.28s0,0,0,0c0,0,0,0,0,0h0s0,0,0,0ZM25.34,26.28h0,0ZM25.34,26.28s0,0,0,0c0,0,0,0,0,0,0,0,0,0,0,0h0ZM25.34,26.28s0,0,0,0h0ZM25.34,26.28s.03.02.07.05c-.04-.03-.06-.04-.07-.05,0,0,0,0,0,0ZM25.34,26.28s0,0,0,0c.04.03.09.06.13.08.04.03.03.02,0,0-.03-.02-.07-.05-.13-.08ZM25.34,26.28s0,0,0,0h0s.03.02.03.02c0,0-.05-.03.2.11-.14-.08-.15-.08-.23-.13ZM25.38,26.29s-.03-.01-.03-.01c0,0,0,0,0,0,.09.04.16.07.22.1.17.08.31.15.51.25-.32-.15-.51-.24-.71-.33ZM25.62,26.31c-.13-.02-.21-.03-.27-.04h0s0,0,0,0c0,0,0,0,0,0,0,0,0,0,0,0,.25.03.48.06.65.08-.39-.04-.71-.09-.38-.04ZM25.36,26.28s-.01,0-.02,0c0,0,0,0,0,0l.5.05c-.17-.02-.34-.03-.49-.05ZM25.34,26.27s0,0,0,0h0s0,0,0,0c0,0,0,0,0,0h0ZM25.34,26.27s0,0,0,0h0s0,0,0,0c0,0,0,0,0,0ZM25.33,26.26s-.03-.12-.05-.22c.02.07.03.14.05.22h0ZM25.27,26.02c.01.06.03.14.05.23,0,0,0,0,0,0,0,0,0,0,0,0,0,0,0,0,0,0,0,0,0,0,0,0,0-.01,0-.02-.01-.03,0-.01,0,0,0,0,0,0,0,0-.06-.23.02.07.05.16.06.22,0-.03.03.12-.07-.25l.03.1c-.17-.53-.29-1.12-.35-1.41.24,1,.13.36.36,1.37ZM25.22,25.77s.01.05.02.08c0-.03-.01-.05-.02-.08ZM21.26,27.02s.02,0,.03,0l.09.08s-.07.02-.1.03c0-.03-.01-.07-.02-.11ZM21.92,25.87c.51.12.77.19.75.25-.19-.01-.34-.02-.45-.02-.1-.08-.2-.16-.3-.24ZM22.65,24.33s0,.01,0,.02c-.01,0-.02-.02-.03-.03,0,0,.02,0,.02,0ZM23.04,24.89c-.07-.03-.12-.06-.16-.08,0-.03,0-.07,0-.1.18.13.32.24.16.18ZM22.83,25.39c-.09-.04-.15-.06-.2-.08.02-.02.03-.04.04-.05.06.05.11.1.15.14ZM22.63,25.32c.16.06.31.12.36.16-.13-.03-.26-.06-.42-.09.02-.02.04-.05.06-.07ZM23.1,24.18s.03-.08.04-.12c.07.1.13.19.38.4-.24-.19-.35-.26-.42-.28ZM23.14,24.05s0-.02,0-.04c.04.05.07.09.05.1-.02-.02-.04-.04-.06-.06ZM21.67,25.53c-.08,0-.07.03.08.08.02-.01.06-.02.1-.02l.46.14s.03-.06.05-.08l.14.02c.7.2-.41-.03.11.13l-.73-.11c.17.08.68.26.82.33-.41-.07-.67-.16-.9-.25-.14-.12-.25-.22-.24-.28l.11.03ZM21.28,27.29s0-.09,0-.15c.04-.01.08-.02.12-.03l.16.14c-.15.04-.19.03-.28.03ZM22.12,26.99c.05-.02.1-.02.16-.05-.03.01-.09.02-.14.03.02-.02.03-.05.05-.07.03,0,.07-.01.1-.02.07.02.06.04,0,.06,0,0,0,0,0,0h0c-.07.03-.14.06-.21.1.02-.02.04-.03.05-.05ZM23.98,29.68c-.02.07-.03.13-.04.19-.02.01-.03.02-.05.03l.09-.21ZM25.64,26.87s0,0,0,0c0-.01,0-.02,0-.03,0,0,0,.02.01.04ZM25.64,26.91c.08.16.16.33.15.33-.05-.11-.1-.2-.17-.34.01.02.02.02.02.01ZM26.53,29.47c-.06-.21-.1-.38-.04-.3.05.12.07.19.09.25-.02.01-.04.03-.06.04ZM26.69,29.35c-.02-.13-.03-.24.09-.07-.03.02-.06.04-.09.07ZM27.05,29.17s0,.03-.01.05c-.01-.04-.01-.06.01-.05ZM27.06,29.12c-.14-.25-.26-.49-.33-.61.15.21.28.37.4.52-.03.03-.05.06-.07.1ZM27.47,28.8c-.05-.07-.09-.14-.16-.22-.05-.09.1.07.22.2-.02,0-.04.02-.07.03ZM27.37,28.36c.19.12.32.31.38.36-.03,0-.06.01-.08.02-.04-.08-.12-.2-.29-.38ZM27.73,24.15s.03.01.04.02c-.07.04-.12.07-.17.09l.13-.11ZM27.83,24.19c.05.02.11.03.18.04-.53.38-.47.25-.61.31.2-.17.33-.27.44-.34ZM26.62,23.17c0-.17.04-.34-.18.05.04-.09.06-.16.08-.22.04-.05.08-.11.11-.19.01.1.03.28-.01.36ZM25.19,22.14v.55c-.04.1,0,.48-.06.56-.07-.33-.04-.81-.11-.52-.03-.07-.04-.15-.05-.23.08-.2.16-.35.22-.36ZM23.65,22.34s-.02-.02-.02-.03c.02,0,.03-.01.05-.03l-.03.06ZM22.51,21.74c.38.1.7.11.54.77.18-.1.32-.08.47-.14.03.05.05.09.07.12l-.06.12c-.35-.38.06.6-.2.44l.14.14c.21.39-.04.1.01.27-.2-.31-.3-.41-.45-.58.16.22-.12.05.31.66l-.34-.35c-.23-.07.54.91.4.87-.24-.32-.45-.49-.58-.76-.03.02-.11,0,.06.19-.1-.09,0,.06.05.17-.02,0-.05-.02-.08-.02-.02-.01-.03-.02-.03,0-.09-.01-.21-.01-.36,0,.71-.03,0-.53-.34-.68l.52-.05c-.71-.09-.89-.05-1.14-.24.04-.06.28-.14.3-.09.09-.21-.52.01-.36-.29l.35-.03c-.04-.22-.22-.15-.62-.09-.25-.03-.04-.38.35-.64-.26.11-.65.22-.59.06.14-.1.26-.13.32-.14.12-.46-.75-.06-.45-.52.14-.11.2-.17.23-.21.08.13.14.24.17.32-.06.2.11.27.19.38l.75-.64c-.39.66,0,.83.37.97ZM21.46,20.34c-.06.15.34,0,.27.13-.28.04-.55.08-.64,0,.15-.08.31-.14.37-.13ZM18.76,28.93c-.03-.17-.05-.34-.02-.39.12.1.11-.32.21-.21-.04.28-.09.54-.19.61ZM19.81,32s.02-.03.05-.06c0,0,0,0,0,0-.02.02-.04.04-.05.05ZM19.99,31.86c-.07-.17-.12-.35-.09-.35.02.12.12.2.2.34-.04,0-.07,0-.11.01ZM20.96,29.18c-.05-.06-.05-.31,0-.31-.18-.14-.14.5-.38.26l.08-.34c-.23-.03-.2.16-.27.56-.1.23-.37-.07-.51-.53.03.28.02.68-.11.58-.06-.17-.05-.29-.04-.34-.41-.25-.27.7-.63.28-.06-.16-.1-.24-.14-.28.14-.04.27-.07.36-.07.17.11.29-.03.42-.07l-.39-.91c.51.57.79.25,1.03-.07.08-.13.15-.26.24-.35.24-.06.34-.03.24.06l.21-.11s.09.04.14.07c-.21.11-.42.21-.11.21l-.36.07c.23.02.13.36,1,.05-.11.07-.39.22-.48.22,0,.09.09.11.22.12-.24.55-.27.73-.52.91ZM21.43,28.67l.08-.4c.13,0,.28,0,.39,0-.17.1-.36.26-.47.39ZM25.65,33.27c.25.12.5.24.53.36-.17-.02-.34-.05-.38-.1.13-.09-.28-.2-.15-.26ZM26.4,32.52c.28.06.66.18.52.28-.18,0-.29-.04-.34-.06-.36.31.59.47.09.68-.17.01-.26.03-.31.05,0-.15.02-.28.04-.36.16-.13.06-.29.06-.42l-.98.11c.69-.33.47-.69.23-1.01-.26-.3-.52-.48-.02-.93-.27-.03-.37-.18-.65-.17l.27-.16c.13.16.28.39.37-.15,0,.12.02.34,0,.38.08.02.41.49.22-.58.1.7.19.04.2-.28l.09.51c-.06-.67-.11-.85-.07-1.05.03.05.1.3.08.3.1.13-.08-.5.06-.27l.06.33s.03,0,.03-.02c-.04.15.04.33.45.54-.6-.37-.3.43-.1.76l-.46-.25c.53.47.71.53.81.84-.07.03-.31-.04-.3-.09-.19.13.44.28.14.44l-.3-.17c-.09.21.1.24.46.42.19.16-.18.34-.65.33ZM27.78,28.7s0-.01,0-.02l.02.02s-.01,0-.02,0ZM29.33,33.31c-.18.02-.37.01-.36-.02.12.01.23-.06.38-.1-.02.03-.03.07-.02.11ZM29.37,33.46s.01,0,.01,0c.01.03.03.05.04.06,0-.01-.02-.03-.05-.06ZM32.63,28.25c-.05-.15-.27.21-.29.06.19-.21.38-.4.49-.4-.06.16-.15.31-.2.34ZM31.84,27.38c.14-.25.37-.57.42-.42-.05.17-.12.26-.16.31.2.44.62-.43.68.12-.04.17-.05.25-.04.31-.14-.04-.26-.1-.33-.14-.08-.19-.26-.14-.38-.18l-.18.97c-.11-.76-.52-.65-.9-.52-.36.16-.61.36-.9-.26-.11.25-.28.3-.35.57l-.13-.51c-.45-.04-.7-.02-1.13.32l-.07-.38c-.32.11.39,1.5.24,1.64l-.49-.62s-.03.01-.05.02c-.04-.06-.09-.13-.14-.19-.25-.34-.51-.59.14-.28-.08-.04-.12-.05-.22-.12.33.07.29-.15.26-.31-.03-.17-.03-.29.48-.25.22-.01-.2-.17-.5-.31l.54.16c-.2-.09-.4-.18-.6-.26-.45-.19,1.4.14.54-.2l-.38-.05c.08-.04-.2-.17.23-.11-.07-.01-.39-.07-.19-.06l.29.03c-.16-.06-.33-.12-.49-.17.16-.05.7.03,1.01.01.12.18.33.24.74-.18-.53.47.33.41.7.32l-.37.37c.61-.37.72-.52,1.04-.53,0,.07-.13.29-.17.26.07.22.4-.34.46,0l-.25.24c.17.15.26-.02.54-.32.21-.13.27.27.13.72Z"/>
</svg>