<?xml version="1.0" encoding="UTF-8"?>
<svg id="_레이어_1" data-name="레이어_1" xmlns="http://www.w3.org/2000/svg" viewBox="0 0 50 51.61">
  <defs>
    <style>
      .cls-1 {
        fill: #040000;
      }
    </style>
  </defs>
  <path class="cls-1" d="M48.69,25.72c-.03.16-.26.39-.64.4l-.18-.34c-.44-.03-.88-.08-1.3-.08.07-.03.1-.08.07-.15l-.8-.13.23.29s.01,0,.02,0c-.47.04-.91.17-1.28.5l.66.54-.55.14v-.43c-.54.22-.09.39.21.58-.29.02-.5.08-.61.17.35.19.7.39,1.04.6-.44.01-.84-.31-1.12,0,.46.29,1.01-.12,1.28.31-.54.19-.94.06-.56.4-.29,0-.46-.09-.57-.21.3.3.04.68.61.91-.64.14.02.9-1.03.65.23.13.7.62.68.86-1.12-.73-.29.84-1.57.35,1.04.63.11,1.19.53,1.94-.07-.06-.22-.19-.15-.21-.2.26-.54.22-.81.32.85.4.83.93,1.24,1.43-.99-.03-.9-.69-1.75-.94.7.3.4.92,1.03,1.09-.63.02-.36.11-1.11-.12,1.02.6.07.34.57.89-.73.08-1.02-.45-.95.12-.42,0-.57-.56-.57-.56-.25.37.64.63,1.02.98-.08.63-.69-.12-1.17-.2.03.42.56,1.1.36,1.3-.13-.07-.21-.06-.32-.21.34.71-.63.9-.21,1.82-.08-.03-.15-.06-.21-.1.39.23.75.51.99.73-.14.18.13.69-.36.37.11-.09-.06-.26-.15-.42l.03.34c-.77-.39,0-.43-.47-.83-.09.5.05,1.38-.36,1.48-.64-.51.35-.8-.49-.95l.59-.18c-1.23-.56.28-.17-1-.82-.62.31-.17.85-.83,1.14.2.43.51.45.71.88-.2,1.28-1.95-1.01-1.74.28.21.53.79,1.38.03,1.27l-.43-.84c-.57.31.49,1.29-.44,1.21-.11-.37.24-.57.1-.59-.78-.33.05.62-.24.83l-.52-.64c-.53.44-.86,1.41-1.52,1.9-.07-.24-.07-.52-.35-.66-.35.39-.84.6-1.36.7-.54.05-1.11,0-1.61-.08l-.12.8c-.08.02-.24-.27-.2-.42-.43-.17.11.43.02.74-.19.1-.38-.32-.31-.56-.43.73-1.53,1.74-2.36,1.06l.1-.23c-.56-.2-.41,1.53-1,.95l.08-.14c-1.2-.21-2.55.5-3.39-.66-.25,1.01-1.1-.5-1.33.86-.59-.8-.36-1.03-1.18-1.62-.23-.09-.53.79-.87.86l.16-.73-.59.65v-.91s-.32.11-.32.11c.1.07.15.38.08.58-.55.22-.93-.79-.81-1.17l-1.2.23c.1-.21.24-.28.39-.36-.53.27.28-.81-.4-.37,0,.18-.2.4-.27.53-.08-.49-.58-.77-1.05-.78l.3-.42c-.64-.41-1.53-.55-2.27-1.01.14.36-.4,1.07-.68,1l.34-.71c-.42.31.08.39-.56.7-.23-.28.32-.87.61-.97l-.47-.02c.12-.21.26-.25.45-.48-.42.3-.07-1.04-.76-.49l.12-.2c-.69-.49-1.11-.6-1.67-1.03-.48.48-.58.19-1.13.43-.22-.56-.22-1.36-.69-1.78-.55-.13-.53.26-.97.36.46-.42.03-.89.58-.9-.51-.57-.73-.66-1.64-1.25-.16.23-.19.39-.4.45-.18-.11,0-.5.27-.63h.08c-.68-.23-.66-1.01-.53-1.74.12-.73.16-1.33-.55-1.5l.08.02-.94-.61c-.04-.43.52.08.78-.33-.67-.28-.75-.67-.74-1.04-.01-.37.02-.72-.41-1.04.78-.49.72-1,.51-1.53-.1-.27-.23-.54-.25-.81,0-.27.08-.53.36-.75l-.43.07c-.43-.19.23-.27.32-.43-.33.04-.37.25-.61.13-.35-.9-.09-1.86.21-2.77.17-.45.43-.89.64-1.31l.31-.63c.12-.2.24-.4.34-.61.27-.58-2.05-.93-.85-1.5l.7.46c-.27-.78.02-1.43.26-2.07.32-.62.65-1.21.6-2,.12.16.32.27.27.39.63.03.55-.86.15-1.12.15-.15.39.18.66.2.43-.05-.27-1.01.31-.81.09.03.11.17.12.23-.12-.3.56-.63-.08-.88.56-.2.33-.97.91-1.03-.38-.68.85-.4.13-1.17.79.76,1.21-.06,1.12-.63.15.31.44.06.66.48.25-.25.36-.62-.06-1,1.3.53.41-1.68,1.73-.6.13-.28.26-.55.4-.81.15-.24.32-.47.48-.69.34-.43.67-.89,1.08-1.19.46.95-.92.63-.31,1.6.52-.89.66-1.89,1.62-2.09.28.03.06.49.07.7.32-.43.77-.52,1.18-.68.42-.13.79-.33,1.12-.7.03.1-.03.23-.09.33.15-.07.41.06.26-.41l-.12.17c-.47-.62.25-1.61.2-1.99.07,1.44.94.13.9,1.98.08-.12.16-.38.07-.7.18.05.27.23.19.64.51-.41.21-.85.76-.94.04.24-.05.34-.06.63.18-.5.4-1,.89-.87,0,.15.07.32-.07.34.75-.22,1.25-1.36,2.19-.97-.23,1.05.31.33.37,1.22.15-.1.3-.19.46-.26l-.18-.45c.41.04.8-.6,1.16-.29l-.33.35.79-.13-.42-.36c.46-.44.03-1.14.59-.86-.13.09.45.02.61.6h0c.24-.25.51-.51.8-.24.04.3-.21.97-.19,1.17.32-.7,1-.08,1.42-.79-.13.16-.22.62-.22.72l.3-.55c.15.24.16.34.04.7.54.26.08-1.16.65-.5-.07.03-.06.13-.2.19.61.42,1.44-.05,1.96.49-.12.92-.6.02-.64.81.45.08.98-.02,1.51-.06.53-.04,1.03.04,1.39.32l-.11-.16c.68-1.08.34.85,1.01.53-.14.02-.47.55-.37.44.41.5,1.21.35,2.24.54l-.28.2c.12.46.67.71.89,1.06.29-.19.44-.01.63-.47-.07,1.08.44,1.3,1.08,1.46.63.15,1.25.35,1.04,1.28-.09-.09-.41-.03-.35.05l.83.47c.37-.42.18-.31.37-.74.33-.13.71-.09.87.09-.58-.08-.67.57-.81.91.11-.13.3-.2.42-.32-.48,1.01.92-.63.81.33l-.25.15c.27.11.72.07.82.35-.46.46-.41-.04-.85.25.25.27,1.47-.1,1.11.57-.23-.04-.36-.24-.61-.27-.4.72-.24.66-.2.95v-.03s.03.71.03.71l.09-.24c1.67-.45.79.63,2.02.7-1.2-.09-.58.19-1.25.48-.11.24-.21.55-.42.58.65,0-.22.62.74.63-.21.11.11.29-.45.46.33.26.34-.24.62-.33,1,.24-.43,1.61.91,2.02.63.56,1.42.5,1.99,1.11-.31.32-.88,0-.88,0-.25.45-.09.7.23,1-.21-.03-.37.08-.61.23.1.26.87.03.58.47-.27-.02-.69-.03-.97-.12.26.28.74.54,1.01.86-.39.14-.65-.13-.93-.2.24.34.53.92,1.16.99l.16-.21c-.14.06-.52.04-.62-.03-.56-.27.15-.5.38-.55l.19.23c1.33-.43-.37-.99-.37-1.47l1.02.03-.9-.37c.23-.16.77-.35.96-.13.41-.48-.42-.25.04-.69.07-.05.13-.05.17-.03l-.38-.29c.22.02.67-.23.59.03.39-.82-1-.87-.33-1.32l.07.04c-.6-.8-.72.12-1.77-.25.52-.33,1.04-.68,1.55-1.04l-.72.16c0-.1-.02-.3.26-.37-.59-.16-.28.17-.79.15.48-.69-.75-1.04.26-1.6-.58.08-.2.57-.77.29,1.08-.66-.44-.42-.1-1.05.63-.18.51.35.84-.3-1.08.27-.15-.87-.55-1.09-.77.42-.73-.5-1.29-.86.29-.14-.26-1.2-.36-1.86l.13-.08c-.78.45-.97-.14-1.4-.33.41-.33.63-.41.97-.38-.09-.11-.19-.2-.28-.31-.28.11-.48.11-.73-.01l.56-.36c-.41-.39-1.29-.3-1.48-1.1-.45.42-.82,1.57-1.61,1.41.21-.26.59-.69.82-.66-.08-.01-.35.05-.34-.13l.6-.21c-.06-.39-.44.23-.59.03.33-.34.1-.37.38-.62.08.01.03.29.23.22-.15-.25-.22-.69-.06-1.04-.16.22-.43.48-.62.38-.42-.34.24-.56.16-.96-.3.16-.37-.32-.83.23-.12-.1.06-.37.13-.56-.42.07-1.12-.73-1.31.08l.03.08s-.03,0-.05,0c-1.09.01-1.35-1.35-2.28-1.59l.12-.21c-.59-.04-1.16-.4-1.71-.11-.14-.07-.15-.55.03-.78-.45,0-.58.19-.99-.37.55-.24,0-.39.52-.13-.43-.38-.42-.78-1.2-.37.4-.5-.14-.87-.45-.78l.22.54c-.3-.02-.53-.15-.76-.29l.37-.72c-.41-.64-1.06-.36-1.6-.16-.55.21-1.01.32-1.29-.53-.4.5.54.48.14,1.08-.47-.18-.83-1.4-1-1.43-.68-.54-.82,1.04-1.52.67.07.29.07,1.05-.47,1.29-.48-.13-.54-1.23-.2-1.44.13-.02.18.08.17.17.17-.09.41-.21.22-.52l-.09.28c-.24-.3-.97-.31-.78-.77-.42.25-.19.46.1.62-.66-.43-1.05-.1-1.75-.32.12.15.22.48.11.49-1.02-.3-.43.56-1.08.72-.41-.41.07-1.04-.59-.64-.45-.27-.16-.75,0-.99-.59.56-1.24-.21-1.65-.27l.32-.28c-.19.17-.36.19-.53.21l.28.53c-.21-.07-.38-.04-.42-.28-.14.4.3.91,0,1.48-.31-.24-.71.41-.95-.29.86.1-.25-.74.44-.97-.12.11-.29.13-.51.07-.05-.08,0-.16.04-.21-.95-.47-.19.93-.99,1.11,0-.44-.39-.74-.5-.61.34-.08.33.65.13,1.04-.6-.19-.48.38-.75.41l.34.07c.02.43-.24.44-.53.7-.04-.1-.03-.17,0-.22-.26.39-1.07-.56-1.39.04-.35-.18-.32-.74-.61-.84-.4.73-.88-.26-1.33.45.42.43.38.3.2,1.01l.82-.84-.29,1.06c.29-.13.47-.64.69-.61-.13.55-.14.42.18.79-.74-.6-.56.83-1.26.52l-.61-1.28c-1.03-.23-.92,1.28-1.95,1.51l.41.04c.18.55-.49.39-.64.75-.23-.41-.51-.45-.79-.62.21.28-.63.43-.15,1.25l-.73-.23c-.83.3.08,1.6-.57,1.99-.17-.55-.65-.56-.5-1.2-.2.17-.44.27-.22.52-.32-.12-.11.96-.59.79.06.23.38.61.14.77-.09-.05-.16-.17-.16-.17.16.16-.09.54.45.73-.78-.24-1.14.19-1.46.62-.33.42-.59.87-1.29.76-.21.56-.5,1.18-.76,1.61-.1-.11-.2-.13-.1-.19-.74.36.92,1.11.1,1.51-.87-.05-.14-.57-.52-.51-1.39-.7-.34.92-1.37.97l-.02-.16c-.66.14.08,1.2-.31,1.75,0,0-.11-.09-.21-.1.5.74.48,1.64.47,2.3-.51-.39-.21-.38-.83-.48-.02.3.97.26.94.84-.38.06-.81.35-1.44.22.03-.18.1-.36.14-.53-.93,0-.2.69-.41.93l-.35-.14c-.1.88.82,1.11.53,1.96l.3-.03c.81.65-.59.3.01.9h-.96c.18.36.72,1.24.85,1.81-.69-.38-.92-1.1-1.27-1.6-.06.33-.1,1.12.34,1.34-.07-.14-.28-.33-.11-.44.66.48,1.03,1.01.97,1.63-1.83-.2-.57,1.62-1.92,2.13.37.58.32,1.15.23,1.78-.05.62-.17,1.29-.01,1.97,1.34-.74.1.39,1.53.02.14.28.16.39.07.44l.04-.07s-.03.05-.05.08h0s-.62,1.11-.62,1.11c-.36.33-.39-.21-.7-.11.07.72-.53.44-.78,1.02.48-.24.79.04.7.49l.51-.75c.98.72-.92,1.19.14,1.91l-.55-.15c.43.4.67,1.86,1.99,1.79-.12.15-.43.43-.62.27.2.59.75,1.1,1.29,1.52.55.43,1,.84.94,1.44l-.35.12c.21.14.76-.03.63.4-.13.07-.35.13-.3.23.18.03.88.12.88.48l-.48.03c.17.62.65.85,1.17.98.54.11,1.13.12,1.55.39-.78.7-.42,1.66-.18,2.1l-.12.1c.48.53,1.08.78,1.7.95.62.17,1.31.2,1.93.41-.03.7.45,1.21,1.07,1.63.61.43,1.28.87,1.73,1.41-.09-.26.41-.72.65-.72.18.32,1.05-.31.6.55l-.09-.06c-.19.96.48,1.03.94,1.2l.55-1.15c.24,1.06,1.1,1.24,1.87,1.25.79,0,1.47-.05,1.63.85.36-.22.74-.16,1.09-.43l-.14.67c.82.29,1.24.49,2.31.41l-.26.47c.61.08.91-1.92,1.42-1.93l.12,1.02c1,.08,2.11.86,3.06-.1,0,.15,0,.44-.18.49.48.05,1.98.46,1.61-.89.14.89,1.07-.06,1.51-.56l.05.68c.28-.95.23-1.18.78-1.57.14.04.23.36.11.39.44.08.17-.71.8-.53l-.1.47c.51-.08.41-.28.52-.85.21-.36.94-.16,1.23.38-.06-.37.02-.93.36-.87.12.2.07.37.05.45,1,.14.84-1.22,1.65-.86.11.19.19.28.27.32-.63.28-1.14.49-1.11.42.24.57.81.42.73,1.4.25-.63.5-1.88,1.12-1.86.05.04.1.08.17.16l-.02.09c.14,0,.22-.1.27-.24.2,0,.33,0,.48-.07.31.41.7-.1.96-.23-.37-.56,0-.66-.59-.96.06.02,0,.1-.14.22-.03.04-.06.07-.06.12v-.06c-.16.11-.35.25-.58.39.02-.41.06-.78.51-.61-.1-.44-.2-.9-.25-1.12.81.62,1.71.65,2.12,1.05.46-.84,1.52-1.4,1.05-2.74.06-.28.44.1.64.18-.02.19-.15.28-.09.47.14-.57.97-1.05.43-1.76.71-.12.34.82.82.14l.12.27c1.06-.11,1.12-1.02,1.17-1.84.03-.87.03-1.66,1.3-1.85-.17.04-.24.05-.38-.01.89-.6,1.3-1.61,1.65-2.57.34-.99.72-1.9,1.63-2.64.44-.45-.07-.7-.37-1.15l.73.1c-.21-.27-.43-.55-.65-.81-.19-.48.32-.7.79-.99.47-.29.88-.66.37-1.29l-.5.05c.15-.36-.11-1.21.44-1.07-.08-.05-.49-.19-.21-.3l.38.03c-.16-.33-.35-.66-.56-.98.31-.69,1.5.23,1.63-.85-.13-.42-1.05-1.16-1.31-1.01ZM34.35,44.71c-.02-.16-.29-.18-.5-.3.12-.03.25-.09.39-.16.13.19.2.43.11.46ZM34.72,43.98s0-.01,0-.01c.08-.06.15-.11.2-.14-.04.03-.1.07-.19.15ZM37.97,47.25s-.02-.06-.02-.08c.05.12.09.24.11.33-.11.18-.24.1-.33,0,.07-.06.15-.13.24-.24Z"/>
</svg>