<?xml version="1.0" encoding="UTF-8"?>
<svg id="_레이어_1" data-name="레이어_1" xmlns="http://www.w3.org/2000/svg" viewBox="0 0 50 36.37">
  <defs>
    <style>
      .cls-1 {
        fill: #040000;
      }
    </style>
  </defs>
  <path class="cls-1" d="M49.94,2.5c-.15-.41-.78-.88-.75-.71.07.13.12.36.03.42l-.2-.25c-.13.04-.25.08-.36.15,0-.03,0-.07-.05-.11-.09.02-.17.03-.25.06l.2.15s0,0,0,0c-.1.11-.16.26-.14.52.09.1.23.19.31.31l-.13.16c-.03-.11-.04-.22-.09-.32-.07.21.05.29.17.42-.07.04-.13.11-.16.19.11.12.23.26.32.41-.13.04-.24-.2-.33.08.13.21.3-.18.37.17-.17.21-.29.12-.2.4-.09.02-.13-.04-.15-.15.08.24-.08.6.05.76-.24.17-.2.79-.49.66.04.09.07.48-.02.7-.16-.52-.38.76-.69.48.16.42-.4,1.04-.55,1.59,0-.04-.02-.12.02-.15-.19.25-.33.27-.49.4.21.19-.02.62-.03.94-.44.16-.13-.38-.4-.42.2.11-.2.67.02.67-.31.14-.22.16-.49.14.24.25-.11.26-.1.57-.4.23-.32-.11-.53.32-.22.11-.06-.29-.06-.29-.3.37.06.33.11.5-.31.49-.32.08-.54.15-.18.31-.17.68-.36.87-.05-.01-.09.02-.09-.06-.09.42-.74.84-.85,1.34-.04,0-.07,0-.09,0,.14.04.25.12.3.19-.14.16-.16.41-.34.35.1-.09.05-.15.06-.23l-.1.21c-.32-.02.15-.28.02-.41-.24.38-.46.88-.75,1.08-.22-.12.49-.62.03-.45l.43-.31c-.55.03.24-.21-.3-.22-.53.44-.44.64-.98,1.07-.02.2.17.1.16.31-.53.86-.97.1-1.26.83-.03.24.12.51-.36.74l-.05-.32c-.51.43-.02.55-.66.88.02-.16.33-.42.24-.37-.48.15-.14.33-.4.56l-.21-.13c-.16.16-.32.33-.48.51l-.21-.04.02.04c.06,0,.13,0,.19,0-.04.04-.08.09-.11.13l-.07-.14c-.26-.02-.52-.05-.77-.05.04-.02.07-.04.05-.09l-.47-.07.13.17s0,0,.01,0c-.27.03-.53.1-.75.29l.38.31-.32.08v-.25c-.31.13-.05.22.12.34-.17.01-.29.05-.35.1.2.11.4.23.6.35-.26,0-.49-.18-.65,0,.23.14.49,0,.66.1-.05.04-.1.09-.15.14-.16.03-.24.03-.15.13-.01.01-.03.02-.04.03-.11-.02-.19-.05-.24-.11.07.07.09.14.1.21-.56.43-1.17.8-1.74,1.11l-.17.39c-.07.05-.18.02-.13-.07-.34.17.06.12-.03.29-.16.14-.3.07-.22-.06-.42.53-1.29,1.42-1.98,1.64l.07-.13c-.49.25-.26.69-.78.83l.06-.08c-1.01.6-2,1.47-2.92,1.7.02.35-1.05.51-.9.9-.68.19-.55.02-1.43.39-.23.11-.19.42-.44.61l-.12-.18-.25.41-.32-.11-.22.2c.11-.05.26-.04.28.02-.34.32-1.04.42-1.1.33l-.85.68c-.02-.09.12-.2.22-.32-.4.47-.2-.15-.57.28.09,0,.03.13.04.17-.17,0-.42.11-.67.24v-.14s-.19.07-.19.07c.03.02.05.08.06.14-.09.05-.17.1-.26.15-.18-.14-.28-.48-.22-.63l-.7.13c.08-.16.19-.18.31-.25-.46.3.11-.44-.31-.17,0,.1-.12.23-.16.31-.05-.29-.33-.45-.61-.45l.05-.07c.59-.16,1.35-.67,2-.86-.14.01-.1-.22.01-.32.2-.04.36-.44.47-.18l-.06.03c.26.17.57-.09.84-.24l-.14-.34c.97.06,1.7-1.24,2.32-1.05.12-.18.32-.31.43-.48l.1.17c.48-.24.72-.36,1.25-.76l-.04.19c.32-.19.09-.73.37-.93l.25.19c.54-.36,1.23-.51,1.62-1.09.02.04.05.12-.03.19.26-.17,1.09-.51.77-.78.16.21.56-.37.78-.66l.07.19c.1-.37.07-.43.36-.73.09-.04.16.08.03.11.32-.11.1-.3.48-.45l-.05.19c.28-.18.22-.22.28-.45.12-.19.54-.34.69-.23-.03-.11.03-.34.22-.42.06.04.03.11.01.15.53-.24.53-.68.95-.77.05.05.09.06.12.05-.35.27-.65.48-.63.45.11.14.42-.05.34.32.15-.28.36-.82.69-.97.02,0,.05,0,.08.02l-.02.04c.08-.04.12-.09.16-.16.11-.05.18-.07.26-.14.12.09.37-.2.52-.3-.13-.14.07-.27-.21-.25.03,0-.01.04-.1.12-.02.02-.04.04-.05.06v-.02c-.09.08-.21.18-.34.29.05-.17.11-.33.34-.36,0-.16,0-.32,0-.4.36.06.82-.13.98-.04.16-.2.37-.4.56-.61l.03.03s0-.03-.02-.04c.07-.08.13-.16.19-.24.11.14.26.27.47.29l.13-.16c.02.08-.32.07-.39.02-.32-.16.09-.29.22-.32l.11.13c.5-.16.26-.36.03-.55.09-.1.18-.2.26-.29h.09s-.07-.03-.07-.03c.07-.09.11-.18.1-.26,0,0,0,0,0,0,.04-.04.05-.07.06-.1.23-.06-.05.32.29-.04v.11c1.08-.41.83-1.65,2.04-2.09-.08.03-.12.05-.16.03,1.13-.79,1.77-2.13,2.89-2.95.3-.25.19-.39.23-.65l.22.06c.02-.15.03-.31.04-.47.17-.55.99-.54,1.05-1.37l-.17.02c.15-.22.27-.79.4-.69-.01-.04-.1-.13,0-.21l.11.03c.01-.23.01-.47-.01-.7.08-.25.17-.23.28-.23.09-.01.24-.02.2-.51-.04-.18-.19-.43-.35-.56-.17-.14-.3-.19-.3-.12.06.12.09.32-.01.37l-.17-.2c-.12.05-.24.1-.35.17,0-.03,0-.06-.03-.09-.08.03-.15.06-.22.1l.14.07s0,0,0,0c-.1.1-.18.21-.25.34.09.03.16.11.23.19-.05.03-.1.06-.16.09,0-.08-.02-.13-.02-.2-.14.12,0,.17.07.28-.09.02-.14.05-.18.1.08.11.17.23.24.37-.13,0-.2-.2-.33-.02.09.19.32-.07.33.22-.19.12-.29.02-.25.26-.09,0-.12-.07-.13-.15.03.2-.15.45-.04.61-.24.08-.27.58-.52.41.03.09.03.41-.06.57-.13-.47-.39.54-.67.24.13.39-.4.78-.53,1.23,0-.04-.02-.11.02-.13-.17.17-.3.16-.45.24.19.2,0,.53-.02.8-.4.05-.12-.35-.37-.45.18.13-.18.54.02.58-.27.06-.19.09-.44.03.22.26-.1.2-.08.48-.35.13-.29-.16-.47.18-.2.05-.06-.27-.06-.27-.26.26.06.3.11.46-.26.37-.28.02-.48.03-.15.25-.13.56-.29.7-.04-.02-.08,0-.08-.07-.07.36-.63.62-.7,1.04-.03,0-.06,0-.08-.02.13.06.23.15.28.22-.12.12-.12.33-.28.25.08-.07.04-.12.04-.19l-.08.17c-.28-.07.12-.23,0-.36-.15.22-.28.52-.44.71-.05-.04-.09-.08-.1-.13.04-.05.08-.1.07-.12.01,0,.01-.01.02-.02l.04.02s-.05-.06-.07-.08l.23-.13c-.48-.06.2-.15-.28-.25-.17.12-.26.22-.34.31-.13.05-.29.1-.56,0,.3-.19.6-.39.9-.6l-.42.09c0-.06-.01-.17.15-.21-.34-.09-.16.1-.46.08.28-.4-.44-.6.15-.93-.34.05-.12.33-.44.17.63-.38-.26-.24-.06-.61.37-.1.29.2.49-.18-.63.15-.09-.51-.32-.63-.44.24-.42-.29-.75-.5.17-.08-.15-.7-.21-1.08l.07-.04c-.45.26-.56-.08-.81-.19.24-.19.37-.24.56-.22-.05-.06-.11-.12-.16-.18-.16.06-.28.07-.42,0l.33-.21c-.24-.22-.75-.18-.86-.64-.26.25-.48.91-.94.82.12-.15.34-.4.48-.38-.04,0-.2.03-.2-.08l.35-.12c-.03-.22-.26.13-.34.02.19-.2.06-.22.22-.36.05,0,.02.17.13.13-.09-.15-.13-.4-.04-.6-.09.13-.25.28-.36.22-.22-.17.06-.29.09-.48h0s0-.01,0-.01c0-.02,0-.04,0-.06-.02,0-.03.01-.05.02-.06-.04-.1-.01-.25-.06.04-.12.19-.27.34-.34-.24.22.11.24.26.26-.04-.04-.02-.1-.05-.15.44.12-.07-.32.45-.34v.09c.16-.11.27-.28.47-.33.15.14-.15.15-.1.3.25-.11.37-.53.68-.46-.09.09-.25.16-.34.25.34.1.34.04.54,0h-.02s.47-.07.47-.07h-.13c.15-.59.63-.35.96-.8-.33.44-.01.19.03.4.13.01.32.02.29.09.15-.23.39.01.6-.32.03.06.22-.06.23.11.25-.13-.1-.09-.1-.18.35-.35,1.06-.03,1.58-.48.5-.25.55-.5,1.04-.69.19.08-.1.27-.1.27.29.05.48,0,.73-.1-.05.06.01.11.1.18.2-.04.12-.26.39-.17-.04.08-.1.2-.18.28.23-.08.45-.21.7-.26.06.12-.15.18-.24.25.27-.06.68-.07.79-.23-.04-.02-.08-.05-.11-.07.02.05-.04.14-.09.16-.24.13-.32-.1-.33-.16.06-.01.12-.02.18-.03-.16-.43-.72.04-1.07.05l.13-.3c-.12.08-.24.18-.35.27-.09-.07-.16-.22.02-.28-.28-.11-.22.12-.47,0-.03-.02-.02-.04,0-.05l-.24.13c.04-.07-.08-.2.09-.18-.5-.09-.7.36-.92.18l.03-.03c-.61.25-.02.22-.42.58l-.45-.42v.22c-.07.01-.2.03-.2-.06-.2.21.07.08-.04.25-.36-.1-.82.34-.99.04-.06.19.33.02.04.24-.21-.32-.36.18-.69.12.02-.21.32-.2-.01-.27-.06.36-.56.13-.78.27.08.24-.47.29-.82.52,0-.09-.78.16-1.17.24v-.04c.03.27-.36.38-.6.54-.05-.14-.03-.22.09-.35l-.25.11c-.03.1-.09.18-.24.28l-.02-.2c-.21.1-.39.28-.62.42l-.06-.19c-.08.09-.02.14.04.2-.08.05-.17.08-.26.11-.39-.2-.57-.73-1.01-.84l.07-.12c-.34-.02-.67-.23-.99-.06-.08-.04-.09-.32.01-.45-.25,0-.33.09-.53-.16.07-.05.15-.1.22-.15.01,0,.02.01.03.02,0,0-.02-.02-.02-.02.12-.08.23-.16.37-.24l-.06.13s.03,0,.04-.01c-.02.05,0,.15-.07.27l.16-.3c.34-.1.76-.32,1.08-.42.06-.13.26-.21.09-.28,1.27.03,1.91-1.15,3.04-1.1-.11.05-.24.18-.15.15l.78-.39c-.12-.13-.14-.05-.36-.1.07-.13.27-.29.48-.36-.33.23.09.24.28.27-.04-.04,0-.11-.04-.15.53.12-.04-.33.62-.36v.09c.2-.12.37-.29.62-.35.16.14-.21.16-.17.31.33-.12.55-.56.92-.47-.13.09-.33.16-.46.25.4.1.42.04.68,0h-.03c.2-.02.4-.05.6-.07l-.16-.02c.29-.58.83-.34,1.33-.78-.49.43-.05.19-.04.41.16.02.4.03.35.1.23-.24.48.03.81-.3.03.06.29-.06.26.12.34-.12-.11-.1-.09-.19.51-.34,1.32.04,2.07-.35.67-.2.79-.43,1.44-.55.22.11-.18.25-.18.25.35.11.6.08.94.04-.07.05,0,.11.08.19.26,0,.2-.23.53-.08-.07.07-.16.17-.29.23.3-.02.61-.1.93-.08.05.13-.23.13-.34.18.34.01.86.14,1.03.02-.06-.06-.12-.1-.18-.14.13.04,0,.17-.1.17-.32.04-.38-.19-.38-.26.08,0,.15,0,.23.02-.05-.24-.29-.27-.55-.27-.27.02-.56.08-.79.05.07-.09.15-.18.22-.27-.17.06-.34.13-.5.2-.09-.08-.16-.25.08-.28-.33-.17-.3.08-.59-.08-.03-.03-.02-.04.01-.05l-.33.08c.06-.06-.06-.21.15-.16-.61-.16-.96.24-1.2.05l.05-.02c-.82.18-.06.22-.65.53l-.48-.46-.05.22c-.09,0-.25.01-.24-.08-.29.2.07.08-.09.25-.44-.12-1.09.29-1.24-.02-.11.19.41.04,0,.24-.2-.33-.48.16-.88.09.07-.21.44-.2.03-.27-.14.36-.73.11-1.02.26.05.25-.63.28-1.11.53,0-.1-.99.17-1.49.24v-.04c0,.27-.5.4-.83.58-.04-.15,0-.23.17-.36l-.33.12c-.05.1-.14.18-.33.29v-.21c-.42.18-.78.54-1.37.65.04.18.62.28.09.63-.06-.08-.14-.22,0-.32-.04.03-.15.15-.26.15l.17-.25c-.28.04-.08.18-.28.25-.05-.13-.19-.03-.2-.14.05-.03.2-.02.25-.1-.24.07-.54.11-.67.05.05.06.07.17-.08.26-.42.19-.21-.09-.49-.05-.06.13-.38.16-.3.35-.12.06-.19-.02-.26-.05-.18.18-1.01.49-.67.58h.06s-.03.01-.03.01c-.34.28-.76.43-1.18.58,0-.18-.21-.29-.34-.25l.13.32c-.18,0-.3-.09-.44-.17l.22-.42c-.24-.37-.61-.21-.93-.09-.32.12-.58.18-.75-.31-.23.29.31.28.08.63-.27-.11-.48-.81-.58-.83-.39-.31-.48.6-.88.39.04.17.04.61-.27.75-.28-.08-.32-.71-.12-.83.07-.01.1.04.1.1.1-.05.24-.12.13-.3l-.05.16c-.14-.18-.56-.18-.45-.45-.24.15-.11.27.06.36-.38-.25-.61-.06-1.02-.19.07.09.13.28.06.28-.59-.18-.25.33-.63.42-.24-.24.04-.61-.34-.37-.26-.16-.09-.43,0-.58-.35.32-.72-.12-.96-.15l.18-.16c-.11.1-.21.11-.31.12l.16.31c-.12-.04-.22-.03-.24-.16-.08.23.18.53,0,.86-.18-.14-.41.24-.55-.17.5.06-.14-.43.25-.57-.07.06-.17.08-.3.04-.03-.04,0-.09.03-.12-.55-.27-.11.54-.57.64,0-.26-.23-.43-.29-.36.19-.05.19.38.07.6-.35-.11-.28.22-.44.24l.2.04c.01.25-.14.26-.31.41-.08-.18.13-.19.04-.25-.07.49-.64-.25-.85.14-.2-.1-.18-.43-.35-.49-.23.42-.51-.15-.77.26.24.25.22.17.12.58l.48-.49-.17.62c.17-.07.27-.37.4-.35-.07.32-.08.24.1.46-.43-.35-.33.48-.73.3l-.36-.74c-.6-.13-.53.74-1.13.87l.24.02c.1.32-.28.23-.37.44-.14-.24-.29-.26-.46-.36.12.16-.37.25-.08.73l-.43-.13c-.48.18.05.93-.33,1.15-.1-.32-.38-.33-.29-.69-.12.1-.25.16-.13.3-.18-.07-.06.56-.34.46.04.13.22.35.08.45-.05-.03-.1-.1-.1-.1.09.09-.05.31.26.43-.45-.14-.66.11-.85.36-.19.25-.34.51-.75.44-.12.32-.29.68-.44.94-.06-.06-.11-.08-.06-.11-.43.21.53.64.06.87-.5-.03-.08-.33-.3-.3-.81-.41-.2.54-.8.56v-.1c-.4.08.03.7-.19,1.02,0,0-.06-.05-.12-.06.29.43.28.95.27,1.34-.3-.22-.12-.22-.48-.28,0,.17.56.15.55.49-.22.04-.47.21-.84.13.02-.11.06-.21.08-.31-.54,0-.12.4-.24.54l-.2-.08c-.06.51.47.64.31,1.13l.17-.02c.47.38-.34.17,0,.52h-.56c.06.11.19.33.3.56-.05.06-.1.12-.15.18-.16-.2-.27-.43-.4-.61-.03.19-.06.65.2.78-.04-.08-.16-.19-.07-.26.07.05.14.11.2.17-.12.13-.27.26-.45.38l.25-.12c.02.2-.38.36-.54.59-.07-.12-.23-.05-.38-.03.08.07-.47.4-.34.66l-.4.12c-.55.4-.31.81-.81,1.23.04-.24-.24-.11,0-.49-.16.15-.32.27-.26.34-.15.03-.31.55-.54.6-.02.11.06.23-.13.4-.04,0-.05-.05-.05-.05.05.05-.21.33.05.29-.78.17-1.28,1.36-1.95,1.54-.29.39-.64.84-.91,1.18-.01-.05-.05-.05.01-.1-.48.38.06.53-.48.96-.39.13.13-.36-.07-.24-.41-.21-.47.68-.95.88l.05-.11c-.34.19-.38.79-.74,1.24,0,0-.02-.05-.05-.04-.04.45-.38,1.11-.6,1.62-.06-.24.05-.26-.16-.27-.11.23.29.09.08.53-.16.09-.41.36-.6.32l.22-.42c-.33.09-.29.54-.44.75l-.08-.08c-.29.68-.05.8-.34,1.52l.1-.05c.13.49-.27.29-.19.76l-.3.06c-.02.3.04,1.05.09,1.56-.09-.14-.16-.38-.2-.63-.02-.24-.05-.51-.06-.71-.08.28-.14,1.01,0,1.17-.02-.12-.08-.28-.03-.39.19.39.25.84.38,1.4-.14,0-.19.1-.21.26.01.16.06.38.16.6.19.46.56.89.61,1.19.5.33.98.62,1.5.85.52.24,1.08.41,1.68.46-.38-.45.35.02.31-.42.27,0,.37,0,.39.03l-.05-.02s.04.01.06.02h0c.27.08.54.18.82.25.2.12-.26.11-.23.2.6.01.26.17.67.27-.09-.15.2-.22.54-.2-.17-.05-.33-.1-.49-.16.8-.29.76.31,1.56-.03l-.24.17c.42-.12,1.57-.25,1.89-.68.08.03.2.13.03.19,1.01-.16,2.08-.89,2.87-.92l-.04.12c.17-.08.25-.28.5-.25,0,.05-.04.12.04.1.08-.07.41-.33.66-.35l-.16.18c.97-.18,1.31-.76,2.04-1.12.11.29.86.11,1.23,0v.05c1.07-.39,1.67-.99,2.56-1.53.32.01.75-.14,1.21-.35.17.06.35.08.53.08.46,0,.85-.03.95.49.21-.13.43-.1.63-.25l-.08.39c.47.17.72.28,1.34.24l-.15.27c.36.05.53-1.11.82-1.12l.07.59c.58.05,1.22.5,1.78-.06,0,.09,0,.26-.1.29.28.03,1.15.27.93-.52.08.52.62-.04.87-.32l.03.39c.16-.55.13-.69.45-.91.1.03.15.28.01.22.33.12.12-.41.51-.3l-.06.27c.3-.05.24-.16.3-.49.12-.21.55-.09.71.22-.03-.22.01-.54.21-.5.07.12.04.21.03.26.58.08.49-.71.95-.5.06.11.11.16.15.18-.36.16-.66.28-.64.24.14.33.47.24.43.81.15-.37.29-1.09.65-1.08.03.02.06.05.1.09v.05c.07,0,.12-.06.14-.14.12,0,.19,0,.28-.04.18.24.41-.06.56-.13-.22-.33,0-.38-.34-.56.04.01,0,.06-.08.12-.01.02-.04.04-.04.07v-.04c-.09.06-.21.14-.34.23.01-.24.03-.45.3-.35-.06-.25-.12-.52-.15-.65.47.36.99.38,1.23.61.27-.48.88-.81.61-1.59.04-.16.25.06.37.11,0,.11-.09.16-.05.27.08-.33.56-.61.25-1.02.41-.07.2.48.47.08l.07.16c.62-.06.65-.59.68-1.07.02-.5.01-.96.76-1.07-.1.02-.14.03-.22,0,.52-.35.75-.93.96-1.49.2-.58.42-1.1.94-1.53.25-.26-.04-.41-.21-.67l.43.06c-.12-.16-.25-.32-.38-.47-.11-.28.19-.4.46-.57.27-.17.51-.38.22-.75l-.29.03c.05-.13.02-.36.06-.5.07-.04.14-.08.2-.12,0,0,0,0,0,0,0,0,0,0,0,0,.02-.02.05-.03.07-.05.14.08.45-.28.63-.43-.14-.14.11-.31-.21-.25.04-.01-.02.05-.13.15-.02.03-.05.06-.06.08v-.02c-.07.07-.17.15-.27.24-.01-.03-.03-.05-.05-.08.07-.1.16-.19.32-.24,0-.1.01-.2.02-.29.16,0,.3-.03.36-.21.33-.08.67-.22.8-.17.45-.55,1.18-1.17,1.24-1.74.11-.17.24-.08.33-.09-.06.11-.16.2-.17.28.23-.34.83-.85.71-1.1.44-.27-.03.37.43-.15v.12c1.25-.69,1.05-2.03,2.43-2.8-.09.06-.14.09-.19.07,1.31-1.15,2.07-2.86,3.26-4.12.31-.38.2-.51.23-.83h.24c0-.18.02-.37.02-.56.14-.71,1.02-.94.97-1.96l-.17.08c.05-.16.1-.42.15-.63.03-.22.07-.38.15-.34-.02-.04-.13-.13-.04-.25h.11c-.05-.29-.08-.57-.17-.85.02-.33.12-.32.22-.34.09-.03.2-.09.07-.62ZM35.25,17.95v-.03s.02.07.02.11c-.08.1-.13.09-.17.07.04-.04.09-.08.15-.15ZM32.35,30.28s0-.03-.01-.05c.03.07.05.14.06.19-.07.11-.14.06-.19,0,.04-.03.09-.08.14-.14ZM13.91,29.32c-.12.08-.32.04-.34-.04l.03-.03c-.72.57-2.03.19-2.56.73l.03-.03-.62.38c-.32.06.15-.18-.11-.22-.66.47-1.15.23-1.71.51-.26-.23-.65-.17-1.04-.15-.39.04-.8.03-.91-.2l-.02.12c-.15.08-.09-.11-.12-.16-.04.09.03.14-.05.18-.21-.06-.3-.16-.34-.31-.04-.15-.02-.4.1-.67.21-.54.64-1.11,1.04-1.65.3-.4-.38-.6.25-.97l.08.29c.39-1.02,1.35-1.7,1.9-2.63,0,.08.05.13-.03.21.27-.05.57-.6.48-.69.13-.11.12.06.24.03.22-.09.25-.55.45-.52.03,0,0,.08-.03.12.05-.16.5-.47.27-.51.03-.02.04-.04.07-.05.18.33.4.81.98.78-.07.09-.25.25-.36.16.12.34.43.64.75.88.32.25.58.49.55.84l-.2.07c.12.08.44-.02.37.23-.08.04-.2.07-.18.13.1.02.51.07.51.28l-.28.02c.1.36.38.49.68.57.32.07.66.07.9.23-.45.41-.24.96-.1,1.22l-.07.06c.05.06.11.11.17.15-.28.14-.49.26-.96.56.1.04.2.03.18.11ZM13.95,18.35s-.08.08-.13.13c-.07-.05.03-.09.13-.13ZM33.46,17.9c0-.06-.16.02-.28.04.08-.05.17-.12.26-.19.06.04.08.11.02.15ZM33.77,17.48h0c.06-.05.11-.1.14-.12-.03.03-.07.06-.14.12ZM37.29,15.75s0,0,0,.02c-.01,0-.03,0-.04,0,.02,0,.03-.01.05-.01ZM37.06,16.2c.03-.05.05-.11.07-.16.06.05.12.1.17.16-.09.03-.17.02-.24,0ZM33.94,9.62c-.05-.05-.24-.02-.2.03l.48.27c.22-.24.1-.18.21-.43.19-.08.41-.05.5.05-.34-.05-.39.33-.47.53.07-.08.17-.12.24-.19-.28.59.54-.37.47.19l-.15.09c.16.06.42.04.48.2-.27.27-.24-.03-.49.15.14.16.85-.06.64.33-.14-.02-.21-.14-.35-.16-.23.42-.14.38-.11.55v-.02s.02.41.02.41l.05-.14c.97-.26.46.36,1.17.41-.69-.05-.33.11-.72.28-.06.14-.12.32-.25.34.38,0-.12.36.43.36-.12.07.07.17-.26.27.19.15.2-.14.36-.19.58.14-.25.94.53,1.17.21.19.46.26.69.35,0,.01.01.02.01.04-.23.37-.46.33-.66.3,0-.03-.02-.05-.07-.06,0,.01-.01.04-.02.05-.13,0-.23.04-.32.26,0,.21.14.48-.27.62l-.07-.29c-.42.32.02.49-.52.7,0-.14.26-.33.18-.3-.41.06-.1.28-.31.45l-.19-.15c-.41.38-.78.9-1.24,1.32-.02-.08.02-.2-.14-.17-.54.58-1.34.99-2.03,1.33l-.11.34c-.06.04-.15,0-.12-.08-.28.11.06.11,0,.26-.13.11-.25.03-.2-.08-.31.45-.98,1.17-1.56,1.3l.05-.11c-.4.18-.16.62-.59.69l.04-.07c-.81.45-1.56,1.17-2.32,1.3.05.32-.84.38-.67.76-.55.11-.47-.03-1.17.24-.18.09-.12.37-.3.54l-.12-.18-.17.36-.28-.13-.17.17c.08-.04.22-.02.24.04-.26.27-.83.32-.89.23l-.64.59c-.03-.08.08-.18.15-.29-.28.42-.18-.15-.44.23.07.01.04.13.05.17-.25-.01-.65.22-.93.44v-.16c-.58.27-1.14.7-1.76,1.03.26-.06.33.2.15.32l-.18-.16c-.05.19.23-.02.07.25-.25.1-.28-.15-.18-.28l-.25.22c-.05-.05,0-.12-.02-.2-.05.19-.59.05-.65.35l-.05-.05s0,0,0,0c-.03-.13-.08-.24-.28-.08l.07-.11c-.4-.28-.64-.35-.97-.6-.28.28-.34.11-.66.25-.13-.33-.13-.79-.4-1.03-.32-.07-.31.15-.56.21.26-.24.02-.52.34-.52-.3-.33-.42-.38-.95-.72-.09.13-.11.23-.23.26-.11-.06,0-.29.16-.36h.05c-.4-.13-.39-.59-.31-1.01.07-.43.09-.77-.32-.87h.04s-.54-.34-.54-.34c-.03-.25.3.05.45-.19-.39-.16-.43-.39-.43-.6,0-.16,0-.32-.09-.46.2-.25.32-.55.65-.44.56-.68,1.11-1.28,1.68-1.82.17.26-.66.56-.43.8.5-.56.67-1.04,1.3-1.42.18-.08,0,.17-.02.26.51-.55,1.16-.84,1.59-1.37.02.02-.02.09-.06.15.1-.08.27-.14.18-.25l-.08.11c-.29-.05.16-.65.12-.76.06.46.59-.3.61.33.05-.07.1-.19.03-.26.12-.05.19-.03.14.13.34-.33.11-.36.46-.6.04.06-.02.13,0,.22.1-.23.19-.47.52-.62,0,.05.07.07-.02.13.49-.36.66-.89,1.29-1.16,0,.36.25-.05.42.15l.26-.26-.19-.03c.27-.17.4-.48.67-.56l-.14.22.47-.37-.34.1c.2-.29-.21-.26.19-.43-.06.07.27-.17.49-.13h0c.09-.15.18-.31.41-.39.1.04.11.27.18.3.02-.27.6-.44.64-.74-.03.08.04.2.07.21l.02-.22c.15-.03.19-.02.22.09.4-.2-.29-.21.23-.36-.03.03,0,.05-.06.11.49-.21.81-.62,1.28-.79.26.15-.33.27-.08.38.57-.4,1.09-1,1.71-1.28l-.12.04c-.1-.37.53-.08.74-.4-.06.06,0,.23,0,.19.43-.17.78-.53,1.35-.96l-.03.12c.28-.05.66-.29.94-.38.03-.12.19-.19.04-.26.31.02.56-.06.79-.19.11.1.23.19.3.3.17-.11.26,0,.36-.27-.04.63.26.75.62.84.36.09.73.2.6.74ZM30.32,6.7c.39-.63.19.49.58.31-.08.01-.27.32-.21.25.09.11.23.16.38.19,0,.03,0,.06,0,.1-.1.05-.16-.03-.22-.06-.13.16-.77.42-.48.52h.05s-.02.01-.02.01c-.45.46-1.18.49-1.68.86l-.03-.06c-.28.25-.69.43-.84.69-.09.05-.28.02-.28-.08-.22.18-.2.27-.61.37.18-.24-.14-.04.21-.22-.34.13-.47.07-.71.43.03-.22-.35-.05-.47.08l.28-.02c-.15.12-.31.19-.46.27l-.04-.25c-.78.14-.9,1.1-1.62,1-.08.24.4-.12.35.14-.31.15-.78.06-.88.11-.46.14-.19.52-.65.71.1.04.27.19,0,.45-.3.16-.54-.06-.4-.24.06-.05.11-.05.12-.02.08-.09.18-.19.02-.2v.09c-.18.02-.57.29-.55.11-.17.21-.02.17.17.11-.43.14-.58.37-.99.55.08,0,.19.04.13.08-.61.28-.15.29-.51.57-.28.04-.09-.3-.41.04-.28.09-.17-.15-.12-.27-.25.37-.69.35-.9.46l.14-.18c-.08.11-.17.16-.26.23l.2.07c-.12.05-.21.11-.25.05-.05.16.24.17.11.44-.19.03-.37.37-.54.23.48-.25-.18-.15.17-.44-.06.07-.14.13-.27.18-.03,0-.01-.05,0-.08-.53.14-.05.34-.48.64-.02-.14-.24-.12-.29-.05.17-.12.2.11.1.3-.33.12-.26.27-.41.37l.19-.08c.02.14-.13.23-.29.4-.07-.07.13-.18.04-.17-.08.33-.61.17-.82.51-.19.04-.15-.18-.31-.13-.23.38-.46.13-.72.5.2.06.19.01.05.32l.49-.52-.22.47c.17-.13.3-.36.41-.41-.09.24-.1.19.07.24-.38-.02-.37.46-.74.54l-.24-.33c-.52.17-.58.72-1.16,1.06l.21-.08c.03.18-.3.27-.43.46-.07-.12-.21-.07-.33-.08,0,0,0,.02,0,.03-.12.04-.16.11-.27.05-.2-.52-.05-1.08.12-1.61.1-.26.25-.51.37-.76l.18-.37c.04-.06.07-.13.11-.19.47-.37.95-.71,1.32-1.13.02.02-.04.11-.09.18.12-.11.33-.19.23-.3l-.11.13c-.34,0,.27-.74.23-.85.02.5.73-.41.68.27.07-.09.14-.22.06-.29.15-.07.22-.06.15.13.43-.41.17-.41.61-.72.04.06-.03.14-.03.24.14-.27.28-.54.69-.75,0,.05.08.06-.04.14.63-.46.89-1.06,1.67-1.43-.04.39.3-.08.48.11l.34-.32h-.22c.34-.22.54-.57.87-.69l-.19.25.61-.45-.41.15c.27-.33-.22-.26.28-.48-.08.08.34-.21.6-.2h0c.13-.17.25-.36.54-.46.11.03.1.28.17.3.05-.29.78-.54.87-.87-.04.09.02.21.06.22l.05-.24c.19-.05.23-.04.26.07.5-.26-.32-.19.33-.41-.04.04,0,.05-.08.13.61-.28,1.06-.75,1.65-.97.29.14-.44.32-.15.41.75-.48,1.45-1.17,2.25-1.51l-.16.05c-.01-.08.01-.13.06-.17.33.11.73-.06.99.21-.07.53-.35,0-.37.47.26.05.57,0,.88-.04.31-.02.59.02.81.19l-.06-.09ZM27.68,5.72s-.03.02-.04.04c-.01,0-.03,0-.05.01l.06-.11s.02.04.03.06ZM27.6,5.56s-.07.14-.09.22c-.06,0-.11,0-.15-.02.09-.03.17-.08.24-.2ZM27.18,5.79c-.18.15-.25.23-.66.35.25-.27-.15-.04.28-.25-.01.06-.02.1-.01.13.09-.21.25-.22.4-.23ZM15,12.3c.07.09.19.16.15.22.37.02.32-.5.09-.65.09-.09.23.1.38.11.25-.03-.15-.59.18-.47.05.02.06.1.07.14-.07-.18.33-.37-.05-.51.33-.12.19-.56.53-.6-.22-.4.49-.23.07-.68.46.44.7-.03.65-.36.09.18.26.04.38.28.15-.14.21-.36-.03-.58.76.31.24-.98,1-.35.07-.16.15-.32.23-.47.09-.14.18-.27.28-.4.2-.25.39-.51.63-.69.27.55-.53.37-.18.93.3-.51.38-1.09.94-1.21.16.02.04.29.04.4.18-.25.45-.3.68-.39.24-.08.46-.19.65-.41.02.06-.02.13-.05.19.09-.04.24.03.15-.24l-.07.1c-.28-.36.14-.93.12-1.15.04.84.54.07.52,1.15.05-.07.09-.22.04-.4.11.03.16.13.11.37.3-.24.12-.49.44-.54.02.14-.03.2-.03.36.11-.29.23-.58.52-.51,0,.09.04.19-.04.2.43-.13.73-.79,1.27-.56-.14.61.18.19.21.71.09-.06.18-.11.27-.15l-.11-.26c.24.02.47-.35.67-.17l-.19.21.46-.08-.24-.21c.27-.26.01-.66.34-.5-.07.05.26.01.35.35h0c.14-.14.29-.3.46-.14.02.13-.06.38-.09.55-.43.17-.58.12-.92.52.06-.24-.41-.02-.58.13l.34-.05c-.2.14-.4.24-.6.33v-.26c-.98.23-1.24,1.27-2.1,1.24-.13.27.5-.17.4.11-.39.2-.95.15-1.06.22-.57.21-.29.58-.87.84.11.03.29.17-.06.49-.38.21-.64,0-.44-.21.08-.06.14-.07.15-.04.1-.1.24-.23.05-.21v.1c-.23.04-.73.38-.68.19-.23.25-.04.19.18.09-.53.21-.74.47-1.25.72.1-.01.22.02.15.07-.76.38-.22.34-.67.69-.34.08-.08-.32-.49.1-.34.13-.19-.14-.11-.27-.34.43-.86.47-1.13.62l.19-.21c-.11.13-.23.2-.34.28l.22.04c-.15.07-.26.15-.3.09-.07.19.26.15.08.46-.22.06-.48.46-.67.32.6-.34-.19-.13.26-.5-.07.09-.19.16-.33.24-.03,0,0-.05.02-.09-.65.22-.1.38-.64.77,0-.15-.27-.1-.34,0,.22-.16.23.09.08.31-.41.18-.33.34-.52.47l.23-.12c0,.15-.18.27-.39.48-.08-.06.18-.22.07-.19-.04.12-.13.19-.25.24.04-.15.1-.31.15-.45.19-.36.38-.7.35-1.16ZM16.1,31.54c.06.19-.22.25-.36.48-.52.15-1.13.22-1.73.45-.39.25-.07.2-.22.38-.09-.16-.69.08-.42-.16-.72.28-.92.36-1.81.78.12.04.25.03.2.11-.16.08-.41.05-.41-.04l.04-.03c-.99.58-2.55.14-3.31.64l.04-.03c-.28.12-.56.23-.85.33-.41.03.22-.17-.09-.24-.91.41-1.49.11-2.24.28-.28-.27-.78-.3-1.28-.37-.5-.06-.99-.22-1.16-.53l-.04.13c-.2,0-.13-.17-.19-.25-.06.09.08.18-.05.18-.29-.18-.53-.44-.66-.76-.12-.32-.16-.69-.13-1.08.09-.78.44-1.59.83-2.36.3-.56-.44-.61.21-1.22l.09.32c.38-1.32,1.43-2.35,2.07-3.55,0,.1.05.14-.03.24.3-.13.66-.82.56-.91.14-.15.13.04.26-.02.26-.15.3-.69.53-.7.04,0-.01.1-.03.15.06-.2.59-.64.33-.63.4-.32.59-.78.95-1,.02-.35.68-.56.52-.83.2.24.81-.46.94-.79-.01.14.27-.13.27.06.26-.26.47-.53.31-.61.75-.2.8-1.16,1.41-1.06,0,0,0,0,0,0,0,.14-.01.28-.03.43-.03.36-.1.75,0,1.14.77-.43.06.23.89.01.08.16.09.22.04.25,0,0,0,0,0,0h0s-.13.23-.13.23c-.16.13-.31.29-.45.43-.05-.05-.1-.1-.19-.07.03.29-.13.3-.28.39-.05.02-.09.04-.14.04-.24.29-.53.64-.76.89-.01-.04-.05-.05,0-.08-.42.24.08.48-.4.76-.35.04.11-.29-.07-.22-.38-.26-.4.51-.84.59l.04-.08c-.3.1-.33.62-.65.93,0,0-.02-.04-.05-.05-.03.39-.34.88-.55,1.26-.06-.21.05-.21-.14-.26-.1.17.26.13.07.47-.15.04-.39.22-.57.13l.21-.3c-.31,0-.28.39-.43.53l-.07-.08c-.3.5-.07.65-.4,1.17h.1c.08.41-.28.15-.25.55l-.29-.03c-.05.23-.08.84-.12,1.24-.15-.28-.08-.78-.07-1.11-.05.11-.12.3-.17.48-.04.19-.05.37,0,.44,0-.1-.03-.23.04-.31.12.35.11.71.1,1.18-.25-.05-.33.3-.19.74.13.46.53.81.6,1.11.52.22.95.33,1.4.44.45.1.9.15,1.38.1-.37-.39.27-.03.17-.46.2-.05.28-.05.31-.03h-.05s.03,0,.05,0h0s.67.15.67.15c.17.09-.18.13-.15.22.47-.05.23.14.56.19-.09-.14.12-.24.39-.25l-.41-.11c.58-.36.63.23,1.21-.16l-.16.18c.31-.16,1.19-.34,1.39-.77.07.03.18.11.05.19.78-.19,1.52-.93,2.16-.95l-.02.12c.12-.08.16-.28.37-.25,0,.04-.02.12.05.1.06-.06.29-.31.49-.33l-.11.17c.68-.15.91-.61,1.35-.94-.02.41.26.7.62.94.2.14.42.29.62.45-.76.35-1.11.57-1.75.86ZM30.25,28.81c-.01-.1-.17-.11-.29-.17.07-.02.15-.05.23-.09.08.11.12.25.06.27ZM30.47,28.39s0,0,0,0c.05-.03.09-.06.12-.08-.02.02-.06.04-.11.09ZM34.88,22.37c.41.17.23.53.6.63-.37,0-.21.06-.65-.07.59.35.04.2.33.52-.42.05-.59-.26-.55.07-.24,0-.33-.32-.33-.32-.15.22.37.37.59.57-.05.36-.4-.07-.68-.12.02.24.32.64.21.75-.08-.04-.12-.03-.19-.12.2.41-.36.52-.12,1.05-.05-.01-.09-.04-.12-.06.23.13.43.3.57.42-.08.1.08.4-.21.21.06-.05-.04-.15-.09-.24l.02.2c-.45-.23,0-.25-.27-.48-.05.29.03.8-.21.86-.37-.3.2-.46-.29-.55l.34-.11c-.72-.33.16-.1-.58-.48-.36.18-.1.5-.48.66.12.25.29.26.41.51-.12.75-1.13-.59-1.01.16.12.31.46.8.02.74l-.25-.48c-.33.18.28.75-.26.7-.06-.22.14-.33.06-.34-.45-.19.03.36-.14.48l-.3-.37c-.31.26-.5.82-.88,1.1-.04-.14-.04-.3-.2-.38-.2.23-.49.35-.79.41-.31.03-.64,0-.93-.05l-.07.46s-.14-.15-.11-.24c-.25-.1.07.25.01.43-.11.06-.22-.19-.18-.32-.25.42-.89,1.01-1.37.61l.06-.13c-.32-.12-.24.89-.58.55l.05-.08c-.61-.11-1.28.19-1.77-.18.82-.42,1.54-1.21,2.08-1.11.16-.21.42-.36.59-.57l.09.18c.61-.31.91-.47,1.6-.96l-.07.21c.41-.24.2-.8.56-1.05l.27.18c.69-.45,1.53-.71,2.06-1.39.01.04.04.13-.06.21.32-.22,1.36-.7,1.01-.95.16.21.71-.48,1-.83l.06.2c.16-.42.13-.49.51-.85.12-.05.18.06.02.12.39-.17.15-.34.62-.56l-.08.21c.35-.24.28-.28.38-.54.1-.14.34-.27.54-.34-.03.16-.08.33.03.52-.04-.04-.13-.11-.09-.12-.11.15-.32.13-.47.18.49.23.48.54.72.83-.58-.02-.52-.4-1.01-.55ZM38.92,19.31s0-.02,0-.03c.01.04.02.08.02.11-.1.12-.16.12-.2.11.05-.05.11-.11.19-.19ZM38.53,19.43s-.02.02-.04.03c0-.01.01-.02.01-.03h.02Z"/>
</svg>