<?xml version="1.0" encoding="UTF-8"?>
<svg id="_레이어_1" data-name="레이어_1" xmlns="http://www.w3.org/2000/svg" viewBox="0 0 50 36.94">
  <defs>
    <style>
      .cls-1 {
        fill: #040000;
      }
    </style>
  </defs>
  <path class="cls-1" d="M49.97,2.47c-.14-.24-.44-.53-.78-.65-.32-.13-.59-.13-.63,0,.07.16.05.46-.21.59l-.28-.21c-.3.16-.6.32-.87.5.04-.05.05-.1,0-.12-.18.1-.35.21-.51.32.06,0,.13,0,.21,0-.28.22-.53.43-.76.57.16-.03.36-.05.53,0-.13.05-.26.09-.39.13-.02-.03-.02-.1-.05-.11-.35.14-.03.09.22.14-.22.04-.37.08-.45.12.28.04.55.13.8.27-.33,0-.64-.16-.84-.02.36.17.75-.06.97.21-.41.12-.71,0-.42.25-.22-.02-.35-.09-.43-.18.24.2-.01.45.4.68-.51.03-.12.68-.86.36.15.13.44.58.37.78-.7-.74-.38.63-1.25.05.63.65-.15,1.02-.04,1.69-.04-.06-.13-.18-.06-.2-.22.19-.48.11-.71.16.56.44.43.89.64,1.35-.76-.13-.54-.67-1.14-.98.48.33.1.82.55,1.02-.5-.05-.31.06-.85-.2.67.59-.03.29.25.81-.59.03-.71-.45-.77.05-.34-.02-.34-.51-.34-.51-.28.32.37.58.61.9-.2.52-.53-.14-.91-.23-.08.36.22.96.03,1.12-.09-.06-.16-.05-.22-.19.16.62-.68.78-.48,1.54-.06-.02-.12-.05-.16-.08.29.19.54.41.71.59-.13.16.04.57-.33.32.1-.08-.02-.21-.08-.35l-.02.28c-.59-.31.05-.36-.29-.69-.14.44-.12,1.15-.47,1.25-.48-.39.38-.67-.31-.76l.51-.18c-.95-.42.26-.16-.72-.65-.57.32-.28.73-.86,1.04.13.35.39.33.52.68-.24,1.08-1.59-.64-1.51.42.15.42.62,1.04-.01,1.06l-.34-.63c-.51.36.41.99-.4,1.07-.09-.28.22-.5.09-.5-.68-.13.04.49-.21.71l-.46-.42c-.43.51-.71,1.32-1.21,1.88-.08-.17-.11-.4-.36-.43-.53.83-1.6,1.19-2.53,1.44l.05.63c-.07.04-.26-.1-.26-.24-.4.05.19.28.18.55-.14.15-.4-.09-.39-.29-.22.73-.85,1.84-1.72,1.75v-.2c-.52.12.17,1.22-.51,1.09l.02-.13c-1.04.44-1.8,1.53-2.94,1.31.28.74-1.11.3-.6,1.24-.82-.11-.77-.37-1.71-.21-.23.08.05.76-.15,1l-.29-.48-.04.71-.52-.47-.16.26c.11-.03.33.1.39.25-.24.44-1.1.19-1.25-.06l-.65.91c-.07-.16-.02-.28.03-.42-.18.47-.34-.55-.51.1.12.08.13.31.17.41-.38-.18-.87.09-1.17.41l-.11-.38c-.7.26-1.31.89-2.06,1.26.35.03.59.66.39.83l-.35-.49c.02.4.33.09.23.63-.31.08-.48-.51-.41-.76l-.25.35c-.1-.15-.06-.27-.13-.48,0,.16-.13.15-.29.13.66-.56,1.36-1.33,1.92-1.85.06.46.49.35.99.13.5-.21,1.03-.51,1.51-.51-.15-.08-.03-.7.1-.86.23.06.4-.87.54-.1l-.07.03c.31.65.74.18,1.08,0l-.33-.92c.16.1.33.15.48.16.16,0,.31-.04.38-.06.17-.06.29-.21.4-.37.22-.31.4-.61.87-.17,0-.28.14-.37.13-.65l.27.44c.4-.1.6-.15.95-.52l.12.36c.25-.12-.52-1.43-.32-1.59l.48.6c.39-.27,1.17.02,1.17-.82.06.1.17.29.12.36.2-.11,1.01-.06.35-.88.39.56.44-.23.48-.62l.26.44c-.19-.65-.29-.8-.14-1.12.1.01.28.29.13.24.35.08-.12-.5.27-.44l.1.33c.22-.11.11-.24,0-.62,0-.25.45-.17.75.18-.14-.25-.25-.63-.05-.6.12.13.14.25.15.3.54.03.14-.83.66-.6.1.13.17.19.22.21-.27.18-.5.32-.5.27.28.38.54.28.75.93-.03-.41-.2-1.24.14-1.22.04.03.07.06.12.11v.06c.09,0,.1-.07.1-.16.11.01.19.03.26-.02.26.29.37-.02.49-.09-.32-.4-.13-.44-.52-.67.04.02.02.06-.04.13,0,.02-.02.04-.01.08l-.02-.04c-.06.06-.14.14-.24.23-.07-.27-.12-.51.17-.37-.14-.3-.28-.61-.36-.76.57.46,1.09.55,1.39.86.14-.47.64-.74.23-1.65.01-.17.27.13.4.22,0,.12-.06.15,0,.28.02-.33.47-.5.08-1.06.41.05.27.58.5.24l.09.19c1.3.31-.14-2.11,1.41-1.65-.1-.02-.15-.03-.23-.11,1.16-.22,1.1-1.78,2.47-1.83.34-.08.05-.39-.08-.74l.45.32-.28-.64c-.1-.6,1.53.28,1.17-.73l-.34-.15c.18-.12.17-.65.51-.41-.05-.06-.3-.25-.09-.23l.25.13c-.05-.24-.12-.49-.2-.71.17-.17.44-.08.7,0,.25.06.53.14.65-.48-.02-.14-.07-.29-.17-.46-.11-.19-.25-.35-.4-.46-.34-.26-.62-.24-.66-.12.09.18.02.48-.28.53-.06-.07-.15-.13-.22-.17-.22.11-.43.23-.63.36,0,0,0,0-.01,0,.24-.4-.03-.5-.19-.14-.01-.14.03-.29.06-.4-.09.14-.15.34-.19.57-.05,0-.1,0-.14,0,0-.02,0-.03,0-.05l-.09-.13s.01.1.01.16c-.03,0-.06,0-.09-.02-.05,0-.09-.01-.13-.02-.01,0-.03,0-.04,0l.09-.11c-.18-.73-.35-.3-.51,0,0,0,0,0-.01,0-.04-.01-.11-.03-.05,0-.06-.02-.1-.03-.15-.04l-.04-.48c-.03.15-.06.3-.08.45-.06-.02-.11-.04-.16-.06-.06-.17-.09-.35-.02-.44-.28-.31-.1.3-.37-.06-.04-.06-.04-.09-.03-.13l-.12.27c0-.16-.18-.5-.03-.43-.47-.32-.37.7-.67.2v-.05c-.36.39.14.54.03,1.27l-.69-1.21.15.54c-.05,0-.16,0-.22-.22-.04.42.11.21.14.59-.4-.39-.51.45-.89-.35.08.42.33.22.21.58-.43-.85-.2.26-.57-.06-.13-.48.16-.32-.21-.64.21.81-.46,0-.57.22.26.61-.25.41-.43.74-.08-.21-.67-.09-1.03-.18l-.04-.1c.24.62-.07.64-.2.86-.17-.36-.21-.52-.18-.73l-.18.09c.05.21.05.34-.03.47l-.18-.47c-.23.15-.21.77-.67.63.2.42.83,1.02.66,1.46-.13-.22-.34-.59-.3-.73-.01.04,0,.24-.1.17l-.07-.44c-.22-.09.09.35-.03.37-.16-.32-.2-.18-.32-.44.01-.05.16.08.14-.07-.15,0-.4-.1-.58-.31.11.17.23.43.16.51-.22.15-.28-.34-.51-.43.06.25-.21.1.04.58-.07.03-.2-.18-.3-.29,0,.27-.53.37-.12.79l.05.02s0,.02,0,.03c-.13.68-.96.19-1.23.61l-.09-.16c-.13.31-.45.4-.42.83-.07.04-.32-.19-.4-.39-.11.22-.02.4-.43.3.02-.37-.2-.2.06-.3-.31,0-.51-.21-.5.35-.15-.44-.47-.39-.51-.21l.33.18c-.09.13-.21.16-.34.19l-.26-.55c-.85-.34-.17,1.57-1.17.75.1.43.41.09.56.58-.25.06-.94-.53-1-.49-.47-.1.21.92-.22.92.16.16.5.62.39.93-.25.07-.75-.59-.71-.82.04-.05.1,0,.14.06.02-.11.06-.24-.15-.39l.09.2c-.22-.12-.5.09-.62-.25-.05.28.13.34.3.36-.44-.08-.42.26-.81.27.11.07.29.25.24.28-.55.05.05.46-.17.72-.34-.17-.38-.69-.5-.28-.29-.07-.36-.45-.39-.64-.02.51-.62.09-.81.13l.03-.23c-.02.14-.09.18-.15.22l.32.3c-.12,0-.19.03-.29-.11.08.29.47.55.53.97-.23-.11-.17.41-.54-.04.43-.06-.36-.45-.14-.71-.01.09-.08.13-.2.13-.05-.04-.06-.1-.05-.15-.6-.2.23.63-.1.84-.15-.29-.43-.45-.44-.35.13-.09.37.4.4.68-.35-.06-.11.31-.23.36h.19c.15.3.02.34-.06.52-.16-.2.03-.23-.09-.29.09.29-.09.23-.28.16-.18-.08-.5-.09-.53.17-.3-.05-.42-.44-.67-.44-.09.59-.79.04-.96.6.5.16.41.1.51.55.12-.21.24-.44.39-.67.02.25.06.48.11.7.17-.12.16-.45.32-.49.08.38.03.28.38.47-.36-.14-.41.02-.42.17-.01.16.01.32-.31.3l-.99-.59c-.46.06-.56.31-.61.55-.06.25-.05.49-.49.67l.4-.08c.44.2-.26.28-.21.47-.44-.1-.72-.05-1.1-.03.37.05-.46.36.5.5l-.91.14c-.74.38,1.06.45.54.72-.51-.07-1.1.1-1.27-.13-.14.12-.37.23.03.22-.45.1.45.26-.23.4.21.02.83-.03.66.09-.14.03-.3.03-.3.03.3-.03.22.12,1.02-.06-1.13.26-1.34.49-1.49.68-.14.2-.24.36-1.27.71.02.17-.04.38-.15.55-.19.05-.34.1-.23.04-.87.46,1.78-.42.81.08-1.22.5-.45.04-.94.26-2.23.75-.02.27-1.43.9h-.09c-.83.42.54.08.21.37,0,0-.17.06-.31.12.93-.25,1.02-.09,1.11.02-.68.25-.32.07-1.1.44.04.05,1.24-.56,1.28-.45-.45.24-.9.54-1.65.91l.06-.17c-1.05.55-.09.23-.32.4l-.41.18c.03.22,1-.26.75.1l.3-.17c.79-.28-.58.41-.03.25l-.89.51c.18,0,.63-.01.68.16-.49.17-.72.08-1.05.13-.04.11-.01.36.34.22-.06-.01-.23.03-.11-.08.57-.19.75-.13.7.16-.83.46-.71.72-.63,1.09.07.17.1.34-.15.61.42.02.57.14.67.3.1.15.13.35.39.37.99-.98.16,0,1.35-1.02.2-.07.23-.07.16,0l.03-.04s-.02.03-.03.05h0s-.4.64-.4.64c-.3.34-.39.25-.67.5.13.12-.46.5-.67.85.44-.43.76-.6.71-.41l.43-.58c1.07-.66-.86,1.08.21.43l-.55.41c.42-.23.66.09,2.04-1.15-.13.17-.48.58-.68.69.33.18,2.4-1.56,2.18-.9l-.39.42c.22-.15.83-.83.64-.45-.14.17-.38.43-.34.44.18-.15.9-.83.86-.64l-.5.52c.12.17.6-.19,1.12-.69.52-.49,1.06-1.06,1.42-1.32-.62.95-.55,1.27-.4,1.39-.41.25-.67.49-1.11.71.19.47-.1.47-.13.93-.53.05-1.19-.12-1.73.14-.3.38.04.45-.03.8-.19-.42-.74-.17-.56-.59-.65.31-.82.4-1.56,1.04.15.15.28.2.28.36-.14.12-.42-.07-.46-.29l.03-.06c-.38.48-1.05.33-1.65.17-.61-.15-1.15-.31-1.43.24l.03-.06c-.23.22-.46.44-.7.64-.37-.02.16-.38-.15-.62-.73.9-1.3.06-1.9.58-.25-.68-.61-.68-.97-.64-.15,0-.36.03-.43-.01-.04-.01-.06-.11.05-.3l-.17.28c-.22.24.06-.18.11-.24-.17.19-.15.25-.29.37-.16.01-.28-.09-.3-.23-.02-.14.04-.29.15-.39.06-.02.11-.16.21-.27.07-.11.18-.24.27-.36.19-.25.42-.52.63-.8.31-.42-1.37-1.03-.32-1.31l.42.47c-.06-1.37,1.32-2.02,1.61-3.34.06.14.2.26.12.35.5.07.62-.73.36-.96.16-.12.27.17.49.2.37-.03.01-.87.43-.68.07.03.05.15.05.21-.04-.27.58-.56.1-.77.49-.19.46-.81.93-.88-.23-.57.76-.39.26-1.01.55.6,1.06-.11,1.01-.6.1.25.37,0,.52.33.24-.24.37-.57.04-.84,1.13.29.42-1.45,1.53-.76.48-1.01,1.02-1.86,1.62-2.6.49.65-.74.72-.16,1.36.45-.82.41-1.69,1.22-2.09.25-.05.12.36.15.51.48-.82,1.39-.99,1.75-1.82.04.06.03.18,0,.28.11-.12.36-.12.12-.41l-.06.17c-.53-.28-.18-1.27-.32-1.52.42,1.02.79-.25,1.25,1.09.04-.12.04-.34-.13-.52.17-.03.29.06.33.38.33-.49-.06-.69.36-.98.1.15.06.26.14.47,0-.43,0-.88.45-.99.04.1.16.19.06.26.57-.46.5-1.49,1.37-1.66.24.78.37.06.78.6l.25-.41-.33-.18c.32-.2.34-.8.73-.79l-.09.39.53-.5h-.48c.14-.5-.5-.7.03-.81-.05.11.33-.2.71.03h0c.05-.28.09-.58.42-.59.18.15.34.67.46.77-.14-.58.68-.6.57-1.24,0,.16.19.47.25.52l-.1-.48c.23.03.29.08.41.34.5-.2-.59-.65.15-.66-.02.06.03.1-.02.22.64-.16.91-.87,1.54-.97.48.51-.36.4.1.8.66-.52,1.12-1.56,1.91-1.8h-.17c-.35-.9.76.14.91-.45-.06.11.13.53.1.43.57-.11.9-.73,1.53-1.37v.27c.4.05.84-.26,1.21-.31,0-.27.19-.32-.07-.59,1.56.83,1.61-1.55,2.96-.83-.11.05-.17.3-.09.27l.68-.51c-.21-.37-.19-.2-.47-.44,0-.27.15-.54.35-.61-.25.39.25.63.48.79-.07-.11-.07-.26-.13-.38.67.55-.23-.82.5-.55l.05.22c.17-.18.27-.52.51-.54.25.43-.15.29-.03.67.3-.14.32-1.09.77-.72-.09.17-.29.24-.38.41.49.43.48.29.74.3h-.03s.61.07.61.07l-.18-.1c.02-1.33.73-.47,1.05-1.41-.32.9.03.46.14,1,.18.11.42.22.4.39.14-.5.49.23.69-.48.06.17.27-.05.31.4.29-.21-.14-.28-.17-.51.39-.71,1.3.47,1.88-.44.58-.41.65-1.02,1.26-1.34.21.28-.14.65-.14.65.33.26.56.19.86.01-.07.15,0,.28.07.49.22-.03.21-.65.48-.34-.08.19-.17.49-.29.68.25-.13.56-.44.85-.53,0,.31-.25.42-.37.6.29-.09.72-.11.99-.53l-.13-.22c.12.01-.09.41-.18.48-.32.29-.29-.25-.27-.43l.22-.07c.03-.52-.21-.54-.47-.42-.27.13-.55.38-.75.34l.24-.74c-.17.2-.33.4-.48.6-.08-.2-.15-.63.08-.73-.33-.39-.29.27-.58-.15-.03-.06-.02-.1,0-.13l-.32.23c.06-.16-.08-.53.13-.43-.63-.41-.9.62-1.17.08l.04-.05c-.77.35-.02.55-.51,1.28-.19-.43-.4-.86-.61-1.29l.02.56c-.08,0-.25-.02-.26-.24-.23.43.09.23-.01.61-.49-.43-1,.45-1.28-.39-.04.44.44.23.1.61-.34-.9-.43.27-.88-.06-.02-.5.38-.34-.08-.67,0,.85-.73,0-.99.25.17.63-.56.45-.97.82-.04-.23-1.02-.04-1.55-.1l-.02-.11c.14.66-.36.71-.64.97-.13-.38-.13-.55,0-.78l-.32.12c0,.23-.05.37-.23.52l-.1-.49c-.41.19-.62.88-1.27.8.15.44.92,1.02.49,1.53-.12-.22-.31-.61-.2-.76-.03.05-.09.26-.22.2l.05-.48c-.31-.07.01.38-.19.42-.14-.33-.24-.17-.33-.45.03-.05.23.06.24-.1-.24.03-.59-.04-.78-.26.1.18.19.44.06.55-.4.2-.32-.33-.63-.39,0,.27-.36.15-.15.65-.12.05-.25-.16-.35-.27-.11.31-.95.52-.47.92h.07s-.02.03-.02.05c-.44.8-1.53.41-2.1.96l-.08-.16c-.3.38-.82.57-.92,1.06-.12.06-.43-.14-.48-.36-.23.28-.17.48-.74.45.15-.44-.24-.19.2-.37-.46.08-.69-.13-.87.54-.08-.48-.58-.34-.69-.11l.43.13c-.17.18-.37.24-.58.31l-.2-.58c-1.17-.17-.78,1.9-2,1.21.01.49.58,0,.65.53-.4.15-1.22-.36-1.34-.3-.67.02.01,1.03-.61,1.16.18.14.55.59.28,1-.39.16-.92-.48-.79-.77.07-.07.15-.04.19.02.07-.14.17-.31-.09-.42l.07.21c-.29-.07-.76.26-.84-.11-.15.35.08.37.34.34-.62.03-.71.45-1.28.58.14.05.35.22.27.26-.82.23-.07.54-.47.92-.44-.1-.35-.71-.65-.17-.4,0-.38-.43-.37-.65-.18.63-.93.32-1.22.42l.12-.3c-.07.18-.18.25-.29.33l.37.26c-.17.03-.28.11-.38-.04.03.32.51.51.48,1.01-.3-.06-.38.56-.77.14.65-.22-.4-.42,0-.82-.05.12-.16.19-.33.22-.06-.04-.05-.11-.04-.16-.81-.05.14.69-.39,1.07-.12-.31-.48-.4-.53-.28.22-.15.42.36.37.7-.48.05-.25.42-.44.53l.27-.06c.13.31-.06.4-.23.66-.17-.18.1-.3-.04-.32.09.65-.94-.03-1.06.55-.3-.04-.39-.46-.62-.47-.14.64-.71,0-.91.6.39.24.34.14.32.71l.49-.78-.05.84c.21-.16.26-.56.43-.59.01.44-.03.34.29.54-.69-.29-.32.73-.91.65l-.67-.84c-.79.03-.51,1.13-1.31,1.45l.32-.03c.19.39-.34.37-.43.67-.22-.29-.42-.28-.66-.37.19.19-.47.37-.05.96l-.58-.11c-.62.3.13,1.26-.41,1.59-.13-.41-.51-.4-.39-.9-.16.14-.34.22-.17.41-.24-.08-.1.75-.47.64.04.18.28.47.09.61-.07-.03-.12-.13-.12-.13.12.13-.1.43.33.57-1.25-.35-1.21,1.32-2.29,1.07-.23.42-.52.91-.78,1.24-.06-.09-.13-.12-.05-.15-.63.22.54.95-.17,1.19-.66-.12-.01-.47-.32-.45-.96-.69-.39.72-1.2.63v-.13c-.51.03-.16.94-.56,1.34,0,0-.07-.08-.14-.11.25.67,0,1.37-.13,1.91-.3-.39-.08-.34-.53-.5-.07.24.67.35.53.82-.3,0-.66.19-1.12-.02l.21-.42c-.68-.12-.29.55-.51.71l-.23-.16c-.27.72.37,1.03,0,1.73h.23c.5.65-.5.21-.15.78l-.72-.08c.07.36.39,1.19.51,1.74-.52-.34-.69-1.07-.87-1.55-.11.29-.18,1.12.17,1.33-.05-.15-.22-.34-.09-.45.5.48.72,1,.83,1.58-.69.09-.7.59-.5,1.14.2.55.62,1.04.48,1.63.73.31,1.31.69,2.01,1.02.6.31,1.23.57,1.89.57-.38-1.1.38-.01.35-1.12.27-.05.37-.05.4.02l-.05-.04s.04.03.06.05h0c.27.21.56.44.85.63.22.31-.25.26-.22.51.63.04.29.45.74.72-.12-.39.17-.59.53-.48l-.54-.45c.76-.68.86.84,1.62.13l-.21.39c.41-.26,1.59-.3,1.78-1.26.1.11.27.38.11.5,1.03-.11,1.87-1.49,2.75-1.21v.28c.16-.13.16-.58.46-.4.03.11.02.28.1.27.06-.12.3-.61.58-.54l-.09.36c1.02.01,1.11-1.2,1.76-1.66.3.75,1.08.7,1.48.67l.03.11c1.06-.34,1.45-1.36,2.22-2.07.94.51,2.06-.6,3.17-.64-.2-.06-.27-.56-.15-.72.28.03.31-.79.63-.13l-.08.03c.5.55.83.15,1.17-.02l-.41-.87c1.55.74,1.98-1.72,3.07-.92.08-.33.33-.48.41-.81l.26.45c.63-.23.95-.35,1.57-.89l.06.4c.41-.22-.31-1.56.03-1.81l.52.57c.66-.44,1.71-.34,1.98-1.36.05.1.16.3.07.4.32-.2,1.5-.41.78-1.19.4.56.71-.43.88-.92l.24.45c-.08-.74-.18-.89.12-1.33.14-.02.33.26.12.25.48-.03-.03-.57.51-.64l.05.37c.35-.21.22-.34.18-.77.08-.32.69-.37,1.02-.05-.13-.25-.18-.69.09-.73.13.12.13.25.13.32.76-.16.44-1.09,1.12-1,.11.12.19.17.25.18-.43.34-.8.59-.79.53.29.37.69.15.81.88.07-.5.06-1.48.53-1.58.05.02.09.04.15.09v.07c.11-.03.15-.12.16-.23.16-.03.26-.04.37-.12.29.26.53-.17.71-.3-.34-.38-.07-.5-.55-.65.05,0,0,.07-.09.18-.02.03-.04.06-.04.1l-.02-.04c-.1.1-.24.24-.4.38-.03-.31-.03-.59.34-.54-.13-.32-.25-.66-.3-.82.69.35,1.38.25,1.73.53.32-.66,1.08-1.21.73-2.2.06-.22.35.05.5.11-.02.15-.12.23-.07.37.12-.44.77-.85.37-1.4.56-.12.23.63.63.09l.08.21c1.71-.18.28-2.69,2.25-2.83-.13.02-.19.03-.29-.03.78-.41,1.24-1.17,1.69-1.9.46-.73.9-1.45,1.77-1.9.42-.31.09-.58-.04-1l.53.19-.3-.75c-.04-.42.4-.53.8-.73.4-.19.77-.48.52-1.09h-.39c.19-.3.07-1.08.47-.95-.06-.05-.36-.18-.14-.28l.29.03c-.13-.33-.25-.64-.43-.93.09-.34.37-.35.64-.39.25-.04.52-.13.39-.82ZM32.72,17.96c.05.08.1.16.13.23-.03.11-.11.05-.18-.03.03-.03.06-.08.09-.14,0-.02-.02-.04-.03-.06ZM30.16,16.24c-.05-.11-.21-.12-.36-.19.06-.02.13-.07.2-.12.12.13.21.29.16.31ZM30.22,15.73s0,0,0,0c.04-.04.07-.08.09-.1-.02.02-.04.05-.08.11ZM37.64,8.33s.02,0,.03.02c0,.03,0,.07,0,.11-.05-.02-.1-.04-.14-.05,0-.06.02-.1.05-.1.02,0,.03.02.05.03ZM37.42,8.34v-.12s.06.03.1.05c-.03.04-.07.07-.1.07ZM37.17,8.09s.06.04.09.06c0,.03-.01.07-.02.1-.02-.04-.05-.1-.08-.16ZM37.32,8.32s.01.06.02.09c-.02-.01-.04-.02-.05-.03.01-.02.02-.03.03-.05ZM38.85,8.22h0s0,0,0,0h0ZM38.74,8.25s-.06.02-.1.02c.02-.06.04-.13.07-.23.07-.04.06.07.03.21ZM38.36,8.28s0,0,0,0h0s0,0,0,0ZM38.35,8.28s0,0,0,0c0,0-.02,0-.02,0,0,0-.01,0-.02,0,.01,0,.03,0,.04,0ZM38.29,8.27s0,0,0,0c-.05,0-.11-.02-.17-.02.06,0,.12.02.17.02ZM38.03,8.23s0,0,0,0h0s0,0,0,0ZM37.57,8.2s-.01.02-.02.04c-.05-.03-.09-.05-.14-.07v-.06c.05.03.11.06.16.1ZM37.28,8.05s0,.03,0,.05c-.04-.02-.08-.03-.12-.05,0-.02-.02-.05-.03-.08.06.02.1.05.15.07ZM36.74,7.8c.19.24.08.65.08.65.19.14.3.14.39.03,0,.08.04.17.2.33-.45-.18-.14.4-.77-.09.09.1.23.33.29.5-.01.01-.02.03-.02.08.01,0,.03,0,.04.02,0,.02.01.05,0,.07-.42-.54-.41-.18-.63-.16,0,0,0,0,0,0,.24-.44.13-1.03.41-1.42ZM36.07,9.6c-.07.17-.22.3-.15.6-.04-.06-.11-.18-.06-.17-.11.05-.24,0-.38-.05-.06-.08-.16-.15-.2-.27.05-.48.49-.07.79-.11ZM35.22,9.82c.05.11.11.05.18.13-.04-.01-.07-.03-.11-.03.09.1.16.19.22.27,0,0,0,0,0,0,0,0,0,0,0,0,.24.36.23.62.4.96-.6-.32-.51-.66-.95-1.05.1,0,.29.2.26-.28ZM18.75,20.91l1.98-.9c-1.17.52-1.05.41-.94.33.13-.1.26-.16-.51.06.34-.11.55-.18.86-.29,1.23-.44.12-.08-.8.2.13-.06.86-.28,1.34-.44.67-.21-1.37.38-.25.04.13-.04.31-.09.43-.12-.52.14.18-.08-1.05.25.62-.19-.39.01.33-.18-1.18.21.67-.18-.98.09,1.71-.29,1.42-.26.75-.24.46-.04.51-.07,1.14-.12,0,0-.07,0-.22,0-.25,0-.45.02-.77.03.9-.07.57-.07.35-.11-.23-.03-.35-.1.6-.03-.57-.13-.73-.39-.7-.65.83.41-.13.2.87.53-.35-.16-.87-.66-.48-.69.13.04.25.26.36.35-.07-.15.02-.2.09-.25l.1-.08s.09-.08.13-.13c.08-.09.14-.21.18-.37.04.06.05.16.05.24.06-.08.24-.03.02-.32l-.02.13c-.44-.35-.35-1.13-.5-1.38.48.96.54-.05,1.11,1.2,0-.09-.03-.28-.18-.48.12,0,.22.11.31.39.16-.36-.17-.61.09-.78.1.15.09.24.19.43-.07-.38-.15-.75.15-.77.05.1.15.2.09.24.33-.29.1-1.2.69-1.18.32.73.28.12.68.67l.1-.31-.27-.22c.2-.11.09-.64.38-.56v.33s.3-.34.3-.34l-.34-.08c0-.42-.49-.71-.13-.71-.02.09.2-.12.51.15h0c-.02-.24-.05-.5.19-.45.15.16.37.65.47.76-.21-.54.37-.42.16-1,.04.15.22.45.27.5l-.17-.44c.17.07.22.12.35.37.31-.1-.54-.68-.02-.56,0,.05.04.1.03.19.42-.03.47-.63.89-.62.44.53-.17.3.23.73.36-.36.47-1.23.97-1.34l-.12-.02c-.43-.86.55.23.54-.29-.02.09.2.5.16.4.36-.03.47-.54.76-1.05l.07.25c.28.1.51-.14.75-.14-.06-.25.06-.27-.17-.55,1.23.93.75-1.26,1.8-.48-.06.03-.05.27,0,.24l.33-.42c-.22-.36-.17-.2-.41-.44-.06-.25-.02-.48.09-.54-.08.35.3.6.49.77-.07-.11-.1-.25-.17-.36.56.56-.33-.78.21-.48l.08.21c.07-.16.05-.47.21-.48.26.41-.03.27.13.63.16-.11-.04-1,.33-.64-.02.16-.13.21-.15.37.42.43.38.29.55.31h-.02s.41.09.41.09l-.14-.11c-.29-1.25.36-.42.34-1.31,0,.85.13.44.32.95.14.11.32.22.35.37,0-.13.02-.17.05-.17.34.37.12.62.48.9-.41-.19-.24-.05-.71-.42.59.66,0,.21.27.7-.47-.16-.61-.57-.62-.19-.27-.12-.32-.5-.32-.5-.2.16.36.56.58.88-.1.35-.44-.27-.75-.45-.02.26.28.82.15.9-.08-.08-.13-.09-.2-.21.2.54-.45.43-.2,1.09-.05-.03-.1-.07-.13-.11.25.23.48.48.63.67-.09.09.1.47-.22.17.07-.04-.04-.18-.11-.3l.03.23c-.49-.41,0-.28-.31-.63-.05.32.06.9-.2.89-.42-.45.21-.44-.34-.7h.38c-.8-.61.18-.07-.65-.73-.41.11-.12.51-.53.62.15.32.34.37.49.69-.04.83-1.31-.93-1.1-.04.18.38.63,1.02.15.88l-.36-.61c-.33.18.45.92-.15.79-.11-.26.09-.36,0-.39-.54-.28.1.42-.05.54l-.41-.46c-.25.32-.33.94-.62,1.3-.09-.16-.15-.36-.34-.45-.26.58-1,.65-1.65.66l.14.55s-.21-.14-.23-.26c-.29-.04.19.28.23.51-.08.1-.31-.16-.34-.33-.04.58-.31,1.4-.95,1.16l-.03-.17c-.37,0,.33,1.09-.18.84v-.11c-.68.18-1.03.99-1.89.6.34.7-.73.07-.19.99-.6-.24-.62-.46-1.25-.48-.15.03.18.68.09.87l-.3-.47.11.62-.46-.5-.06.21c.07,0,.25.14.33.28-.09.35-.74,0-.89-.25-.04.12-.11.25-.12.35.02.08.03.17.03.26-.09-.21-.1-.29-.15-.43.19.55-.26-.53-.08-.03.05.12.12.32.16.43-.17-.29-.2-.28-.24-.09l-.05-.42c-.04-.09-.1.28-.21.33-.02.22-.17,1.08-.26,1.21l.15-.77c-.15.51,0,.26-.22.9-.07-.04.19-.89.27-1.16l-.13.31c.07-.24.11-.38.2-.69-.07.26-.04.06,0-.1.04-.16.09-.28-.09.19l.09-.26s-.19.34-.29.42c-.46.84-.39.67-.83,1.4.02-.21.4-.88.27-.77-.4.51-.59.82-1.04,1.41.61-.87.45-.74.97-1.4-.22.2-.23.23-1.08,1.1-.31.39-.42.54-.71.88-.19.18.23-.35.64-.83l.1-.11c-.75.79-.32.16.24-.49.52-.62,1.13-1.22.07-.21-.44.41-.91.83-1.4,1.25.12-.16.94-.86,1.63-1.54-1.06.96-1.09.93-.98.8.1-.13.34-.35-.51.32,2.01-1.74,1.95-1.68,1.61-1.45-.32.23-.95.63.6-.53l-1.16.85c-1.17.83.64-.49.91-.69-.83.6-.93.67-1.7,1.22-.29.17-.46.22-.5.18-.09-.12.6-.63,1.33-1.08.69-.43,1.42-.82,1.85-1.04-.8.39-5.3,2.51-2.88,1.31ZM35.62,18.34c-.04-.12-.26-.07-.46-.1.1-.05.2-.14.31-.23.14.12.22.28.15.33ZM35.85,17.66s0,0,0,0c.06-.07.12-.12.15-.16-.03.04-.07.08-.15.17ZM38.81,19.56s-.02-.04-.03-.06c.05.08.1.16.12.23-.07.15-.17.11-.25.04.05-.05.1-.12.16-.21Z"/>
</svg>