<?xml version="1.0" encoding="UTF-8"?>
<svg id="_레이어_1" data-name="레이어_1" xmlns="http://www.w3.org/2000/svg" viewBox="0 0 50 50.74">
  <defs>
    <style>
      .cls-1 {
        fill: #040000;
      }
    </style>
  </defs>
  <path class="cls-1" d="M49.71,24.13c-.29-.69-.86-1.31-1.5-1.65-.06-.03-.12-.05-.17-.08-.05-.03-.1-.07-.16-.1-.15-.08-.28-.14-.42-.19-.12-.05-.37-.12-.32-.11-.03-.02-.07-.04-.11-.06-.12-.06-.28-.07-.48-.05,0,0,0,0,.02,0-1.7-.56-4.14.39-5.33-.62l.21-.33c-.23.02-.46.25-.69.27-.02-.03-.04-.06-.05-.1,0,.05-.03.07-.07.09-.08-.02-.16-.07-.23-.17.05-.14.21-.33.06-.38-.2.08-1,.43-1.38.13l.46-.32c-.2-.1-.39-.18-.58-.22-.15-.04-.11,0-.19.01-.1.05-.25.17-.45.3-.11.07-.23.15-.37.22-.14-.04-.2-.12-.49.14.08-.14-.17-.03-.47.05-.03,0-.07.02-.1.03.91-.77,1.03-1.04,1.26-1.22l.23-.09c.14-.14-.17-.08-.43-.26-.24-.15-.43-.47-.39-.92,1.57-.32,2.49-3.07,4.02-4.29-.32.14-.68-.48-.6-.82.42-.26,0-1.42.81-.84l-.1.12c.5.11.81-.05,1.05-.32.06-.07.11-.14.17-.22l.08-.12.04-.06.05-.08.15-.29c.4-.77.5-1.9.19-2.78-.3-.89-.87-1.56-1.58-2.01-.54.17-1.01.45-1.37.8-.35-.15-.8-.21-1.22-.16-.21.03-.42.08-.6.15-.08.02-.23.1-.24.1h-.06c-.15,0-.29,0-.43.03-.28.05-.54.14-.79.27-.49.26-.93.64-1.34,1.02-.82.76-1.54,1.48-2.42,1.05-.2.51-.67.8-.86,1.31l-.35-.59c-.55.25-1.03.47-1.38.67-.08.03-.14.08-.24.25,0-.19-.03-.37-.05-.55-.01,0,0,.13,0,.35,0,.22-.01.52-.04.85-.06.64-.23,1.36-.44,1.52,0,0,0,0,0,0,.03-.42.07-.86.13-1.3-.1.07-.19.06-.24.02-.04-.01-.14-.17-.1-.35.03-.34.01-.38-.42-.19.13-.13.37-.38.42-.37,0-.03,0-.08.03-.14.06-.26.24-.46-.47-.22,0-.03,0-.06.01-.09,0,0,0,0,0,0,.01-.02.01-.04,0-.06,0-.02,0-.03,0-.05-.04-.3-.1-.6-.19-.9-.1.08-.17.14-.25.19-.21-.3-.46-.59-.65-.82.15.02.29,0,.41-.07h.24c-.05-.04-.1-.05-.15-.08.05-.06.09-.15.12-.27-.08.14-.16.2-.24.21-.21-.09-.38-.17-.52-.24-.06-.04-.11-.07-.17-.09-.11-.07-.21-.14-.3-.23l.33-.98c.35-.43.42.36.74.24-.12-1.03.52-.56.75-1.32-.49.26-.82-.18-.76-.79l-.48.96c-1.1-1.22.94-1.49-.16-2.73l.56.34c-.22-.33-.37-1-.64-1.64l-.03-.06v-.03s-.08-.22-.08-.22c-.11-.36-.3-.75-.56-1.1-.53-.72-1.33-1.2-2.09-1.36-.77-.17-1.52-.09-2.22.2-.69.29-1.31.86-1.65,1.5-.17.32-.28.63-.34.93-.04.2-.02.18-.02.2v.04s-.04,0-.06-.01c-.07-.02-.14-.06-.21-.12-.02-.29.02-.92.51-1.71-.56.68-.76,2.02-.62,1.78.05.11.1.23.16.35.06.13.11.27.16.41-.09-.03-.16-.09-.18-.21-.27.81-.19,1.79-.15,2.72-.06.1-.11.21-.15.34-.53-.02-.48.87-.59,1.27.39.06.48.25.61.34-.08.25-.19.48-.35.67l-.33-.21c.03.35.54.71.1,1.04-.14-.05-.33-.21-.38-.06.04.1.15.34.21.6,0,.21,0,.43-.01.65,0,0,0,0,0,0-.02.04-.03.08-.06.12l-.32-.46c-.1.2-.18.39-.22.58-.04.15,0,.11.01.19.05.1.17.25.3.45.18.26.36.64.47,1.02.02.15.02.3.03.47-.82-.98-1.1-1.09-1.28-1.34l-.09-.23c-.14-.14-.08.17-.26.43-.15.24-.47.43-.92.39-.32-1.57-3.07-2.49-4.29-4.02.14.32-.48.68-.82.6-.26-.42-1.42,0-.84-.81l.12.1c.11-.5-.05-.81-.32-1.05-.07-.06-.14-.11-.22-.17l-.12-.08-.06-.04-.08-.05-.29-.15c-.77-.4-1.9-.5-2.78-.19-.89.3-1.56.87-2.01,1.58.17.54.45,1.01.8,1.37-.15.35-.21.8-.16,1.22.03.21.08.42.15.6.02.08.1.23.1.24v.06c0,.15,0,.29.03.43.05.28.14.54.27.79.26.49.64.93,1.02,1.34.76.82,1.48,1.54,1.05,2.42.51.2.8.67,1.31.86l-.59.35c.25.55.47,1.03.67,1.38.03.08.08.14.25.24-.19,0-.37.03-.55.05,0,.01.13,0,.35,0,.22,0,.52.01.85.04.64.06,1.37.23,1.52.44-.42-.03-.86-.07-1.31-.13.07.1.06.19.02.24-.01.04-.17.14-.35.1-.34-.03-.38-.01-.19.42-.13-.13-.38-.37-.37-.42-.03,0-.08,0-.14-.03-.3-.07-.51-.29-.1.82-.08-.22-.16-.32-.21-.36-.03-.02-.04-.02-.09,0-.1.03-.21.08-.32.15-.44.25-.94.68-1.29.97l-.03-.69c-.47,1-.44,1.23-1.31,1.68-.2-.03-.29-.36-.1-.39-.64-.05-.36.76-1.28.62l.23-.5c-.77.12-.65.34-.95.92-.41.38-1.47.16-1.72-.41,0,.13-.05.29-.12.44-.01,0-.02,0-.03,0h-.04s-.02-.02-.02-.02h-.01s0,0,0,0h0s-.07.3-.07.3c-.13.14-.29.22-.49.2,0,0-.01-.02-.02-.03,0-.02,0-.03-.01-.05-.03-.11.02-.21.22-.28-.06-.02-.12-.03-.17-.05.02-.03.03-.05.05-.07-.13-.01-.24,0-.35,0-.05,0-.09,0-.11,0,0,0,0,0-.01,0h-.05s-.17.05-.24.08c-.18.06-.38.16-.55.27-.36.24-.62.6-.77.95-.29.72-.19,1.44.18,2.02.18.29.45.53.74.69.14.07.29.14.42.17.12.03.33.07.31.06.32-.05.61-.09.89.03.07.31.11.48.08.36h0s0,0,0,0h.02s.05,0,.05,0h.09s.08,0,.08,0c0,.16.01.27.06.34-.5-.13-.95-.24-1.26-.32-.04-.01-.08-.02-.11-.03-.1-.03-.36-.1-.52-.19-.36-.17-.64-.43-.81-.64-.23-.3-.31-.49-.32-.56-.13.07-.13.45.14.9.26.47.84.9,1.25,1.1.15.07.1.08.12.11,0,.03.01.06.01.09,0,.06,0,.13-.03.19-.02.07-.06.14-.12.21-.29.02-.92-.02-1.71-.51.68.56,2.02.76,1.78.62.11-.05.23-.1.35-.16.24-.11.5-.22.76-.3.52-.17,1.03-.25,1.4-.01.03.07.05.13.06.23l-.1.05c.17.1.34.08.52.01.23.16.37.27.61.33-.02.53.87.48,1.27.59.11-.68.62-.45.24-1.11.05.06-.09.06-.37.03-.07,0-.14,0-.19.03l.04-.05c-.27-.05-.62-.11-1.01-.18.14-.1.28-.19.43-.24,0,.05,0,.09,0,.15.06.02.12-.06.19-.19.19-.02.37.05.55.27.25-.32.51-.63.69-.84.06.01.11.02.17.03.39.97,1.24,1.67,1.26,2.25.33-.03.68-.01,1.03,0,.16,0,.41.03.49,0l.23-.07c.22-.07.49-.19.86-.39l.14.03c.23-.18.43-.28.69-.33-.03.07-.1.17-.17.26l-.3.23c-.13.03-.22.03-.37.14.51-.16.92,0,1.79-.27.08,0,.16,0,.22.01.05.01.1.02.14.04-.11.05-.22.09-.32.12-.25.11-.34.08.05.21-.16.04-.32.08-.48.13-.12.2-.34.41-.47.51-.12.11-.15.19-.14.26.03.12.18.23.31.4-.1.02-.2.04-.29.09.02,0,.04,0,.05.02.22.1-.17.27.48.37,0,.01,0,.02.01.04-.13.1-.44.07-.65.07.1.13-.03.38-.08.61-.02.16-.09.47.18.54-.22.19-.48.37-.81.52.17-.08.26-.12.38-.11l-.12.08s.05.03.07.04c-1.09,1.08-1.76,2.48-2.46,3.85-.11.22-.23.43-.35.65-.19.15-.39.29-.57.45-.11.1-.22.21-.31.32l-.07.09-.03.05c.08.12.15.23.22.35,0,0,0,0,0,0l-.27-.43h0c.09.14.18.29.28.43-.03.05-.06.1-.09.14-.11.16-.23.32-.36.47l-.02.03-.08.13c-.05.09-.09.19-.13.3-.07.21-.1.46-.08.7.02.2.08.39.16.56-.13-.17-.19-.3-.24-.34-.08-.11-.09,0-.08.08,0,.07,0,.1-.05-.18-.02-.14-.05-.38.02-.71.04-.16.1-.35.2-.53l.08-.14.02-.03.05-.06-.06.05-.03.03-.09.15c-.12.19-.21.44-.25.68-.09.49.02.97.21,1.33.37.71,1.1,1.16,1.96,1.13.41,0,.84-.19,1.07-.35.06-.04.11-.09.16-.16.05-.06.1-.13.14-.22.08-.02.15-.04.23-.05.02,0,.04-.02.06-.02.13.13.35.12.56.04.04.03.08.05.13.08l.04-.02.07-.04s-.07-.06-.1-.09c.15-.08.28-.19.36-.31l-.52-.04c.05-.08.08-.17.1-.27.2-.14.41-.25.62-.34l.09.08.03-.12.25.78c1.97-.09,1.69-3.07,3.67-2.38.05-.44-.34-.28-.65-.27.16-.1.3-.24.43-.44.64.04,1.31.27,1.45.18.66-.15.42-.35.4-.72-.05-.34-.01-.76.29-.77-.04-.11-.11-.28-.15-.49l.63-.99s.06-.01.09-.02c.14.36.04,1.05-.1,1.33-.08.08-.12,0-.12-.12-.12.2-.23.42-.08.7l.02-.35c.18.23.54-.03.36.65.22-.47.21-.7.05-.77.16.15.27.08.42-.03.07-.05.15-.12.22-.15.08-.02.17.1.13.31.09-.24.22-.68.29-.78.01,0,.02,0,.03.01-.07,1.17.47-.43.73.11-.26.82-.85.97-.44,1.14,0,.02-.01.04-.02.05-.15.41-.46.54-.67.69-.05.03-.1.07-.14.1.03-.02.06-.02.08-.03.18-.03.12.21-.02.39-.13.19-.34.33-.37.38-.05,0-.1.01-.15.02.05,0,.06.02.06.04.18-.06.37-.13.54-.22-.04.05-.06.09-.09.13-.02.11-.07.18-.18.2.44.21.88-.44,1.52.02-.2.45.58,1.09-.14,1.39-.02-1.25-.72.31-1.08-.68.13.17.19.41.15.72-.07.06-.16,0-.23-.07-.4,1.3.97.33,1.22,1.52-.46-.05-.74.46-.6.63-.1-.48.65-.39,1.07-.03-.15.84.44.77.49,1.18l.05-.49c.46.06.49.45.74.95-.32.12-.34-.43-.44-.21.88.42-.46,1.51.23,2.21-.2.45-.78.22-.9.6.05.05.09.1.12.14.04.06.02-.02.19.46.27.71.84,1.33,1.42,1.66,1.18.64,2.29.62,3.38.06.53-.28,1.02-.77,1.32-1.33.08-.15.14-.28.19-.42.05-.12.12-.37.11-.32.02-.03.04-.07.06-.11.07-.15.09-.34.03-.61-.63.15-.5.23-.9-.57l.02.84v.21s0,.05,0,.05v.03s-.04.16-.04.16c-.05.22-.14.44-.26.67-.51.94-1.59,1.48-2.54,1.43.63-.03,1.24-.27,1.72-.7.49-.43.78-1.06.82-1.56-.07-.31-.19-.43-.29-.66-.03.12-.03.25-.03.38v.1s.01.02,0,.06l-.05.23c-.08.31-.27.65-.52.9-1.06,1.06-2.57.71-3.17-.07.65.51,1.2.5,1.51.48.32-.04.47-.12.51-.16.08-.09-.22-.08-.56-.31.04,0,.08,0,.12.01.23.08.49.09.76.02.37-.09.73-.39.91-.75.05-.09.08-.18.11-.27.03-.08.05-.21.05-.2,0-.04,0-.09,0-.13,0-.09-.03-.18-.05-.27-.02-.11-.05-.21-.07-.32l.62-.14v-.04s-.03-.08-.03-.08c-.04-.15-.08-.3-.12-.45l1.16.28c.88-1-.27-2.19.41-3.59l-.35.42c-.51-.32.12-.93,0-1.46.46.15.7-.11,1.03-.26-.35-.05.27-1.08-.64-1.42l.76-.53c.18-.24-.12-.45-.4-.84-.16-.2-.3-.45-.38-.69.19.21.31.38.42.6l.07-.34c-.14-.17-.22-.33-.28-.5.3.36.56.48.76.98.04-.15.14-.21-.13-.51.14.08.03-.17-.05-.47-.08-.29-.14-.62.06-.43-.08-.19-.22-.47-.32-.74,0-.07,0-.15.01-.21,0-.03.01-.06.02-.09.02.05.04.09.04.09-.02-.03-.02-.07-.04-.11.03-.11.09-.18.28-.09-.12-.33-.35-.71-.58-1.09.13.1.26.19.38.3.19.18.32.38.46.5.04.04.07.07.11.1.25.31.5.74.62,1.13-.07-.29-.13-.64-.08-.78.02.01.04.02.06.03.08.04.16.08.24.12.18.29.08.72.26,1.06.01-.05.03-.08.05-.1-.07.29-.03.93.08.78,0-.27,0-.54-.02-.81.09,0,.2.06.28-.38.04.07.08.15.12.23,0,.13,0,.27,0,.38,0,0,0,0,.01,0l.09.17c0-.06,0-.11-.01-.17h-.05s.03-.02.05-.02c0,0,0,.02,0,.02.23.05.44.09.79.23.43.19.84.39,1.18.58-.12.1-.13.2-.23.08.46.64.89.04,1.36-.09.23.22.46.45.7.65-.11.42-.74-.24-.59.15-.69,1.43,1.37.6,1.58,1.82l-.22-.03c.19.61,1.06.46,1.82.66l.12.18.07.1.03.05.02.03h0s.24-.15.24-.15c.04.03.09.04.13.08,0,0-.11.09-.13.19l-.09.12c.25.1.25,0,.26-.15.21-.04.42-.07.63-.07h.21c.05.02.03,0,.15.04.13.05.26.1.41.13.47.1.95-.04,1.3-.3.16-.08.31-.18.45-.32-.37.59-.75.71-.84.8-.11.08,0,.09.08.08.07,0,.1,0-.18.05-.14.02-.38.05-.71-.02-.16-.04-.35-.1-.53-.2l-.14-.08-.03-.02-.06-.05.05.06.03.03.15.09c.19.12.44.21.68.25.49.09.97-.02,1.33-.21.71-.37,1.16-1.1,1.13-1.96,0-.41-.19-.84-.35-1.07-.04-.06-.09-.11-.16-.16-.13-.1-.31-.2-.57-.3.68-.07.32-.95-.05-1.18l-.03.33-.05-.03-.41-.26s-.04-.03-.07-.04c-.05-.1-.1-.21-.15-.31l.15-.05.37.52c.18-.3.15-.5.03-.65l.25-.08c-.07-1.59-2.03-1.72-2.42-2.75.07-.21.06-.44-.05-.59.02-.1.04-.21.08-.33-.2-.02-.27.05-.29.16-.04-.02-.08-.03-.13-.03.09.19.12.41.15.59,0,.16-.08.29-.34.29-.33-.72.21-2.04.08-2.24-.15-.66-.35-.42-.72-.4-.08.01-.16.02-.24.02-.12-.06-.26-.09-.43-.12-.06-.05-.09-.11-.1-.19-.14.05-.38.16-.68.18-.35-.17-.65-.43-.88-.72.33-.18,1.1-.08,1.39.07.08.08,0,.12-.12.12.2.12.42.23.7.08l-.35-.02c.23-.18-.03-.54.65-.36-.47-.22-.7-.21-.77-.05.15-.16.08-.27-.03-.42-.05-.07-.12-.15-.15-.22-.02-.08.1-.17.31-.13-.14-.05-.33-.11-.5-.17.27.02.62.15,1.04.33-.15-.26.18-.33.52-.32.06.08.11.17.16.24.03.05.07.1.1.14-.02-.03-.02-.06-.03-.08-.03-.18.21-.12.39.02.19.13.33.34.38.37,0,.05.01.1.02.15,0-.05.02-.06.04-.06-.06-.18-.13-.37-.22-.54.05.04.09.06.13.09.11.02.18.07.2.18.06-.13.04-.27,0-.4.23-.04.45-.09.68-.15-.87-1.06.14-.45.19-1.11.17-.04.33-.02.45.15-.01.05-.01.1-.02.15-1.04.06.38.73-.57,1.07.17-.13.41-.19.72-.15.06.07,0,.16-.07.23,1.3.4.33-.97,1.52-1.22,0,.07,0,.14.02.21-.08.07-.14.15-.11.25.1-.01.17-.01.24,0,.14.15.34.22.45.16.16.18.18.46.62.6-.26-.49.18-.82.79-.76l-.96-.48c1.22-1.1,1.49.94,2.73-.16l-.34.56c.33-.22,1-.37,1.64-.64l.06-.03h.03s.22-.08.22-.08c.36-.11.75-.3,1.1-.56.72-.53,1.2-1.33,1.36-2.09.17-.77.09-1.52-.2-2.22ZM5.98,29.57s.03-.05.05-.07c-.05.12-.11.24-.18.31-.29.04-.35-.12-.36-.26.13.02.28.03.49.02ZM16.95,19.07s-.05-.08-.07-.12c.15.09.3.18.44.26l-.37-.14ZM15.89,34.33c.18.15.32.31.1.64-.15-.04-.27-.1-.37-.15.08-.16.17-.33.26-.49ZM16.07,34.01s.03-.06.05-.09c.13-.23.26-.46.38-.69l-.18,1.3c-.15-.14-.19-.34-.25-.51ZM22.16,32.96c.08.01.15.02.23.04-.07-.07-.15-.12-.23-.18-.05-.26-.31-.51-.25-1.03-.43-.08-.68.1-.99.21l.18.41s-.08.02-.13.03c-.46,0-.91.13-1.26.4,0,0,0,.02,0,.02-.32-.36-.76-.6-1.47-.57l-.42,1.09-.55-.3.65-.46c-.66-.19-.65.35-.75.78-.21-.19-.42-.29-.62-.29.23-.48.37-.94.24-1.29.14-.08.26-.12.35-.14-.41.11-.76.15-1.07.15.07-.07.16-.14.22-.21.3-.34.47-.66.57-.96.27.06-.27.73.27.72.12-.52-.01-1-.08-1.38-.07-.39-.07-.69.12-1.02.41-.21.42.1.43.35,0,.26.04.45.5-.1-.15.36-.35.76-.59,1.16,1.8-1.2-.29.77,1.6-.39.27-.89.06-1.24-.07-1.55-.06-.14-.16-.36-.32-.64-.17-.29-.31-.4-.47-.69-.68.04-.59.42-1.28.5-1.21-.26-1.18-.76-1.16-1.33.02-.53-.16-1.02-1.68-.79-.94.34-1.55,1.24-2.65.52.04-.01.09-.02.12-.04.16-.06.3-.13.41-.22.23-.17.38-.38.51-.57.24-.34.39-.62,1-.6l-.29.23c.12-.03.26-.04.3-.23.09,0,.19.01.3.03l-.17.17c.41-.06.82-.13,1.23-.21.74-.15,1.31-.46,1.77-.75.24-.15.43-.3.61-.44.17-.15.37-.23.51-.54.14-.31.08-.5.09-.71,0-.2,0-.42.01-.64.03-.43.07-.91.13-1.4-.13-.05-.24-.13-.35-.2.03-.14.04-.3.03-.48.25.14.49.27.7.38.66.35,1.21.44,1.69.46.02,0,.04,0,.06,0,.77.2,1.1.02,1.39-.11.14-.06.36-.16.64-.32.29-.17.4-.31.69-.47-.03-.5-.25-.59-.39-.87.26-.17.54-.36.83-.65.24-.21.44-.53.6-.93.19-.02.35-.1.47-.28.02.12.05.23.07.35.11.67.26,1.2.33,1.76l.24-.54c.59.06.2.8.4,1.18.16-.38-.11-.81.23-.81.18.18.35.31.52.47.18.13.28.26.53.4.27.15.59.21.77.19.21,0,.43,0,.67,0,.48-.03,1.04-.08,1.67-.3.2-.07.41-.17.62-.28-.09.17-.18.33-.26.47-.35.66-.44,1.21-.46,1.69-.02.48.01.92.08,1.34.14-.04.23-.04.31-.04-.02.12-.03.24,0,.36.03.16.12.35.23.49.1.14.21.2.33.28.23.14.53.24.78.27-.52.04.14.59-.54.71.57.53,1.65.72,2.1.39.14.06.28.12.44.17.12.1.27.18.43.24-.02,0-.05.01-.07.02-.46.1-.92.17-1.35.25-.42.09-.81.17-1.2.22l.54.24c-.06.59-.8.2-1.18.4.38.16.81-.11.81.23-.18.18-.31.35-.47.52-.13.18-.26.28-.4.53-.15.27-.21.59-.19.77,0,.21,0,.43,0,.67.03.48.08,1.04.3,1.67.22.61.61,1.24.94,1.89-.41-.23-.79-.48-1.16-.87-.36.22-.91-.12-1.39-.29-.48-.18-.85-.2-.76.38-.15-.61-.64-.9-1.17-.82-.16.03-.35.12-.49.23-.14.1-.2.21-.28.33-.14.23-.24.53-.27.78-.04-.52-.59.14-.71-.54-.6.65-.77,1.95-.23,2.25-.81.44-.83,1.89-.83,2.89,0,.52,0,.98-.12,1.36-.04.14-.09.22-.14.29-.07-.13-.14-.27-.2-.44.05.03.1.07.15.09-.08-.14-.16-.3-.24-.46-.03-.14-.04-.28-.05-.44.13,0,.25-.16.33.02-.07-.24-.15-.47-.24-.68,0,0,.01.01.02.01l-.04-.05c-.12-.27-.24-.52-.37-.75.04-.02.07-.03.11-.05-.06-.02-.11-.03-.16-.04-.1-.17-.21-.34-.31-.49-.49-.68-.96-1.11-1.21-2.11.21-.19.29-.33.31-.46ZM46.42,21.95c.09.37.14.46-.04.58-.07-.16-.12-.45.04-.58ZM40.98,12.58c.03-.06.05-.12.07-.16h0c-.03.05-.05.11-.08.16ZM20.45,6.61c-.02.13-.03.28-.02.49.02.01.05.03.07.05-.12-.05-.24-.11-.31-.18-.04-.29.12-.35.26-.36ZM11.46,9.02c-.09-.04-.16-.07-.22-.1.08.03.15.07.22.1ZM24.32,49.02s-.09-.06-.13-.1c.07.05.15.09.23.12-.03,0-.07,0-.1-.02ZM37.12,32.23s-.03-.01-.05-.02c.02,0,.03.01.05.02ZM42.38,29.85c.12.03.2.07.26.13-.13.02-.22-.04-.26-.13Z"/>
</svg>