<?xml version="1.0" encoding="UTF-8"?>
<svg id="_레이어_1" data-name="레이어_1" xmlns="http://www.w3.org/2000/svg" viewBox="0 0 50 50">
  <defs>
    <style>
      .cls-1 {
        fill: #040000;
      }
    </style>
  </defs>
  <path class="cls-1" d="M49.99,26.02s0-.07,0-.1c-.05-.02-.14-.21-.14-.55l.12-.18c.02-1,.11-2.03-.18-2.73l-.21.61-.07-.49.17-.03c-.1-.46-.16-.05-.23.22-.02-.26-.05-.44-.09-.54l-.2.96c-.02-.39.09-.78-.04-.99-.09.44.09.88-.07,1.17-.1-.45-.07-.83-.18-.44-.02-.26,0-.42.05-.54-.1.31-.27.13-.32.66-.1-.56-.35.15-.34-.8-.03.23-.18.74-.27.78.17-1.14-.35-.07-.31-1.28-.13,1.02-.46.45-.69,1.02.01-.08.04-.25.06-.19-.13-.08-.16-.39-.25-.59-.02.84-.21,1.04-.32,1.56-.16-.81.09-.99.05-1.77,0,.68-.27.68-.22,1.25-.12-.5-.1-.24-.16-.94-.02,1.05-.11.18-.21.83-.17-.52-.04-.99-.23-.67-.09-.32.08-.7.08-.7-.19-.02-.09.78-.13,1.23-.23.23-.11-.59-.18-.99-.14.21-.25.94-.36.91,0-.13-.03-.18,0-.34-.15.63-.45.03-.63.82-.01-.07-.02-.14-.02-.2.01.14.02.28.02.42h-.09c-.02.2-.06.32-.11.41-.03-.36.03-.34.08-.41h.03s0-.09.01-.13c0,0,0,0,0,0,0-.05.01-.1.02-.15v.04s0-.03,0-.05c-.05.07-.1.17-.16.27v-.1c-.11.02-.23.3-.36.39,0-.6.31-.19.13-.81l.21.28c-.16-1.15.13.08-.02-1.15-.28-.21-.31.37-.58.16-.06.41.02.6-.04,1.01-.39.73-.31-1.84-.59-.86-.06.38-.09,1.01-.19,1.05,0,0,0-.02,0-.02,0,0,0,.01-.01.02-.03,0-.06-.03-.1-.13l.07-.83c-.27-.08-.15,1.19-.43.63.05-.32.21-.27.17-.37-.18-.65-.13.47-.27.47l-.03-.73c-.28.12-.6.64-.91.78.02-.22.07-.45,0-.67-.4.37-.85-.09-1.23-.52l-.15.63s-.06-.29-.03-.41c-.11-.18-.06.14-.06.42-.04-.03-.07-.03-.11-.02,0-.11,0-.22.03-.3-.18.36-.45.75-.7.76-.02-.07-.04-.15-.06-.25-.02.11-.02.19-.01.25-.07-.02-.13-.08-.19-.17-.02-.07-.04-.13-.05-.18l.04-.13s-.07-.03-.1,0c-.17-.22-.2.54-.32.77,0-.02-.02-.04-.03-.07l.04-.11c-.07-.04-.14-.06-.22-.07,0-.04,0-.09-.02-.14v.14s-.06,0-.08,0c-.1-.14-.25-.19-.2-.53-.12.23-.06.41.03.54,0,0,0,0,0,0-.21-.34-.34,0-.56-.24.01.04.02.09.03.15-.11-.08-.22-.22-.32-.48-.04.49-.17.34-.29.29.02-.16.06-.31.08-.41-.21.49-.38-.32-.5-.41l.11-.21c-.06.12-.12.12-.17.12l.06.51c-.06-.09-.12-.09-.12-.3-.02.09-.02.2-.02.31-.05-.1-.12-.19-.22-.31-.03-.02-.05.03-.07.12,0,0-.01,0-.02-.02,0-.08,0-.14.03-.18-.13-.32-.16-.09-.19.2h-.02s0,.14,0,.14v-.02s0,.02,0,.03v-.02s-.09.35-.09.35c-.02.04-.05.06-.08.06.03-.38-.06-.72-.1-.64.06,0,.07.2.05.42l-.03-.28-.12.17s.1.29.09.48c0,0,0,0,0,0-.03.05-.06.06-.09.06-.02-.02-.04-.02-.05-.01-.15-.1-.3-.6-.3-.85l-.43.56c0-.2.05-.3.1-.41-.16.37-.01-.77-.21-.19.02.11,0,.26,0,.39-.02.03-.04.04-.06.03-.03-.07-.06-.12-.1-.16-.06-.14-.12-.3-.22-.09,0,.01,0,.02,0,.03-.05.02-.11.04-.16.09l.03-.46c-.32-.12-.67.22-1.03.21.13.21.1,1,0,1.08,0,0,0-.02,0-.03l-.04-.67c-.05.33.04.31.02.52-.02-.13-.05-.24-.07-.38,0,.1-.03.14-.06.16,0-.13.02-.27.04-.38,0,.08.02.15.03.22,0-.05,0-.12-.03-.22.01-.06.02-.11.03-.15l-.16.24c0-.21.03-.32.04-.59-.07.44-.28-.7-.38.05v-.21c-.18,0-.31.05-.43.11,0-.25-.3-.76.47-.14-.02-.19-.02-.37-.02-.54.17-.03.3-.13.44-.22.04.05.1.11.17.19,0-.08-.02-.17-.03-.27.11-.05.23-.08.4-.05-.17-.08-.51-.53-.53-.65.2.07-.28-.65.32-.03h-.04c.65.56.63.27.76.17l-.43-.45c.05-.06.1-.11.15-.15.21.03.29-.09.33-.24.02.04.02.03,0-.02,0-.03.01-.06.02-.09.03-.02.06-.03.02-.1.03-.18.08-.33.3-.25.02.02.03.04.05.07,0-.01-.02-.04-.03-.05.08.03.19.09.33.2-.13-.27-.05-.35-.18-.62.02.03.04.05.07.08,0-.02-.02-.03-.03-.05l.39.39c.3-.08.45-.12.58-.46l.26.36c.16-.1-1.08-1.41-.98-1.56l.68.61c.22-.24,1.02.09.66-.72.09.1.27.29.26.35.13-.09.85.02-.07-.83.58.57.29-.18.16-.56l.4.44c-.44-.65-.58-.8-.59-1.09.08.02.29.23.26.25.21.03-.33-.49.01-.41l.22.32c.08-.05.07-.11,0-.22l.21.12-.32-.39v.1c-.04-.06-.08-.13-.14-.21-.06-.14.07-.16.26-.07.3.31-.12.18.35.55.03-.08.04-.19.04-.3.03.02.05.04.08.07-.03-.03-.05-.06-.08-.1,0-.09,0-.18-.01-.28.03.04.05.07.06.1.49.09-.2-.79.36-.51.14.14.22.2.28.23-.17.15-.32.25-.34.21.39.39.59.33,1.03.97-.19-.4-.66-1.21-.35-1.15.04.03.09.06.15.12l.03.06c.07.01.06-.05.02-.14.1.02.18.05.22.01.34.31.32.03.4-.02-.43-.42-.28-.44-.71-.71.04.02.04.06.01.12,0,.02,0,.04.02.07-.01-.01-.02-.03-.03-.04-.03.05-.07.12-.13.19-.05-.09-.1-.17-.14-.24.02-.04.02-.09.03-.15.03,0,.07.02.12.05-.04-.05-.08-.1-.12-.15,0-.09-.01-.2-.02-.32.45.28.81.43,1.1.7-.04-.39.23-.58-.22-1.3.06-.01.1-.05.12-.1.06.05.12.1.16.13.05.11,0,.14.1.27-.09-.31.23-.41-.26-.96,0,0,0-.01,0-.02.37.13.41.58.51.3l.15.2c1.27.52-.82-2.04.75-1.31-.1-.04-.15-.06-.25-.15.14,0,.25-.03.35-.08l.24.06c-.12-.05-.19-.06-.24-.06,0,0,0,0,0,0l.36.05-.17-.09s-.03-.04-.05-.07c.12-.13.2-.3.28-.46.03.03.06.06.1.1.17.09.38.16.49.31-.29-.45.43.16,0-.49.15.14.1-.07.45.32-.01-.22-.28-.23-.46-.43-.35-.67.99.24.52-.68,0,0,0-.01,0-.02l.17.15-.28-.47c-.04-.08-.08-.16-.12-.25-.05-.39,1.2.59,1.07.05.06.07.1.12.1.15,0-.02,0-.03,0-.05-.04-.04-.08-.08-.11-.12-.01-.05-.03-.1-.07-.18l-.31-.25s-.02-.02-.03-.03c.03-.01.06-.04.08-.08.14.18.32.39.43.56-.04-.19-.18-.48-.25-.71.04.02.1.05.18.14-.02-.03-.08-.11-.13-.17.21.2.27.39.39.57-.01-.19,0-.44-.24-.79l-.07-.23s.05.02.08.02c.18.22.39.45.64.66-.18-.23-.24-.33-.3-.41.29.27.6.64.8.51,0-.09-.1-.31-.22-.53h.01s-.05-.2-.05-.2c-.06-.08-.18-.21-.28-.28-.03-.04-.06-.06-.09-.08-.05.03-.25-.05-.49-.29l-.04-.21c-.69-.72-1.35-1.51-2.06-1.8l.29.58-.39-.3.1-.14c-.39-.25-.15.08,0,.32-.19-.17-.34-.28-.44-.32l.53.82c-.29-.26-.49-.61-.73-.67.25.38.69.56.78.87-.39-.25-.63-.54-.44-.18-.19-.17-.29-.3-.34-.42.15.29-.1.28.24.7-.47-.33-.14.35-.8-.33.14.18.4.65.36.75-.68-.92-.3.2-1.12-.69.63.81,0,.65.24,1.21-.05-.07-.15-.2-.1-.18-.15.03-.39-.16-.59-.24.58.61.58.88.87,1.33-.69-.47-.63-.77-1.22-1.28.49.48.29.67.73,1.04-.44-.27-.25-.1-.78-.55.73.76.05.2.44.73-.49-.25-.73-.67-.64-.31-.29-.16-.44-.55-.44-.55-.15.12.49.61.78.97,0,.32-.49-.34-.83-.57.05.25.49.84.39.9-.1-.09-.15-.11-.25-.24.34.55-.3.34.14,1.03-.06-.04-.11-.08-.16-.12.11.09.21.19.31.28l-.06.07c.12.15.17.26.2.35-.26-.22-.21-.25-.22-.33l.02-.02s-.05-.07-.08-.1c0,0,0,0,0,0-.03-.04-.06-.08-.1-.12l.02.04s-.02-.02-.03-.03c.01.09.05.19.08.3l-.06-.07c-.07.1.04.38.02.53-.42-.42.08-.35-.48-.67l.35.05c-.93-.7.15-.03-.83-.8-.34.05.05.48-.3.52.24.33.44.41.68.74.24.79-1.52-1.08-1.03-.19.23.31.65.77.61.88,0,0-.01-.01-.02-.01,0,0,0,.01,0,.02-.02.02-.06.02-.16-.02l-.53-.63c-.25.13.73.95.14.75-.19-.26-.05-.34-.14-.38-.59-.33.24.42.14.52l-.54-.5c-.12.28.03.88-.09,1.19-.14-.17-.27-.37-.48-.47-.02.54-.66.54-1.24.5l.34.55s-.25-.16-.31-.27c-.21-.05.06.14.25.34-.04,0-.07.02-.09.06-.08-.07-.16-.16-.2-.23.13.38.21.85.05,1.03-.06-.03-.13-.08-.22-.13.06.09.12.15.17.19-.06.04-.15.04-.25.01-.06-.04-.12-.07-.16-.09l-.06-.12c-.06,0-.06.03-.05.08-.27-.04.22.51.31.75-.02,0-.03,0-.07-.02l-.05-.11c-.08.02-.14.06-.2.1-.03-.03-.07-.06-.12-.09l.09.11s-.04.03-.06.05c-.17-.03-.31.04-.52-.23.08.25.24.33.4.36,0,0,0,0,0,0-.39-.09-.24.24-.57.22.04.02.08.05.12.09-.14.02-.31,0-.56-.11.32.37.12.36,0,.4-.1-.12-.18-.26-.23-.35.2.49-.5.04-.65.06l-.07-.22c.04.13,0,.17-.04.2l.4.32c-.11-.02-.15.02-.3-.13.05.08.13.16.21.24-.1-.03-.22-.05-.37-.06-.03,0-.01.06.03.13-.01,0-.01,0-.03,0-.06-.05-.09-.11-.11-.15-.32-.13-.18.05,0,.28h-.02s.11.11.11.11h0s.01,0,.02.01h-.01s.19.29.19.29c.01.04.01.08-.02.11-.25-.29-.56-.47-.53-.38.04-.04.19.09.33.26l-.22-.18.04.2c.06,0,.28.14.41.28,0,0,0,0,0,0,.01.05,0,.09-.02.11-.03,0-.04.01-.05.03-.18.03-.63-.21-.82-.39l.09.7c-.14-.15-.18-.25-.23-.36.15.38-.55-.53-.28.01.09.06.19.18.27.28,0,.03,0,.05-.02.06-.07-.03-.13-.04-.18-.04-.14-.06-.29-.13-.22.09,0,0,.01.01.02.02-.03.05-.04.11-.05.18l-.3-.35c-.31.14-.32.63-.58.88.24.06.77.63.76.77,0,0-.01-.01-.02-.02l-.5-.45c.2.27.25.19.38.35-.11-.08-.21-.13-.32-.21.08.07.08.11.07.16-.09-.1-.18-.2-.24-.29.06.05.12.1.17.13-.04-.04-.09-.08-.18-.14-.04-.05-.07-.1-.08-.13l.06.29c-.15-.14-.21-.25-.39-.44.26.36-.7-.3-.23.3l-.15-.14c-.12.12-.17.25-.22.38-.18-.17-.75-.33.24-.43-.15-.12-.28-.24-.4-.36.1-.14.12-.31.15-.47.07,0,.15.01.26,0-.06-.06-.14-.11-.21-.16.04-.11.11-.22.25-.31-.17.06-.74-.01-.83-.08.19-.1-.66-.26.21-.25l-.02.03c.85-.07.63-.27.65-.42h-.62c0-.09,0-.16,0-.23.17-.13.14-.27.06-.4.04.02.03,0-.01-.02-.02-.03-.03-.05-.05-.08,0-.03.02-.07-.06-.08-.11-.15-.18-.28.03-.38.03,0,.05,0,.09,0-.01,0-.03-.01-.05-.02.08-.03.2-.06.36-.09-.28-.1-.28-.21-.56-.31.03,0,.07,0,.11.01-.02,0-.03,0-.05-.01h.55c.16-.26.23-.4.09-.73l.44.07c.04-.19-1.76-.24-1.79-.41l.91-.05c-.01-.33.78-.65-.04-.98.13,0,.4.01.43.07.02-.15.62-.59-.63-.54.81,0,.08-.34-.28-.51l.6.03c-.77-.15-.98-.15-1.19-.36.07-.04.36-.04.36,0,.17-.13-.58-.11-.28-.3l.38.07c.03-.09-.03-.13-.15-.16l.23-.06-.5-.04.08.07c-.07-.01-.16-.03-.25-.05-.14-.06-.06-.16.13-.24.44,0,.04.22.64.14-.03-.08-.1-.16-.19-.24.04,0,.07,0,.11,0-.04,0-.08,0-.13-.01-.06-.06-.14-.12-.21-.19.04,0,.09.02.11.02.41-.28-.7-.42-.11-.61.2,0,.3-.02.36-.03-.01.22-.05.4-.09.39.55,0,.65-.18,1.41-.04-.42-.14-1.32-.39-1.06-.57.05,0,.11-.02.19-.02l.06.02c.06-.04,0-.08-.09-.11.09-.06.16-.09.17-.15.46-.02.25-.21.27-.3-.61,0-.51-.11-1.01,0,.04-.01.07.02.1.08.02.01.03.03.06.04-.02,0-.04,0-.05,0,.02.06.03.14.04.22-.1-.02-.19-.05-.26-.07-.02-.04-.05-.08-.09-.12.03-.02.06-.03.12-.05-.06,0-.13-.02-.19-.02-.07-.07-.15-.13-.24-.21.52-.12.88-.26,1.27-.29-.31-.25-.25-.58-1.08-.76.03-.05.04-.1.02-.15.08,0,.15-.01.2-.02.11.05.1.1.26.12-.29-.15-.13-.45-.87-.5,0,0,0,0-.01-.01.35-.17.7.11.57-.15l.24.04c1.27-.53-2.03-.87-.4-1.46-.1.04-.15.06-.28.07.11-.1.16-.2.19-.3l.21-.13c-.12.05-.18.09-.21.13,0,0,0,0,0,0l.29-.22-.18.06s-.05,0-.08-.01c0-.17-.07-.35-.13-.53.04,0,.09,0,.15,0,.18-.06.38-.15.57-.13-.53-.11.41-.19-.35-.34.21,0,.02-.12.55-.09-.17-.15-.37.03-.63.02-.72-.22.87-.53-.11-.85,0,0-.01,0-.02,0h.22s-.53-.15-.53-.15c-.08-.03-.17-.06-.26-.09-.32-.24,1.27-.43.79-.72.09,0,.15.02.18.03,0-.01-.02-.03-.03-.04-.06,0-.11,0-.16,0-.04-.02-.1-.05-.17-.07l-.39.04s-.03,0-.04,0c.01-.03.01-.07,0-.11.23.02.51.05.7.09-.17-.11-.47-.21-.67-.32.04-.02.11-.03.22-.03-.04,0-.13-.02-.21-.03.29,0,.47.08.68.12-.14-.13-.31-.31-.73-.39l-.21-.11s.05-.03.08-.04c.28.03.59.04.92.01-.29-.04-.4-.06-.5-.08.4-.01.88.02.92-.2-.06-.06-.29-.15-.53-.22h.02s-.19-.11-.19-.11c-.11-.02-.29-.02-.41,0-.04,0-.07,0-.1,0-.02.05-.21.14-.55.14l-.18-.12c-1-.02-2.03-.11-2.73.18l.61.21-.49.07-.03-.17c-.46.1-.05.16.22.23-.26.02-.44.05-.54.09l.96.2c-.39.02-.78-.09-.99.04.44.09.88-.09,1.17.07-.45.1-.83.07-.44.18-.26.02-.42,0-.54-.05.31.1.13.27.66.32-.56.1.15.35-.8.34.23.03.74.18.78.27-1.14-.17-.07.35-1.28.31,1.02.13.45.46,1.02.69-.08-.01-.25-.04-.19-.06-.08.13-.39.16-.59.25.84.02,1.04.21,1.56.32-.81.16-.99-.09-1.77-.05.68,0,.68.27,1.25.22-.5.12-.24.1-.94.16,1.05.02.18.11.83.21-.52.17-.99.04-.67.23-.32.09-.7-.08-.7-.08-.02.19.78.09,1.23.13.23.23-.58.11-.99.18.21.14.94.25.91.36-.13,0-.18.03-.34,0,.63.15.03.45.82.63-.07.01-.14.02-.2.02.14-.01.28-.02.42-.02v.09c.2.02.32.06.41.11-.36.03-.34-.03-.41-.08v-.03s-.09,0-.13-.01c0,0,0,0,0,0-.05,0-.1-.01-.15-.02h.04s-.03,0-.05,0c.07.05.17.1.27.16h-.1c.02.11.3.23.39.36-.6,0-.19-.31-.81-.13l.28-.21c-1.15.16.08-.13-1.15.02-.21.28.37.31.16.58.41.06.6-.02,1.01.04.73.39-1.84.31-.86.59.38.06,1.01.09,1.05.19,0,0-.02,0-.02,0,0,0,.01,0,.02.01,0,.03-.03.06-.13.1l-.83-.07c-.08.27,1.19.15.63.43-.32-.05-.27-.21-.37-.17-.65.18.47.13.47.27l-.73.03c.12.28.64.6.78.91-.22-.02-.45-.07-.67,0,.37.4-.09.85-.52,1.23l.63.15s-.29.06-.41.03c-.18.11.14.06.42.06-.03.04-.03.07-.02.11-.11,0-.22,0-.3-.03.36.18.75.45.76.7-.07.02-.15.04-.25.06.11.02.19.02.25.01-.02.07-.08.13-.17.19-.07.02-.13.04-.18.05l-.13-.04s-.03.07,0,.1c-.22.17.54.2.77.32-.02,0-.04.02-.07.03l-.11-.04c-.04.07-.06.14-.07.22-.04,0-.09,0-.14.02h.14s0,.06,0,.08c-.14.1-.19.25-.53.2.23.12.41.06.54-.03,0,0,0,0,0,0-.34.21,0,.34-.24.56.04-.01.09-.02.15-.03-.08.11-.22.22-.48.32.49.04.34.17.29.29-.16-.02-.31-.06-.41-.08.49.21-.32.38-.41.5l-.21-.11c.12.06.12.12.12.17l.51-.06c-.09.06-.09.12-.3.12.09.02.2.02.31.02-.1.05-.19.12-.31.22-.02.03.03.05.12.07,0,0,0,.01-.02.02-.08,0-.14,0-.18-.03-.32.13-.09.16.2.19v.02s.14,0,.14,0h-.02s.02,0,.03,0h-.02s.35.09.35.09c.04.02.06.05.06.09-.38-.03-.72.06-.64.1,0-.06.2-.07.42-.05l-.28.03.17.12s.29-.1.48-.09c0,0,0,0,0,0,.05.03.06.06.06.09-.02.02-.02.04-.01.05-.1.15-.6.3-.85.3l.56.43c-.2,0-.3-.05-.41-.1.37.16-.77.01-.19.21.11-.02.26,0,.39,0,.03.02.04.04.03.06-.07.03-.12.06-.16.1-.14.06-.3.12-.09.22.01,0,.02,0,.03,0,.02.05.04.11.09.16l-.46-.03c-.12.32.22.67.21,1.03.21-.13,1-.1,1.08,0,0,0-.02,0-.03,0l-.67.04c.33.05.31-.04.52-.02-.13.02-.24.05-.38.07.1,0,.14.03.16.06-.13,0-.27-.02-.38-.04.08,0,.15-.02.22-.03-.05,0-.12,0-.22.03-.06-.01-.11-.02-.15-.03l.24.16c-.21,0-.32-.03-.59-.04.44.07-.7.28.05.38h-.21c0,.18.05.31.11.43-.25,0-.76.3-.14-.47-.19.02-.37.02-.54.02-.03-.17-.13-.3-.22-.44.05-.04.11-.1.19-.17-.08,0-.17.02-.27.03-.05-.11-.08-.23-.05-.4-.08.17-.53.51-.65.53.07-.2-.65.28-.03-.32v.04c.56-.65.27-.63.17-.76l-.45.43c-.06-.05-.11-.1-.15-.15.03-.21-.09-.29-.24-.33.04-.02.03-.02-.02,0-.03,0-.06-.01-.09-.02-.02-.03-.03-.06-.1-.02-.18-.03-.33-.08-.25-.3.02-.02.04-.03.07-.05-.01,0-.04.02-.05.03.03-.08.09-.19.2-.33-.27.13-.35.05-.62.18.03-.02.05-.04.08-.07-.02,0-.03.02-.05.03l.39-.39c-.08-.3-.12-.45-.46-.58l.36-.26c-.1-.16-1.41,1.08-1.56.98l.61-.68c-.24-.22.09-1.02-.72-.66.1-.09.29-.27.35-.26-.09-.13.02-.85-.83.07.57-.58-.18-.29-.56-.16l.44-.4c-.65.44-.8.58-1.09.59.02-.08.23-.29.25-.26.03-.21-.49.33-.41-.01l.32-.22c-.05-.08-.11-.07-.22,0l.12-.21-.39.32h.1c-.06.04-.13.08-.21.14-.14.06-.16-.07-.07-.26.31-.3.18.12.55-.35-.08-.03-.19-.04-.3-.04.02-.03.04-.05.07-.08-.03.03-.06.05-.1.08-.09,0-.18,0-.28.01.04-.03.07-.05.1-.06.09-.49-.79.2-.51-.36.14-.14.2-.22.23-.28.15.17.25.32.21.34.39-.39.33-.59.97-1.03-.4.19-1.21.66-1.15.35.03-.04.06-.09.12-.15l.06-.03c.01-.07-.05-.06-.14-.02.02-.1.05-.18.01-.22.31-.34.03-.32-.02-.4-.42.43-.44.28-.71.71.02-.04.06-.04.12-.01.02,0,.04,0,.07-.02-.01.01-.03.02-.04.03.05.03.12.07.19.13-.09.05-.17.1-.24.14-.04-.02-.09-.02-.15-.03,0-.03.02-.07.05-.12-.05.04-.1.08-.15.12-.09,0-.2.01-.32.02.28-.45.43-.81.7-1.1-.39.04-.58-.23-1.3.22-.01-.06-.05-.1-.1-.12.05-.06.1-.12.13-.16.11-.05.14,0,.27-.1-.31.09-.41-.23-.96.26,0,0-.01,0-.02,0,.13-.37.58-.41.3-.51l.2-.15c.52-1.27-2.04.82-1.31-.75-.04.1-.06.15-.15.25,0-.14-.03-.25-.08-.35l.06-.24c-.05.12-.06.19-.06.24,0,0,0,0,0,0l.05-.36-.09.17s-.04.03-.07.05c-.13-.12-.3-.2-.46-.28.03-.03.06-.06.1-.1.09-.17.16-.38.31-.49-.45.29.16-.43-.49,0,.14-.15-.07-.1.32-.45-.22.01-.23.28-.43.46-.67.35.24-.99-.68-.52,0,0-.01,0-.02,0l.15-.17-.47.28c-.08.04-.16.08-.25.12-.39.05.59-1.2.05-1.07.07-.06.12-.1.15-.1-.02,0-.03,0-.05,0-.04.04-.08.08-.12.11-.05.01-.1.03-.18.07l-.25.31s-.02.02-.03.03c-.01-.03-.04-.06-.08-.08.18-.14.39-.32.56-.43-.19.04-.48.18-.71.25.02-.04.05-.1.14-.18-.03.02-.11.08-.17.13.2-.21.39-.27.57-.39-.19.01-.44,0-.79.24l-.23.07s.02-.05.02-.08c.22-.18.45-.39.66-.64-.23.18-.33.24-.41.3.27-.29.64-.6.51-.8-.09,0-.31.1-.53.22h.01s-.21.04-.21.04c-.08.06-.21.18-.28.28-.04.03-.06.06-.08.09.03.05-.05.25-.29.49l-.21.04c-.72.69-1.51,1.35-1.8,2.06l.58-.29-.3.39-.14-.1c-.25.39.08.15.32,0-.17.19-.28.34-.32.44l.82-.53c-.26.29-.61.49-.67.73.38-.25.56-.69.87-.78-.25.39-.54.63-.18.44-.17.19-.3.29-.42.34.29-.15.28.1.7-.24-.33.47.35.14-.33.8.18-.14.65-.4.75-.36-.92.68.2.3-.69,1.13.81-.63.65,0,1.21-.24-.07.05-.2.15-.18.1.03.15-.16.39-.24.59.61-.58.88-.58,1.33-.87-.47.69-.77.63-1.28,1.22.48-.49.67-.29,1.04-.73-.27.44-.1.25-.55.78.76-.73.2-.05.73-.44-.25.49-.67.73-.31.64-.16.29-.55.44-.55.44.12.15.61-.49.97-.78.32,0-.34.49-.57.83.25-.05.84-.49.9-.39-.09.1-.11.15-.24.25.55-.34.34.3,1.03-.14-.04.06-.08.11-.12.16.09-.11.19-.21.28-.31l.07.06c.15-.12.26-.17.35-.2-.22.26-.25.21-.33.22l-.02-.02s-.07.05-.1.08c0,0,0,0,0,0-.04.03-.08.06-.12.1l.04-.02s-.02.02-.03.03c.09-.01.19-.05.3-.08l-.07.06c.1.07.38-.04.53-.02-.42.42-.35-.08-.67.48l.05-.35c-.7.93-.03-.15-.8.83.05.34.48-.05.52.3.33-.24.41-.44.74-.68.79-.24-1.08,1.52-.19,1.03.31-.23.77-.65.88-.61,0,0-.01.01-.01.02,0,0,.01,0,.02,0,.02.02.02.06-.02.16l-.63.53c.13.25.95-.73.75-.14-.26.19-.34.05-.38.14-.33.59.42-.24.52-.14l-.5.54c.28.12.88-.03,1.19.09-.17.14-.37.27-.47.48.54.02.54.66.5,1.24l.55-.34s-.16.25-.27.31c-.05.21.14-.06.34-.25,0,.04.03.07.06.09-.07.08-.16.16-.23.2.38-.13.85-.21,1.03-.05-.03.06-.08.13-.13.22.09-.06.15-.12.19-.17.04.06.04.15.01.25-.04.06-.07.12-.09.16l-.12.06c0,.06.03.06.08.05-.04.27.51-.22.75-.31,0,.02,0,.03-.02.07l-.11.05c.02.08.06.14.1.2-.03.03-.06.07-.09.12l.11-.09s.03.04.05.06c-.03.17.04.31-.23.52.25-.08.33-.24.36-.4,0,0,0,0,0,0-.09.39.24.24.22.57.02-.04.05-.08.09-.12.02.14,0,.31-.11.56.37-.32.36-.12.4,0-.12.1-.26.18-.35.23.49-.2.04.5.06.65l-.22.07c.13-.04.17,0,.2.04l.32-.4c-.02.11.02.15-.13.3.08-.05.16-.13.24-.21-.03.1-.05.22-.06.37,0,.03.06.01.13-.03,0,.01,0,.01,0,.03-.05.06-.11.09-.15.11-.13.32.05.18.28,0v.02s.11-.11.11-.11h-.01s.02,0,.03-.01h-.01s.3-.17.3-.17c.04-.01.08-.01.11.02-.29.25-.47.56-.38.53-.04-.04.09-.19.26-.33l-.18.22.2-.04c0-.06.14-.28.28-.41,0,0,0,0,0,0,.05-.01.09,0,.11.02,0,.03.01.04.03.05.03.18-.21.63-.39.82l.7-.09c-.15.14-.25.18-.36.23.38-.15-.53.55.01.28.06-.09.18-.19.28-.27.03,0,.05,0,.06.02-.03.07-.04.13-.04.18-.06.14-.13.29.09.22,0,0,.01-.01.02-.02.05.03.11.04.18.05l-.35.3c.14.31.63.32.88.58.06-.24.63-.77.77-.76,0,0-.01.01-.02.02l-.45.5c.27-.2.19-.25.35-.38-.08.11-.13.21-.21.32.07-.08.11-.08.16-.07-.1.09-.2.18-.29.24.05-.06.1-.12.13-.17-.04.04-.08.09-.14.18-.05.04-.1.07-.13.08l.29-.06c-.14.15-.25.21-.44.39.36-.26-.3.7.3.23l-.14.15c.12.12.25.17.38.22-.17.18-.33.75-.43-.24-.12.15-.24.28-.36.4-.14-.1-.31-.12-.47-.15,0-.07.01-.15,0-.26-.06.06-.11.14-.16.21-.11-.04-.22-.11-.31-.25.06.17-.01.74-.08.83-.1-.19-.26.66-.25-.21l.03.02c-.07-.85-.27-.63-.42-.65v.62c-.09,0-.16,0-.23,0-.13-.17-.27-.14-.4-.06.02-.04,0-.03-.02,0-.03.02-.05.03-.08.05-.03,0-.07-.02-.08.06-.15.11-.28.18-.38-.03,0-.03,0-.05,0-.09,0,.01-.01.03-.02.05-.03-.08-.06-.2-.09-.36-.1.28-.21.28-.31.56,0-.03,0-.06.01-.11,0,.02,0,.03-.01.05v-.55c-.26-.16-.4-.23-.73-.09l.07-.44c-.19-.04-.24,1.76-.41,1.79l-.05-.91c-.33.01-.65-.78-.98.04,0-.13.01-.4.07-.43-.15-.02-.59-.62-.54.63,0-.81-.34-.08-.51.28l.03-.6c-.15.77-.15.98-.36,1.19-.04-.07-.04-.36,0-.36-.13-.17-.11.58-.3.28l.07-.38c-.09-.03-.13.03-.16.15l-.06-.23-.04.5.07-.08c-.01.07-.03.16-.05.25-.06.14-.16.06-.24-.13,0-.44.22-.04.14-.64-.08.03-.16.1-.24.19,0-.04,0-.07,0-.11,0,.04,0,.08-.01.13-.06.06-.12.14-.19.21,0-.04.02-.09.02-.11-.28-.41-.42.7-.61.11,0-.2-.02-.3-.03-.36.22.01.4.05.39.09,0-.55-.18-.65-.04-1.41-.14.42-.39,1.32-.57,1.06,0-.05-.02-.11-.02-.19l.02-.06c-.04-.06-.08,0-.11.09-.06-.09-.09-.16-.15-.17-.02-.46-.21-.25-.3-.27,0,.61-.11.51,0,1.01-.01-.04.02-.07.08-.1.01-.02.03-.03.04-.06,0,.02,0,.04,0,.05.06-.02.14-.03.22-.04-.02.1-.05.19-.07.26-.04.02-.08.05-.12.09-.02-.03-.03-.06-.05-.12,0,.06-.02.13-.02.19-.07.07-.13.15-.21.24-.12-.52-.26-.88-.29-1.27-.25.31-.58.25-.76,1.08-.05-.03-.1-.04-.15-.02,0-.08-.01-.15-.02-.2.05-.11.1-.1.12-.26-.15.29-.45.13-.5.87,0,0,0,0-.01.01-.17-.35.11-.7-.15-.57l.04-.24c-.53-1.27-.87,2.03-1.46.4.04.1.06.15.07.28-.1-.11-.2-.16-.3-.19l-.13-.21c.05.12.09.18.13.21,0,0,0,0,0,0l-.22-.29.06.18s0,.05-.01.08c-.17,0-.35.07-.53.13,0-.04,0-.09,0-.15-.06-.18-.15-.38-.13-.57-.11.53-.19-.41-.34.35,0-.21-.12-.02-.09-.55-.15.17.03.37.02.63-.22.72-.53-.87-.85.11,0,0,0,.01,0,.02v-.22s-.15.53-.15.53c-.03.08-.06.17-.09.26-.24.32-.43-1.27-.72-.79,0-.09.02-.15.03-.18-.01,0-.03.02-.04.03,0,.06,0,.11,0,.16-.02.04-.05.1-.07.17l.04.39s0,.03,0,.04c-.03-.01-.07-.01-.11,0,.02-.23.05-.51.09-.7-.11.17-.21.47-.32.68-.02-.04-.03-.11-.03-.22,0,.04-.02.13-.03.21,0-.29.08-.47.12-.68-.13.14-.31.31-.39.73l-.11.21s-.03-.05-.04-.08c.03-.28.04-.59.01-.92-.04.29-.06.4-.08.5-.01-.4.02-.88-.2-.92-.06.06-.15.29-.22.53v-.02s-.11.19-.11.19c-.02.11-.02.29,0,.41,0,.04,0,.07,0,.1.05.02.14.21.14.55l-.12.18c-.02,1-.11,2.03.18,2.73l.21-.61.07.49-.17.03c.1.46.16.05.23-.22.02.26.05.44.09.54l.2-.96c.02.39-.09.78.04.99.09-.44-.09-.88.07-1.17.1.45.07.83.18.44.02.26,0,.42-.05.54.1-.31.27-.13.32-.66.1.56.35-.15.34.8.03-.23.18-.74.27-.78-.17,1.14.35.07.31,1.28.13-1.02.46-.45.69-1.02-.01.08-.04.25-.06.19.13.08.16.39.25.59.02-.84.21-1.04.32-1.56.16.81-.09.99-.05,1.77,0-.68.27-.68.22-1.25.12.5.1.24.16.94.02-1.05.11-.18.21-.83.17.52.04.99.23.67.09.32-.08.7-.08.7.19.02.09-.78.13-1.23.23-.23.11.59.18.99.14-.21.25-.94.36-.91,0,.13.03.18,0,.34.15-.63.45-.03.63-.82.01.07.02.14.02.2-.01-.14-.02-.28-.02-.42h.09c.02-.2.06-.32.11-.41.03.36-.03.34-.08.41h-.03s0,.09-.01.13c0,0,0,0,0,0,0,.05-.01.1-.02.16v-.04s0,.03,0,.05c.05-.07.1-.17.16-.27v.1c.11-.02.23-.3.36-.39,0,.6-.31.19-.13.81l-.21-.28c.16,1.15-.13-.08.02,1.15.28.21.31-.37.58-.16.06-.41-.02-.6.04-1.01.39-.73.31,1.84.59.86.06-.38.09-1.01.19-1.05,0,0,0,.02,0,.02,0,0,0-.01.01-.02.03,0,.06.03.1.13l-.07.83c.27.08.15-1.19.43-.63-.05.32-.21.27-.17.37.18.65.13-.47.27-.47l.03.73c.28-.12.6-.64.91-.78-.02.22-.07.45,0,.67.4-.37.85.09,1.23.52l.15-.63s.06.29.03.41c.11.18.06-.14.06-.42.04.03.07.03.11.02,0,.11,0,.22-.03.3.18-.36.45-.75.7-.76.02.07.04.15.06.25.02-.11.02-.19.01-.25.07.02.13.08.19.17.02.07.04.13.05.18l-.04.13s.07.03.1,0c.17.22.2-.54.32-.77,0,.02.02.04.03.07l-.04.11c.07.04.14.06.22.07,0,.04,0,.09.02.14v-.14s.06,0,.08,0c.1.14.25.19.2.53.12-.23.06-.41-.03-.54,0,0,0,0,0,0,.21.34.34,0,.56.24-.01-.04-.02-.09-.03-.15.11.08.22.22.32.48.04-.49.17-.34.29-.29-.02.16-.06.31-.08.41.21-.49.38.32.5.41l-.11.21c.06-.12.12-.12.17-.12l-.06-.51c.06.09.12.09.12.3.02-.09.02-.2.02-.31.05.1.12.19.22.31.03.02.05-.03.07-.12,0,0,.01,0,.02.02,0,.08,0,.14-.03.18.13.32.16.09.19-.2h.02s0-.14,0-.14v.02s0-.02,0-.03v.02s.09-.35.09-.35c.02-.04.05-.06.09-.06-.03.38.06.72.1.64-.06,0-.07-.2-.05-.42l.03.28.12-.17s-.1-.29-.09-.48c0,0,0,0,0,0,.03-.05.06-.06.09-.06.02.02.04.02.05.01.15.1.3.6.3.85l.43-.56c0,.2-.05.3-.1.41.16-.37.01.77.21.19-.02-.11,0-.26,0-.39.02-.03.04-.04.06-.03.03.07.06.12.1.16.06.14.12.3.22.09,0-.01,0-.02,0-.03.05-.02.11-.04.16-.09l-.03.46c.32.12.67-.22,1.03-.21-.13-.21-.1-1,0-1.08,0,0,0,.02,0,.03l.04.67c.05-.33-.04-.31-.02-.52.02.13.05.24.07.38,0-.1.03-.14.06-.16,0,.13-.02.27-.04.38,0-.08-.02-.15-.03-.22,0,.05,0,.12.03.22-.01.06-.02.11-.03.15l.16-.24c0,.21-.03.32-.04.59.07-.44.28.7.38-.05v.21c.18,0,.31-.05.43-.11,0,.25.3.76-.47.14.02.19.02.37.02.54-.17.03-.3.13-.44.22-.04-.05-.1-.11-.17-.19,0,.08.02.17.03.27-.11.05-.23.08-.4.05.17.08.51.53.53.65-.2-.07.28.65-.32.03h.04c-.65-.56-.63-.27-.76-.17l.43.45c-.05.06-.1.11-.15.15-.21-.03-.29.09-.33.24-.02-.04-.02-.03,0,.02,0,.03-.01.06-.02.09-.03.02-.06.03-.02.1-.03.18-.08.33-.3.25-.02-.02-.03-.04-.05-.07,0,.01.02.04.03.05-.08-.03-.19-.09-.33-.2.13.27.05.35.18.62-.02-.03-.04-.05-.07-.08,0,.02.02.03.03.05l-.39-.39c-.3.08-.45.12-.58.46l-.26-.36c-.16.1,1.08,1.41.98,1.56l-.68-.61c-.22.24-1.02-.09-.66.72-.09-.1-.27-.29-.26-.35-.13.09-.85-.02.07.83-.58-.57-.29.18-.16.56l-.4-.44c.44.65.58.8.59,1.09-.08-.02-.29-.23-.26-.25-.21-.03.33.49-.01.41l-.22-.32c-.08.05-.07.11,0,.22l-.21-.12.32.39v-.1c.04.06.08.13.14.21.06.14-.07.16-.26.07-.3-.31.12-.18-.35-.55-.03.08-.04.19-.04.3-.03-.02-.05-.04-.08-.07.03.03.05.06.08.1,0,.09,0,.18.01.28-.03-.04-.05-.07-.06-.1-.49-.09.2.79-.36.51-.14-.14-.22-.2-.28-.23.17-.15.32-.25.34-.21-.39-.39-.59-.33-1.03-.97.19.4.66,1.21.35,1.15-.04-.03-.09-.06-.15-.12l-.03-.06c-.07-.01-.06.05-.02.14-.1-.02-.18-.05-.22-.01-.34-.31-.32-.03-.4.02.43.42.28.44.71.71-.04-.02-.04-.06-.01-.12,0-.02,0-.04-.02-.07.01.01.02.03.03.04.03-.05.07-.12.13-.19.05.09.1.17.14.24-.02.04-.02.09-.03.15-.03,0-.07-.02-.12-.05.04.05.08.1.12.15,0,.09.01.2.02.32-.45-.28-.81-.43-1.1-.7.04.39-.23.58.22,1.3-.06.01-.1.05-.12.1-.06-.05-.12-.1-.16-.13-.05-.11,0-.14-.1-.27.09.31-.23.41.26.96,0,0,0,.01,0,.02-.37-.13-.41-.58-.51-.3l-.15-.2c-1.27-.52.82,2.04-.75,1.31.1.04.15.06.25.15-.14,0-.25.03-.35.08l-.24-.06c.12.05.19.06.24.06,0,0,0,0,0,0l-.36-.05.17.09s.03.04.05.07c-.12.13-.2.3-.28.46-.03-.03-.06-.06-.1-.1-.17-.09-.38-.16-.49-.31.29.45-.43-.16,0,.49-.15-.14-.1.07-.45-.32.01.22.28.23.46.43.35.67-.99-.24-.52.68,0,0,0,.01,0,.02l-.17-.15.28.47c.04.08.08.16.12.25.05.39-1.2-.59-1.07-.05-.06-.07-.1-.12-.1-.15,0,.02,0,.03,0,.05.04.04.08.08.11.11.01.05.04.1.07.18l.31.25s.02.02.02.03c-.03.01-.06.04-.08.08-.14-.18-.32-.39-.43-.56.04.19.18.48.25.71-.04-.02-.1-.05-.18-.14.02.03.08.11.13.17-.21-.2-.27-.39-.39-.57.01.19,0,.44.24.79l.07.23s-.05-.02-.08-.02c-.18-.22-.39-.45-.64-.66.18.23.24.33.3.41-.29-.27-.6-.64-.8-.51,0,.09.1.31.22.53h-.01s.05.2.05.2c.06.08.18.21.28.28.03.04.06.06.09.08.05-.03.25.05.49.29l.04.21c.69.72,1.35,1.51,2.06,1.8l-.29-.58.39.3-.1.14c.39.25.15-.08,0-.32.19.17.34.28.44.32l-.53-.82c.29.26.49.61.73.67-.25-.38-.69-.56-.78-.87.39.25.63.54.44.18.19.17.29.3.34.42-.15-.29.1-.28-.24-.7.47.33.14-.35.8.33-.14-.18-.4-.65-.36-.75.68.92.3-.2,1.13.69-.63-.81,0-.65-.24-1.21.05.07.15.2.1.18.15-.03.39.16.59.24-.58-.61-.58-.88-.87-1.33.69.47.63.77,1.22,1.28-.49-.48-.29-.67-.73-1.04.44.27.25.1.78.55-.73-.76-.05-.2-.44-.73.49.25.73.67.64.31.29.16.44.55.44.55.15-.12-.49-.61-.78-.97,0-.32.49.34.83.57-.05-.25-.49-.84-.39-.9.1.09.15.11.25.24-.34-.55.3-.34-.14-1.03.06.04.11.08.16.12-.11-.09-.21-.19-.31-.28l.06-.07c-.12-.15-.17-.26-.2-.35.26.22.21.25.22.33l-.02.02s.05.07.08.1c0,0,0,0,0,0,.03.04.06.08.1.12l-.02-.04s.02.02.03.03c-.01-.09-.05-.19-.08-.3l.06.07c.07-.1-.04-.38-.02-.53.42.42-.08.35.48.67l-.35-.05c.93.7-.15.03.83.8.34-.05-.05-.48.3-.52-.24-.33-.44-.41-.68-.74-.24-.79,1.52,1.08,1.03.19-.23-.31-.65-.77-.61-.88,0,0,.01.01.02.01,0,0,0-.01,0-.02.02-.02.06-.02.16.02l.53.63c.25-.13-.73-.95-.14-.75.19.26.05.34.14.38.59.33-.24-.42-.14-.52l.54.5c.12-.28-.03-.88.09-1.19.14.17.27.37.48.47.02-.54.66-.54,1.24-.5l-.34-.55s.25.16.31.27c.21.05-.06-.14-.25-.34.04,0,.07-.03.09-.06.08.07.16.16.2.23-.13-.38-.21-.85-.05-1.03.06.03.13.08.22.13-.06-.09-.12-.15-.17-.19.06-.04.15-.04.25-.01.06.04.12.07.16.09l.06.12c.06,0,.06-.03.05-.08.27.04-.22-.51-.31-.75.02,0,.03,0,.07.02l.05.11c.08-.02.14-.06.2-.1.03.03.07.06.12.09l-.09-.11s.04-.03.06-.05c.17.03.31-.04.52.23-.08-.25-.24-.33-.4-.36,0,0,0,0,0,0,.39.09.24-.24.57-.22-.04-.02-.08-.05-.12-.09.14-.02.31,0,.56.11-.32-.37-.12-.36,0-.4.1.12.18.26.23.35-.2-.49.5-.04.65-.06l.07.22c-.04-.13,0-.17.04-.2l-.4-.32c.11.02.15-.02.3.13-.05-.08-.13-.16-.21-.24.1.03.22.05.37.06.03,0,.01-.06-.03-.13.01,0,.01,0,.03,0,.06.05.09.11.11.15.32.13.18-.05,0-.28h.02s-.11-.11-.11-.11h0s-.01,0-.02-.01h.01s-.18-.29-.18-.29c-.01-.04-.01-.08.02-.11.25.29.56.47.53.38-.04.04-.19-.09-.33-.26l.22.18-.04-.2c-.06,0-.28-.14-.41-.28,0,0,0,0,0,0-.01-.05,0-.09.02-.11.03,0,.04-.01.05-.03.18-.03.63.21.82.39l-.09-.7c.14.15.18.25.23.36-.15-.38.55.53.28-.01-.09-.06-.19-.18-.27-.28,0-.03,0-.05.02-.06.07.03.13.04.18.04.14.06.29.13.22-.09,0,0-.01-.01-.02-.02.03-.05.04-.11.05-.18l.3.35c.31-.14.32-.63.58-.88-.24-.06-.77-.63-.76-.77,0,0,.01.01.02.02l.5.45c-.2-.27-.25-.19-.38-.35.11.08.21.13.32.21-.08-.07-.08-.11-.07-.16.09.1.18.2.24.29-.06-.05-.12-.1-.17-.13.04.04.09.08.18.14.04.05.07.1.08.13l-.06-.29c.15.14.21.25.39.44-.26-.36.7.3.23-.3l.15.14c.12-.12.17-.25.22-.38.18.17.75.33-.24.43.15.12.28.24.4.36-.1.14-.12.31-.15.47-.07,0-.15-.01-.26,0,.06.06.14.11.21.16-.04.11-.11.22-.25.31.17-.06.74.01.83.08-.19.1.66.26-.21.25l.02-.03c-.85.07-.63.27-.65.42h.62c0,.09,0,.16,0,.23-.17.13-.14.27-.06.4-.04-.02-.03,0,.01.02.02.03.03.05.05.08,0,.03-.02.07.06.08.11.15.18.28-.03.38-.03,0-.05,0-.09,0,.01,0,.03.01.05.02-.08.03-.2.06-.36.09.28.1.28.22.56.31-.03,0-.06,0-.11-.01.02,0,.03,0,.05.01h-.55c-.16.26-.23.4-.09.73l-.44-.07c-.04.19,1.76.24,1.79.41l-.91.05c.01.33-.78.65.04.98-.13,0-.4-.01-.43-.07-.02.15-.62.59.63.54-.81,0-.08.34.28.51l-.6-.03c.77.15.98.15,1.19.36-.07.04-.36.04-.36,0-.17.13.58.11.28.3l-.38-.07c-.03.09.03.13.15.16l-.23.06.5.04-.08-.07c.07.01.16.03.25.05.14.06.06.16-.13.24-.44,0-.04-.22-.64-.14.03.08.1.16.19.24-.04,0-.07,0-.11,0,.04,0,.08,0,.13.01.06.06.14.12.21.19-.04,0-.09-.02-.11-.02-.41.28.7.42.11.61-.2,0-.3.02-.36.03.01-.22.05-.4.09-.39-.55,0-.65.18-1.41.04.42.14,1.32.39,1.06.57-.05,0-.11.02-.19.02l-.06-.02c-.06.04,0,.08.09.11-.09.06-.16.09-.17.15-.46.02-.25.21-.27.3.61,0,.51.11,1.01,0-.04.01-.07-.02-.1-.08-.02-.01-.03-.03-.06-.04.02,0,.04,0,.05,0-.02-.06-.03-.14-.04-.22.1.02.19.05.26.07.02.04.05.08.09.12-.03.02-.06.03-.12.05.06,0,.13.02.19.02.07.07.15.13.24.21-.52.12-.88.26-1.27.29.31.25.25.58,1.08.76-.03.05-.04.1-.02.15-.08,0-.15.01-.2.02-.11-.05-.1-.1-.26-.12.29.15.13.45.87.5,0,0,0,0,.01.01-.35.17-.7-.11-.57.15l-.24-.04c-1.27.53,2.03.87.4,1.46.1-.04.15-.06.28-.07-.11.1-.16.2-.19.3l-.21.13c.12-.05.18-.09.21-.13,0,0,0,0,0,0l-.29.22.18-.06s.05,0,.08.01c0,.17.07.35.13.53-.04,0-.09,0-.15,0-.18.06-.38.15-.57.13.53.11-.41.19.35.34-.21,0-.02.12-.55.09.17.15.37-.03.63-.02.72.22-.87.53.11.85,0,0,.01,0,.02,0h-.22s.53.15.53.15c.08.03.17.06.26.09.32.24-1.27.43-.79.72-.09,0-.15-.02-.18-.03,0,.01.02.03.03.04.06,0,.11,0,.16,0,.04.02.1.05.17.07l.39-.04s.03,0,.04,0c-.01.03-.01.07,0,.11-.23-.02-.51-.05-.7-.09.17.11.47.21.68.32-.04.02-.11.03-.22.03.04,0,.13.02.21.03-.29,0-.47-.08-.68-.12.14.13.31.31.73.39l.21.11s-.05.03-.08.04c-.28-.03-.59-.04-.92-.01.29.04.4.06.5.08-.4.01-.88-.02-.92.2.06.06.29.15.53.22h-.02s.19.11.19.11c.11.02.29.02.41,0,.04,0,.07,0,.1,0,.02-.05.21-.14.55-.14l.18.12c1,.02,2.03.11,2.73-.18l-.61-.21.49-.07.03.17c.46-.1.05-.16-.22-.23.26-.02.44-.05.54-.09l-.96-.2c.39-.02.78.09.99-.04-.44-.09-.88.09-1.17-.07.45-.1.83-.07.44-.18.26-.02.42,0,.54.05-.31-.1-.13-.27-.66-.32.56-.1-.15-.35.8-.34-.23-.03-.74-.18-.78-.27,1.14.17.07-.35,1.28-.31-1.02-.13-.45-.46-1.02-.69.08.01.25.04.19.06.08-.13.39-.16.59-.25-.84-.02-1.04-.21-1.56-.32.81-.16.99.09,1.77.05-.68,0-.68-.27-1.25-.22.5-.12.24-.1.94-.16-1.05-.02-.18-.11-.83-.21.52-.17.99-.04.67-.23.32-.09.7.08.7.08.02-.19-.78-.09-1.23-.13-.23-.23.59-.11.99-.18-.21-.14-.94-.25-.91-.36.13,0,.18-.03.34,0-.63-.15-.03-.45-.82-.63.07-.01.14-.02.2-.02-.14.01-.28.02-.42.02v-.09c-.2-.02-.32-.06-.41-.11.36-.03.34.03.41.08v.03s.09,0,.13.01c0,0,0,0,0,0,.05,0,.1.01.16.02h-.04s.03,0,.05,0c-.07-.05-.17-.1-.27-.16h.1c-.02-.11-.3-.23-.39-.36.6,0,.19.31.81.13l-.28.21c1.15-.16-.08.13,1.15-.02.21-.28-.37-.31-.16-.58-.41-.06-.6.02-1.01-.04-.73-.39,1.84-.31.86-.59-.38-.06-1.01-.09-1.05-.19,0,0,.02,0,.02,0,0,0-.01,0-.02-.01,0-.03.03-.06.13-.1l.83.07c.08-.27-1.19-.15-.63-.43.32.05.27.21.37.17.65-.18-.47-.13-.47-.27l.73-.03c-.12-.28-.64-.6-.78-.91.22.02.45.07.67,0-.37-.4.09-.85.52-1.23l-.63-.15s.29-.06.41-.03c.18-.11-.14-.06-.42-.06.03-.04.03-.07.02-.11.11,0,.22,0,.3.03-.36-.18-.75-.45-.76-.7.07-.02.15-.04.25-.06-.11-.02-.19-.02-.25-.01.02-.07.08-.13.17-.19.07-.02.13-.04.18-.05l.13.04s.03-.07,0-.1c.22-.17-.54-.2-.77-.32.02,0,.04-.02.07-.03l.11.04c.04-.07.06-.14.07-.22.04,0,.09,0,.14-.02h-.14s0-.06,0-.08c.14-.1.19-.25.53-.2-.23-.12-.41-.06-.54.03,0,0,0,0,0,0,.34-.21,0-.34.24-.56-.04.01-.09.02-.15.03.08-.11.22-.22.48-.32-.49-.04-.34-.17-.29-.29.16.02.31.06.41.08-.49-.21.32-.38.41-.5l.21.11c-.12-.06-.12-.12-.12-.17l-.51.06c.09-.06.09-.12.3-.12-.09-.02-.2-.02-.31-.02.1-.05.19-.12.31-.22.02-.03-.03-.05-.12-.07,0,0,0-.01.02-.02.08,0,.14,0,.18.03.32-.13.09-.16-.2-.19v-.02s-.14,0-.14,0h.02s-.02,0-.03,0h.02s-.35-.09-.35-.09c-.04-.02-.06-.05-.06-.08.38.03.72-.06.64-.1,0,.06-.2.07-.42.05l.28-.03-.17-.12s-.29.1-.48.09c0,0,0,0,0,0-.05-.03-.06-.06-.06-.09.02-.02.02-.04.01-.05.1-.15.6-.3.85-.3l-.56-.43c.2,0,.3.05.41.1-.37-.16.77-.01.19-.21-.11.02-.26,0-.39,0-.03-.02-.04-.04-.03-.06.07-.03.12-.06.16-.1.14-.06.3-.12.09-.22-.01,0-.02,0-.03,0-.02-.05-.04-.11-.09-.16l.46.03c.12-.32-.22-.67-.21-1.03-.21.13-1,.1-1.08,0,0,0,.02,0,.03,0l.67-.04c-.33-.05-.31.04-.52.02.13-.02.24-.05.38-.07-.1,0-.14-.03-.16-.06.13,0,.27.02.38.04-.08,0-.15.02-.22.03.05,0,.12,0,.22-.03.06.01.12.02.15.03l-.24-.16c.21,0,.32.03.59.04-.44-.07.7-.28-.05-.38h.21c0-.18-.05-.31-.11-.43.25,0,.76-.3.14.47.19-.02.37-.02.54-.02.03.17.13.3.22.44-.05.04-.11.1-.19.17.08,0,.17-.02.27-.03.05.11.08.23.05.4.08-.17.53-.51.65-.53-.07.2.65-.28.03.32v-.04c-.56.65-.27.63-.17.76l.45-.43c.06.05.11.1.15.15-.03.21.09.29.24.33-.04.02-.03.02.02,0,.03,0,.06.01.09.02.02.03.03.06.1.02.18.03.33.08.25.3-.02.02-.04.03-.07.05.01,0,.04-.02.05-.03-.03.08-.09.19-.2.33.27-.13.35-.05.62-.18-.03.02-.05.04-.08.07.02,0,.03-.02.05-.03l-.39.39c.08.3.12.45.46.58l-.36.26c.1.16,1.41-1.08,1.56-.98l-.61.68c.24.22-.09,1.02.72.66-.1.09-.29.27-.35.26.09.13-.02.85.83-.07-.57.58.18.29.56.16l-.44.4c.65-.44.8-.58,1.09-.59-.02.08-.23.29-.25.26-.03.21.49-.33.41.01l-.32.22c.05.08.11.07.22,0l-.12.21.39-.33h-.1c.06-.04.13-.08.21-.14.14-.06.16.07.07.26-.31.3-.18-.12-.55.35.08.03.19.04.3.04-.02.03-.04.05-.07.08.03-.03.06-.05.1-.08.09,0,.18,0,.28-.01-.04.03-.07.05-.1.06-.09.49.79-.2.51.36-.14.14-.2.22-.23.28-.15-.17-.25-.32-.21-.34-.39.39-.33.59-.97,1.03.4-.19,1.21-.66,1.15-.35-.03.04-.06.09-.12.15l-.06.03c-.01.07.05.06.14.02-.02.1-.05.18-.01.22-.31.34-.03.32.02.4.42-.43.44-.28.71-.71-.02.04-.06.04-.12.01-.02,0-.04,0-.07.02.01-.01.03-.02.04-.03-.05-.03-.12-.07-.19-.13.09-.05.17-.1.24-.14.04.02.09.02.15.03,0,.03-.02.07-.05.12.05-.04.1-.08.15-.12.09,0,.2-.01.32-.02-.28.45-.43.81-.7,1.1.39-.04.58.23,1.3-.22.01.06.05.1.1.12-.05.06-.1.12-.13.16-.11.05-.14,0-.27.1.31-.09.41.23.96-.26,0,0,.01,0,.02,0-.13.37-.58.41-.3.51l-.2.15c-.52,1.27,2.04-.82,1.31.75.04-.1.06-.15.15-.25,0,.14.03.25.08.35l-.06.24c.05-.12.06-.19.06-.24,0,0,0,0,0,0l-.05.36.09-.17s.04-.03.07-.05c.13.12.3.2.46.28-.03.03-.06.06-.1.1-.09.17-.16.38-.31.49.45-.29-.16.43.49,0-.14.15.07.1-.32.45.22-.01.23-.28.43-.46.67-.35-.24.99.68.52,0,0,.01,0,.02,0l-.15.17.47-.28c.08-.04.16-.08.25-.12.39-.05-.59,1.2-.05,1.07-.07.06-.12.1-.15.1.02,0,.03,0,.05,0,.04-.04.08-.08.12-.11.05-.01.1-.03.18-.07l.25-.31s.02-.02.03-.02c.01.03.04.06.08.08-.18.14-.39.32-.56.43.19-.04.48-.18.71-.25-.02.04-.05.1-.14.18.03-.02.11-.08.17-.13-.2.21-.39.27-.57.39.19-.01.44,0,.79-.24l.23-.07s-.02.05-.02.08c-.22.18-.45.39-.66.64.23-.18.33-.24.41-.3-.27.29-.64.6-.51.8.09,0,.31-.1.53-.22h-.01s.21-.04.21-.04c.08-.06.21-.18.28-.28.04-.03.06-.06.08-.09-.03-.05.05-.25.29-.49l.21-.04c.72-.69,1.51-1.35,1.8-2.06l-.58.29.3-.39.14.1c.25-.39-.08-.15-.32,0,.17-.19.28-.34.32-.44l-.82.53c.26-.29.61-.49.67-.73-.38.25-.56.69-.87.78.25-.39.54-.63.18-.44.17-.19.3-.29.42-.34-.29.15-.28-.1-.7.24.33-.47-.35-.14.33-.8-.18.14-.65.4-.75.36.92-.68-.2-.3.69-1.12-.81.63-.65,0-1.21.24.07-.05.2-.15.18-.1-.03-.15.16-.39.24-.59-.61.58-.88.58-1.33.87.47-.69.77-.63,1.28-1.22-.48.49-.67.29-1.04.73.27-.44.1-.25.55-.78-.76.73-.2.05-.73.44.25-.49.67-.73.31-.64.16-.29.55-.44.55-.44-.12-.15-.61.49-.97.78-.32,0,.34-.49.57-.83-.25.05-.84.49-.9.39.09-.1.11-.15.24-.25-.55.34-.34-.3-1.03.14.04-.06.08-.11.12-.16-.09.11-.19.21-.28.31l-.07-.06c-.15.12-.26.17-.35.2.22-.26.25-.21.33-.22l.02.02s.07-.05.1-.08c0,0,0,0,0,0,.04-.03.08-.06.12-.1l-.04.02s.02-.02.03-.03c-.09.01-.19.05-.3.08l.07-.06c-.1-.07-.38.04-.53.02.42-.42.35.08.67-.48l-.05.35c.7-.93.03.15.8-.83-.05-.34-.48.05-.52-.3-.33.24-.41.44-.74.68-.79.24,1.08-1.52.19-1.03-.31.23-.77.65-.88.61,0,0,.01-.01.01-.02,0,0-.01,0-.02,0-.02-.02-.02-.06.02-.16l.63-.53c-.13-.25-.95.73-.75.14.26-.19.34-.05.38-.14.33-.59-.42.24-.52.14l.5-.54c-.28-.12-.88.03-1.19-.09.17-.14.37-.27.47-.48-.54-.02-.54-.66-.5-1.24l-.55.34s.16-.25.27-.31c.05-.21-.14.06-.34.25,0-.04-.03-.07-.06-.09.07-.08.16-.16.23-.2-.38.13-.85.21-1.03.05.03-.06.08-.13.13-.22-.09.06-.15.12-.19.17-.04-.06-.04-.15-.01-.25.04-.06.07-.12.09-.16l.12-.06c0-.06-.03-.06-.08-.05.04-.27-.51.22-.75.31,0-.02,0-.03.02-.07l.11-.05c-.02-.08-.06-.14-.1-.2.03-.03.06-.07.09-.12l-.11.09s-.03-.04-.05-.06c.03-.17-.04-.31.23-.52-.25.08-.33.24-.36.4,0,0,0,0,0,0,.09-.39-.24-.24-.22-.57-.02.04-.05.08-.09.12-.02-.14,0-.31.11-.56-.37.32-.36.12-.4,0,.12-.1.26-.18.35-.23-.49.2-.04-.5-.06-.65l.22-.07c-.13.04-.17,0-.2-.04l-.32.4c.02-.11-.02-.15.13-.3-.08.05-.16.13-.24.21.03-.1.05-.22.06-.37,0-.03-.06-.01-.13.03,0-.01,0-.01,0-.03.05-.06.11-.09.15-.11.13-.32-.05-.18-.28,0v-.02s-.11.11-.11.11h.01s-.02,0-.02.01h.01s-.3.17-.3.17c-.04.01-.08.01-.11-.02.29-.25.47-.56.38-.53.04.04-.09.19-.26.33l.18-.22-.2.04c0,.06-.14.28-.28.41,0,0,0,0,0,0-.05.01-.09,0-.11-.02,0-.03-.01-.04-.03-.05-.03-.18.21-.63.39-.82l-.7.09c.15-.14.25-.18.36-.23-.38.15.53-.55-.01-.28-.06.09-.18.19-.28.27-.03,0-.05,0-.06-.02.03-.07.04-.13.04-.18.06-.14.13-.29-.09-.22,0,0-.01.01-.02.02-.05-.03-.11-.04-.18-.05l.35-.3c-.14-.31-.63-.32-.88-.58-.06.24-.63.77-.77.76,0,0,.01-.01.02-.02l.45-.5c-.27.2-.19.25-.35.38.08-.11.13-.21.21-.32-.07.08-.11.08-.16.07.1-.09.2-.18.29-.24-.05.06-.1.12-.13.17.04-.04.08-.09.14-.18.05-.04.1-.07.13-.08l-.29.06c.14-.15.25-.21.44-.39-.36.26.3-.7-.3-.23l.14-.15c-.12-.12-.25-.17-.38-.22.17-.18.33-.75.43.24.12-.15.24-.28.36-.4.14.1.31.12.47.15,0,.07-.01.15,0,.26.06-.06.11-.14.16-.21.11.04.22.11.31.25-.06-.17.01-.74.08-.83.1.19.26-.66.25.21l-.03-.02c.07.85.27.63.42.65v-.62c.09,0,.16,0,.23,0,.13.17.27.14.4.06-.02.04,0,.03.02-.01.03-.02.05-.03.08-.05.03,0,.07.02.08-.06.15-.11.28-.18.38.03,0,.03,0,.05,0,.09,0-.01.01-.03.02-.05.03.08.06.2.09.36.1-.28.22-.28.31-.56,0,.03,0,.06-.01.11,0-.02,0-.03.01-.05v.55c.26.16.4.23.73.09l-.07.44c.19.04.24-1.76.41-1.79l.05.91c.33-.01.65.78.98-.04,0,.13-.01.4-.07.43.15.02.59.62.54-.63,0,.81.34.08.51-.28l-.03.6c.15-.77.15-.98.36-1.19.04.07.04.36,0,.36.13.17.11-.58.3-.28l-.07.38c.09.03.13-.03.16-.15l.06.23.04-.5-.07.08c.01-.07.03-.16.05-.25.06-.14.16-.06.24.13,0,.44-.22.04-.14.64.08-.03.16-.1.24-.19,0,.04,0,.07,0,.11,0-.04,0-.08.01-.13.06-.06.12-.14.19-.21,0,.04-.02.09-.02.11.28.41.42-.7.61-.11,0,.2.02.3.03.36-.22-.01-.4-.05-.39-.09,0,.55.18.65.04,1.41.14-.42.39-1.32.57-1.06,0,.05.02.11.02.19l-.02.06c.04.06.08,0,.11-.09.06.09.09.16.15.17.02.46.21.25.3.27,0-.61.11-.51,0-1.01.01.04-.02.07-.08.1-.01.02-.03.03-.04.06,0-.02,0-.04,0-.05-.06.02-.14.03-.22.04.02-.1.05-.19.07-.26.04-.02.08-.05.12-.09.02.03.03.06.05.12,0-.06.02-.13.02-.19.07-.07.13-.15.21-.24.12.52.26.88.29,1.27.25-.31.58-.25.76-1.08.05.03.1.04.15.02,0,.08.01.15.02.2-.05.11-.1.1-.12.26.15-.29.45-.13.5-.87,0,0,0,0,.01-.01.17.35-.11.7.15.57l-.04.24c.53,1.27.87-2.03,1.46-.4-.04-.1-.06-.15-.07-.28.1.11.2.16.3.19l.13.21c-.05-.12-.09-.18-.13-.21,0,0,0,0,0,0l.22.29-.06-.18s0-.05.01-.08c.17,0,.35-.07.53-.13,0,.04,0,.09,0,.15.06.18.15.38.13.57.11-.53.19.41.34-.35,0,.21.12.02.09.55.15-.17-.03-.37-.02-.63.22-.72.53.87.85-.11,0,0,0-.01,0-.02v.22s.15-.53.15-.53c.03-.08.06-.17.09-.26.24-.32.43,1.27.72.79,0,.09-.02.15-.03.18.01,0,.03-.02.04-.03,0-.06,0-.11,0-.16.02-.04.05-.1.07-.17l-.04-.39s0-.03,0-.04c.03.01.07.01.11,0-.02.23-.05.51-.09.7.11-.17.21-.47.32-.68.02.04.03.11.03.22,0-.04.02-.13.03-.21,0,.29-.08.47-.12.68.13-.14.31-.31.39-.73l.11-.21s.03.05.04.08c-.03.28-.04.59-.01.92.04-.29.06-.4.08-.5.01.4-.02.88.2.92.06-.06.15-.29.22-.53v.02s.11-.19.11-.19c.02-.11.02-.29,0-.41ZM38.65,15.01c.02.1-.08.03-.17-.05.01-.03.02-.07.02-.13-.01-.02-.03-.04-.05-.06.08.09.15.17.2.23ZM27.59,8.29c.09.06-.03.08-.16.09-.01-.03-.03-.06-.07-.1-.02,0-.05,0-.07,0,.12,0,.22.01.3.02ZM15.01,11.35c.1-.02.03.08-.05.17-.03-.01-.07-.02-.13-.02-.02.01-.04.03-.06.05.09-.08.17-.15.23-.2ZM8.27,22.64s0,.05,0,.07c0-.12.01-.22.02-.3.06-.09.08.03.09.16-.03.01-.06.03-.1.07ZM11.35,34.99c-.02-.1.08-.03.17.05-.01.03-.02.07-.02.13.01.02.03.04.05.06-.08-.09-.15-.17-.2-.23ZM22.41,41.71c-.09-.06.03-.08.16-.09.01.03.03.06.07.1.02,0,.05,0,.07,0-.12,0-.22-.01-.3-.02ZM34.99,38.65c-.1.02-.03-.08.05-.17.03.01.07.02.13.02.02-.01.04-.03.06-.05-.09.08-.17.15-.23.2ZM41.73,27.36s0-.05,0-.07c0,.12-.01.22-.02.3-.06.09-.08-.03-.09-.16.03-.01.06-.03.1-.07ZM44.48,24.09s-.05.05-.07.09c0-.31.03-.49.07-.64,0,.2,0,.39,0,.55ZM41.29,23.38s.07-.03.09-.03c-.02,0-.05.02-.09.05h0ZM41.07,23.42c.01.21,0,.42-.04.41.02-.14-.07-.26-.12-.44.05.02.1.03.16.02ZM30.81,28.03c0-.17.04-.4.04-.6.04-.02.07-.12.08-.38,0,.02,0,.04,0,.05,0,.41.09.59.2.59.03.04.05.08.08.12-.1.04-.2.07-.4.21ZM19.19,21.97c0,.17-.04.4-.04.6-.04.02-.07.12-.08.38,0-.02,0-.04,0-.05,0-.41-.09-.59-.2-.59-.03-.04-.05-.08-.08-.12.1-.04.2-.07.4-.21ZM30.69,22.29c.3.29.48.35.56.28.05.01.09.02.14.03-.04.1-.09.19-.13.44-.13-.11-.26-.32-.4-.47,0-.05-.04-.13-.21-.32.02.01.03.03.05.04ZM19.31,27.71c-.3-.29-.48-.35-.56-.28-.05-.01-.09-.02-.14-.03.04-.1.09-.19.13-.44.13.11.26.32.4.47,0,.05.04.13.21.32-.02-.01-.03-.03-.05-.04ZM27.11,19.06c.41,0,.59-.09.59-.2.04-.03.08-.05.12-.08.04.1.07.2.21.4-.17,0-.4-.04-.6-.04-.02-.04-.12-.07-.38-.08.02,0,.04,0,.05,0ZM23.83,8.96c-.14-.02-.26.07-.44.12.02-.05.03-.1.02-.16.21-.01.42,0,.41.04ZM23.04,18.75c-.11.13-.32.26-.47.4-.05,0-.13.04-.32.21.01-.02.03-.03.04-.05.29-.3.35-.48.28-.56.01-.05.02-.09.03-.14.1.04.19.09.44.13ZM22.89,30.94c-.41,0-.59.09-.59.2-.04.03-.08.05-.12.08-.04-.1-.07-.2-.21-.4.17,0,.4.04.6.04.02.04.12.07.38.08-.02,0-.04,0-.05,0ZM26.17,41.04c.14.02.26-.07.44-.12-.02.05-.03.1-.02.16-.21.01-.42,0-.41-.04ZM26.96,31.25c.11-.13.32-.26.47-.4.05,0,.13-.04.32-.21-.01.02-.02.03-.04.05-.29.3-.35.48-.28.56-.01.05-.02.09-.03.14-.1-.04-.19-.09-.44-.13ZM42.6,8.69s0-.04.07,0l.19.19c-.07-.04-.17-.11-.26-.19ZM42.89,8.73c.09.15.07.19.01.17l-.08-.27s.06.08.07.1ZM38.14,10.58s0,.07.02.12c-.21-.22-.33-.36-.41-.5.15.14.28.27.39.38ZM35.41,12.24s-.02.05-.03.1c0,0,0,0,0,0,.02-.04.03-.07.04-.09ZM35.25,12.52c.16.14.3.3.26.32-.08-.11-.23-.14-.4-.22.05-.02.09-.05.13-.1ZM25.91,1.02s-.03-.03.05-.05h.26c-.08.02-.2.04-.32.05ZM26.15.84c.17.05.18.08.13.11l-.25-.13c.05,0,.1.01.12.02ZM24.09,5.52s.05.05.09.07c-.31,0-.49-.03-.64-.07.2,0,.39,0,.55,0ZM23.39,8.71h-.01s-.03-.07-.03-.09c0,.02.02.05.05.09ZM8.69,7.4s-.04,0,0-.07l.19-.19c-.04.07-.11.17-.19.26ZM8.73,7.11c.15-.09.19-.07.17-.01l-.27.08s.08-.06.1-.07ZM10.58,11.86s.07,0,.12-.02c-.22.21-.36.33-.5.41.14-.15.27-.28.38-.39ZM12.33,14.63s-.07-.03-.09-.04c.02,0,.05.02.1.03,0,0,0,0,0,0ZM12.62,14.88s-.05-.09-.1-.13c.14-.16.3-.3.32-.26-.11.08-.14.23-.22.4ZM.97,24.04v-.26c.02.08.04.2.05.32-.01.03-.03.03-.05-.05ZM.82,23.98c0-.05.01-.1.02-.12.05-.17.08-.18.11-.13l-.13.25ZM5.52,25.91s.05-.05.07-.09c0,.31-.03.49-.07.64,0-.2,0-.39,0-.55ZM8.71,26.62s-.07.03-.09.03c.02,0,.05-.02.09-.05h0ZM8.93,26.58c-.01-.21,0-.42.04-.41-.02.14.07.26.12.44-.05-.02-.1-.03-.16-.02ZM7.4,41.31s0,.04-.07,0l-.19-.19c.07.04.17.11.26.19ZM7.11,41.27c-.09-.15-.07-.19-.01-.17l.08.27s-.06-.08-.07-.1ZM11.86,39.42s0-.07-.02-.12c.21.22.33.36.41.5-.15-.14-.28-.27-.39-.38ZM14.59,37.76s.02-.05.03-.1c0,0,0,0,0,0-.02.04-.03.07-.04.09ZM14.75,37.48c-.16-.14-.3-.3-.26-.32.08.11.23.14.4.22-.05.02-.09.05-.13.1ZM24.09,48.98s.03.03-.05.05h-.26c.08-.02.2-.04.32-.05ZM23.85,49.16c-.17-.05-.18-.08-.13-.11l.25.13c-.05,0-.1-.01-.12-.02ZM25.91,44.48s-.05-.05-.09-.07c.31,0,.49.03.64.07-.2,0-.39,0-.55,0ZM26.61,41.29h.01s.03.07.03.09c0-.02-.02-.05-.05-.09ZM41.31,42.6s.04,0,0,.07l-.19.19c.04-.07.11-.17.19-.26ZM41.27,42.89c-.15.09-.19.07-.17.01l.27-.08s-.08.06-.1.07ZM39.42,38.14s-.07,0-.12.02c.22-.21.36-.33.5-.41-.14.15-.27.28-.38.39ZM37.67,35.37s.07.03.09.04c-.02,0-.05-.02-.1-.03,0,0,0,0,0,0ZM37.38,35.12s.05.09.1.13c-.14.16-.3.3-.32.26.11-.08.14-.23.22-.4ZM49.03,25.96v.26c-.02-.08-.04-.2-.05-.32.01-.03.03-.03.05.05ZM49.16,26.15c-.05.17-.08.18-.11.13l.13-.25c0,.05-.01.1-.02.12Z"/>
</svg>