<?xml version="1.0" encoding="UTF-8"?>
<svg id="_레이어_1" data-name="레이어_1" xmlns="http://www.w3.org/2000/svg" viewBox="0 0 50 50.3">
  <defs>
    <style>
      .cls-1 {
        fill: #040000;
      }
    </style>
  </defs>
  <path class="cls-1" d="M49.77,26.39c-.94-.18-.17-1.61-.5-2.83.35.09.5-2.28.56-3.52h.17c-1.01-.04-1.06-1.21-1.56-1.94.57-.16.84-.1,1.25.29l-.28-.81c-.36-.08-.61-.27-.92-.71l.76-.1c-.49-1.07-1.74-1.63-2.13-3.04-.59.36-.99,1.92-2.12,1.11.27-.26.75-.69,1.08-.48-.11-.07-.5-.16-.52-.44l.84.07c-.15-.66-.61.06-.85-.36.43-.32.07-.51.44-.73.12.06.1.47.38.5-.26-.51-.46-1.22-.31-1.66-.19.24-.54.47-.86.21-.74-.74.22-.7-.01-1.34-.44.07-.66-.68-1.22-.12-.22-.21,0-.52.06-.76-.63-.13-1.95-1.59-2.04-.56l.07.13s-.05-.02-.09-.03c-1.81-.51-2.44-2.59-4.03-3.37l.16-.21c-1-.37-2-1.2-2.93-1.08-.25-.16-.39-.78-.12-.99-.83-.22-1,0-1.92-.88.96-.08-.1-.5.93.05-.88-.66-1.03-1.18-2.39-.86.61-.53-.59-1.08-1.18-.97.23.21.45.43.66.66-.6-.06-1.09-.22-1.6-.36l.44-.83c-1.09-.75-2.24-.37-3.19-.03-.97.35-1.77.66-2.67-.19-.53.66,1.21.37.73,1.13-.97-.08-2.14-1.24-2.45-1.21-1.43-.32-1.09,1.45-2.49,1.33.23.29.52,1.1-.42,1.56-.94.05-1.4-1.1-.84-1.46.23-.07.35.01.36.12.29-.17.67-.37.23-.65l-.07.34c-.52-.25-1.86.06-1.65-.51-.68.46-.2.57.37.63-1.35-.19-1.96.41-3.35.52.26.1.56.4.36.46-2.02.26-.64.84-1.82,1.45-.89-.12-.22-1.19-1.31-.22-.92.11-.57-.66-.35-1.06-.48.57-1.05.81-1.63.95-.59.13-1.17.18-1.51.4.15-.22.28-.45.45-.66-.28.38-.56.61-.86.84l.72.25c-.4.17-.69.4-.85.19-.07.59.92.62.65,1.57-.6.13-.9,1.34-1.63.9,1.29-.91-.4-.54.03-1.33-.15.17-.34.33-.6.48-.11-.02-.08-.16-.03-.28-1.71.77.15,1.22-.91,2.51-.25-.46-.96-.22-1.04.08.42-.57.83.2.78.9-.91.67-.36,1.11-.68,1.54l.46-.44c.31.43-.03.81-.2,1.5-.11-.03-.14-.11-.15-.19-.1.76-1.62,1.01-1.51,2.12-.49.36-.85-.28-1.23.07.19,1.39-1.1,1.09-.95,2.52.72-.2.58-.29.95.74.03-.71.07-1.43.17-2.16.15.53.3,1.05.49,1.56.15-.6.02-1.38.23-1.71.29.78.17.65.76.54-1.2.51.05,1.74-.82,2.5l-1.54-.4c-1.02,1.36.23,2.79-.36,4.62l.34-.58c.6.33-.06,1.18.16,1.82C.57,23.38.35,23.76,0,24c.38-.01-.11,1.42.95,1.62-.24.28-.49.56-.71.84-.27,1.57,1.52,1.72,1.43,3.15-.6-.4-.94.29-1.4-.68.02.49-.05.94.32.93-.31.32.82,1.3.37,1.8.26.18.82.18.84.73-.1.07-.26.03-.26.03.26-.03.48.8.99.24-.72.85-.49,1.91-.18,2.91.31,1,.7,1.92.29,2.82.56.99,1.3,2.13,1.87,2.98-.17.03-.23.13-.28-.06.34,1.49,1.74-.1,2.19,1.45-.16,1.19-.87-.38-.82.22-.63.63-.26,1.02.28,1.36.53.37,1.19.69,1.29,1.43l-.28-.11c.28,1.06,2.04.86,3.12,1.64,0,0-.14.1-.14.22,1.27-.26,2.89.22,4.16.34-.58.52-.66.15-.66.89.58.09.22-1.09,1.31-.93.23.45.94.96.89,1.71l-1.08-.23c.31,1.06,1.41.35,1.95.58l-.15.4c.88.08,1.35-.15,1.82-.4.47-.26.92-.41,1.81-.41l-.18-.31c.92-1.08.83.62,1.73-.27l.4,1.02c.32-.16.86-.47,1.42-.86.28-.19.57-.37.86-.54.28-.2.54-.37.8-.5-.35.97-1.61,1.68-2.42,2.27.67-.09,2.25-.52,2.41-1.16-.22.17-.48.54-.78.43.59-1.02,1.4-1.67,2.52-2.18.16.49.45.68.82.7.36,0,.8-.2,1.26-.42.94-.44,1.82-1.14,2.71-.83,1.11-1.76,2.9-2.71,4.31-4.32.47-.05.8-.39.95-1,.23.08.25.34.32.5.09-.42.09-.98-.14-1.45.1-.01.21-.05.34-.14-1.01.3.01-1.59-1.29-.98.18.04.27.57.5.88.03.51-.11.55-.03,1.24-1.7-.19.45-.64-.98-1.44.24-.53.38-.7.49-.69l-.12.06c.05-.03.09-.04.13-.06h0c.59-.31,1.18-.62,1.78-.96.54-.1.16.47.26.72-.3.47-.54.97-.39,1.4l.41-.08c-.17-.07-.34-.47-.28-.66.16-.84.89-.4,1.09-.23l-.27.44c1.38.86,1.38-1.48,2.12-2.08l.47,1.09c.05-.46.07-.93.09-1.38.36.05.92.38.68.85.92-.14.16-.74,1.05-.78.12.01.14.07.12.15.09-.25.16-.51.24-.76.08.26.67.43.25.66,1.39-.59.7-2.17,1.67-2.04v.13c.74-1.71-.55-.63-.61-2.26.72.12,1.46.22,2.2.3l-.62-.57c.12-.15.36-.44.61-.22-.15-.88-.37-.07-.64-.67,1.1-.45.71-2.34,1.98-2.06-.47-.52-.76.63-.82-.42,1.42.22.15-1.11.97-1.71.63.43.05,1.12.9.47-1.04-.8.67-1.55.55-2.36ZM28.2,40.71c-.04-.09-.16-.17-.47-.25.11,0-.06.13-.42.32-.07.06-.17.11-.21.17,0-.02,0-.05.01-.08-.36.16-.84.36-1.41.52.37-.49.69-.94,1.45-.79.08-.55.16-1.13.21-1.43.64.38,1.45.38,2.14.38-.37.53-.79.98-1.31,1.16ZM26.98,41.97c-.37.25-.56.15-.66.01.19-.06.4-.17.68-.32,0-.03.01-.07.02-.1.01.15.01.29-.03.41ZM32.76,34.35c.03-.51.6-.34.88-.44.03.31-.12.6-.03.82-.19.27-.4.52-.6.78.02-.41-.05-.81-.25-1.17ZM36.47,41.79c-.08.09-.17.14-.27.16.08-.11.17-.21.24-.33,0,.06.01.1.02.17ZM37.1,25.07l-.08-.08c.53,1.01-.09,2.22-.78,3.19-.69,1-1.4,1.82-1.05,2.87l-.03-.11c.02.63,0,1.27-.03,1.93-.47.7-.25-.67-.9-.31.06.99-.23,1.61-.61,2.15.17-1.07.84-2.85-.09-3.26.65-1.1.78.86.9-.84l.27.27c1.03-1.62.37-3.19-.41-4.46-.78-1.28-1.5-2.28-1.56-4.22,0,.14-.03.24-.11.32-.53-2.06-2.43-3.93-4.81-4.51-1.19-.31-2.45-.28-3.58-.03-1.15.24-2.22.63-3.36,1.11-1.21.68-.83,1.31-.88,2.17-.27-.08-.55-.15-.83-.21,0,.56.09,1.12.21,1.62-.01.94-.61,1.55-1.01,2.52-.4.91-.48,2.22.68,3.06.11-.18.22-.34.36-.51.12.4.52.93.84,1.34.34.4.57.74.3.9.14,0,.6-.2.62.22l-.27.33c.69.29,1.37.5,2.06.59.59.49.4.82.26,1.2-.12.35-.18.82,1.15,1.22.52.05,1.3-.16,1.82-.48.53-.33.81-.68.64-.82-.36,0-.89-.24-.88-.69.24-.05.47-.15.7-.22.03-.62.11-1.26.01-1.84-.11-.6-.32-1.09-.64-1.57-.2.23-.45.45-.75.61-.01-.22-.01-.42,0-.63.16.03.32.09.48.09-.11-.61-.37-.16-.73.06.08-.32.1-.54.06-.71-.35.27-.74.49-1.18.67.24-.43.79-.63.65-1.07-.59.23-.44,1.06-1.11.98.12-.69.54-.89-.07-.86.21-.25.42-.31.61-.31-.5.02-.59-.51-1.24-.36.47-.56-.52-.99.66-1.16-.31,0-.96-.35-.98-.65.69.3.71.09.8-.1.09-.21.26-.45.92-.06-.55-.38-.48-.72-.31-1.04.18-.32.49-.55.61-1.03.02.11.05.31-.02.29.38-.11.63.22.87.37-.35-.99.13-1.42.48-2.05.28.49.15.81.08,1.11-.09.32-.14.61-.06,1.1-.12-.86.46-.85.48-1.54.16.67.2.35.06,1.23.51-1.22.29-.13.91-.71.09.84-.6,1.06.05,1.08-.11.45-.72.51-.7.54.28.27.81-.58,1.28-.92.76.41-.3.76-.54,1.25.45.15,1.46.05,1.61.47-.13.1-.15.19-.38.2.48.09.67.51.84.95.17.44.33.92.88,1.23-.08.07-.15.11-.23.14.47-.2.96-.3,1.32-.33.08.41.72.74.09.96,0-.27-.27-.26-.48-.36.11.13.22.27.32.41-.9.45-.37-.57-1.06-.48.4.72,1.17,1.75.84,2.39-.89.04-.23-1.48-1.07-.7.12-.3.25-.61.34-.93-1.4.74.07-.53-1.43.15-.25,1.05.46,1.25,0,2.28.43.35.75.07,1.18.44.24.97-.47,1.14-1.05,1.17-.61.04-1.1-.03-.82.73.39.52,1.3,1.31.26,1.66-.2-.29-.42-.57-.65-.85-.69.67.75,1.47-.57,1.74-.1-.44.38-.8.18-.79-1.04-.15.06.77-.42,1.12l-.62-.68c-.73.69-1.67,1.83-2.99,2.13.05-.28.21-.59-.1-.83-.7.31-1.53.22-2.15-.14-.61-.34-1.1-.98-1.39-1.53-.28.09-.57.17-.89.24-.09-.09.1-.4.29-.42-.12-.59-.38.32-.78.33-.26-.22.07-.61.38-.61-.56-.13-1.29-.58-1.81-1.28-.53-.67-.78-1.59-.56-2.31l.3.18c.05-1.01-1.87-.75-1.33-1.89l.17.16c-.09-2.31-.85-5,.39-6.84-.56-.19-.42-.77-.31-1.3.11-.53.19-.99-.58-1.18.49-.56.8-.69,1.09-.88.29-.17.56-.43,1.05-.87.19-.24-.66-.88-.52-1.39l.67.48c-.12-.32-.22-.66-.28-1.02.32.13.64.28.94.45.05-.14.1-.29.17-.44-.16.07-.52-.03-.67-.21.29-.82,1.81-.65,2.01-.26.37-.49.82-.96,1.32-1.4.08.33-.17.53-.29.83.57-1.14.46.74,1-.28-.17-.14-.09-.49-.12-.65.58.31,1.52.11,2.26-.18l-.07.58c1.28-.02,2.78-.39,4.25,0-.45-.38-.15-1.33.36-1.3l-.04.89c.44-.44-.4-.44.39-.92.58.28.08,1.07-.3,1.25.24-.02.5-.07.75-.08-.05.26-.25.33-.39.63.21-.21.42.1.62.36.2.28.42.49.8.17l-.09.25c1.21.66,1.9.84,2.79,1.66.55-.51.78-.05,1.49-.14.46.92.54,2.1,1.07,3.06.66.57.67-.05,1.24.11-.59.33-.16,1.36-.82.98.28.6.41,1.01.6,1.45.18.45.42.91.73,1.78.27-.2.39-.44.63-.34.12.34-.26.78-.59.73ZM23.83,37.34c-.08.02-.19.05-.39.1,0,0,0-.01,0-.01.16-.04.3-.07.39-.09ZM21.85,37.44c.19.06.43.08.69.08.05.26-.02.53-.19.51.1-.17-.29-.33-.49-.59ZM38.75,39.47c-.25-.14-.25-.39-.21-.64.2-.12.36-.07.53-.04-.09.24-.19.47-.32.68ZM47.96,23.68c-.21-.32-.19-.77-.42-1.07-.81.74-.61.79-.75,1.31l.02-.05c-.15.39-.28.77-.46,1.14l.26-.27c.88.51.93,1.01.84,1.51-.07.51-.26,1.01.17,1.78-.83-1.47-.6-.35-1.36-.65-.3.24-.66.6-.85.41.47.72-.74.68-.12,1.73-.25-.06-.24.54-.8.17-.1.72.49.03.77.2.19.69-.34,1.19-.88,1.71-.56.52-1.09,1.06-1.06,2.08-.42,1.44.1,2.22-.51,3.57-.62.07-.46-.92-.46-.92-.78.31-1.1.75-1.39,1.45-.06-.26-.3-.29-.66-.36-.34.43.39.95-.42,1.17-.09-.27-.25-.64-.29-1,.07-.1.14-.2.24-.3.04.03.07.06.11.07-.11-.16-.13-.27-.09-.37-.05.06-.09.12-.12.18.03.04.06.08.09.11-.07.03-.14.06-.2.1.04-.07.07-.14.12-.2-.03-.04-.05-.07-.08-.11-.05.1-.07.21-.07.33-.3.14-.6.29-.9.42.13-2.02,2.01-.74,2.08-2.87l.14.52c-.12.08-.23.17-.28.3l.13.18c-.05-.13.06-.21.21-.28v.05s.03-.05.03-.07c.34-.14.9-.22.8-.59-.15.13-.46.19-.73.32.34-1.14,1.31-3.27.4-4.48.23-.11.73-.23.72.24.45-1.16.4-2.61.27-3.95-.12-1.35-.35-2.55-.03-3.56l.42.16c-.17-.48-.82-.75-.53-1.39.17,0,.43.13.41-.1-.17-.25-.92-1.11-.87-1.76.2.13.39.26.58.41-.07-1.3-.67-2.16-1.38-2.82-.71-.67-1.51-1.16-2.15-1.9,1.03-.62.21-2.48-.36-3.35l.15-.09c-.96-1.18-2.14-1.85-3.33-2.3-1.2-.45-2.43-.69-3.71-.98-.5-.9-1.84-1.51-3.35-1.84-1.52-.34-3.19-.41-4.59-.66.43.19-.01.91-.45,1.08-.66-.18-1.52,1.05-1.63-.02l.22-.02c-.66-.99-1.94-.38-2.93-.06l.32,1.39c-1.56-.54-3.17.44-4.34,1.62-1.22,1.18-1.96,2.48-3.19,2.69-.12.82-.53,1.62-.44,2.39l-.69-.31c-.86,1.8-1.12,2.79-1.13,4.91l-.51-.48c-.15,1.22,2.1,1.59,2.12,2.56l-1.14.28c0,1.84-.91,3.92.37,5.74-.17,0-.5-.02-.59-.34.02.9-.09,3.82,1.36,3.11-1.02.26.46,2.11,1.33,2.93l-.76.13c1.28.51,1.49.41,2.37,1.4.07.27-.27.49-.38.23.12.42.38.49.63.58.28.09.54.19.81.8l-.68-.07c.69.89.82.68,1.65.68.65.26,1.45,1.4,1.29,2.06.37-.28,1.11-.45,1.62-.03-.02.27-.3.32-.45.34.79.63,1.59.62,2.23.55.66-.06,1.17-.17,1.8.21.02.25.11.38.22.45-1.55-.01-2.77-.43-2.63-.44-.2.66,1.16,1.07-.14,1.77.64-.12,1.46-.41,2.21-.69.77-.26,1.47-.52,2.09-.44.07.06.14.12.2.22l-.12.09c.3.04.55-.08.76-.24.41.04.68.05,1.05-.04.25.43,1.09.05,1.72-.25-1.08,1.29-2.59,1.98-4.18,2.19-1.64.22-3.3-.04-4.82-.36-.56-.09-.79.49-1.07.94-.27.44-.64.8-1.29.05.21-.25.41-.5.61-.76-1.28.26-2.52-.16-3.61-.74-1.09-.62-2.01-1.33-3.18-1.8.25-.05.43-.25.6-.1.02-.38-.26-.7-.61-.88-.37-.17-.79-.25-.99-.1-.17-.33.32-.36.41-.69.04-.55-1.38-.54-.96-1.12.05-.06.14-.03.22,0-.36-.27-.56-1.25-1.04-.71-.07-.96-1-1.54-.8-2.42-.96-.26-.03-1.7-1.2-1.62,1.18-.18.64-1.88.02-2.48.39.17.31-.6.85-.4-.09-.72-.36-1.38-.98-1.21,1.35-1.44-1.28-2.8.59-3.58-.61-2.2-.83-4.33-.69-6.36,1.14.3-.27,2.2,1.01,2.3-.23-1.87-1-3.2-.17-4.91.31-.4.41.42.56.62.06-1.92,1.29-3.2,1.53-4.85.09.06.11.27.11.46.12-.28.51-.52.03-.79l-.03.34c-.46,0-.68-.48-.77-1.02-.08-.53-.05-1.12-.2-1.27.47.71.79.41,1.13.21.36-.19.71-.28,1.21.66.04-.21,0-.57-.3-.78.28-.16.49-.08.62.42.47-.99-.16-1.1.56-1.81.17.2.1.42.24.72-.02-.72.1-1.44.92-1.77.05.16.25.28.03.41.58-.4.9-1.05,1.38-1.58.47-.53,1.07-1,1.98-1.03-.11,1.25.67.18,1.04,1.13.25-.18.52-.35.79-.52l-.48-.38c.78-.19,1.35-1.06,2.13-.87l-.53.53,1.51-.48-.95-.21c.76-.66-.32-1.23.86-1.16-.22.14.86-.13,1.4.39h0c.37-.37.77-.77,1.43-.6.2.3,0,1.12.13,1.32.32-.89,1.9-.42,2.38-1.32-.17.22-.15.74-.09.85l.32-.69c.39.21.45.31.39.73,1.13.13-.36-1.28,1-.71-.11.05-.06.15-.29.25,1.32.32,2.68-.23,3.81.42.08,1.05-1.07,0-.87.92.81.09,1.69.04,2.61.18.91.13,1.82.42,2.5,1l-.22-.27c.99-1.06.73,1.3,1.82,1.29-.24-.05-.7.47-.56.37.83.89,2.23,1.26,3.99,2.12l-.41.13c.36.72,1.36,1.38,1.81,2.03.42-.12.7.24.87-.34.16,1.59,1.08,2.16,2.01,2.81.91.62,1.83,1.39,1.5,2.68-.11-.21-.53-.35-.45-.18.35.43.68.89.98,1.37.54-.35.28-.34.58-.86.44.06.89.46,1.03.9-.67-.66-.93.33-1.18.73.17-.11.4-.05.58-.14-.84,1.17,1.28-.17.82,1.3h-.33c.26.43.74.84.69,1.39-.69.28-.38-.49-.98-.45.13.67,1.47,1.37.75,2.06Z"/>
</svg>